G75*
G70*
%OFA0B0*%
%FSLAX24Y24*%
%IPPOS*%
%LPD*%
%AMOC8*
5,1,8,0,0,1.08239X$1,22.5*
%
%ADD10C,0.0060*%
%ADD11C,0.0030*%
%ADD12C,0.0040*%
%ADD13C,0.0080*%
%ADD14C,0.0050*%
%ADD15C,0.0010*%
%ADD16C,0.0020*%
%ADD17R,0.0200X0.0100*%
%ADD18R,0.0150X0.0050*%
%ADD19R,0.0100X0.0100*%
D10*
X013764Y007601D02*
X013764Y007837D01*
X014236Y007837D02*
X014236Y007601D01*
X014620Y007596D02*
X014620Y007832D01*
X015092Y007832D02*
X015092Y007596D01*
X018982Y006599D02*
X019218Y006599D01*
X019218Y006127D02*
X018982Y006127D01*
X021390Y005149D02*
X022810Y005149D01*
X022810Y003289D02*
X021390Y003289D01*
X017057Y003669D02*
X016630Y003669D01*
X016844Y003456D02*
X016844Y003883D01*
X025453Y007367D02*
X025453Y009670D01*
X029547Y009670D01*
X029547Y007367D01*
X025453Y007367D01*
X025656Y007751D02*
X025658Y007777D01*
X025664Y007803D01*
X025673Y007828D01*
X025686Y007851D01*
X025702Y007872D01*
X025721Y007890D01*
X025743Y007906D01*
X025766Y007918D01*
X025791Y007926D01*
X025817Y007931D01*
X025844Y007932D01*
X025870Y007929D01*
X025895Y007922D01*
X025920Y007912D01*
X025942Y007898D01*
X025963Y007881D01*
X025980Y007862D01*
X025995Y007840D01*
X026006Y007816D01*
X026014Y007790D01*
X026018Y007764D01*
X026018Y007738D01*
X026014Y007712D01*
X026006Y007686D01*
X025995Y007662D01*
X025980Y007640D01*
X025963Y007621D01*
X025942Y007604D01*
X025920Y007590D01*
X025895Y007580D01*
X025870Y007573D01*
X025844Y007570D01*
X025817Y007571D01*
X025791Y007576D01*
X025766Y007584D01*
X025743Y007596D01*
X025721Y007612D01*
X025702Y007630D01*
X025686Y007651D01*
X025673Y007674D01*
X025664Y007699D01*
X025658Y007725D01*
X025656Y007751D01*
X030380Y005509D02*
X030380Y005273D01*
X030853Y005273D02*
X030853Y005509D01*
X031188Y005496D02*
X031188Y005259D01*
X031661Y005259D02*
X031661Y005496D01*
X036274Y008561D02*
X036274Y008797D01*
X036746Y008797D02*
X036746Y008561D01*
X028618Y011683D02*
X028382Y011683D01*
X028382Y012155D02*
X028618Y012155D01*
X027286Y012126D02*
X027050Y012126D01*
X027050Y011653D02*
X027286Y011653D01*
X025536Y011801D02*
X025536Y012037D01*
X025064Y012037D02*
X025064Y011801D01*
X024136Y011801D02*
X024136Y012037D01*
X023664Y012037D02*
X023664Y011801D01*
X017055Y014827D02*
X016715Y014827D01*
X016065Y014827D01*
X009065Y014827D01*
X008415Y014827D01*
X008415Y015347D01*
X008065Y015347D01*
X008065Y014827D01*
X008415Y014827D01*
X008065Y015347D02*
X008065Y015947D01*
X008065Y016447D01*
X008065Y017047D01*
X008415Y017047D01*
X008415Y017577D01*
X008065Y017577D01*
X008065Y017047D01*
X008065Y016447D02*
X008415Y016447D01*
X008415Y015947D01*
X008065Y015947D01*
X008645Y015838D02*
X008825Y016018D01*
X008825Y015477D01*
X008645Y015477D02*
X009006Y015477D01*
X009395Y015277D02*
X009565Y014947D01*
X009565Y015047D01*
X009565Y014947D02*
X009735Y015277D01*
X009395Y015277D01*
X009065Y017577D02*
X008415Y017577D01*
X008794Y017667D02*
X009088Y017667D01*
X009065Y017577D02*
X016065Y017577D01*
X016715Y017577D01*
X016715Y017047D01*
X017055Y017047D01*
X017055Y016447D01*
X017055Y015947D01*
X016715Y015947D01*
X016715Y016447D01*
X017055Y016447D01*
X017055Y015947D02*
X017055Y015347D01*
X016715Y015347D01*
X016715Y014827D01*
X017055Y014827D02*
X017055Y015347D01*
X017055Y017047D02*
X017055Y017577D01*
X016715Y017577D01*
X011390Y017667D02*
X011390Y018108D01*
X011096Y018108D02*
X011390Y017667D01*
X011096Y017667D02*
X011096Y018108D01*
X010929Y018034D02*
X010856Y018108D01*
X010709Y018108D01*
X010636Y018034D01*
X010636Y017741D01*
X010709Y017667D01*
X010856Y017667D01*
X010929Y017741D01*
X010929Y018034D01*
X010469Y018034D02*
X010396Y018108D01*
X010249Y018108D01*
X010175Y018034D01*
X010175Y017741D01*
X010249Y017667D01*
X010396Y017667D01*
X010469Y017741D01*
X010009Y017741D02*
X009935Y017667D01*
X009715Y017667D01*
X009715Y018108D01*
X009935Y018108D01*
X010009Y018034D01*
X010009Y017741D01*
X009548Y017741D02*
X009475Y017667D01*
X009328Y017667D01*
X009255Y017741D01*
X009255Y018034D01*
X009328Y018108D01*
X009475Y018108D01*
X009548Y018034D01*
X008794Y018108D02*
X008794Y017667D01*
X012420Y012899D02*
X015180Y012899D01*
X015180Y010279D01*
X015040Y010139D01*
X012420Y010139D01*
X012420Y012899D01*
X009336Y011237D02*
X009336Y011001D01*
X008864Y011001D02*
X008864Y011237D01*
X008486Y011237D02*
X008486Y011001D01*
X008014Y011001D02*
X008014Y011237D01*
X014739Y010439D02*
X014741Y010462D01*
X014747Y010485D01*
X014756Y010506D01*
X014769Y010526D01*
X014785Y010543D01*
X014803Y010557D01*
X014823Y010568D01*
X014845Y010576D01*
X014868Y010580D01*
X014892Y010580D01*
X014915Y010576D01*
X014937Y010568D01*
X014957Y010557D01*
X014975Y010543D01*
X014991Y010526D01*
X015004Y010506D01*
X015013Y010485D01*
X015019Y010462D01*
X015021Y010439D01*
X015019Y010416D01*
X015013Y010393D01*
X015004Y010372D01*
X014991Y010352D01*
X014975Y010335D01*
X014957Y010321D01*
X014937Y010310D01*
X014915Y010302D01*
X014892Y010298D01*
X014868Y010298D01*
X014845Y010302D01*
X014823Y010310D01*
X014803Y010321D01*
X014785Y010335D01*
X014769Y010352D01*
X014756Y010372D01*
X014747Y010393D01*
X014741Y010416D01*
X014739Y010439D01*
X025682Y016583D02*
X025918Y016583D01*
X025918Y017055D02*
X025682Y017055D01*
X032530Y014389D02*
X032530Y013749D01*
X032850Y013749D01*
X032957Y013856D01*
X032957Y013962D01*
X032850Y014069D01*
X032530Y014069D01*
X032850Y014069D02*
X032957Y014176D01*
X032957Y014283D01*
X032850Y014389D01*
X032530Y014389D01*
X033175Y014176D02*
X033175Y013856D01*
X033281Y013749D01*
X033602Y013749D01*
X033602Y014176D01*
X033819Y014176D02*
X034246Y014176D01*
X033819Y013749D01*
X034246Y013749D01*
X034464Y013749D02*
X034891Y013749D01*
X035108Y013856D02*
X035215Y013749D01*
X035428Y013749D01*
X035535Y013962D02*
X035108Y013962D01*
X035108Y013856D02*
X035108Y014069D01*
X035215Y014176D01*
X035428Y014176D01*
X035535Y014069D01*
X035535Y013962D01*
X035753Y013962D02*
X035966Y014176D01*
X036073Y014176D01*
X035753Y014176D02*
X035753Y013749D01*
X034891Y014176D02*
X034464Y013749D01*
X034464Y014176D02*
X034891Y014176D01*
D11*
X028703Y012501D02*
X028703Y012307D01*
X028655Y012259D01*
X028558Y012259D01*
X028510Y012307D01*
X028408Y012307D02*
X028360Y012259D01*
X028263Y012259D01*
X028215Y012307D01*
X028215Y012501D01*
X028263Y012549D01*
X028360Y012549D01*
X028408Y012501D01*
X028510Y012501D02*
X028510Y012452D01*
X028558Y012404D01*
X028703Y012404D01*
X028703Y012501D02*
X028655Y012549D01*
X028558Y012549D01*
X028510Y012501D01*
X027431Y012309D02*
X027238Y012309D01*
X027335Y012309D02*
X027335Y012600D01*
X027238Y012503D01*
X027137Y012551D02*
X027088Y012600D01*
X026992Y012600D01*
X026943Y012551D01*
X026943Y012358D01*
X026992Y012309D01*
X027088Y012309D01*
X027137Y012358D01*
X024991Y012113D02*
X024991Y012017D01*
X024943Y011968D01*
X024894Y011968D01*
X024846Y012017D01*
X024846Y012113D01*
X024894Y012162D01*
X024943Y012162D01*
X024991Y012113D01*
X024846Y012113D02*
X024798Y012162D01*
X024749Y012162D01*
X024701Y012113D01*
X024701Y012017D01*
X024749Y011968D01*
X024798Y011968D01*
X024846Y012017D01*
X024943Y011867D02*
X024991Y011819D01*
X024991Y011722D01*
X024943Y011673D01*
X024749Y011673D01*
X024701Y011722D01*
X024701Y011819D01*
X024749Y011867D01*
X023560Y011928D02*
X023512Y011928D01*
X023318Y012122D01*
X023270Y012122D01*
X023270Y011928D01*
X023318Y011827D02*
X023270Y011779D01*
X023270Y011682D01*
X023318Y011634D01*
X023512Y011634D01*
X023560Y011682D01*
X023560Y011779D01*
X023512Y011827D01*
X027315Y009424D02*
X027315Y009182D01*
X027363Y009134D01*
X027460Y009134D01*
X027508Y009182D01*
X027508Y009424D01*
X027610Y009327D02*
X027706Y009424D01*
X027706Y009134D01*
X027610Y009134D02*
X027803Y009134D01*
X032015Y009334D02*
X032015Y009624D01*
X032160Y009624D01*
X032208Y009576D01*
X032208Y009479D01*
X032160Y009431D01*
X032015Y009431D01*
X032112Y009431D02*
X032208Y009334D01*
X032310Y009479D02*
X032503Y009479D01*
X032455Y009624D02*
X032310Y009479D01*
X032455Y009334D02*
X032455Y009624D01*
X035880Y008834D02*
X035880Y008737D01*
X035928Y008688D01*
X035928Y008587D02*
X036025Y008587D01*
X036073Y008539D01*
X036073Y008394D01*
X036073Y008491D02*
X036170Y008587D01*
X036170Y008688D02*
X035977Y008882D01*
X035928Y008882D01*
X035880Y008834D01*
X035928Y008587D02*
X035880Y008539D01*
X035880Y008394D01*
X036170Y008394D01*
X036170Y008688D02*
X036170Y008882D01*
X036865Y009305D02*
X037155Y009305D01*
X037155Y009499D01*
X037155Y009600D02*
X037155Y009793D01*
X037155Y009894D02*
X036865Y009894D01*
X036865Y010040D01*
X036913Y010088D01*
X037107Y010088D01*
X037155Y010040D01*
X037155Y009894D01*
X037010Y009697D02*
X037010Y009600D01*
X036865Y009600D02*
X037155Y009600D01*
X036865Y009600D02*
X036865Y009793D01*
X036913Y010189D02*
X036865Y010238D01*
X036865Y010334D01*
X036913Y010383D01*
X036962Y010383D01*
X037155Y010189D01*
X037155Y010383D01*
X030276Y005346D02*
X030228Y005394D01*
X030180Y005394D01*
X030131Y005346D01*
X030131Y005200D01*
X030228Y005200D01*
X030276Y005249D01*
X030276Y005346D01*
X030131Y005200D02*
X030034Y005297D01*
X029986Y005394D01*
X030034Y005099D02*
X029986Y005051D01*
X029986Y004954D01*
X030034Y004906D01*
X030228Y004906D01*
X030276Y004954D01*
X030276Y005051D01*
X030228Y005099D01*
X031269Y004756D02*
X031269Y004562D01*
X031560Y004562D01*
X031560Y004756D01*
X031415Y004659D02*
X031415Y004562D01*
X031269Y004461D02*
X031269Y004268D01*
X031269Y004364D02*
X031560Y004364D01*
X031560Y004168D02*
X031560Y004071D01*
X031560Y004120D02*
X031269Y004120D01*
X031269Y004168D02*
X031269Y004071D01*
X031318Y003970D02*
X031415Y003970D01*
X031463Y003922D01*
X031463Y003777D01*
X031463Y003873D02*
X031560Y003970D01*
X031560Y003777D02*
X031269Y003777D01*
X031269Y003922D01*
X031318Y003970D01*
X031318Y003675D02*
X031415Y003675D01*
X031463Y003627D01*
X031463Y003482D01*
X031463Y003579D02*
X031560Y003675D01*
X031560Y003482D02*
X031269Y003482D01*
X031269Y003627D01*
X031318Y003675D01*
X031269Y003381D02*
X031269Y003187D01*
X031560Y003187D01*
X031560Y003381D01*
X031415Y003284D02*
X031415Y003187D01*
X031269Y003086D02*
X031269Y002893D01*
X031560Y002893D01*
X031415Y002893D02*
X031415Y002989D01*
X028382Y002776D02*
X028382Y002582D01*
X028333Y002534D01*
X028188Y002534D01*
X028188Y002824D01*
X028333Y002824D01*
X028382Y002776D01*
X028087Y002824D02*
X028087Y002534D01*
X027894Y002534D02*
X027894Y002824D01*
X027990Y002727D01*
X028087Y002824D01*
X027792Y002776D02*
X027744Y002824D01*
X027647Y002824D01*
X027599Y002776D01*
X027599Y002727D01*
X027647Y002679D01*
X027744Y002679D01*
X027792Y002631D01*
X027792Y002582D01*
X027744Y002534D01*
X027647Y002534D01*
X027599Y002582D01*
X027498Y002582D02*
X027449Y002534D01*
X027304Y002534D01*
X027304Y002824D01*
X027449Y002824D01*
X027498Y002776D01*
X027498Y002727D01*
X027449Y002679D01*
X027304Y002679D01*
X027203Y002631D02*
X027203Y002582D01*
X027155Y002534D01*
X027058Y002534D01*
X027010Y002582D01*
X026908Y002582D02*
X026908Y002824D01*
X027010Y002776D02*
X027010Y002727D01*
X027058Y002679D01*
X027155Y002679D01*
X027203Y002631D01*
X027203Y002776D02*
X027155Y002824D01*
X027058Y002824D01*
X027010Y002776D01*
X026908Y002582D02*
X026860Y002534D01*
X026763Y002534D01*
X026715Y002582D01*
X026715Y002824D01*
X027449Y002679D02*
X027498Y002631D01*
X027498Y002582D01*
X019303Y006703D02*
X019110Y006703D01*
X019303Y006897D01*
X019303Y006945D01*
X019255Y006993D01*
X019158Y006993D01*
X019110Y006945D01*
X019008Y006703D02*
X018815Y006703D01*
X018815Y006993D01*
X021795Y007982D02*
X021843Y007934D01*
X022037Y007934D01*
X022085Y007982D01*
X022085Y008079D01*
X022037Y008127D01*
X022037Y008228D02*
X022085Y008277D01*
X022085Y008374D01*
X022037Y008422D01*
X021940Y008422D01*
X021892Y008374D01*
X021892Y008325D01*
X021940Y008228D01*
X021795Y008228D01*
X021795Y008422D01*
X021843Y008127D02*
X021795Y008079D01*
X021795Y007982D01*
X022795Y008031D02*
X023085Y008031D01*
X023085Y008127D02*
X023085Y007934D01*
X022892Y007934D02*
X022795Y008031D01*
X022843Y008228D02*
X022795Y008277D01*
X022795Y008374D01*
X022843Y008422D01*
X022892Y008422D01*
X023085Y008228D01*
X023085Y008422D01*
X023037Y008523D02*
X022843Y008717D01*
X023037Y008717D01*
X023085Y008668D01*
X023085Y008571D01*
X023037Y008523D01*
X022843Y008523D01*
X022795Y008571D01*
X022795Y008668D01*
X022843Y008717D01*
X022892Y008818D02*
X023037Y008818D01*
X023085Y008866D01*
X023085Y009011D01*
X022892Y009011D01*
X022940Y009112D02*
X022940Y009209D01*
X022843Y009161D02*
X022795Y009209D01*
X022843Y009161D02*
X023085Y009161D01*
X016785Y012131D02*
X016640Y012131D01*
X016543Y012227D01*
X016495Y012227D01*
X016592Y012328D02*
X016495Y012425D01*
X016785Y012425D01*
X016785Y012328D02*
X016785Y012522D01*
X016640Y012131D02*
X016543Y012034D01*
X016495Y012034D01*
X015064Y012462D02*
X015015Y012414D01*
X014919Y012414D01*
X014870Y012462D01*
X014870Y012511D01*
X014919Y012559D01*
X015015Y012559D01*
X015064Y012511D01*
X015064Y012462D01*
X015015Y012559D02*
X015064Y012607D01*
X015064Y012656D01*
X015015Y012704D01*
X014919Y012704D01*
X014870Y012656D01*
X014870Y012607D01*
X014919Y012559D01*
X014769Y012704D02*
X014576Y012414D01*
X014475Y012414D02*
X014281Y012704D01*
X014180Y012607D02*
X014083Y012704D01*
X013986Y012607D01*
X013986Y012414D01*
X013885Y012462D02*
X013837Y012414D01*
X013740Y012414D01*
X013692Y012462D01*
X013692Y012656D01*
X013740Y012704D01*
X013837Y012704D01*
X013885Y012656D01*
X013885Y012559D02*
X013788Y012559D01*
X013885Y012559D02*
X013885Y012462D01*
X013986Y012559D02*
X014180Y012559D01*
X014180Y012607D02*
X014180Y012414D01*
X014281Y012414D02*
X014475Y012704D01*
X014576Y012704D02*
X014769Y012414D01*
X013591Y012414D02*
X013397Y012414D01*
X013397Y012704D01*
X013591Y012704D01*
X013494Y012559D02*
X013397Y012559D01*
X013296Y012704D02*
X013296Y012414D01*
X013102Y012414D02*
X013102Y012704D01*
X013199Y012607D01*
X013296Y012704D01*
X013001Y012704D02*
X012808Y012704D01*
X012905Y012704D02*
X012905Y012414D01*
X012707Y012414D02*
X012707Y012607D01*
X012610Y012704D01*
X012513Y012607D01*
X012513Y012414D01*
X012513Y012559D02*
X012707Y012559D01*
X009761Y011357D02*
X009761Y011261D01*
X009713Y011212D01*
X009713Y011111D02*
X009761Y011063D01*
X009761Y010966D01*
X009713Y010917D01*
X009519Y010917D01*
X009471Y010966D01*
X009471Y011063D01*
X009519Y011111D01*
X009519Y011212D02*
X009471Y011261D01*
X009471Y011357D01*
X009519Y011406D01*
X009568Y011406D01*
X009616Y011357D01*
X009664Y011406D01*
X009713Y011406D01*
X009761Y011357D01*
X009616Y011357D02*
X009616Y011309D01*
X008328Y010436D02*
X008328Y010242D01*
X008328Y010339D02*
X008038Y010339D01*
X008135Y010242D01*
X008328Y010141D02*
X008328Y009948D01*
X008038Y009948D01*
X005291Y009893D02*
X005098Y009893D01*
X005098Y009748D01*
X005194Y009796D01*
X005243Y009796D01*
X005291Y009748D01*
X005291Y009651D01*
X005243Y009603D01*
X005146Y009603D01*
X005098Y009651D01*
X004996Y009603D02*
X004996Y009796D01*
X004900Y009893D01*
X004803Y009796D01*
X004803Y009603D01*
X004803Y009748D02*
X004996Y009748D01*
X004996Y010503D02*
X004996Y010696D01*
X004900Y010793D01*
X004803Y010696D01*
X004803Y010503D01*
X004803Y010648D02*
X004996Y010648D01*
X005098Y010648D02*
X005291Y010648D01*
X005243Y010793D02*
X005098Y010648D01*
X005243Y010503D02*
X005243Y010793D01*
X005243Y011503D02*
X005146Y011503D01*
X005098Y011551D01*
X004996Y011503D02*
X004996Y011696D01*
X004900Y011793D01*
X004803Y011696D01*
X004803Y011503D01*
X004803Y011648D02*
X004996Y011648D01*
X005098Y011745D02*
X005146Y011793D01*
X005243Y011793D01*
X005291Y011745D01*
X005291Y011696D01*
X005243Y011648D01*
X005291Y011600D01*
X005291Y011551D01*
X005243Y011503D01*
X005243Y011648D02*
X005194Y011648D01*
X005098Y012503D02*
X005291Y012696D01*
X005291Y012745D01*
X005243Y012793D01*
X005146Y012793D01*
X005098Y012745D01*
X004996Y012696D02*
X004996Y012503D01*
X005098Y012503D02*
X005291Y012503D01*
X004996Y012648D02*
X004803Y012648D01*
X004803Y012696D02*
X004803Y012503D01*
X004803Y012696D02*
X004900Y012793D01*
X004996Y012696D01*
X004996Y013603D02*
X004996Y013796D01*
X004900Y013893D01*
X004803Y013796D01*
X004803Y013603D01*
X004803Y013748D02*
X004996Y013748D01*
X005098Y013796D02*
X005194Y013893D01*
X005194Y013603D01*
X005098Y013603D02*
X005291Y013603D01*
X005294Y014503D02*
X005391Y014696D01*
X005198Y014696D02*
X005294Y014503D01*
X005096Y014551D02*
X005048Y014503D01*
X004951Y014503D01*
X004903Y014551D01*
X004903Y014648D02*
X005000Y014696D01*
X005048Y014696D01*
X005096Y014648D01*
X005096Y014551D01*
X004903Y014648D02*
X004903Y014793D01*
X005096Y014793D01*
X005098Y015503D02*
X005098Y015793D01*
X005291Y015503D01*
X005291Y015793D01*
X005392Y015793D02*
X005392Y015503D01*
X005537Y015503D01*
X005586Y015551D01*
X005586Y015745D01*
X005537Y015793D01*
X005392Y015793D01*
X004996Y015745D02*
X004948Y015793D01*
X004851Y015793D01*
X004803Y015745D01*
X004803Y015551D01*
X004851Y015503D01*
X004948Y015503D01*
X004996Y015551D01*
X004996Y015648D01*
X004900Y015648D01*
X004900Y008893D02*
X004996Y008796D01*
X004996Y008603D01*
X005098Y008651D02*
X005146Y008603D01*
X005243Y008603D01*
X005291Y008651D01*
X005291Y008700D01*
X005243Y008748D01*
X005098Y008748D01*
X005098Y008651D01*
X005098Y008748D02*
X005194Y008845D01*
X005291Y008893D01*
X004996Y008748D02*
X004803Y008748D01*
X004803Y008796D02*
X004900Y008893D01*
X004803Y008796D02*
X004803Y008603D01*
X004900Y007893D02*
X004996Y007796D01*
X004996Y007603D01*
X005098Y007603D02*
X005098Y007651D01*
X005291Y007845D01*
X005291Y007893D01*
X005098Y007893D01*
X004996Y007748D02*
X004803Y007748D01*
X004803Y007796D02*
X004900Y007893D01*
X004803Y007796D02*
X004803Y007603D01*
X004803Y006793D02*
X004948Y006793D01*
X004996Y006745D01*
X004996Y006551D01*
X004948Y006503D01*
X004803Y006503D01*
X004803Y006793D01*
X005098Y006745D02*
X005098Y006551D01*
X005291Y006745D01*
X005291Y006551D01*
X005243Y006503D01*
X005146Y006503D01*
X005098Y006551D01*
X005098Y006745D02*
X005146Y006793D01*
X005243Y006793D01*
X005291Y006745D01*
X005392Y006503D02*
X005586Y006793D01*
X005687Y006793D02*
X005687Y006503D01*
X005687Y006600D02*
X005832Y006600D01*
X005880Y006648D01*
X005880Y006745D01*
X005832Y006793D01*
X005687Y006793D01*
X005784Y006600D02*
X005880Y006503D01*
X005982Y006503D02*
X006175Y006793D01*
X005982Y006793D02*
X006175Y006503D01*
X006175Y005793D02*
X005982Y005503D01*
X006175Y005503D02*
X005982Y005793D01*
X005880Y005793D02*
X005687Y005793D01*
X005784Y005793D02*
X005784Y005503D01*
X005586Y005793D02*
X005392Y005503D01*
X005291Y005503D02*
X005098Y005503D01*
X005194Y005503D02*
X005194Y005793D01*
X005098Y005696D01*
X004996Y005745D02*
X004948Y005793D01*
X004803Y005793D01*
X004803Y005503D01*
X004948Y005503D01*
X004996Y005551D01*
X004996Y005745D01*
X004948Y004893D02*
X004803Y004893D01*
X004803Y004603D01*
X004948Y004603D01*
X004996Y004651D01*
X004996Y004845D01*
X004948Y004893D01*
X005098Y004845D02*
X005146Y004893D01*
X005243Y004893D01*
X005291Y004845D01*
X005291Y004796D01*
X005243Y004748D01*
X005291Y004700D01*
X005291Y004651D01*
X005243Y004603D01*
X005146Y004603D01*
X005098Y004651D01*
X005194Y004748D02*
X005243Y004748D01*
X005687Y004796D02*
X005784Y004893D01*
X005883Y004893D02*
X006029Y004893D01*
X006077Y004845D01*
X006077Y004748D01*
X006029Y004700D01*
X005883Y004700D01*
X005883Y004603D02*
X005883Y004893D01*
X005687Y004796D02*
X005687Y004700D01*
X005784Y004603D01*
X006178Y004603D02*
X006275Y004700D01*
X006372Y004603D01*
X006372Y004893D01*
X006473Y004893D02*
X006569Y004796D01*
X006666Y004893D01*
X006666Y004603D01*
X006767Y004603D02*
X006864Y004700D01*
X006864Y004796D01*
X006767Y004893D01*
X006473Y004893D02*
X006473Y004603D01*
X006178Y004603D02*
X006178Y004893D01*
X005537Y003893D02*
X005586Y003845D01*
X005586Y003796D01*
X005537Y003748D01*
X005586Y003700D01*
X005586Y003651D01*
X005537Y003603D01*
X005441Y003603D01*
X005392Y003651D01*
X005291Y003603D02*
X005098Y003603D01*
X005194Y003603D02*
X005194Y003893D01*
X005098Y003796D01*
X004996Y003845D02*
X004996Y003651D01*
X004948Y003603D01*
X004803Y003603D01*
X004803Y003893D01*
X004948Y003893D01*
X004996Y003845D01*
X005392Y003845D02*
X005441Y003893D01*
X005537Y003893D01*
X005537Y003748D02*
X005489Y003748D01*
X005441Y002393D02*
X005392Y002345D01*
X005392Y002296D01*
X005441Y002248D01*
X005537Y002248D01*
X005586Y002200D01*
X005586Y002151D01*
X005537Y002103D01*
X005441Y002103D01*
X005392Y002151D01*
X005291Y002103D02*
X005098Y002103D01*
X005098Y002393D01*
X005291Y002393D01*
X005441Y002393D02*
X005537Y002393D01*
X005586Y002345D01*
X005687Y002393D02*
X005687Y002103D01*
X005880Y002103D01*
X005784Y002248D02*
X005687Y002248D01*
X005687Y002393D02*
X005880Y002393D01*
X005982Y002393D02*
X006175Y002393D01*
X006078Y002393D02*
X006078Y002103D01*
X005194Y002248D02*
X005098Y002248D01*
X004996Y002248D02*
X004948Y002200D01*
X004803Y002200D01*
X004900Y002200D02*
X004996Y002103D01*
X004996Y002248D02*
X004996Y002345D01*
X004948Y002393D01*
X004803Y002393D01*
X004803Y002103D01*
X013006Y007664D02*
X013006Y007954D01*
X013151Y007954D01*
X013199Y007906D01*
X013199Y007809D01*
X013151Y007761D01*
X013006Y007761D01*
X013102Y007761D02*
X013199Y007664D01*
X013300Y007664D02*
X013494Y007664D01*
X013397Y007664D02*
X013397Y007954D01*
X013300Y007857D01*
X015222Y007782D02*
X015270Y007734D01*
X015367Y007734D01*
X015415Y007782D01*
X015516Y007734D02*
X015710Y007927D01*
X015710Y007976D01*
X015661Y008024D01*
X015565Y008024D01*
X015516Y007976D01*
X015415Y007976D02*
X015367Y008024D01*
X015270Y008024D01*
X015222Y007976D01*
X015222Y007782D01*
X015516Y007734D02*
X015710Y007734D01*
X024715Y016759D02*
X024715Y017049D01*
X024860Y017049D01*
X024908Y017001D01*
X024908Y016904D01*
X024860Y016856D01*
X024715Y016856D01*
X024812Y016856D02*
X024908Y016759D01*
X025010Y016807D02*
X025058Y016759D01*
X025155Y016759D01*
X025203Y016807D01*
X025203Y016856D01*
X025155Y016904D01*
X025106Y016904D01*
X025155Y016904D02*
X025203Y016952D01*
X025203Y017001D01*
X025155Y017049D01*
X025058Y017049D01*
X025010Y017001D01*
X025046Y017684D02*
X025046Y017974D01*
X024949Y017877D01*
X024848Y017926D02*
X024799Y017974D01*
X024654Y017974D01*
X024654Y017684D01*
X024799Y017684D01*
X024848Y017732D01*
X024848Y017926D01*
X024949Y017684D02*
X025142Y017684D01*
X024553Y017684D02*
X024360Y017684D01*
X024360Y017974D01*
X024553Y017974D01*
X024456Y017829D02*
X024360Y017829D01*
X024258Y017684D02*
X024065Y017684D01*
X024065Y017974D01*
D12*
X024230Y012379D02*
X024263Y012346D01*
X024430Y012346D01*
X024330Y012312D02*
X024330Y012379D01*
X024297Y012225D02*
X024430Y012225D01*
X024430Y012125D01*
X024397Y012091D01*
X024297Y012091D01*
X024430Y012004D02*
X024430Y011870D01*
X024430Y011937D02*
X024230Y011937D01*
X024297Y011870D01*
X024397Y011793D02*
X024430Y011793D01*
X024430Y011760D01*
X024397Y011760D01*
X024397Y011793D01*
X024397Y011672D02*
X024430Y011639D01*
X024430Y011572D01*
X024397Y011539D01*
X024263Y011672D01*
X024397Y011672D01*
X024397Y011539D02*
X024263Y011539D01*
X024230Y011572D01*
X024230Y011639D01*
X024263Y011672D01*
X025670Y011618D02*
X025770Y011518D01*
X025770Y011651D01*
X025870Y011618D02*
X025670Y011618D01*
X025837Y011739D02*
X025837Y011772D01*
X025870Y011772D01*
X025870Y011739D01*
X025837Y011739D01*
X025837Y011849D02*
X025703Y011983D01*
X025670Y011983D01*
X025670Y011849D01*
X025837Y011849D02*
X025870Y011849D01*
X025837Y012070D02*
X025737Y012070D01*
X025837Y012070D02*
X025870Y012104D01*
X025870Y012204D01*
X025737Y012204D01*
X025770Y012291D02*
X025770Y012358D01*
X025703Y012325D02*
X025670Y012358D01*
X025703Y012325D02*
X025870Y012325D01*
X026627Y011420D02*
X026693Y011420D01*
X026727Y011386D01*
X026593Y011253D01*
X026627Y011219D01*
X026693Y011219D01*
X026727Y011253D01*
X026727Y011386D01*
X026627Y011420D02*
X026593Y011386D01*
X026593Y011253D01*
X026814Y011253D02*
X026848Y011253D01*
X026848Y011219D01*
X026814Y011219D01*
X026814Y011253D01*
X026925Y011219D02*
X027058Y011219D01*
X026991Y011219D02*
X026991Y011420D01*
X026925Y011353D01*
X027146Y011353D02*
X027146Y011253D01*
X027179Y011219D01*
X027279Y011219D01*
X027279Y011353D01*
X027367Y011319D02*
X027433Y011319D01*
X027367Y011219D02*
X027367Y011420D01*
X027500Y011420D01*
X028120Y011422D02*
X028253Y011556D01*
X028253Y011422D01*
X028220Y011389D01*
X028153Y011389D01*
X028120Y011422D01*
X028120Y011556D01*
X028153Y011589D01*
X028220Y011589D01*
X028253Y011556D01*
X028341Y011422D02*
X028374Y011422D01*
X028374Y011389D01*
X028341Y011389D01*
X028341Y011422D01*
X028451Y011389D02*
X028585Y011389D01*
X028518Y011389D02*
X028518Y011589D01*
X028451Y011522D01*
X028672Y011522D02*
X028672Y011422D01*
X028706Y011389D01*
X028806Y011389D01*
X028806Y011522D01*
X028893Y011489D02*
X028960Y011489D01*
X028927Y011556D02*
X028960Y011589D01*
X028927Y011556D02*
X028927Y011389D01*
X031380Y010354D02*
X031380Y010254D01*
X031580Y010254D01*
X031580Y010354D01*
X031547Y010387D01*
X031413Y010387D01*
X031380Y010354D01*
X031380Y010166D02*
X031580Y010166D01*
X031580Y010033D02*
X031380Y010033D01*
X031447Y010100D01*
X031380Y010166D01*
X031413Y009945D02*
X031380Y009912D01*
X031380Y009845D01*
X031413Y009812D01*
X031447Y009812D01*
X031480Y009845D01*
X031480Y009912D01*
X031513Y009945D01*
X031547Y009945D01*
X031580Y009912D01*
X031580Y009845D01*
X031547Y009812D01*
X031580Y009658D02*
X031380Y009658D01*
X031380Y009724D02*
X031380Y009591D01*
X031413Y009504D02*
X031380Y009470D01*
X031380Y009403D01*
X031413Y009370D01*
X031547Y009370D01*
X031580Y009403D01*
X031580Y009470D01*
X031547Y009504D01*
X031413Y009504D01*
X031413Y009283D02*
X031480Y009283D01*
X031513Y009249D01*
X031513Y009149D01*
X031580Y009149D02*
X031380Y009149D01*
X031380Y009249D01*
X031413Y009283D01*
X031380Y009062D02*
X031580Y009062D01*
X031580Y008928D02*
X031380Y008928D01*
X031447Y008995D01*
X031380Y009062D01*
X031380Y008847D02*
X031380Y008781D01*
X031380Y008814D02*
X031580Y008814D01*
X031580Y008781D02*
X031580Y008847D01*
X031580Y008693D02*
X031513Y008626D01*
X031513Y008660D02*
X031513Y008560D01*
X031580Y008560D02*
X031380Y008560D01*
X031380Y008660D01*
X031413Y008693D01*
X031480Y008693D01*
X031513Y008660D01*
X031380Y008472D02*
X031380Y008339D01*
X031380Y008406D02*
X031580Y008406D01*
X030546Y007039D02*
X030380Y007039D01*
X030346Y007072D01*
X030446Y007072D02*
X030446Y007005D01*
X030413Y006918D02*
X030546Y006918D01*
X030546Y006818D01*
X030513Y006784D01*
X030413Y006784D01*
X030546Y006697D02*
X030546Y006563D01*
X030546Y006630D02*
X030346Y006630D01*
X030413Y006563D01*
X030380Y006476D02*
X030513Y006342D01*
X030546Y006376D01*
X030546Y006442D01*
X030513Y006476D01*
X030380Y006476D01*
X030346Y006442D01*
X030346Y006376D01*
X030380Y006342D01*
X030513Y006342D01*
X030513Y006265D02*
X030546Y006265D01*
X030546Y006232D01*
X030513Y006232D01*
X030513Y006265D01*
X030513Y006144D02*
X030546Y006111D01*
X030546Y006044D01*
X030513Y006011D01*
X030380Y006144D01*
X030513Y006144D01*
X030616Y006161D02*
X030616Y006468D01*
X030380Y006144D02*
X030346Y006111D01*
X030346Y006044D01*
X030380Y006011D01*
X030513Y006011D01*
X030616Y004718D02*
X030616Y004411D01*
X030463Y004564D02*
X030770Y004564D01*
X033470Y003032D02*
X033623Y003185D01*
X033930Y003185D01*
X033700Y003185D02*
X033700Y002878D01*
X033623Y002878D02*
X033470Y003032D01*
X033623Y002878D02*
X033930Y002878D01*
X034470Y002955D02*
X034470Y003109D01*
X034546Y003185D01*
X034470Y002955D02*
X034546Y002878D01*
X034853Y002878D01*
X034930Y002955D01*
X034930Y003109D01*
X034853Y003185D01*
X035470Y003109D02*
X035470Y002878D01*
X035930Y002878D01*
X035930Y003109D01*
X035853Y003185D01*
X035777Y003185D01*
X035700Y003109D01*
X035700Y002878D01*
X035700Y003109D02*
X035623Y003185D01*
X035546Y003185D01*
X035470Y003109D01*
X035470Y006878D02*
X035930Y006878D01*
X035930Y007185D01*
X035700Y007032D02*
X035700Y006878D01*
X035470Y006878D02*
X035470Y007185D01*
X033930Y006878D02*
X033470Y006878D01*
X033470Y007185D01*
X033700Y007032D02*
X033700Y006878D01*
X029063Y008139D02*
X029030Y008106D01*
X028930Y008106D01*
X028930Y008039D02*
X028930Y008239D01*
X029030Y008239D01*
X029063Y008206D01*
X029063Y008139D01*
X028842Y008206D02*
X028809Y008239D01*
X028742Y008239D01*
X028709Y008206D01*
X028709Y008072D01*
X028742Y008039D01*
X028809Y008039D01*
X028842Y008072D01*
X028842Y008206D01*
X028621Y008206D02*
X028588Y008239D01*
X028521Y008239D01*
X028488Y008206D01*
X028488Y008172D01*
X028521Y008139D01*
X028588Y008139D01*
X028621Y008106D01*
X028621Y008072D01*
X028588Y008039D01*
X028521Y008039D01*
X028488Y008072D01*
X028400Y008072D02*
X028367Y008039D01*
X028300Y008039D01*
X028267Y008072D01*
X028300Y008139D02*
X028367Y008139D01*
X028400Y008106D01*
X028400Y008072D01*
X028300Y008139D02*
X028267Y008172D01*
X028267Y008206D01*
X028300Y008239D01*
X028367Y008239D01*
X028400Y008206D01*
X028179Y008039D02*
X028046Y008039D01*
X028046Y008239D01*
X027958Y008206D02*
X027958Y008139D01*
X027925Y008106D01*
X027825Y008106D01*
X027892Y008106D02*
X027958Y008039D01*
X027825Y008039D02*
X027825Y008239D01*
X027925Y008239D01*
X027958Y008206D01*
X027737Y008206D02*
X027704Y008239D01*
X027637Y008239D01*
X027604Y008206D01*
X027516Y008206D02*
X027516Y008172D01*
X027483Y008139D01*
X027516Y008106D01*
X027516Y008072D01*
X027483Y008039D01*
X027416Y008039D01*
X027383Y008072D01*
X027295Y008039D02*
X027162Y008039D01*
X027295Y008172D01*
X027295Y008206D01*
X027262Y008239D01*
X027195Y008239D01*
X027162Y008206D01*
X027074Y008239D02*
X026941Y008239D01*
X027008Y008239D02*
X027008Y008039D01*
X026787Y008139D02*
X026720Y008139D01*
X026720Y008039D02*
X026720Y008239D01*
X026853Y008239D01*
X027383Y008206D02*
X027416Y008239D01*
X027483Y008239D01*
X027516Y008206D01*
X027483Y008139D02*
X027450Y008139D01*
X027604Y008039D02*
X027737Y008172D01*
X027737Y008206D01*
X027737Y008039D02*
X027604Y008039D01*
X019737Y006033D02*
X019737Y005833D01*
X019737Y005933D02*
X019604Y005933D01*
X019516Y005967D02*
X019516Y005833D01*
X019416Y005833D01*
X019383Y005867D01*
X019383Y005967D01*
X019295Y006000D02*
X019262Y006033D01*
X019195Y006033D01*
X019162Y006000D01*
X019162Y005867D01*
X019295Y006000D01*
X019295Y005867D01*
X019262Y005833D01*
X019195Y005833D01*
X019162Y005867D01*
X019074Y005867D02*
X019041Y005833D01*
X018974Y005833D01*
X018941Y005867D01*
X019074Y006000D01*
X019074Y005867D01*
X019074Y006000D02*
X019041Y006033D01*
X018974Y006033D01*
X018941Y006000D01*
X018941Y005867D01*
X018853Y005833D02*
X018720Y005833D01*
X018787Y005833D02*
X018787Y006033D01*
X018720Y005967D01*
X019604Y006033D02*
X019604Y005833D01*
X016172Y007483D02*
X016038Y007483D01*
X016038Y007283D01*
X015951Y007283D02*
X015951Y007416D01*
X016038Y007383D02*
X016105Y007383D01*
X015951Y007283D02*
X015851Y007283D01*
X015817Y007316D01*
X015817Y007416D01*
X015730Y007283D02*
X015596Y007283D01*
X015663Y007283D02*
X015663Y007483D01*
X015596Y007416D01*
X015519Y007316D02*
X015519Y007283D01*
X015486Y007283D01*
X015486Y007316D01*
X015519Y007316D01*
X015398Y007316D02*
X015365Y007283D01*
X015298Y007283D01*
X015265Y007316D01*
X015398Y007450D01*
X015398Y007316D01*
X015265Y007316D02*
X015265Y007450D01*
X015298Y007483D01*
X015365Y007483D01*
X015398Y007450D01*
X013582Y007399D02*
X013449Y007266D01*
X013482Y007299D02*
X013582Y007199D01*
X013449Y007199D02*
X013449Y007399D01*
X013361Y007366D02*
X013228Y007232D01*
X013261Y007199D01*
X013328Y007199D01*
X013361Y007232D01*
X013361Y007366D01*
X013328Y007399D01*
X013261Y007399D01*
X013228Y007366D01*
X013228Y007232D01*
X013140Y007199D02*
X013007Y007199D01*
X013074Y007199D02*
X013074Y007399D01*
X013007Y007332D01*
X011048Y005768D02*
X010971Y005845D01*
X010664Y005845D01*
X010588Y005768D01*
X010588Y005538D01*
X011048Y005538D01*
X011048Y005768D01*
X011048Y005384D02*
X010588Y005384D01*
X010741Y005231D01*
X010588Y005077D01*
X011048Y005077D01*
X010971Y004924D02*
X011048Y004847D01*
X011048Y004694D01*
X010971Y004617D01*
X010818Y004694D02*
X010741Y004617D01*
X010664Y004617D01*
X010588Y004694D01*
X010588Y004847D01*
X010664Y004924D01*
X010818Y004847D02*
X010895Y004924D01*
X010971Y004924D01*
X010818Y004847D02*
X010818Y004694D01*
X011048Y004464D02*
X010818Y004233D01*
X010895Y004157D02*
X010588Y004464D01*
X010588Y004157D02*
X011048Y004157D01*
X010971Y004003D02*
X011048Y003926D01*
X011048Y003773D01*
X010971Y003696D01*
X010664Y003696D01*
X010588Y003773D01*
X010588Y003926D01*
X010664Y004003D01*
X010741Y003543D02*
X011048Y003543D01*
X010818Y003543D02*
X010818Y003236D01*
X010741Y003236D02*
X010588Y003389D01*
X010741Y003543D01*
X010741Y003236D02*
X011048Y003236D01*
X010971Y003006D02*
X010588Y003006D01*
X010588Y003082D02*
X010588Y002929D01*
X010664Y002622D02*
X010588Y002545D01*
X010588Y002392D01*
X010664Y002315D01*
X010971Y002315D01*
X011048Y002392D01*
X011048Y002545D01*
X010971Y002622D01*
X010971Y002775D02*
X011048Y002852D01*
X011048Y002929D01*
X010971Y003006D01*
X010971Y002162D02*
X010664Y002162D01*
X010588Y002085D01*
X010588Y001855D01*
X011048Y001855D01*
X011048Y002085D01*
X010971Y002162D01*
X017620Y002122D02*
X017620Y001816D01*
X017697Y001739D01*
X017850Y001739D01*
X017927Y001816D01*
X018080Y001969D02*
X018387Y001969D01*
X018311Y001739D02*
X018311Y002199D01*
X018080Y001969D01*
X017927Y002122D02*
X017850Y002199D01*
X017697Y002199D01*
X017620Y002122D01*
X018397Y003339D02*
X018550Y003339D01*
X018627Y003416D01*
X018627Y003492D01*
X018550Y003569D01*
X018320Y003569D01*
X018320Y003416D01*
X018397Y003339D01*
X018320Y003569D02*
X018473Y003722D01*
X018627Y003799D01*
X018780Y003722D02*
X018780Y003646D01*
X018857Y003569D01*
X019011Y003569D01*
X019087Y003492D01*
X019087Y003416D01*
X019011Y003339D01*
X018857Y003339D01*
X018780Y003416D01*
X018780Y003492D01*
X018857Y003569D01*
X019011Y003569D02*
X019087Y003646D01*
X019087Y003722D01*
X019011Y003799D01*
X018857Y003799D01*
X018780Y003722D01*
X019241Y003646D02*
X019241Y003416D01*
X019318Y003339D01*
X019548Y003339D01*
X019548Y003646D01*
X019701Y003569D02*
X019855Y003569D01*
X019778Y003722D02*
X019778Y003339D01*
X019778Y003722D02*
X019855Y003799D01*
X021159Y003060D02*
X021159Y003027D01*
X021193Y002993D01*
X021259Y002993D01*
X021293Y002960D01*
X021293Y002926D01*
X021259Y002893D01*
X021193Y002893D01*
X021159Y002926D01*
X021159Y003060D02*
X021193Y003093D01*
X021259Y003093D01*
X021293Y003060D01*
X021380Y003060D02*
X021380Y002926D01*
X021414Y002893D01*
X021480Y002893D01*
X021514Y002926D01*
X021601Y002893D02*
X021601Y003093D01*
X021514Y003060D02*
X021480Y003093D01*
X021414Y003093D01*
X021380Y003060D01*
X021601Y002993D02*
X021735Y002993D01*
X021735Y003093D02*
X021735Y002893D01*
X021822Y002926D02*
X021856Y002893D01*
X021922Y002893D01*
X021956Y002926D01*
X021956Y003060D01*
X021922Y003093D01*
X021856Y003093D01*
X021822Y003060D01*
X021822Y002926D01*
X022043Y003093D02*
X022177Y003093D01*
X022110Y003093D02*
X022110Y002893D01*
X022331Y002893D02*
X022331Y003093D01*
X022264Y003093D02*
X022398Y003093D01*
X022485Y003093D02*
X022485Y002893D01*
X022485Y002960D02*
X022619Y003093D01*
X022706Y003093D02*
X022706Y002893D01*
X022840Y002893D01*
X022773Y002993D02*
X022706Y002993D01*
X022706Y003093D02*
X022840Y003093D01*
X022927Y003093D02*
X022927Y003060D01*
X022994Y002993D01*
X022994Y002893D01*
X022994Y002993D02*
X023061Y003060D01*
X023061Y003093D01*
X022619Y002893D02*
X022519Y002993D01*
X036120Y011039D02*
X036120Y011239D01*
X036220Y011239D01*
X036253Y011206D01*
X036253Y011139D01*
X036220Y011106D01*
X036120Y011106D01*
X036187Y011106D02*
X036253Y011039D01*
X036341Y011039D02*
X036474Y011039D01*
X036562Y011039D02*
X036662Y011039D01*
X036695Y011072D01*
X036695Y011206D01*
X036662Y011239D01*
X036562Y011239D01*
X036562Y011039D01*
X036408Y011139D02*
X036341Y011139D01*
X036341Y011239D02*
X036341Y011039D01*
X036341Y011239D02*
X036474Y011239D01*
X009230Y011822D02*
X009197Y011789D01*
X009063Y011922D01*
X009197Y011922D01*
X009230Y011889D01*
X009230Y011822D01*
X009197Y011789D02*
X009063Y011789D01*
X009030Y011822D01*
X009030Y011889D01*
X009063Y011922D01*
X009197Y012010D02*
X009197Y012043D01*
X009230Y012043D01*
X009230Y012010D01*
X009197Y012010D01*
X009230Y012120D02*
X009230Y012254D01*
X009230Y012187D02*
X009030Y012187D01*
X009097Y012120D01*
X009097Y012341D02*
X009197Y012341D01*
X009230Y012375D01*
X009230Y012475D01*
X009097Y012475D01*
X009130Y012562D02*
X009130Y012629D01*
X009230Y012562D02*
X009030Y012562D01*
X009030Y012696D01*
X008330Y012535D02*
X008130Y012535D01*
X008230Y012535D02*
X008230Y012402D01*
X008197Y012314D02*
X008330Y012314D01*
X008330Y012214D01*
X008297Y012181D01*
X008197Y012181D01*
X008163Y012093D02*
X008297Y011960D01*
X008330Y011993D01*
X008330Y012060D01*
X008297Y012093D01*
X008163Y012093D01*
X008130Y012060D01*
X008130Y011993D01*
X008163Y011960D01*
X008297Y011960D01*
X008330Y011872D02*
X008330Y011739D01*
X008330Y011806D02*
X008130Y011806D01*
X008197Y011739D01*
X008130Y012402D02*
X008330Y012402D01*
D13*
X000950Y002085D02*
X000450Y002085D01*
X000200Y002335D01*
X000200Y002835D01*
X000450Y003085D01*
X000200Y003335D01*
X000200Y003835D01*
X000450Y004085D01*
X000200Y004335D01*
X000200Y004835D01*
X000450Y005085D01*
X000200Y005335D01*
X000200Y005835D01*
X000450Y006085D01*
X000200Y006335D01*
X000200Y006835D01*
X000450Y007085D01*
X000200Y007335D01*
X000200Y007835D01*
X000450Y008085D01*
X000200Y008335D01*
X000200Y008835D01*
X000450Y009085D01*
X000200Y009335D01*
X000200Y009835D01*
X000450Y010085D01*
X000200Y010335D01*
X000200Y010835D01*
X000450Y011085D01*
X000200Y011335D01*
X000200Y011835D01*
X000450Y012085D01*
X000200Y012335D01*
X000200Y012835D01*
X000450Y013085D01*
X000200Y013335D01*
X000200Y013835D01*
X000450Y014085D01*
X000200Y014335D01*
X000200Y014835D01*
X000450Y015085D01*
X000200Y015335D01*
X000200Y015835D01*
X000450Y016085D01*
X000950Y016085D01*
X001200Y015835D01*
X001200Y015335D01*
X000950Y015085D01*
X001200Y014835D01*
X001200Y014335D01*
X000950Y014085D01*
X001200Y013835D01*
X001200Y013335D01*
X000950Y013085D01*
X001200Y012835D01*
X001200Y012335D01*
X000950Y012085D01*
X001200Y011835D01*
X001200Y011335D01*
X000950Y011085D01*
X001200Y010835D01*
X001200Y010335D01*
X000950Y010085D01*
X001200Y009835D01*
X001200Y009335D01*
X000950Y009085D01*
X001200Y008835D01*
X001200Y008335D01*
X000950Y008085D01*
X001200Y007835D01*
X001200Y007335D01*
X000950Y007085D01*
X001200Y006835D01*
X001200Y006335D01*
X000950Y006085D01*
X001200Y005835D01*
X001200Y005335D01*
X000950Y005085D01*
X001200Y004835D01*
X001200Y004335D01*
X000950Y004085D01*
X001200Y003835D01*
X001200Y003335D01*
X000950Y003085D01*
X001200Y002835D01*
X001200Y002335D01*
X000950Y002085D01*
X003200Y002335D02*
X003200Y002835D01*
X003450Y003085D01*
X003200Y003335D01*
X003200Y003835D01*
X003450Y004085D01*
X003200Y004335D01*
X003200Y004835D01*
X003450Y005085D01*
X003200Y005335D01*
X003200Y005835D01*
X003450Y006085D01*
X003200Y006335D01*
X003200Y006835D01*
X003450Y007085D01*
X003200Y007335D01*
X003200Y007835D01*
X003450Y008085D01*
X003200Y008335D01*
X003200Y008835D01*
X003450Y009085D01*
X003200Y009335D01*
X003200Y009835D01*
X003450Y010085D01*
X003200Y010335D01*
X003200Y010835D01*
X003450Y011085D01*
X003200Y011335D01*
X003200Y011835D01*
X003450Y012085D01*
X003200Y012335D01*
X003200Y012835D01*
X003450Y013085D01*
X003200Y013335D01*
X003200Y013835D01*
X003450Y014085D01*
X003200Y014335D01*
X003200Y014835D01*
X003450Y015085D01*
X003200Y015335D01*
X003200Y015835D01*
X003450Y016085D01*
X003950Y016085D01*
X004200Y015835D01*
X004200Y015335D01*
X003950Y015085D01*
X004200Y014835D01*
X004200Y014335D01*
X003950Y014085D01*
X004200Y013835D01*
X004200Y013335D01*
X003950Y013085D01*
X004200Y012835D01*
X004200Y012335D01*
X003950Y012085D01*
X004200Y011835D01*
X004200Y011335D01*
X003950Y011085D01*
X004200Y010835D01*
X004200Y010335D01*
X003950Y010085D01*
X004200Y009835D01*
X004200Y009335D01*
X003950Y009085D01*
X004200Y008835D01*
X004200Y008335D01*
X003950Y008085D01*
X004200Y007835D01*
X004200Y007335D01*
X003950Y007085D01*
X004200Y006835D01*
X004200Y006335D01*
X003950Y006085D01*
X004200Y005835D01*
X004200Y005335D01*
X003950Y005085D01*
X004200Y004835D01*
X004200Y004335D01*
X003950Y004085D01*
X004200Y003835D01*
X004200Y003335D01*
X003950Y003085D01*
X004200Y002835D01*
X004200Y002335D01*
X003950Y002085D01*
X003450Y002085D01*
X003200Y002335D01*
X015233Y002583D02*
X015483Y002333D01*
X015983Y002333D01*
X016233Y002583D01*
X016483Y002333D01*
X016983Y002333D01*
X017233Y002583D01*
X017233Y003083D01*
X016983Y003333D01*
X016483Y003333D01*
X016233Y003083D01*
X015983Y003333D01*
X015483Y003333D01*
X015233Y003083D01*
X015233Y002583D01*
X022433Y003509D02*
X022435Y003524D01*
X022441Y003537D01*
X022450Y003549D01*
X022461Y003558D01*
X022475Y003564D01*
X022490Y003566D01*
X022505Y003564D01*
X022518Y003558D01*
X022530Y003549D01*
X022539Y003538D01*
X022545Y003524D01*
X022547Y003509D01*
X022545Y003494D01*
X022539Y003481D01*
X022530Y003469D01*
X022519Y003460D01*
X022505Y003454D01*
X022490Y003452D01*
X022475Y003454D01*
X022462Y003460D01*
X022450Y003469D01*
X022441Y003480D01*
X022435Y003494D01*
X022433Y003509D01*
X026004Y003107D02*
X026004Y003934D01*
X026280Y004918D02*
X026634Y004918D01*
X028366Y004918D02*
X028720Y004918D01*
X028996Y003934D02*
X028996Y003107D01*
X031670Y008789D02*
X031670Y010049D01*
X031906Y010049D01*
X032694Y010049D02*
X032930Y010049D01*
X032930Y008789D01*
X036345Y009927D02*
X036467Y010019D01*
X036467Y010200D01*
X036345Y010105D02*
X036461Y010029D01*
X036467Y010019D02*
X036467Y009838D01*
X030579Y016873D02*
X030382Y016873D01*
X030579Y016873D02*
X030579Y018251D01*
X027035Y018251D01*
X027035Y016873D01*
X027232Y016873D01*
X025867Y017638D02*
X025867Y017819D01*
X025745Y017727D01*
X025867Y017819D02*
X025867Y018000D01*
X025745Y017905D02*
X025861Y017829D01*
X017556Y013077D02*
X017044Y013077D01*
X017044Y011660D02*
X017556Y011660D01*
D14*
X020320Y008793D02*
X021187Y009659D01*
X024612Y009659D01*
X024612Y006588D01*
X022525Y006588D01*
X022604Y006863D02*
X022577Y006835D01*
X022552Y006805D01*
X022531Y006772D01*
X022513Y006738D01*
X022498Y006702D01*
X022487Y006664D01*
X022479Y006626D01*
X022475Y006587D01*
X022475Y006549D01*
X022479Y006510D01*
X022487Y006472D01*
X022498Y006434D01*
X022513Y006398D01*
X022531Y006364D01*
X022552Y006331D01*
X022577Y006301D01*
X022604Y006273D01*
X022053Y006273D02*
X022053Y006588D01*
X022053Y006903D01*
X022053Y006588D01*
X020360Y006588D01*
X020320Y006312D02*
X021187Y005446D01*
X024612Y005446D01*
X024612Y006588D01*
X021344Y008399D02*
X021069Y008399D01*
X021069Y008714D01*
X021069Y008124D01*
X021069Y008399D02*
X020754Y008399D01*
X021069Y008399D02*
X021344Y008399D01*
X020320Y008793D02*
X020320Y006312D01*
X019624Y004957D02*
X017655Y004957D01*
X017340Y004642D01*
X017340Y002359D01*
X019939Y002359D01*
X019939Y004642D01*
X019624Y004957D01*
X019309Y004721D02*
X019309Y004406D01*
X019624Y004406D01*
X019033Y004406D01*
X019309Y004406D02*
X019309Y004131D01*
X019309Y004406D01*
X018167Y003658D02*
X017891Y003658D01*
X017616Y003658D01*
X017891Y003658D02*
X018167Y003658D01*
X017891Y003658D02*
X017891Y004918D01*
X016328Y003988D02*
X016328Y003688D01*
X016177Y003538D01*
X016027Y003688D01*
X016027Y003988D01*
X015867Y003913D02*
X015792Y003988D01*
X015642Y003988D01*
X015567Y003913D01*
X015567Y003838D01*
X015642Y003763D01*
X015867Y003763D01*
X015867Y003613D02*
X015867Y003913D01*
X015867Y003613D02*
X015792Y003538D01*
X015642Y003538D01*
X015567Y003613D01*
X017891Y003461D02*
X017891Y002398D01*
X018167Y003343D02*
X018139Y003370D01*
X018109Y003394D01*
X018076Y003415D01*
X018042Y003433D01*
X018005Y003446D01*
X017968Y003456D01*
X017930Y003462D01*
X017891Y003464D01*
X017852Y003462D01*
X017814Y003456D01*
X017777Y003446D01*
X017740Y003433D01*
X017706Y003415D01*
X017673Y003394D01*
X017643Y003370D01*
X017615Y003343D01*
X021339Y002834D02*
X022127Y002834D01*
X021457Y002794D02*
X021457Y002122D01*
X021339Y002083D02*
X022127Y002083D01*
X013458Y001720D02*
X013458Y001681D01*
X013458Y001720D01*
X008483Y004724D02*
X008333Y004724D01*
X008408Y004724D02*
X008408Y005174D01*
X008333Y005174D02*
X008483Y005174D01*
X008173Y005099D02*
X008173Y004949D01*
X008098Y004874D01*
X007872Y004874D01*
X007872Y004724D02*
X007872Y005174D01*
X008098Y005174D01*
X008173Y005099D01*
X007712Y005099D02*
X007637Y005174D01*
X007487Y005174D01*
X007412Y005099D01*
X007412Y005024D01*
X007487Y004949D01*
X007637Y004949D01*
X007712Y004874D01*
X007712Y004799D01*
X007637Y004724D01*
X007487Y004724D01*
X007412Y004799D01*
X031150Y010869D02*
X037450Y010869D01*
X037450Y017168D01*
X031150Y017168D01*
X031150Y010869D01*
X031852Y007929D02*
X037048Y007929D01*
X037048Y002417D01*
X034352Y002417D01*
X031852Y002417D01*
X031852Y007929D01*
X033702Y005272D02*
X033704Y005327D01*
X033710Y005381D01*
X033720Y005435D01*
X033734Y005487D01*
X033751Y005539D01*
X033773Y005589D01*
X033798Y005638D01*
X033826Y005685D01*
X033858Y005729D01*
X033893Y005771D01*
X033931Y005810D01*
X033972Y005847D01*
X034015Y005880D01*
X034060Y005910D01*
X034108Y005937D01*
X034157Y005960D01*
X034208Y005980D01*
X034261Y005996D01*
X034314Y006008D01*
X034368Y006016D01*
X034423Y006020D01*
X034477Y006020D01*
X034532Y006016D01*
X034586Y006008D01*
X034639Y005996D01*
X034692Y005980D01*
X034743Y005960D01*
X034792Y005937D01*
X034840Y005910D01*
X034885Y005880D01*
X034928Y005847D01*
X034969Y005810D01*
X035007Y005771D01*
X035042Y005729D01*
X035074Y005685D01*
X035102Y005638D01*
X035127Y005589D01*
X035149Y005539D01*
X035166Y005487D01*
X035180Y005435D01*
X035190Y005381D01*
X035196Y005327D01*
X035198Y005272D01*
X035196Y005217D01*
X035190Y005163D01*
X035180Y005109D01*
X035166Y005057D01*
X035149Y005005D01*
X035127Y004955D01*
X035102Y004906D01*
X035074Y004859D01*
X035042Y004815D01*
X035007Y004773D01*
X034969Y004734D01*
X034928Y004697D01*
X034885Y004664D01*
X034840Y004634D01*
X034792Y004607D01*
X034743Y004584D01*
X034692Y004564D01*
X034639Y004548D01*
X034586Y004536D01*
X034532Y004528D01*
X034477Y004524D01*
X034423Y004524D01*
X034368Y004528D01*
X034314Y004536D01*
X034261Y004548D01*
X034208Y004564D01*
X034157Y004584D01*
X034108Y004607D01*
X034060Y004634D01*
X034015Y004664D01*
X033972Y004697D01*
X033931Y004734D01*
X033893Y004773D01*
X033858Y004815D01*
X033826Y004859D01*
X033798Y004906D01*
X033773Y004955D01*
X033751Y005005D01*
X033734Y005057D01*
X033720Y005109D01*
X033710Y005163D01*
X033704Y005217D01*
X033702Y005272D01*
X033269Y005272D02*
X033271Y005341D01*
X033277Y005409D01*
X033287Y005477D01*
X033301Y005544D01*
X033319Y005611D01*
X033340Y005676D01*
X033366Y005740D01*
X033395Y005802D01*
X033427Y005862D01*
X033463Y005921D01*
X033503Y005977D01*
X033545Y006031D01*
X033591Y006082D01*
X033640Y006131D01*
X033691Y006177D01*
X033745Y006219D01*
X033801Y006259D01*
X033859Y006295D01*
X033920Y006327D01*
X033982Y006356D01*
X034046Y006382D01*
X034111Y006403D01*
X034178Y006421D01*
X034245Y006435D01*
X034313Y006445D01*
X034381Y006451D01*
X034450Y006453D01*
X034519Y006451D01*
X034587Y006445D01*
X034655Y006435D01*
X034722Y006421D01*
X034789Y006403D01*
X034854Y006382D01*
X034918Y006356D01*
X034980Y006327D01*
X035040Y006295D01*
X035099Y006259D01*
X035155Y006219D01*
X035209Y006177D01*
X035260Y006131D01*
X035309Y006082D01*
X035355Y006031D01*
X035397Y005977D01*
X035437Y005921D01*
X035473Y005862D01*
X035505Y005802D01*
X035534Y005740D01*
X035560Y005676D01*
X035581Y005611D01*
X035599Y005544D01*
X035613Y005477D01*
X035623Y005409D01*
X035629Y005341D01*
X035631Y005272D01*
X035629Y005203D01*
X035623Y005135D01*
X035613Y005067D01*
X035599Y005000D01*
X035581Y004933D01*
X035560Y004868D01*
X035534Y004804D01*
X035505Y004742D01*
X035473Y004681D01*
X035437Y004623D01*
X035397Y004567D01*
X035355Y004513D01*
X035309Y004462D01*
X035260Y004413D01*
X035209Y004367D01*
X035155Y004325D01*
X035099Y004285D01*
X035041Y004249D01*
X034980Y004217D01*
X034918Y004188D01*
X034854Y004162D01*
X034789Y004141D01*
X034722Y004123D01*
X034655Y004109D01*
X034587Y004099D01*
X034519Y004093D01*
X034450Y004091D01*
X034381Y004093D01*
X034313Y004099D01*
X034245Y004109D01*
X034178Y004123D01*
X034111Y004141D01*
X034046Y004162D01*
X033982Y004188D01*
X033920Y004217D01*
X033859Y004249D01*
X033801Y004285D01*
X033745Y004325D01*
X033691Y004367D01*
X033640Y004413D01*
X033591Y004462D01*
X033545Y004513D01*
X033503Y004567D01*
X033463Y004623D01*
X033427Y004681D01*
X033395Y004742D01*
X033366Y004804D01*
X033340Y004868D01*
X033319Y004933D01*
X033301Y005000D01*
X033287Y005067D01*
X033277Y005135D01*
X033271Y005203D01*
X033269Y005272D01*
D15*
X036905Y008309D02*
X036930Y008284D01*
X036905Y008309D02*
X036905Y008359D01*
X036930Y008384D01*
X036955Y008384D01*
X037055Y008284D01*
X037055Y008384D01*
X037055Y008431D02*
X036955Y008531D01*
X036930Y008531D01*
X036905Y008506D01*
X036905Y008456D01*
X036930Y008431D01*
X037055Y008431D02*
X037055Y008531D01*
X037030Y008578D02*
X036930Y008679D01*
X037030Y008679D01*
X037055Y008653D01*
X037055Y008603D01*
X037030Y008578D01*
X036930Y008578D01*
X036905Y008603D01*
X036905Y008653D01*
X036930Y008679D01*
X022345Y004535D02*
X022195Y004535D01*
X022270Y004460D01*
X022270Y004560D01*
X022270Y004413D02*
X022270Y004338D01*
X022245Y004313D01*
X022220Y004313D01*
X022195Y004338D01*
X022195Y004388D01*
X022220Y004413D01*
X022320Y004413D01*
X022345Y004388D01*
X022345Y004338D01*
X022320Y004313D01*
X022320Y004266D02*
X022345Y004241D01*
X022345Y004191D01*
X022320Y004166D01*
X022270Y004166D02*
X022245Y004216D01*
X022245Y004241D01*
X022270Y004266D01*
X022320Y004266D01*
X022270Y004166D02*
X022195Y004166D01*
X022195Y004266D01*
X022220Y004119D02*
X022195Y004093D01*
X022195Y004043D01*
X022220Y004018D01*
X022195Y003971D02*
X022345Y003971D01*
X022345Y004018D02*
X022245Y004119D01*
X022220Y004119D01*
X022095Y004119D02*
X022095Y004018D01*
X022095Y004068D02*
X021945Y004068D01*
X021995Y004018D01*
X021970Y003971D02*
X021945Y003946D01*
X021945Y003896D01*
X021970Y003871D01*
X021995Y003871D01*
X022020Y003896D01*
X022020Y003946D01*
X022045Y003971D01*
X022070Y003971D01*
X022095Y003946D01*
X022095Y003896D01*
X022070Y003871D01*
X022070Y003824D02*
X021945Y003824D01*
X021945Y003724D02*
X022070Y003724D01*
X022095Y003749D01*
X022095Y003799D01*
X022070Y003824D01*
X022120Y003921D02*
X021920Y003921D01*
X022195Y003871D02*
X022245Y003921D01*
X022195Y003971D01*
X022195Y003871D02*
X022345Y003871D01*
X022345Y003824D02*
X022345Y003724D01*
X022195Y003724D01*
X022345Y004018D02*
X022345Y004119D01*
D16*
X022013Y002610D02*
X021940Y002536D01*
X021940Y002389D01*
X021940Y002500D02*
X022087Y002500D01*
X022087Y002536D02*
X022087Y002389D01*
X022087Y002536D02*
X022013Y002610D01*
X025517Y007431D02*
X025517Y009607D01*
X029483Y009607D01*
X029483Y007431D01*
X025517Y007431D01*
X025175Y016479D02*
X025128Y016479D01*
X025105Y016502D01*
X025198Y016596D01*
X025198Y016502D01*
X025175Y016479D01*
X025105Y016502D02*
X025105Y016596D01*
X025128Y016619D01*
X025175Y016619D01*
X025198Y016596D01*
X025051Y016596D02*
X025027Y016619D01*
X024981Y016619D01*
X024957Y016596D01*
X024903Y016596D02*
X024880Y016619D01*
X024833Y016619D01*
X024810Y016596D01*
X024903Y016596D02*
X024903Y016572D01*
X024810Y016479D01*
X024903Y016479D01*
X024957Y016479D02*
X025051Y016572D01*
X025051Y016596D01*
X025051Y016479D02*
X024957Y016479D01*
X026510Y017610D02*
X026533Y017587D01*
X026627Y017587D01*
X026650Y017610D01*
X026650Y017657D01*
X026627Y017680D01*
X026580Y017680D01*
X026580Y017634D01*
X026533Y017680D02*
X026510Y017657D01*
X026510Y017610D01*
X026510Y017734D02*
X026510Y017804D01*
X026533Y017828D01*
X026580Y017828D01*
X026603Y017804D01*
X026603Y017734D01*
X026603Y017781D02*
X026650Y017828D01*
X026650Y017881D02*
X026510Y017881D01*
X026650Y017975D01*
X026510Y017975D01*
X026510Y017734D02*
X026650Y017734D01*
X028317Y017858D02*
X028354Y017822D01*
X028427Y017822D01*
X028464Y017858D01*
X028464Y017895D01*
X028427Y017932D01*
X028354Y017932D01*
X028317Y017969D01*
X028317Y018005D01*
X028354Y018042D01*
X028427Y018042D01*
X028464Y018005D01*
X028538Y017969D02*
X028611Y018042D01*
X028611Y017822D01*
X028538Y017822D02*
X028685Y017822D01*
D17*
X009565Y015157D03*
D18*
X009490Y015232D03*
X009640Y015232D03*
D19*
X009565Y015077D03*
M02*
