G75*
G70*
%OFA0B0*%
%FSLAX24Y24*%
%IPPOS*%
%LPD*%
%AMOC8*
5,1,8,0,0,1.08239X$1,22.5*
%
%ADD10C,0.0591*%
%ADD11C,0.1299*%
%ADD12R,0.0860X0.0860*%
%ADD13OC8,0.0860*%
%ADD14C,0.0860*%
%ADD15C,0.0740*%
%ADD16C,0.0120*%
%ADD17C,0.0525*%
%ADD18C,0.0525*%
D10*
X026327Y009173D03*
X027327Y009173D03*
X028327Y009173D03*
X028327Y014881D03*
X026327Y014881D03*
D11*
X025327Y012125D03*
X029327Y012125D03*
D12*
X005301Y020079D03*
D13*
X005301Y019079D03*
X006301Y019079D03*
X006301Y020079D03*
X006301Y018079D03*
X005301Y018079D03*
D14*
X005301Y016779D03*
X006301Y016779D03*
X007301Y016779D03*
X008301Y016779D03*
X009301Y016779D03*
X010301Y016779D03*
X011301Y016779D03*
X012301Y016779D03*
X013301Y016779D03*
X014301Y016779D03*
X015301Y016779D03*
X016301Y016779D03*
X017301Y016779D03*
X018301Y016779D03*
X018041Y032293D03*
X017041Y032293D03*
X016041Y032293D03*
X015041Y032293D03*
X014041Y032293D03*
X013041Y032293D03*
X012041Y032293D03*
X011041Y032293D03*
X010041Y032293D03*
X009041Y032293D03*
X008041Y032293D03*
X007041Y032293D03*
X006041Y032293D03*
X005041Y032293D03*
X005041Y034293D03*
X006041Y034293D03*
X007041Y034293D03*
X008041Y034293D03*
X009041Y034293D03*
X010041Y034293D03*
X011041Y034293D03*
X012041Y034293D03*
X013041Y034293D03*
X014041Y034293D03*
X015041Y034293D03*
X016041Y034293D03*
X017041Y034293D03*
X018041Y034293D03*
D15*
X011313Y010397D03*
X011313Y011397D03*
D16*
X011313Y010397D02*
X014894Y013978D01*
X014894Y016186D01*
X017709Y016186D01*
X018301Y016779D01*
X019215Y017692D01*
X022373Y017692D01*
X025224Y014842D01*
X026288Y014842D01*
X026327Y014881D01*
X026524Y014425D02*
X026801Y014702D01*
X026801Y015076D01*
X025553Y016325D01*
X024722Y016325D01*
X023557Y017489D01*
X023557Y018464D01*
X017855Y024165D01*
X013120Y024165D01*
X012766Y024519D01*
X012446Y024519D01*
X011482Y025483D01*
X011346Y025483D01*
X009041Y027788D01*
X009041Y032293D01*
X008041Y032293D02*
X008041Y032293D01*
X008041Y028239D01*
X011829Y024451D01*
X011829Y024397D01*
X012281Y023945D01*
X017745Y023945D01*
X023337Y018353D01*
X023337Y017378D01*
X025358Y015357D01*
X025454Y015357D01*
X026524Y014425D02*
X019612Y014425D01*
X019332Y014706D01*
X017301Y016779D02*
X015279Y018801D01*
X009869Y018801D01*
X009765Y018697D01*
X007926Y018697D01*
X006892Y019732D01*
X006892Y020079D01*
X006301Y020079D01*
X005905Y020682D02*
X007844Y020682D01*
X008912Y019614D01*
X016608Y019614D01*
X015211Y019355D02*
X016494Y018071D01*
X017698Y018071D01*
X018570Y020143D02*
X019685Y021258D01*
X018570Y020143D02*
X009879Y020143D01*
X009890Y021091D02*
X014855Y021091D01*
X016692Y022929D01*
X017132Y023455D02*
X011108Y023455D01*
X009448Y021795D01*
X007562Y019800D02*
X008007Y019355D01*
X015211Y019355D01*
X014536Y018273D02*
X014444Y018182D01*
X007788Y018182D01*
X006892Y019079D01*
X006301Y019079D01*
X005301Y019079D02*
X004711Y019079D01*
X004711Y030963D01*
X006041Y032293D01*
X006041Y034293D01*
X007041Y032293D02*
X007041Y028511D01*
X010757Y024795D01*
X011360Y026203D02*
X018420Y026203D01*
X017327Y025549D02*
X027747Y015129D01*
X027747Y009753D01*
X028327Y009173D01*
X027247Y010092D02*
X026327Y009173D01*
X027247Y010092D02*
X027247Y015317D01*
X017876Y024688D01*
X015280Y024688D01*
X017132Y023455D02*
X017550Y023036D01*
X017327Y025549D02*
X012239Y025549D01*
X010665Y026912D02*
X015575Y026912D01*
X017041Y028378D01*
X017041Y032293D01*
X018041Y032293D02*
X018041Y034293D01*
X018041Y032293D02*
X018041Y028003D01*
X024691Y021353D01*
X022822Y018140D02*
X022373Y017692D01*
X024337Y017448D02*
X024740Y017448D01*
X027021Y015167D01*
X027021Y012653D01*
X024618Y010250D01*
X021072Y010250D01*
X014894Y016186D02*
X014301Y016779D01*
X013246Y017834D01*
X007136Y017834D01*
X006892Y018079D01*
X006301Y018079D01*
X005301Y020079D02*
X005905Y020682D01*
X010665Y026912D02*
X010391Y027186D01*
X014894Y027440D02*
X010041Y032293D01*
X011041Y032293D02*
X015030Y028304D01*
X016229Y028304D01*
X015228Y027440D02*
X014894Y027440D01*
D17*
X016229Y028304D03*
X018420Y026203D03*
X017550Y023036D03*
X016692Y022929D03*
X015280Y024688D03*
X012766Y024519D03*
X011829Y024397D03*
X010757Y024795D03*
X011360Y026203D03*
X012239Y025549D03*
X010391Y027186D03*
X009448Y021795D03*
X009890Y021091D03*
X009879Y020143D03*
X009765Y018697D03*
X007562Y019800D03*
X014536Y018273D03*
X016608Y019614D03*
X017698Y018071D03*
X019332Y014706D03*
X022822Y018140D03*
X025454Y015357D03*
X024691Y021353D03*
X019685Y021258D03*
D18*
X024337Y017448D03*
X021072Y010250D03*
X015228Y027440D03*
M02*
