G75*
G70*
%OFA0B0*%
%FSLAX24Y24*%
%IPPOS*%
%LPD*%
%AMOC8*
5,1,8,0,0,1.08239X$1,22.5*
%
%ADD10C,0.0591*%
%ADD11C,0.1299*%
%ADD12R,0.0860X0.0860*%
%ADD13OC8,0.0860*%
%ADD14C,0.0860*%
%ADD15C,0.0740*%
%ADD16C,0.0540*%
%ADD17OC8,0.0540*%
%ADD18C,0.0160*%
%ADD19C,0.0525*%
D10*
X033450Y002319D03*
X034450Y002319D03*
X035450Y002319D03*
X035450Y008027D03*
X033450Y008027D03*
D11*
X032450Y005272D03*
X036450Y005272D03*
D12*
X006215Y002949D03*
D13*
X007215Y002949D03*
X008215Y002949D03*
X008215Y003949D03*
X007215Y003949D03*
X006215Y003949D03*
D14*
X000700Y002585D03*
X000700Y003585D03*
X000700Y004585D03*
X000700Y005585D03*
X000700Y006585D03*
X000700Y007585D03*
X000700Y008585D03*
X000700Y009585D03*
X000700Y010585D03*
X000700Y011585D03*
X000700Y012585D03*
X000700Y013585D03*
X000700Y014585D03*
X000700Y015585D03*
X003700Y015585D03*
X003700Y014585D03*
X003700Y013585D03*
X003700Y012585D03*
X003700Y011585D03*
X003700Y010585D03*
X003700Y009585D03*
X003700Y008585D03*
X003700Y007585D03*
X003700Y006585D03*
X003700Y005585D03*
X003700Y004585D03*
X003700Y003585D03*
X003700Y002585D03*
D15*
X015733Y002833D03*
X016733Y002833D03*
D16*
X009565Y015697D03*
D17*
X010565Y015697D03*
X011565Y015697D03*
X012565Y015697D03*
X013565Y015697D03*
X014565Y015697D03*
X015565Y015697D03*
X015565Y016697D03*
X014565Y016697D03*
X013565Y016697D03*
X012565Y016697D03*
X011565Y016697D03*
X010565Y016697D03*
X009565Y016697D03*
D18*
X009565Y016247D01*
X009453Y016247D01*
X008152Y014946D01*
X008152Y014585D01*
X003700Y014585D01*
X008152Y014585D02*
X008236Y014500D01*
X008236Y006580D01*
X006215Y004559D01*
X006215Y003949D01*
X007215Y003949D02*
X007215Y004559D01*
X008515Y005859D01*
X008515Y012998D01*
X009156Y013639D01*
X010229Y013225D02*
X010229Y012416D01*
X010032Y012219D01*
X010032Y010059D01*
X010229Y009861D01*
X010229Y004079D01*
X008489Y002338D01*
X007825Y002338D01*
X007215Y002949D01*
X008215Y002949D02*
X009691Y004425D01*
X009691Y007152D01*
X012409Y006207D02*
X014475Y006207D01*
X015870Y007602D01*
X015870Y008534D01*
X015870Y007602D02*
X022813Y007602D01*
X023478Y007509D02*
X023478Y010248D01*
X026375Y013145D01*
X027185Y013145D02*
X023851Y009811D01*
X023851Y007245D01*
X019438Y002833D01*
X016733Y002833D01*
X021379Y005551D02*
X021520Y005551D01*
X023478Y007509D01*
X024386Y009388D02*
X031946Y001828D01*
X034959Y001828D01*
X035450Y002319D01*
X033450Y002319D02*
X027901Y007868D01*
X027901Y013203D01*
X027420Y013684D01*
X014019Y013684D01*
X010840Y010505D01*
X010489Y010099D02*
X010294Y010294D01*
X010294Y011194D01*
X010844Y011744D01*
X010844Y013067D01*
X011727Y013951D01*
X027521Y013951D01*
X028013Y013459D01*
X028762Y013459D01*
X034193Y008027D01*
X035450Y008027D01*
X033450Y008027D02*
X033398Y008027D01*
X030188Y011237D01*
X032279Y010880D02*
X032279Y010710D01*
X032279Y010880D02*
X028548Y014610D01*
X011652Y014610D01*
X010565Y015697D01*
X010777Y016148D02*
X010016Y016148D01*
X009565Y015697D01*
X009706Y015557D01*
X009706Y012653D01*
X009063Y012010D01*
X009063Y010144D01*
X009063Y005407D01*
X008215Y004559D01*
X008215Y003949D01*
X007085Y002078D02*
X006215Y002949D01*
X005589Y002695D02*
X005589Y002459D01*
X006230Y001818D01*
X008704Y001818D01*
X010838Y003952D01*
X010838Y005399D01*
X015498Y010060D01*
X017567Y010060D01*
X010489Y010099D02*
X010489Y003972D01*
X008596Y002078D01*
X007085Y002078D01*
X005589Y002695D02*
X003700Y004585D01*
X003700Y007585D02*
X005184Y007585D01*
X007693Y010094D01*
X007542Y011302D02*
X004825Y008585D01*
X003700Y008585D01*
X010229Y013225D02*
X011215Y014211D01*
X028164Y014211D01*
X028309Y014065D01*
X019665Y015993D02*
X018502Y017156D01*
X010361Y017156D01*
X010015Y016810D01*
X010015Y016697D01*
X009565Y016697D01*
X010777Y016148D02*
X011115Y015810D01*
X011115Y015697D01*
X011565Y015697D01*
X012015Y015697D01*
X012015Y015585D01*
X012398Y015202D01*
X017630Y015202D01*
X017881Y016697D02*
X019433Y015145D01*
X017881Y016697D02*
X015565Y016697D01*
D19*
X017630Y015202D03*
X019433Y015145D03*
X019665Y015993D03*
X026375Y013145D03*
X027185Y013145D03*
X028309Y014065D03*
X030188Y011237D03*
X032279Y010710D03*
X024386Y009388D03*
X022813Y007602D03*
X021379Y005551D03*
X015870Y008534D03*
X017567Y010060D03*
X010840Y010505D03*
X009063Y010144D03*
X007693Y010094D03*
X007542Y011302D03*
X010229Y012416D03*
X010844Y013067D03*
X009156Y013639D03*
X009691Y007152D03*
X012409Y006207D03*
M02*
