G75*
G70*
%OFA0B0*%
%FSLAX24Y24*%
%IPPOS*%
%LPD*%
%AMOC8*
5,1,8,0,0,1.08239X$1,22.5*
%
%ADD10C,0.0060*%
%ADD11C,0.0030*%
%ADD12C,0.0040*%
%ADD13C,0.0080*%
%ADD14C,0.0050*%
%ADD15C,0.0010*%
%ADD16C,0.0020*%
%ADD17R,0.0200X0.0100*%
%ADD18R,0.0150X0.0050*%
%ADD19R,0.0100X0.0100*%
D10*
X013924Y007601D02*
X013924Y007837D01*
X014396Y007837D02*
X014396Y007601D01*
X014780Y007596D02*
X014780Y007832D01*
X015252Y007832D02*
X015252Y007596D01*
X019142Y006599D02*
X019378Y006599D01*
X019378Y006127D02*
X019142Y006127D01*
X021550Y005149D02*
X022970Y005149D01*
X022970Y003289D02*
X021550Y003289D01*
X017217Y003669D02*
X016790Y003669D01*
X017004Y003456D02*
X017004Y003883D01*
X025613Y007367D02*
X025613Y009670D01*
X029707Y009670D01*
X029707Y007367D01*
X025613Y007367D01*
X025816Y007751D02*
X025818Y007777D01*
X025824Y007803D01*
X025833Y007828D01*
X025846Y007851D01*
X025862Y007872D01*
X025881Y007890D01*
X025903Y007906D01*
X025926Y007918D01*
X025951Y007926D01*
X025977Y007931D01*
X026004Y007932D01*
X026030Y007929D01*
X026055Y007922D01*
X026080Y007912D01*
X026102Y007898D01*
X026123Y007881D01*
X026140Y007862D01*
X026155Y007840D01*
X026166Y007816D01*
X026174Y007790D01*
X026178Y007764D01*
X026178Y007738D01*
X026174Y007712D01*
X026166Y007686D01*
X026155Y007662D01*
X026140Y007640D01*
X026123Y007621D01*
X026102Y007604D01*
X026080Y007590D01*
X026055Y007580D01*
X026030Y007573D01*
X026004Y007570D01*
X025977Y007571D01*
X025951Y007576D01*
X025926Y007584D01*
X025903Y007596D01*
X025881Y007612D01*
X025862Y007630D01*
X025846Y007651D01*
X025833Y007674D01*
X025824Y007699D01*
X025818Y007725D01*
X025816Y007751D01*
X030540Y005509D02*
X030540Y005273D01*
X031013Y005273D02*
X031013Y005509D01*
X031348Y005496D02*
X031348Y005259D01*
X031821Y005259D02*
X031821Y005496D01*
X036434Y008561D02*
X036434Y008797D01*
X036906Y008797D02*
X036906Y008561D01*
X028778Y011683D02*
X028542Y011683D01*
X028542Y012155D02*
X028778Y012155D01*
X027446Y012126D02*
X027210Y012126D01*
X027210Y011653D02*
X027446Y011653D01*
X025696Y011801D02*
X025696Y012037D01*
X025224Y012037D02*
X025224Y011801D01*
X024296Y011801D02*
X024296Y012037D01*
X023824Y012037D02*
X023824Y011801D01*
X017215Y014827D02*
X016875Y014827D01*
X016225Y014827D01*
X009225Y014827D01*
X008575Y014827D01*
X008575Y015347D01*
X008225Y015347D01*
X008225Y014827D01*
X008575Y014827D01*
X008225Y015347D02*
X008225Y015947D01*
X008225Y016447D01*
X008225Y017047D01*
X008575Y017047D01*
X008575Y017577D01*
X008225Y017577D01*
X008225Y017047D01*
X008225Y016447D02*
X008575Y016447D01*
X008575Y015947D01*
X008225Y015947D01*
X008805Y015838D02*
X008985Y016018D01*
X008985Y015477D01*
X008805Y015477D02*
X009166Y015477D01*
X009555Y015277D02*
X009725Y014947D01*
X009725Y015047D01*
X009725Y014947D02*
X009895Y015277D01*
X009555Y015277D01*
X009225Y017577D02*
X008575Y017577D01*
X008954Y017667D02*
X009248Y017667D01*
X009225Y017577D02*
X016225Y017577D01*
X016875Y017577D01*
X016875Y017047D01*
X017215Y017047D01*
X017215Y016447D01*
X017215Y015947D01*
X016875Y015947D01*
X016875Y016447D01*
X017215Y016447D01*
X017215Y015947D02*
X017215Y015347D01*
X016875Y015347D01*
X016875Y014827D01*
X017215Y014827D02*
X017215Y015347D01*
X017215Y017047D02*
X017215Y017577D01*
X016875Y017577D01*
X011550Y017667D02*
X011550Y018108D01*
X011256Y018108D02*
X011550Y017667D01*
X011256Y017667D02*
X011256Y018108D01*
X011089Y018034D02*
X011016Y018108D01*
X010869Y018108D01*
X010796Y018034D01*
X010796Y017741D01*
X010869Y017667D01*
X011016Y017667D01*
X011089Y017741D01*
X011089Y018034D01*
X010629Y018034D02*
X010556Y018108D01*
X010409Y018108D01*
X010335Y018034D01*
X010335Y017741D01*
X010409Y017667D01*
X010556Y017667D01*
X010629Y017741D01*
X010169Y017741D02*
X010095Y017667D01*
X009875Y017667D01*
X009875Y018108D01*
X010095Y018108D01*
X010169Y018034D01*
X010169Y017741D01*
X009708Y017741D02*
X009635Y017667D01*
X009488Y017667D01*
X009415Y017741D01*
X009415Y018034D01*
X009488Y018108D01*
X009635Y018108D01*
X009708Y018034D01*
X008954Y018108D02*
X008954Y017667D01*
X012580Y012899D02*
X015340Y012899D01*
X015340Y010279D01*
X015200Y010139D01*
X012580Y010139D01*
X012580Y012899D01*
X009496Y011237D02*
X009496Y011001D01*
X009024Y011001D02*
X009024Y011237D01*
X008646Y011237D02*
X008646Y011001D01*
X008174Y011001D02*
X008174Y011237D01*
X014899Y010439D02*
X014901Y010462D01*
X014907Y010485D01*
X014916Y010506D01*
X014929Y010526D01*
X014945Y010543D01*
X014963Y010557D01*
X014983Y010568D01*
X015005Y010576D01*
X015028Y010580D01*
X015052Y010580D01*
X015075Y010576D01*
X015097Y010568D01*
X015117Y010557D01*
X015135Y010543D01*
X015151Y010526D01*
X015164Y010506D01*
X015173Y010485D01*
X015179Y010462D01*
X015181Y010439D01*
X015179Y010416D01*
X015173Y010393D01*
X015164Y010372D01*
X015151Y010352D01*
X015135Y010335D01*
X015117Y010321D01*
X015097Y010310D01*
X015075Y010302D01*
X015052Y010298D01*
X015028Y010298D01*
X015005Y010302D01*
X014983Y010310D01*
X014963Y010321D01*
X014945Y010335D01*
X014929Y010352D01*
X014916Y010372D01*
X014907Y010393D01*
X014901Y010416D01*
X014899Y010439D01*
X025842Y016583D02*
X026078Y016583D01*
X026078Y017055D02*
X025842Y017055D01*
X032690Y014389D02*
X032690Y013749D01*
X033010Y013749D01*
X033117Y013856D01*
X033117Y013962D01*
X033010Y014069D01*
X032690Y014069D01*
X033010Y014069D02*
X033117Y014176D01*
X033117Y014283D01*
X033010Y014389D01*
X032690Y014389D01*
X033335Y014176D02*
X033335Y013856D01*
X033441Y013749D01*
X033762Y013749D01*
X033762Y014176D01*
X033979Y014176D02*
X034406Y014176D01*
X033979Y013749D01*
X034406Y013749D01*
X034624Y013749D02*
X035051Y013749D01*
X035268Y013856D02*
X035375Y013749D01*
X035588Y013749D01*
X035695Y013962D02*
X035268Y013962D01*
X035268Y013856D02*
X035268Y014069D01*
X035375Y014176D01*
X035588Y014176D01*
X035695Y014069D01*
X035695Y013962D01*
X035913Y013962D02*
X036126Y014176D01*
X036233Y014176D01*
X035913Y014176D02*
X035913Y013749D01*
X035051Y014176D02*
X034624Y013749D01*
X034624Y014176D02*
X035051Y014176D01*
D11*
X028863Y012501D02*
X028863Y012307D01*
X028815Y012259D01*
X028718Y012259D01*
X028670Y012307D01*
X028568Y012307D02*
X028520Y012259D01*
X028423Y012259D01*
X028375Y012307D01*
X028375Y012501D01*
X028423Y012549D01*
X028520Y012549D01*
X028568Y012501D01*
X028670Y012501D02*
X028670Y012452D01*
X028718Y012404D01*
X028863Y012404D01*
X028863Y012501D02*
X028815Y012549D01*
X028718Y012549D01*
X028670Y012501D01*
X027591Y012309D02*
X027398Y012309D01*
X027495Y012309D02*
X027495Y012600D01*
X027398Y012503D01*
X027297Y012551D02*
X027248Y012600D01*
X027152Y012600D01*
X027103Y012551D01*
X027103Y012358D01*
X027152Y012309D01*
X027248Y012309D01*
X027297Y012358D01*
X025151Y012113D02*
X025151Y012017D01*
X025103Y011968D01*
X025054Y011968D01*
X025006Y012017D01*
X025006Y012113D01*
X025054Y012162D01*
X025103Y012162D01*
X025151Y012113D01*
X025006Y012113D02*
X024958Y012162D01*
X024909Y012162D01*
X024861Y012113D01*
X024861Y012017D01*
X024909Y011968D01*
X024958Y011968D01*
X025006Y012017D01*
X025103Y011867D02*
X025151Y011819D01*
X025151Y011722D01*
X025103Y011673D01*
X024909Y011673D01*
X024861Y011722D01*
X024861Y011819D01*
X024909Y011867D01*
X023720Y011928D02*
X023672Y011928D01*
X023478Y012122D01*
X023430Y012122D01*
X023430Y011928D01*
X023478Y011827D02*
X023430Y011779D01*
X023430Y011682D01*
X023478Y011634D01*
X023672Y011634D01*
X023720Y011682D01*
X023720Y011779D01*
X023672Y011827D01*
X027475Y009424D02*
X027475Y009182D01*
X027523Y009134D01*
X027620Y009134D01*
X027668Y009182D01*
X027668Y009424D01*
X027770Y009327D02*
X027866Y009424D01*
X027866Y009134D01*
X027770Y009134D02*
X027963Y009134D01*
X032175Y009334D02*
X032175Y009624D01*
X032320Y009624D01*
X032368Y009576D01*
X032368Y009479D01*
X032320Y009431D01*
X032175Y009431D01*
X032272Y009431D02*
X032368Y009334D01*
X032470Y009479D02*
X032663Y009479D01*
X032615Y009624D02*
X032470Y009479D01*
X032615Y009334D02*
X032615Y009624D01*
X035695Y009612D02*
X035695Y009418D01*
X035985Y009418D01*
X035985Y009612D01*
X035985Y009713D02*
X035695Y009713D01*
X035695Y009858D01*
X035743Y009907D01*
X035937Y009907D01*
X035985Y009858D01*
X035985Y009713D01*
X035840Y009515D02*
X035840Y009418D01*
X035985Y009317D02*
X035985Y009124D01*
X035695Y009124D01*
X036040Y008834D02*
X036088Y008882D01*
X036137Y008882D01*
X036330Y008688D01*
X036330Y008882D01*
X036040Y008834D02*
X036040Y008737D01*
X036088Y008688D01*
X036088Y008587D02*
X036185Y008587D01*
X036233Y008539D01*
X036233Y008394D01*
X036233Y008491D02*
X036330Y008587D01*
X036330Y008394D02*
X036040Y008394D01*
X036040Y008539D01*
X036088Y008587D01*
X035985Y010008D02*
X035792Y010201D01*
X035743Y010201D01*
X035695Y010153D01*
X035695Y010056D01*
X035743Y010008D01*
X035985Y010008D02*
X035985Y010201D01*
X030436Y005346D02*
X030388Y005394D01*
X030340Y005394D01*
X030291Y005346D01*
X030291Y005200D01*
X030388Y005200D01*
X030436Y005249D01*
X030436Y005346D01*
X030291Y005200D02*
X030194Y005297D01*
X030146Y005394D01*
X030194Y005099D02*
X030146Y005051D01*
X030146Y004954D01*
X030194Y004906D01*
X030388Y004906D01*
X030436Y004954D01*
X030436Y005051D01*
X030388Y005099D01*
X031429Y004756D02*
X031429Y004562D01*
X031720Y004562D01*
X031720Y004756D01*
X031575Y004659D02*
X031575Y004562D01*
X031429Y004461D02*
X031429Y004268D01*
X031429Y004364D02*
X031720Y004364D01*
X031720Y004168D02*
X031720Y004071D01*
X031720Y004120D02*
X031429Y004120D01*
X031429Y004168D02*
X031429Y004071D01*
X031478Y003970D02*
X031575Y003970D01*
X031623Y003922D01*
X031623Y003777D01*
X031623Y003873D02*
X031720Y003970D01*
X031720Y003777D02*
X031429Y003777D01*
X031429Y003922D01*
X031478Y003970D01*
X031478Y003675D02*
X031575Y003675D01*
X031623Y003627D01*
X031623Y003482D01*
X031623Y003579D02*
X031720Y003675D01*
X031720Y003482D02*
X031429Y003482D01*
X031429Y003627D01*
X031478Y003675D01*
X031429Y003381D02*
X031429Y003187D01*
X031720Y003187D01*
X031720Y003381D01*
X031575Y003284D02*
X031575Y003187D01*
X031429Y003086D02*
X031429Y002893D01*
X031720Y002893D01*
X031575Y002893D02*
X031575Y002989D01*
X028542Y002776D02*
X028542Y002582D01*
X028493Y002534D01*
X028348Y002534D01*
X028348Y002824D01*
X028493Y002824D01*
X028542Y002776D01*
X028247Y002824D02*
X028247Y002534D01*
X028054Y002534D02*
X028054Y002824D01*
X028150Y002727D01*
X028247Y002824D01*
X027952Y002776D02*
X027904Y002824D01*
X027807Y002824D01*
X027759Y002776D01*
X027759Y002727D01*
X027807Y002679D01*
X027904Y002679D01*
X027952Y002631D01*
X027952Y002582D01*
X027904Y002534D01*
X027807Y002534D01*
X027759Y002582D01*
X027658Y002582D02*
X027609Y002534D01*
X027464Y002534D01*
X027464Y002824D01*
X027609Y002824D01*
X027658Y002776D01*
X027658Y002727D01*
X027609Y002679D01*
X027464Y002679D01*
X027363Y002631D02*
X027363Y002582D01*
X027315Y002534D01*
X027218Y002534D01*
X027170Y002582D01*
X027068Y002582D02*
X027068Y002824D01*
X027170Y002776D02*
X027218Y002824D01*
X027315Y002824D01*
X027363Y002776D01*
X027315Y002679D02*
X027363Y002631D01*
X027315Y002679D02*
X027218Y002679D01*
X027170Y002727D01*
X027170Y002776D01*
X027068Y002582D02*
X027020Y002534D01*
X026923Y002534D01*
X026875Y002582D01*
X026875Y002824D01*
X027609Y002679D02*
X027658Y002631D01*
X027658Y002582D01*
X019463Y006703D02*
X019270Y006703D01*
X019463Y006897D01*
X019463Y006945D01*
X019415Y006993D01*
X019318Y006993D01*
X019270Y006945D01*
X019168Y006703D02*
X018975Y006703D01*
X018975Y006993D01*
X021955Y007982D02*
X022003Y007934D01*
X022197Y007934D01*
X022245Y007982D01*
X022245Y008079D01*
X022197Y008127D01*
X022197Y008228D02*
X022245Y008277D01*
X022245Y008374D01*
X022197Y008422D01*
X022100Y008422D01*
X022052Y008374D01*
X022052Y008325D01*
X022100Y008228D01*
X021955Y008228D01*
X021955Y008422D01*
X022003Y008127D02*
X021955Y008079D01*
X021955Y007982D01*
X022955Y008031D02*
X023245Y008031D01*
X023245Y008127D02*
X023245Y007934D01*
X023052Y007934D02*
X022955Y008031D01*
X023003Y008228D02*
X022955Y008277D01*
X022955Y008374D01*
X023003Y008422D01*
X023052Y008422D01*
X023245Y008228D01*
X023245Y008422D01*
X023197Y008523D02*
X023003Y008717D01*
X023197Y008717D01*
X023245Y008668D01*
X023245Y008571D01*
X023197Y008523D01*
X023003Y008523D01*
X022955Y008571D01*
X022955Y008668D01*
X023003Y008717D01*
X023052Y008818D02*
X023197Y008818D01*
X023245Y008866D01*
X023245Y009011D01*
X023052Y009011D01*
X023100Y009112D02*
X023100Y009209D01*
X023003Y009161D02*
X022955Y009209D01*
X023003Y009161D02*
X023245Y009161D01*
X016945Y012131D02*
X016800Y012131D01*
X016703Y012227D01*
X016655Y012227D01*
X016752Y012328D02*
X016655Y012425D01*
X016945Y012425D01*
X016945Y012328D02*
X016945Y012522D01*
X016800Y012131D02*
X016703Y012034D01*
X016655Y012034D01*
X015224Y012462D02*
X015175Y012414D01*
X015079Y012414D01*
X015030Y012462D01*
X015030Y012511D01*
X015079Y012559D01*
X015175Y012559D01*
X015224Y012511D01*
X015224Y012462D01*
X015175Y012559D02*
X015224Y012607D01*
X015224Y012656D01*
X015175Y012704D01*
X015079Y012704D01*
X015030Y012656D01*
X015030Y012607D01*
X015079Y012559D01*
X014929Y012704D02*
X014736Y012414D01*
X014635Y012414D02*
X014441Y012704D01*
X014340Y012607D02*
X014243Y012704D01*
X014146Y012607D01*
X014146Y012414D01*
X014045Y012462D02*
X014045Y012559D01*
X013948Y012559D01*
X013852Y012656D02*
X013852Y012462D01*
X013900Y012414D01*
X013997Y012414D01*
X014045Y012462D01*
X014146Y012559D02*
X014340Y012559D01*
X014340Y012607D02*
X014340Y012414D01*
X014441Y012414D02*
X014635Y012704D01*
X014736Y012704D02*
X014929Y012414D01*
X014045Y012656D02*
X013997Y012704D01*
X013900Y012704D01*
X013852Y012656D01*
X013751Y012704D02*
X013557Y012704D01*
X013557Y012414D01*
X013751Y012414D01*
X013654Y012559D02*
X013557Y012559D01*
X013456Y012704D02*
X013359Y012607D01*
X013262Y012704D01*
X013262Y012414D01*
X013456Y012414D02*
X013456Y012704D01*
X013161Y012704D02*
X012968Y012704D01*
X013065Y012704D02*
X013065Y012414D01*
X012867Y012414D02*
X012867Y012607D01*
X012770Y012704D01*
X012673Y012607D01*
X012673Y012414D01*
X012673Y012559D02*
X012867Y012559D01*
X009921Y011357D02*
X009921Y011261D01*
X009873Y011212D01*
X009873Y011111D02*
X009921Y011063D01*
X009921Y010966D01*
X009873Y010917D01*
X009679Y010917D01*
X009631Y010966D01*
X009631Y011063D01*
X009679Y011111D01*
X009679Y011212D02*
X009631Y011261D01*
X009631Y011357D01*
X009679Y011406D01*
X009728Y011406D01*
X009776Y011357D01*
X009824Y011406D01*
X009873Y011406D01*
X009921Y011357D01*
X009776Y011357D02*
X009776Y011309D01*
X008488Y010436D02*
X008488Y010242D01*
X008488Y010339D02*
X008198Y010339D01*
X008295Y010242D01*
X008488Y010141D02*
X008488Y009948D01*
X008198Y009948D01*
X005451Y009893D02*
X005258Y009893D01*
X005258Y009748D01*
X005354Y009796D01*
X005403Y009796D01*
X005451Y009748D01*
X005451Y009651D01*
X005403Y009603D01*
X005306Y009603D01*
X005258Y009651D01*
X005156Y009603D02*
X005156Y009796D01*
X005060Y009893D01*
X004963Y009796D01*
X004963Y009603D01*
X004963Y009748D02*
X005156Y009748D01*
X005156Y010503D02*
X005156Y010696D01*
X005060Y010793D01*
X004963Y010696D01*
X004963Y010503D01*
X004963Y010648D02*
X005156Y010648D01*
X005258Y010648D02*
X005451Y010648D01*
X005403Y010793D02*
X005258Y010648D01*
X005403Y010503D02*
X005403Y010793D01*
X005403Y011503D02*
X005306Y011503D01*
X005258Y011551D01*
X005156Y011503D02*
X005156Y011696D01*
X005060Y011793D01*
X004963Y011696D01*
X004963Y011503D01*
X004963Y011648D02*
X005156Y011648D01*
X005258Y011745D02*
X005306Y011793D01*
X005403Y011793D01*
X005451Y011745D01*
X005451Y011696D01*
X005403Y011648D01*
X005451Y011600D01*
X005451Y011551D01*
X005403Y011503D01*
X005403Y011648D02*
X005354Y011648D01*
X005258Y012503D02*
X005451Y012696D01*
X005451Y012745D01*
X005403Y012793D01*
X005306Y012793D01*
X005258Y012745D01*
X005156Y012696D02*
X005156Y012503D01*
X005258Y012503D02*
X005451Y012503D01*
X005156Y012648D02*
X004963Y012648D01*
X004963Y012696D02*
X004963Y012503D01*
X004963Y012696D02*
X005060Y012793D01*
X005156Y012696D01*
X005156Y013603D02*
X005156Y013796D01*
X005060Y013893D01*
X004963Y013796D01*
X004963Y013603D01*
X004963Y013748D02*
X005156Y013748D01*
X005258Y013796D02*
X005354Y013893D01*
X005354Y013603D01*
X005258Y013603D02*
X005451Y013603D01*
X005454Y014503D02*
X005551Y014696D01*
X005358Y014696D02*
X005454Y014503D01*
X005256Y014551D02*
X005208Y014503D01*
X005111Y014503D01*
X005063Y014551D01*
X005063Y014648D02*
X005160Y014696D01*
X005208Y014696D01*
X005256Y014648D01*
X005256Y014551D01*
X005063Y014648D02*
X005063Y014793D01*
X005256Y014793D01*
X005258Y015503D02*
X005258Y015793D01*
X005451Y015503D01*
X005451Y015793D01*
X005552Y015793D02*
X005697Y015793D01*
X005746Y015745D01*
X005746Y015551D01*
X005697Y015503D01*
X005552Y015503D01*
X005552Y015793D01*
X005156Y015745D02*
X005108Y015793D01*
X005011Y015793D01*
X004963Y015745D01*
X004963Y015551D01*
X005011Y015503D01*
X005108Y015503D01*
X005156Y015551D01*
X005156Y015648D01*
X005060Y015648D01*
X005060Y008893D02*
X005156Y008796D01*
X005156Y008603D01*
X005258Y008651D02*
X005306Y008603D01*
X005403Y008603D01*
X005451Y008651D01*
X005451Y008700D01*
X005403Y008748D01*
X005258Y008748D01*
X005258Y008651D01*
X005258Y008748D02*
X005354Y008845D01*
X005451Y008893D01*
X005156Y008748D02*
X004963Y008748D01*
X004963Y008796D02*
X005060Y008893D01*
X004963Y008796D02*
X004963Y008603D01*
X005060Y007893D02*
X005156Y007796D01*
X005156Y007603D01*
X005258Y007603D02*
X005258Y007651D01*
X005451Y007845D01*
X005451Y007893D01*
X005258Y007893D01*
X005156Y007748D02*
X004963Y007748D01*
X004963Y007796D02*
X005060Y007893D01*
X004963Y007796D02*
X004963Y007603D01*
X004963Y006793D02*
X005108Y006793D01*
X005156Y006745D01*
X005156Y006551D01*
X005108Y006503D01*
X004963Y006503D01*
X004963Y006793D01*
X005258Y006745D02*
X005306Y006793D01*
X005403Y006793D01*
X005451Y006745D01*
X005258Y006551D01*
X005306Y006503D01*
X005403Y006503D01*
X005451Y006551D01*
X005451Y006745D01*
X005258Y006745D02*
X005258Y006551D01*
X005552Y006503D02*
X005746Y006793D01*
X005847Y006793D02*
X005992Y006793D01*
X006040Y006745D01*
X006040Y006648D01*
X005992Y006600D01*
X005847Y006600D01*
X005944Y006600D02*
X006040Y006503D01*
X006142Y006503D02*
X006335Y006793D01*
X006142Y006793D02*
X006335Y006503D01*
X005847Y006503D02*
X005847Y006793D01*
X005847Y005793D02*
X006040Y005793D01*
X005944Y005793D02*
X005944Y005503D01*
X006142Y005503D02*
X006335Y005793D01*
X006142Y005793D02*
X006335Y005503D01*
X005746Y005793D02*
X005552Y005503D01*
X005451Y005503D02*
X005258Y005503D01*
X005354Y005503D02*
X005354Y005793D01*
X005258Y005696D01*
X005156Y005745D02*
X005108Y005793D01*
X004963Y005793D01*
X004963Y005503D01*
X005108Y005503D01*
X005156Y005551D01*
X005156Y005745D01*
X005108Y004893D02*
X004963Y004893D01*
X004963Y004603D01*
X005108Y004603D01*
X005156Y004651D01*
X005156Y004845D01*
X005108Y004893D01*
X005258Y004845D02*
X005306Y004893D01*
X005403Y004893D01*
X005451Y004845D01*
X005451Y004796D01*
X005403Y004748D01*
X005451Y004700D01*
X005451Y004651D01*
X005403Y004603D01*
X005306Y004603D01*
X005258Y004651D01*
X005354Y004748D02*
X005403Y004748D01*
X005847Y004796D02*
X005944Y004893D01*
X006043Y004893D02*
X006189Y004893D01*
X006237Y004845D01*
X006237Y004748D01*
X006189Y004700D01*
X006043Y004700D01*
X006043Y004603D02*
X006043Y004893D01*
X005847Y004796D02*
X005847Y004700D01*
X005944Y004603D01*
X006338Y004603D02*
X006435Y004700D01*
X006532Y004603D01*
X006532Y004893D01*
X006633Y004893D02*
X006729Y004796D01*
X006826Y004893D01*
X006826Y004603D01*
X006927Y004603D02*
X007024Y004700D01*
X007024Y004796D01*
X006927Y004893D01*
X006633Y004893D02*
X006633Y004603D01*
X006338Y004603D02*
X006338Y004893D01*
X005697Y003893D02*
X005746Y003845D01*
X005746Y003796D01*
X005697Y003748D01*
X005746Y003700D01*
X005746Y003651D01*
X005697Y003603D01*
X005601Y003603D01*
X005552Y003651D01*
X005451Y003603D02*
X005258Y003603D01*
X005354Y003603D02*
X005354Y003893D01*
X005258Y003796D01*
X005156Y003845D02*
X005156Y003651D01*
X005108Y003603D01*
X004963Y003603D01*
X004963Y003893D01*
X005108Y003893D01*
X005156Y003845D01*
X005552Y003845D02*
X005601Y003893D01*
X005697Y003893D01*
X005697Y003748D02*
X005649Y003748D01*
X005601Y002393D02*
X005552Y002345D01*
X005552Y002296D01*
X005601Y002248D01*
X005697Y002248D01*
X005746Y002200D01*
X005746Y002151D01*
X005697Y002103D01*
X005601Y002103D01*
X005552Y002151D01*
X005451Y002103D02*
X005258Y002103D01*
X005258Y002393D01*
X005451Y002393D01*
X005601Y002393D02*
X005697Y002393D01*
X005746Y002345D01*
X005847Y002393D02*
X005847Y002103D01*
X006040Y002103D01*
X005944Y002248D02*
X005847Y002248D01*
X005847Y002393D02*
X006040Y002393D01*
X006142Y002393D02*
X006335Y002393D01*
X006238Y002393D02*
X006238Y002103D01*
X005354Y002248D02*
X005258Y002248D01*
X005156Y002248D02*
X005108Y002200D01*
X004963Y002200D01*
X005060Y002200D02*
X005156Y002103D01*
X005156Y002248D02*
X005156Y002345D01*
X005108Y002393D01*
X004963Y002393D01*
X004963Y002103D01*
X013166Y007664D02*
X013166Y007954D01*
X013311Y007954D01*
X013359Y007906D01*
X013359Y007809D01*
X013311Y007761D01*
X013166Y007761D01*
X013262Y007761D02*
X013359Y007664D01*
X013460Y007664D02*
X013654Y007664D01*
X013557Y007664D02*
X013557Y007954D01*
X013460Y007857D01*
X014772Y008402D02*
X014772Y008596D01*
X014820Y008644D01*
X014917Y008644D01*
X014965Y008596D01*
X015066Y008596D02*
X015115Y008644D01*
X015211Y008644D01*
X015260Y008596D01*
X015260Y008547D01*
X015066Y008354D01*
X015260Y008354D01*
X014965Y008402D02*
X014917Y008354D01*
X014820Y008354D01*
X014772Y008402D01*
X024875Y016759D02*
X024875Y017049D01*
X025020Y017049D01*
X025068Y017001D01*
X025068Y016904D01*
X025020Y016856D01*
X024875Y016856D01*
X024972Y016856D02*
X025068Y016759D01*
X025170Y016807D02*
X025218Y016759D01*
X025315Y016759D01*
X025363Y016807D01*
X025363Y016856D01*
X025315Y016904D01*
X025266Y016904D01*
X025315Y016904D02*
X025363Y016952D01*
X025363Y017001D01*
X025315Y017049D01*
X025218Y017049D01*
X025170Y017001D01*
X025216Y017734D02*
X025361Y017734D01*
X025409Y017782D01*
X025409Y017976D01*
X025361Y018024D01*
X025216Y018024D01*
X025216Y017734D01*
X025115Y017734D02*
X024921Y017734D01*
X024921Y018024D01*
X025115Y018024D01*
X025018Y017879D02*
X024921Y017879D01*
X024820Y017734D02*
X024626Y017734D01*
X024626Y018024D01*
X025510Y017927D02*
X025607Y018024D01*
X025607Y017734D01*
X025510Y017734D02*
X025704Y017734D01*
D12*
X025830Y012358D02*
X025863Y012325D01*
X026030Y012325D01*
X025930Y012291D02*
X025930Y012358D01*
X025897Y012204D02*
X026030Y012204D01*
X026030Y012104D01*
X025997Y012070D01*
X025897Y012070D01*
X025863Y011983D02*
X025997Y011849D01*
X026030Y011849D01*
X026030Y011772D02*
X026030Y011739D01*
X025997Y011739D01*
X025997Y011772D01*
X026030Y011772D01*
X026030Y011618D02*
X025830Y011618D01*
X025930Y011518D01*
X025930Y011651D01*
X025830Y011849D02*
X025830Y011983D01*
X025863Y011983D01*
X026753Y011386D02*
X026787Y011420D01*
X026853Y011420D01*
X026887Y011386D01*
X026753Y011253D01*
X026787Y011219D01*
X026853Y011219D01*
X026887Y011253D01*
X026887Y011386D01*
X026753Y011386D02*
X026753Y011253D01*
X026974Y011253D02*
X027008Y011253D01*
X027008Y011219D01*
X026974Y011219D01*
X026974Y011253D01*
X027085Y011219D02*
X027218Y011219D01*
X027151Y011219D02*
X027151Y011420D01*
X027085Y011353D01*
X027306Y011353D02*
X027306Y011253D01*
X027339Y011219D01*
X027439Y011219D01*
X027439Y011353D01*
X027527Y011319D02*
X027593Y011319D01*
X027527Y011219D02*
X027527Y011420D01*
X027660Y011420D01*
X028280Y011422D02*
X028413Y011556D01*
X028413Y011422D01*
X028380Y011389D01*
X028313Y011389D01*
X028280Y011422D01*
X028280Y011556D01*
X028313Y011589D01*
X028380Y011589D01*
X028413Y011556D01*
X028501Y011422D02*
X028534Y011422D01*
X028534Y011389D01*
X028501Y011389D01*
X028501Y011422D01*
X028611Y011389D02*
X028745Y011389D01*
X028678Y011389D02*
X028678Y011589D01*
X028611Y011522D01*
X028832Y011522D02*
X028832Y011422D01*
X028866Y011389D01*
X028966Y011389D01*
X028966Y011522D01*
X029053Y011489D02*
X029120Y011489D01*
X029087Y011556D02*
X029120Y011589D01*
X029087Y011556D02*
X029087Y011389D01*
X031540Y010354D02*
X031540Y010254D01*
X031740Y010254D01*
X031740Y010354D01*
X031707Y010387D01*
X031573Y010387D01*
X031540Y010354D01*
X031540Y010166D02*
X031740Y010166D01*
X031740Y010033D02*
X031540Y010033D01*
X031607Y010100D01*
X031540Y010166D01*
X031573Y009945D02*
X031540Y009912D01*
X031540Y009845D01*
X031573Y009812D01*
X031607Y009812D01*
X031640Y009845D01*
X031640Y009912D01*
X031673Y009945D01*
X031707Y009945D01*
X031740Y009912D01*
X031740Y009845D01*
X031707Y009812D01*
X031740Y009658D02*
X031540Y009658D01*
X031540Y009724D02*
X031540Y009591D01*
X031573Y009504D02*
X031540Y009470D01*
X031540Y009403D01*
X031573Y009370D01*
X031707Y009370D01*
X031740Y009403D01*
X031740Y009470D01*
X031707Y009504D01*
X031573Y009504D01*
X031573Y009283D02*
X031640Y009283D01*
X031673Y009249D01*
X031673Y009149D01*
X031740Y009149D02*
X031540Y009149D01*
X031540Y009249D01*
X031573Y009283D01*
X031540Y009062D02*
X031740Y009062D01*
X031740Y008928D02*
X031540Y008928D01*
X031607Y008995D01*
X031540Y009062D01*
X031540Y008847D02*
X031540Y008781D01*
X031540Y008814D02*
X031740Y008814D01*
X031740Y008781D02*
X031740Y008847D01*
X031740Y008693D02*
X031673Y008626D01*
X031673Y008660D02*
X031673Y008560D01*
X031740Y008560D02*
X031540Y008560D01*
X031540Y008660D01*
X031573Y008693D01*
X031640Y008693D01*
X031673Y008660D01*
X031540Y008472D02*
X031540Y008339D01*
X031540Y008406D02*
X031740Y008406D01*
X030706Y007039D02*
X030540Y007039D01*
X030506Y007072D01*
X030606Y007072D02*
X030606Y007005D01*
X030573Y006918D02*
X030706Y006918D01*
X030706Y006818D01*
X030673Y006784D01*
X030573Y006784D01*
X030706Y006697D02*
X030706Y006563D01*
X030706Y006630D02*
X030506Y006630D01*
X030573Y006563D01*
X030540Y006476D02*
X030673Y006342D01*
X030706Y006376D01*
X030706Y006442D01*
X030673Y006476D01*
X030540Y006476D01*
X030506Y006442D01*
X030506Y006376D01*
X030540Y006342D01*
X030673Y006342D01*
X030673Y006265D02*
X030706Y006265D01*
X030706Y006232D01*
X030673Y006232D01*
X030673Y006265D01*
X030673Y006144D02*
X030706Y006111D01*
X030706Y006044D01*
X030673Y006011D01*
X030540Y006144D01*
X030673Y006144D01*
X030776Y006161D02*
X030776Y006468D01*
X030540Y006144D02*
X030506Y006111D01*
X030506Y006044D01*
X030540Y006011D01*
X030673Y006011D01*
X030776Y004718D02*
X030776Y004411D01*
X030623Y004564D02*
X030930Y004564D01*
X034120Y002652D02*
X034273Y002805D01*
X034580Y002805D01*
X034350Y002805D02*
X034350Y002498D01*
X034273Y002498D02*
X034120Y002652D01*
X034273Y002498D02*
X034580Y002498D01*
X035120Y002575D02*
X035196Y002498D01*
X035503Y002498D01*
X035580Y002575D01*
X035580Y002729D01*
X035503Y002805D01*
X035196Y002805D02*
X035120Y002729D01*
X035120Y002575D01*
X036120Y002498D02*
X036120Y002729D01*
X036196Y002805D01*
X036273Y002805D01*
X036350Y002729D01*
X036350Y002498D01*
X036580Y002498D02*
X036580Y002729D01*
X036503Y002805D01*
X036427Y002805D01*
X036350Y002729D01*
X036580Y002498D02*
X036120Y002498D01*
X036120Y006498D02*
X036580Y006498D01*
X036580Y006805D01*
X036350Y006652D02*
X036350Y006498D01*
X036120Y006498D02*
X036120Y006805D01*
X034580Y006498D02*
X034120Y006498D01*
X034120Y006805D01*
X034350Y006652D02*
X034350Y006498D01*
X029223Y008139D02*
X029190Y008106D01*
X029090Y008106D01*
X029090Y008039D02*
X029090Y008239D01*
X029190Y008239D01*
X029223Y008206D01*
X029223Y008139D01*
X029002Y008206D02*
X028969Y008239D01*
X028902Y008239D01*
X028869Y008206D01*
X028869Y008072D01*
X028902Y008039D01*
X028969Y008039D01*
X029002Y008072D01*
X029002Y008206D01*
X028781Y008206D02*
X028748Y008239D01*
X028681Y008239D01*
X028648Y008206D01*
X028648Y008172D01*
X028681Y008139D01*
X028748Y008139D01*
X028781Y008106D01*
X028781Y008072D01*
X028748Y008039D01*
X028681Y008039D01*
X028648Y008072D01*
X028560Y008072D02*
X028527Y008039D01*
X028460Y008039D01*
X028427Y008072D01*
X028460Y008139D02*
X028527Y008139D01*
X028560Y008106D01*
X028560Y008072D01*
X028460Y008139D02*
X028427Y008172D01*
X028427Y008206D01*
X028460Y008239D01*
X028527Y008239D01*
X028560Y008206D01*
X028339Y008039D02*
X028206Y008039D01*
X028206Y008239D01*
X028118Y008206D02*
X028118Y008139D01*
X028085Y008106D01*
X027985Y008106D01*
X028052Y008106D02*
X028118Y008039D01*
X027985Y008039D02*
X027985Y008239D01*
X028085Y008239D01*
X028118Y008206D01*
X027897Y008206D02*
X027864Y008239D01*
X027797Y008239D01*
X027764Y008206D01*
X027676Y008206D02*
X027676Y008172D01*
X027643Y008139D01*
X027676Y008106D01*
X027676Y008072D01*
X027643Y008039D01*
X027576Y008039D01*
X027543Y008072D01*
X027455Y008039D02*
X027322Y008039D01*
X027455Y008172D01*
X027455Y008206D01*
X027422Y008239D01*
X027355Y008239D01*
X027322Y008206D01*
X027234Y008239D02*
X027101Y008239D01*
X027168Y008239D02*
X027168Y008039D01*
X026947Y008139D02*
X026880Y008139D01*
X026880Y008039D02*
X026880Y008239D01*
X027013Y008239D01*
X027543Y008206D02*
X027576Y008239D01*
X027643Y008239D01*
X027676Y008206D01*
X027643Y008139D02*
X027610Y008139D01*
X027764Y008039D02*
X027897Y008172D01*
X027897Y008206D01*
X027897Y008039D02*
X027764Y008039D01*
X024557Y011539D02*
X024423Y011672D01*
X024557Y011672D01*
X024590Y011639D01*
X024590Y011572D01*
X024557Y011539D01*
X024423Y011539D01*
X024390Y011572D01*
X024390Y011639D01*
X024423Y011672D01*
X024557Y011760D02*
X024557Y011793D01*
X024590Y011793D01*
X024590Y011760D01*
X024557Y011760D01*
X024590Y011870D02*
X024590Y012004D01*
X024590Y011937D02*
X024390Y011937D01*
X024457Y011870D01*
X024457Y012091D02*
X024557Y012091D01*
X024590Y012125D01*
X024590Y012225D01*
X024457Y012225D01*
X024490Y012312D02*
X024490Y012379D01*
X024423Y012346D02*
X024390Y012379D01*
X024423Y012346D02*
X024590Y012346D01*
X016332Y007483D02*
X016198Y007483D01*
X016198Y007283D01*
X016111Y007283D02*
X016111Y007416D01*
X016198Y007383D02*
X016265Y007383D01*
X016111Y007283D02*
X016011Y007283D01*
X015977Y007316D01*
X015977Y007416D01*
X015890Y007283D02*
X015756Y007283D01*
X015823Y007283D02*
X015823Y007483D01*
X015756Y007416D01*
X015679Y007316D02*
X015679Y007283D01*
X015646Y007283D01*
X015646Y007316D01*
X015679Y007316D01*
X015558Y007316D02*
X015558Y007450D01*
X015425Y007316D01*
X015458Y007283D01*
X015525Y007283D01*
X015558Y007316D01*
X015425Y007316D02*
X015425Y007450D01*
X015458Y007483D01*
X015525Y007483D01*
X015558Y007450D01*
X013742Y007399D02*
X013609Y007266D01*
X013642Y007299D02*
X013742Y007199D01*
X013609Y007199D02*
X013609Y007399D01*
X013521Y007366D02*
X013388Y007232D01*
X013421Y007199D01*
X013488Y007199D01*
X013521Y007232D01*
X013521Y007366D01*
X013488Y007399D01*
X013421Y007399D01*
X013388Y007366D01*
X013388Y007232D01*
X013300Y007199D02*
X013167Y007199D01*
X013234Y007199D02*
X013234Y007399D01*
X013167Y007332D01*
X011208Y005768D02*
X011131Y005845D01*
X010824Y005845D01*
X010748Y005768D01*
X010748Y005538D01*
X011208Y005538D01*
X011208Y005768D01*
X011208Y005384D02*
X010748Y005384D01*
X010901Y005231D01*
X010748Y005077D01*
X011208Y005077D01*
X011131Y004924D02*
X011208Y004847D01*
X011208Y004694D01*
X011131Y004617D01*
X010978Y004694D02*
X010978Y004847D01*
X011055Y004924D01*
X011131Y004924D01*
X010978Y004694D02*
X010901Y004617D01*
X010824Y004617D01*
X010748Y004694D01*
X010748Y004847D01*
X010824Y004924D01*
X010748Y004464D02*
X011055Y004157D01*
X010978Y004233D02*
X011208Y004464D01*
X011208Y004157D02*
X010748Y004157D01*
X010824Y004003D02*
X010748Y003926D01*
X010748Y003773D01*
X010824Y003696D01*
X011131Y003696D01*
X011208Y003773D01*
X011208Y003926D01*
X011131Y004003D01*
X011208Y003543D02*
X010901Y003543D01*
X010748Y003389D01*
X010901Y003236D01*
X011208Y003236D01*
X010978Y003236D02*
X010978Y003543D01*
X010748Y003082D02*
X010748Y002929D01*
X010748Y003006D02*
X011131Y003006D01*
X011208Y002929D01*
X011208Y002852D01*
X011131Y002775D01*
X011131Y002622D02*
X011208Y002545D01*
X011208Y002392D01*
X011131Y002315D01*
X010824Y002315D01*
X010748Y002392D01*
X010748Y002545D01*
X010824Y002622D01*
X010824Y002162D02*
X010748Y002085D01*
X010748Y001855D01*
X011208Y001855D01*
X011208Y002085D01*
X011131Y002162D01*
X010824Y002162D01*
X017780Y002122D02*
X017780Y001816D01*
X017857Y001739D01*
X018010Y001739D01*
X018087Y001816D01*
X018240Y001969D02*
X018547Y001969D01*
X018471Y001739D02*
X018471Y002199D01*
X018240Y001969D01*
X018087Y002122D02*
X018010Y002199D01*
X017857Y002199D01*
X017780Y002122D01*
X018557Y003339D02*
X018710Y003339D01*
X018787Y003416D01*
X018787Y003492D01*
X018710Y003569D01*
X018480Y003569D01*
X018480Y003416D01*
X018557Y003339D01*
X018480Y003569D02*
X018633Y003722D01*
X018787Y003799D01*
X018940Y003722D02*
X018940Y003646D01*
X019017Y003569D01*
X019171Y003569D01*
X019247Y003492D01*
X019247Y003416D01*
X019171Y003339D01*
X019017Y003339D01*
X018940Y003416D01*
X018940Y003492D01*
X019017Y003569D01*
X019171Y003569D02*
X019247Y003646D01*
X019247Y003722D01*
X019171Y003799D01*
X019017Y003799D01*
X018940Y003722D01*
X019401Y003646D02*
X019401Y003416D01*
X019478Y003339D01*
X019708Y003339D01*
X019708Y003646D01*
X019861Y003569D02*
X020015Y003569D01*
X019938Y003722D02*
X019938Y003339D01*
X019938Y003722D02*
X020015Y003799D01*
X021319Y003060D02*
X021319Y003027D01*
X021353Y002993D01*
X021419Y002993D01*
X021453Y002960D01*
X021453Y002926D01*
X021419Y002893D01*
X021353Y002893D01*
X021319Y002926D01*
X021319Y003060D02*
X021353Y003093D01*
X021419Y003093D01*
X021453Y003060D01*
X021540Y003060D02*
X021540Y002926D01*
X021574Y002893D01*
X021640Y002893D01*
X021674Y002926D01*
X021761Y002893D02*
X021761Y003093D01*
X021674Y003060D02*
X021640Y003093D01*
X021574Y003093D01*
X021540Y003060D01*
X021761Y002993D02*
X021895Y002993D01*
X021895Y003093D02*
X021895Y002893D01*
X021982Y002926D02*
X022016Y002893D01*
X022082Y002893D01*
X022116Y002926D01*
X022116Y003060D01*
X022082Y003093D01*
X022016Y003093D01*
X021982Y003060D01*
X021982Y002926D01*
X022203Y003093D02*
X022337Y003093D01*
X022270Y003093D02*
X022270Y002893D01*
X022491Y002893D02*
X022491Y003093D01*
X022424Y003093D02*
X022558Y003093D01*
X022645Y003093D02*
X022645Y002893D01*
X022645Y002960D02*
X022779Y003093D01*
X022866Y003093D02*
X022866Y002893D01*
X023000Y002893D01*
X022933Y002993D02*
X022866Y002993D01*
X022866Y003093D02*
X023000Y003093D01*
X023087Y003093D02*
X023087Y003060D01*
X023154Y002993D01*
X023154Y002893D01*
X023154Y002993D02*
X023221Y003060D01*
X023221Y003093D01*
X022779Y002893D02*
X022679Y002993D01*
X019897Y005833D02*
X019897Y006033D01*
X019897Y005933D02*
X019764Y005933D01*
X019676Y005967D02*
X019676Y005833D01*
X019576Y005833D01*
X019543Y005867D01*
X019543Y005967D01*
X019455Y006000D02*
X019322Y005867D01*
X019355Y005833D01*
X019422Y005833D01*
X019455Y005867D01*
X019455Y006000D01*
X019422Y006033D01*
X019355Y006033D01*
X019322Y006000D01*
X019322Y005867D01*
X019234Y005867D02*
X019201Y005833D01*
X019134Y005833D01*
X019101Y005867D01*
X019234Y006000D01*
X019234Y005867D01*
X019234Y006000D02*
X019201Y006033D01*
X019134Y006033D01*
X019101Y006000D01*
X019101Y005867D01*
X019013Y005833D02*
X018880Y005833D01*
X018947Y005833D02*
X018947Y006033D01*
X018880Y005967D01*
X019764Y006033D02*
X019764Y005833D01*
X009390Y011822D02*
X009357Y011789D01*
X009223Y011922D01*
X009357Y011922D01*
X009390Y011889D01*
X009390Y011822D01*
X009357Y011789D02*
X009223Y011789D01*
X009190Y011822D01*
X009190Y011889D01*
X009223Y011922D01*
X009357Y012010D02*
X009357Y012043D01*
X009390Y012043D01*
X009390Y012010D01*
X009357Y012010D01*
X009390Y012120D02*
X009390Y012254D01*
X009390Y012187D02*
X009190Y012187D01*
X009257Y012120D01*
X009257Y012341D02*
X009357Y012341D01*
X009390Y012375D01*
X009390Y012475D01*
X009257Y012475D01*
X009290Y012562D02*
X009290Y012629D01*
X009390Y012562D02*
X009190Y012562D01*
X009190Y012696D01*
X008490Y012535D02*
X008290Y012535D01*
X008390Y012535D02*
X008390Y012402D01*
X008357Y012314D02*
X008490Y012314D01*
X008490Y012214D01*
X008457Y012181D01*
X008357Y012181D01*
X008323Y012093D02*
X008457Y011960D01*
X008490Y011993D01*
X008490Y012060D01*
X008457Y012093D01*
X008323Y012093D01*
X008290Y012060D01*
X008290Y011993D01*
X008323Y011960D01*
X008457Y011960D01*
X008490Y011872D02*
X008490Y011739D01*
X008490Y011806D02*
X008290Y011806D01*
X008357Y011739D01*
X008290Y012402D02*
X008490Y012402D01*
X037270Y010021D02*
X037270Y009921D01*
X037470Y009921D01*
X037470Y010021D01*
X037437Y010054D01*
X037303Y010054D01*
X037270Y010021D01*
X037270Y009833D02*
X037270Y009700D01*
X037470Y009700D01*
X037470Y009833D01*
X037370Y009766D02*
X037370Y009700D01*
X037370Y009612D02*
X037403Y009579D01*
X037403Y009479D01*
X037403Y009546D02*
X037470Y009612D01*
X037370Y009612D02*
X037303Y009612D01*
X037270Y009579D01*
X037270Y009479D01*
X037470Y009479D01*
D13*
X001110Y002085D02*
X000610Y002085D01*
X000360Y002335D01*
X000360Y002835D01*
X000610Y003085D01*
X000360Y003335D01*
X000360Y003835D01*
X000610Y004085D01*
X000360Y004335D01*
X000360Y004835D01*
X000610Y005085D01*
X000360Y005335D01*
X000360Y005835D01*
X000610Y006085D01*
X000360Y006335D01*
X000360Y006835D01*
X000610Y007085D01*
X000360Y007335D01*
X000360Y007835D01*
X000610Y008085D01*
X000360Y008335D01*
X000360Y008835D01*
X000610Y009085D01*
X000360Y009335D01*
X000360Y009835D01*
X000610Y010085D01*
X000360Y010335D01*
X000360Y010835D01*
X000610Y011085D01*
X000360Y011335D01*
X000360Y011835D01*
X000610Y012085D01*
X000360Y012335D01*
X000360Y012835D01*
X000610Y013085D01*
X000360Y013335D01*
X000360Y013835D01*
X000610Y014085D01*
X000360Y014335D01*
X000360Y014835D01*
X000610Y015085D01*
X000360Y015335D01*
X000360Y015835D01*
X000610Y016085D01*
X001110Y016085D01*
X001360Y015835D01*
X001360Y015335D01*
X001110Y015085D01*
X001360Y014835D01*
X001360Y014335D01*
X001110Y014085D01*
X001360Y013835D01*
X001360Y013335D01*
X001110Y013085D01*
X001360Y012835D01*
X001360Y012335D01*
X001110Y012085D01*
X001360Y011835D01*
X001360Y011335D01*
X001110Y011085D01*
X001360Y010835D01*
X001360Y010335D01*
X001110Y010085D01*
X001360Y009835D01*
X001360Y009335D01*
X001110Y009085D01*
X001360Y008835D01*
X001360Y008335D01*
X001110Y008085D01*
X001360Y007835D01*
X001360Y007335D01*
X001110Y007085D01*
X001360Y006835D01*
X001360Y006335D01*
X001110Y006085D01*
X001360Y005835D01*
X001360Y005335D01*
X001110Y005085D01*
X001360Y004835D01*
X001360Y004335D01*
X001110Y004085D01*
X001360Y003835D01*
X001360Y003335D01*
X001110Y003085D01*
X001360Y002835D01*
X001360Y002335D01*
X001110Y002085D01*
X003360Y002335D02*
X003360Y002835D01*
X003610Y003085D01*
X003360Y003335D01*
X003360Y003835D01*
X003610Y004085D01*
X003360Y004335D01*
X003360Y004835D01*
X003610Y005085D01*
X003360Y005335D01*
X003360Y005835D01*
X003610Y006085D01*
X003360Y006335D01*
X003360Y006835D01*
X003610Y007085D01*
X003360Y007335D01*
X003360Y007835D01*
X003610Y008085D01*
X003360Y008335D01*
X003360Y008835D01*
X003610Y009085D01*
X003360Y009335D01*
X003360Y009835D01*
X003610Y010085D01*
X003360Y010335D01*
X003360Y010835D01*
X003610Y011085D01*
X003360Y011335D01*
X003360Y011835D01*
X003610Y012085D01*
X003360Y012335D01*
X003360Y012835D01*
X003610Y013085D01*
X003360Y013335D01*
X003360Y013835D01*
X003610Y014085D01*
X003360Y014335D01*
X003360Y014835D01*
X003610Y015085D01*
X003360Y015335D01*
X003360Y015835D01*
X003610Y016085D01*
X004110Y016085D01*
X004360Y015835D01*
X004360Y015335D01*
X004110Y015085D01*
X004360Y014835D01*
X004360Y014335D01*
X004110Y014085D01*
X004360Y013835D01*
X004360Y013335D01*
X004110Y013085D01*
X004360Y012835D01*
X004360Y012335D01*
X004110Y012085D01*
X004360Y011835D01*
X004360Y011335D01*
X004110Y011085D01*
X004360Y010835D01*
X004360Y010335D01*
X004110Y010085D01*
X004360Y009835D01*
X004360Y009335D01*
X004110Y009085D01*
X004360Y008835D01*
X004360Y008335D01*
X004110Y008085D01*
X004360Y007835D01*
X004360Y007335D01*
X004110Y007085D01*
X004360Y006835D01*
X004360Y006335D01*
X004110Y006085D01*
X004360Y005835D01*
X004360Y005335D01*
X004110Y005085D01*
X004360Y004835D01*
X004360Y004335D01*
X004110Y004085D01*
X004360Y003835D01*
X004360Y003335D01*
X004110Y003085D01*
X004360Y002835D01*
X004360Y002335D01*
X004110Y002085D01*
X003610Y002085D01*
X003360Y002335D01*
X015393Y002583D02*
X015393Y003083D01*
X015643Y003333D01*
X016143Y003333D01*
X016393Y003083D01*
X016643Y003333D01*
X017143Y003333D01*
X017393Y003083D01*
X017393Y002583D01*
X017143Y002333D01*
X016643Y002333D01*
X016393Y002583D01*
X016143Y002333D01*
X015643Y002333D01*
X015393Y002583D01*
X022593Y003509D02*
X022595Y003524D01*
X022601Y003537D01*
X022610Y003549D01*
X022621Y003558D01*
X022635Y003564D01*
X022650Y003566D01*
X022665Y003564D01*
X022678Y003558D01*
X022690Y003549D01*
X022699Y003538D01*
X022705Y003524D01*
X022707Y003509D01*
X022705Y003494D01*
X022699Y003481D01*
X022690Y003469D01*
X022679Y003460D01*
X022665Y003454D01*
X022650Y003452D01*
X022635Y003454D01*
X022622Y003460D01*
X022610Y003469D01*
X022601Y003480D01*
X022595Y003494D01*
X022593Y003509D01*
X026164Y003107D02*
X026164Y003934D01*
X026440Y004918D02*
X026794Y004918D01*
X028526Y004918D02*
X028880Y004918D01*
X029156Y003934D02*
X029156Y003107D01*
X031830Y008789D02*
X031830Y010049D01*
X032066Y010049D01*
X032854Y010049D02*
X033090Y010049D01*
X033090Y008789D01*
X036518Y009657D02*
X036726Y009796D01*
X036726Y009977D01*
X036691Y009809D02*
X036523Y009937D01*
X036726Y009796D02*
X036726Y009610D01*
X030739Y016873D02*
X030542Y016873D01*
X030739Y016873D02*
X030739Y018251D01*
X027195Y018251D01*
X027195Y016873D01*
X027392Y016873D01*
X026406Y017630D02*
X026406Y017816D01*
X026198Y017677D01*
X026371Y017829D02*
X026203Y017957D01*
X026406Y017997D02*
X026406Y017816D01*
X017716Y013077D02*
X017204Y013077D01*
X017204Y011660D02*
X017716Y011660D01*
D14*
X020480Y008793D02*
X021347Y009659D01*
X024772Y009659D01*
X024772Y006588D01*
X022685Y006588D01*
X022764Y006863D02*
X022737Y006835D01*
X022712Y006805D01*
X022691Y006772D01*
X022673Y006738D01*
X022658Y006702D01*
X022647Y006664D01*
X022639Y006626D01*
X022635Y006587D01*
X022635Y006549D01*
X022639Y006510D01*
X022647Y006472D01*
X022658Y006434D01*
X022673Y006398D01*
X022691Y006364D01*
X022712Y006331D01*
X022737Y006301D01*
X022764Y006273D01*
X022213Y006273D02*
X022213Y006588D01*
X022213Y006903D01*
X022213Y006588D01*
X020520Y006588D01*
X020480Y006312D02*
X021347Y005446D01*
X024772Y005446D01*
X024772Y006588D01*
X021504Y008399D02*
X021229Y008399D01*
X021229Y008714D01*
X021229Y008124D01*
X021229Y008399D02*
X020914Y008399D01*
X021229Y008399D02*
X021504Y008399D01*
X020480Y008793D02*
X020480Y006312D01*
X019784Y004957D02*
X017815Y004957D01*
X017500Y004642D01*
X017500Y002359D01*
X020099Y002359D01*
X020099Y004642D01*
X019784Y004957D01*
X019469Y004721D02*
X019469Y004406D01*
X019784Y004406D01*
X019193Y004406D01*
X019469Y004406D02*
X019469Y004131D01*
X019469Y004406D01*
X018327Y003658D02*
X018051Y003658D01*
X017776Y003658D01*
X018051Y003658D02*
X018327Y003658D01*
X018051Y003658D02*
X018051Y004918D01*
X016488Y003988D02*
X016488Y003688D01*
X016337Y003538D01*
X016187Y003688D01*
X016187Y003988D01*
X016027Y003913D02*
X015952Y003988D01*
X015802Y003988D01*
X015727Y003913D01*
X015727Y003838D01*
X015802Y003763D01*
X016027Y003763D01*
X016027Y003613D02*
X016027Y003913D01*
X016027Y003613D02*
X015952Y003538D01*
X015802Y003538D01*
X015727Y003613D01*
X018051Y003461D02*
X018051Y002398D01*
X018327Y003343D02*
X018299Y003370D01*
X018269Y003394D01*
X018236Y003415D01*
X018202Y003433D01*
X018165Y003446D01*
X018128Y003456D01*
X018090Y003462D01*
X018051Y003464D01*
X018012Y003462D01*
X017974Y003456D01*
X017937Y003446D01*
X017900Y003433D01*
X017866Y003415D01*
X017833Y003394D01*
X017803Y003370D01*
X017775Y003343D01*
X021499Y002834D02*
X022287Y002834D01*
X021617Y002794D02*
X021617Y002122D01*
X021499Y002083D02*
X022287Y002083D01*
X013618Y001720D02*
X013618Y001681D01*
X013618Y001720D01*
X008643Y004724D02*
X008493Y004724D01*
X008568Y004724D02*
X008568Y005174D01*
X008493Y005174D02*
X008643Y005174D01*
X008333Y005099D02*
X008333Y004949D01*
X008258Y004874D01*
X008032Y004874D01*
X008032Y004724D02*
X008032Y005174D01*
X008258Y005174D01*
X008333Y005099D01*
X007872Y005099D02*
X007797Y005174D01*
X007647Y005174D01*
X007572Y005099D01*
X007572Y005024D01*
X007647Y004949D01*
X007797Y004949D01*
X007872Y004874D01*
X007872Y004799D01*
X007797Y004724D01*
X007647Y004724D01*
X007572Y004799D01*
X031310Y010789D02*
X037610Y010789D01*
X037610Y017088D01*
X031310Y017088D01*
X031310Y010789D01*
X032502Y007549D02*
X037698Y007549D01*
X037698Y002037D01*
X035002Y002037D01*
X032502Y002037D01*
X032502Y007549D01*
X034352Y004892D02*
X034354Y004947D01*
X034360Y005001D01*
X034370Y005055D01*
X034384Y005107D01*
X034401Y005159D01*
X034423Y005209D01*
X034448Y005258D01*
X034476Y005305D01*
X034508Y005349D01*
X034543Y005391D01*
X034581Y005430D01*
X034622Y005467D01*
X034665Y005500D01*
X034710Y005530D01*
X034758Y005557D01*
X034807Y005580D01*
X034858Y005600D01*
X034911Y005616D01*
X034964Y005628D01*
X035018Y005636D01*
X035073Y005640D01*
X035127Y005640D01*
X035182Y005636D01*
X035236Y005628D01*
X035289Y005616D01*
X035342Y005600D01*
X035393Y005580D01*
X035442Y005557D01*
X035490Y005530D01*
X035535Y005500D01*
X035578Y005467D01*
X035619Y005430D01*
X035657Y005391D01*
X035692Y005349D01*
X035724Y005305D01*
X035752Y005258D01*
X035777Y005209D01*
X035799Y005159D01*
X035816Y005107D01*
X035830Y005055D01*
X035840Y005001D01*
X035846Y004947D01*
X035848Y004892D01*
X035846Y004837D01*
X035840Y004783D01*
X035830Y004729D01*
X035816Y004677D01*
X035799Y004625D01*
X035777Y004575D01*
X035752Y004526D01*
X035724Y004479D01*
X035692Y004435D01*
X035657Y004393D01*
X035619Y004354D01*
X035578Y004317D01*
X035535Y004284D01*
X035490Y004254D01*
X035442Y004227D01*
X035393Y004204D01*
X035342Y004184D01*
X035289Y004168D01*
X035236Y004156D01*
X035182Y004148D01*
X035127Y004144D01*
X035073Y004144D01*
X035018Y004148D01*
X034964Y004156D01*
X034911Y004168D01*
X034858Y004184D01*
X034807Y004204D01*
X034758Y004227D01*
X034710Y004254D01*
X034665Y004284D01*
X034622Y004317D01*
X034581Y004354D01*
X034543Y004393D01*
X034508Y004435D01*
X034476Y004479D01*
X034448Y004526D01*
X034423Y004575D01*
X034401Y004625D01*
X034384Y004677D01*
X034370Y004729D01*
X034360Y004783D01*
X034354Y004837D01*
X034352Y004892D01*
X033919Y004892D02*
X033921Y004961D01*
X033927Y005029D01*
X033937Y005097D01*
X033951Y005164D01*
X033969Y005231D01*
X033990Y005296D01*
X034016Y005360D01*
X034045Y005422D01*
X034077Y005482D01*
X034113Y005541D01*
X034153Y005597D01*
X034195Y005651D01*
X034241Y005702D01*
X034290Y005751D01*
X034341Y005797D01*
X034395Y005839D01*
X034451Y005879D01*
X034509Y005915D01*
X034570Y005947D01*
X034632Y005976D01*
X034696Y006002D01*
X034761Y006023D01*
X034828Y006041D01*
X034895Y006055D01*
X034963Y006065D01*
X035031Y006071D01*
X035100Y006073D01*
X035169Y006071D01*
X035237Y006065D01*
X035305Y006055D01*
X035372Y006041D01*
X035439Y006023D01*
X035504Y006002D01*
X035568Y005976D01*
X035630Y005947D01*
X035690Y005915D01*
X035749Y005879D01*
X035805Y005839D01*
X035859Y005797D01*
X035910Y005751D01*
X035959Y005702D01*
X036005Y005651D01*
X036047Y005597D01*
X036087Y005541D01*
X036123Y005482D01*
X036155Y005422D01*
X036184Y005360D01*
X036210Y005296D01*
X036231Y005231D01*
X036249Y005164D01*
X036263Y005097D01*
X036273Y005029D01*
X036279Y004961D01*
X036281Y004892D01*
X036279Y004823D01*
X036273Y004755D01*
X036263Y004687D01*
X036249Y004620D01*
X036231Y004553D01*
X036210Y004488D01*
X036184Y004424D01*
X036155Y004362D01*
X036123Y004301D01*
X036087Y004243D01*
X036047Y004187D01*
X036005Y004133D01*
X035959Y004082D01*
X035910Y004033D01*
X035859Y003987D01*
X035805Y003945D01*
X035749Y003905D01*
X035691Y003869D01*
X035630Y003837D01*
X035568Y003808D01*
X035504Y003782D01*
X035439Y003761D01*
X035372Y003743D01*
X035305Y003729D01*
X035237Y003719D01*
X035169Y003713D01*
X035100Y003711D01*
X035031Y003713D01*
X034963Y003719D01*
X034895Y003729D01*
X034828Y003743D01*
X034761Y003761D01*
X034696Y003782D01*
X034632Y003808D01*
X034570Y003837D01*
X034509Y003869D01*
X034451Y003905D01*
X034395Y003945D01*
X034341Y003987D01*
X034290Y004033D01*
X034241Y004082D01*
X034195Y004133D01*
X034153Y004187D01*
X034113Y004243D01*
X034077Y004301D01*
X034045Y004362D01*
X034016Y004424D01*
X033990Y004488D01*
X033969Y004553D01*
X033951Y004620D01*
X033937Y004687D01*
X033927Y004755D01*
X033921Y004823D01*
X033919Y004892D01*
D15*
X037090Y008284D02*
X037065Y008309D01*
X037065Y008359D01*
X037090Y008384D01*
X037115Y008384D01*
X037215Y008284D01*
X037215Y008384D01*
X037215Y008431D02*
X037115Y008531D01*
X037090Y008531D01*
X037065Y008506D01*
X037065Y008456D01*
X037090Y008431D01*
X037215Y008431D02*
X037215Y008531D01*
X037190Y008578D02*
X037090Y008679D01*
X037190Y008679D01*
X037215Y008653D01*
X037215Y008603D01*
X037190Y008578D01*
X037090Y008578D01*
X037065Y008603D01*
X037065Y008653D01*
X037090Y008679D01*
X022505Y004535D02*
X022355Y004535D01*
X022430Y004460D01*
X022430Y004560D01*
X022430Y004413D02*
X022430Y004338D01*
X022405Y004313D01*
X022380Y004313D01*
X022355Y004338D01*
X022355Y004388D01*
X022380Y004413D01*
X022480Y004413D01*
X022505Y004388D01*
X022505Y004338D01*
X022480Y004313D01*
X022480Y004266D02*
X022505Y004241D01*
X022505Y004191D01*
X022480Y004166D01*
X022430Y004166D02*
X022405Y004216D01*
X022405Y004241D01*
X022430Y004266D01*
X022480Y004266D01*
X022430Y004166D02*
X022355Y004166D01*
X022355Y004266D01*
X022255Y004289D02*
X022255Y004339D01*
X022230Y004364D01*
X022255Y004411D02*
X022105Y004411D01*
X022130Y004364D02*
X022105Y004339D01*
X022105Y004289D01*
X022130Y004264D01*
X022230Y004264D01*
X022255Y004289D01*
X022255Y004167D02*
X022105Y004167D01*
X022105Y004117D02*
X022105Y004217D01*
X022105Y004068D02*
X022105Y004018D01*
X022105Y004043D02*
X022255Y004043D01*
X022255Y004018D02*
X022255Y004068D01*
X022255Y003971D02*
X022105Y003971D01*
X022105Y003871D02*
X022255Y003871D01*
X022205Y003921D01*
X022255Y003971D01*
X022355Y003971D02*
X022505Y003971D01*
X022505Y004018D02*
X022405Y004119D01*
X022380Y004119D01*
X022355Y004093D01*
X022355Y004043D01*
X022380Y004018D01*
X022355Y003971D02*
X022405Y003921D01*
X022355Y003871D01*
X022505Y003871D01*
X022505Y003824D02*
X022505Y003724D01*
X022355Y003724D01*
X022255Y003749D02*
X022230Y003724D01*
X022255Y003749D02*
X022255Y003799D01*
X022230Y003824D01*
X022205Y003824D01*
X022180Y003799D01*
X022180Y003749D01*
X022155Y003724D01*
X022130Y003724D01*
X022105Y003749D01*
X022105Y003799D01*
X022130Y003824D01*
X022505Y004018D02*
X022505Y004119D01*
X022180Y004411D02*
X022180Y004511D01*
X022205Y004559D02*
X022205Y004634D01*
X022180Y004659D01*
X022130Y004659D01*
X022105Y004634D01*
X022105Y004559D01*
X022255Y004559D01*
X022255Y004511D02*
X022105Y004511D01*
X022205Y004609D02*
X022255Y004659D01*
X022255Y004706D02*
X022255Y004806D01*
X022230Y004853D02*
X022255Y004878D01*
X022255Y004928D01*
X022230Y004953D01*
X022180Y004953D01*
X022180Y004903D01*
X022130Y004853D02*
X022230Y004853D01*
X022130Y004853D02*
X022105Y004878D01*
X022105Y004928D01*
X022130Y004953D01*
X022105Y004806D02*
X022105Y004706D01*
X022255Y004706D01*
X022180Y004706D02*
X022180Y004756D01*
D16*
X022173Y002610D02*
X022247Y002536D01*
X022247Y002389D01*
X022247Y002500D02*
X022100Y002500D01*
X022100Y002536D02*
X022173Y002610D01*
X022100Y002536D02*
X022100Y002389D01*
X025677Y007431D02*
X025677Y009607D01*
X029643Y009607D01*
X029643Y007431D01*
X025677Y007431D01*
X025335Y016479D02*
X025288Y016479D01*
X025265Y016502D01*
X025358Y016596D01*
X025358Y016502D01*
X025335Y016479D01*
X025265Y016502D02*
X025265Y016596D01*
X025288Y016619D01*
X025335Y016619D01*
X025358Y016596D01*
X025211Y016596D02*
X025187Y016619D01*
X025141Y016619D01*
X025117Y016596D01*
X025063Y016596D02*
X025040Y016619D01*
X024993Y016619D01*
X024970Y016596D01*
X025063Y016596D02*
X025063Y016572D01*
X024970Y016479D01*
X025063Y016479D01*
X025117Y016479D02*
X025211Y016572D01*
X025211Y016596D01*
X025211Y016479D02*
X025117Y016479D01*
X026920Y017672D02*
X026943Y017649D01*
X027037Y017649D01*
X027060Y017672D01*
X027060Y017719D01*
X027037Y017742D01*
X026990Y017742D01*
X026990Y017695D01*
X026943Y017742D02*
X026920Y017719D01*
X026920Y017672D01*
X026920Y017796D02*
X026920Y017866D01*
X026943Y017890D01*
X026990Y017890D01*
X027013Y017866D01*
X027013Y017796D01*
X027013Y017843D02*
X027060Y017890D01*
X027060Y017943D02*
X026920Y017943D01*
X027060Y018037D01*
X026920Y018037D01*
X026920Y017796D02*
X027060Y017796D01*
X028477Y017858D02*
X028514Y017822D01*
X028587Y017822D01*
X028624Y017858D01*
X028624Y017895D01*
X028587Y017932D01*
X028514Y017932D01*
X028477Y017969D01*
X028477Y018005D01*
X028514Y018042D01*
X028587Y018042D01*
X028624Y018005D01*
X028698Y017969D02*
X028771Y018042D01*
X028771Y017822D01*
X028698Y017822D02*
X028845Y017822D01*
D17*
X009725Y015157D03*
D18*
X009650Y015232D03*
X009800Y015232D03*
D19*
X009725Y015077D03*
M02*
