%
M48
M72
T01C0.0350
T02C0.0354
T03C0.0360
T04C0.0394
T05C0.0400
T06C0.0630
T07C0.0787
T08C0.0866
%
T01
X12007Y6701
X9196Y7091
X10994Y10094
X7702Y11504
X7440Y10156
X10384Y12621
X9164Y13200
X10991Y13639
X17791Y13658
X19370Y15353
X26535Y13145
X27345Y13145
X29182Y14795
X30348Y11237
X33403Y10277
X36206Y10656
X24462Y9390
X22973Y7602
X21539Y5661
X15988Y8276
X17743Y10287
T02
X26794Y3619
X28526Y3619
X28376Y17562
X29558Y17562
T03
X15725Y16697
X14725Y16697
X13725Y16697
X12725Y16697
X11725Y16697
X10725Y16697
X9725Y16697
X9725Y15697
X10725Y15697
X11725Y15697
X12725Y15697
X13725Y15697
X14725Y15697
X15725Y15697
T04
X34100Y7647
X36100Y7647
X36100Y1939
X35100Y1939
X34100Y1939
T05
X860Y2585
X860Y3585
X860Y4585
X860Y5585
X860Y6585
X860Y7585
X860Y8585
X860Y9585
X860Y10585
X860Y11585
X860Y12585
X860Y13585
X860Y14585
X860Y15585
X3860Y15585
X3860Y14585
X3860Y13585
X3860Y12585
X3860Y11585
X3860Y10585
X3860Y9585
X3860Y8585
X3860Y7585
X3860Y6585
X3860Y5585
X3860Y4585
X3860Y3585
X3860Y2585
X6375Y2949
X7375Y2949
X8375Y2949
X8375Y3949
X7375Y3949
X6375Y3949
X15893Y2833
X16893Y2833
T06
X11846Y2469
T07
X11846Y4240
T08
X33100Y4892
X37100Y4892
M30
