%
M48
M72
T01C0.0350
T02C0.0354
T03C0.0360
T04C0.0394
T05C0.0400
T06C0.0630
T07C0.0787
T08C0.0866
%
T01
X11007Y6701
X8196Y7091
X9994Y10094
X6702Y11504
X6440Y10156
X9384Y12621
X8164Y13200
X9991Y13639
X16791Y13658
X18370Y15353
X25535Y13145
X26345Y13145
X28182Y14795
X29348Y11237
X32403Y10277
X35206Y10656
X23462Y9390
X21973Y7602
X20539Y5661
X14988Y8276
X16743Y10287
T02
X25794Y3619
X27526Y3619
X27376Y17562
X28558Y17562
T03
X14725Y16697
X13725Y16697
X12725Y16697
X11725Y16697
X10725Y16697
X9725Y16697
X8725Y16697
X8725Y15697
X9725Y15697
X10725Y15697
X11725Y15697
X12725Y15697
X13725Y15697
X14725Y15697
T04
X33100Y7647
X35100Y7647
X35100Y1939
X34100Y1939
X33100Y1939
T05
X860Y2585
X860Y3585
X860Y4585
X860Y5585
X860Y6585
X860Y7585
X860Y8585
X860Y9585
X860Y10585
X860Y11585
X860Y12585
X860Y13585
X860Y14585
X860Y15585
X2860Y15585
X2860Y14585
X2860Y13585
X2860Y12585
X2860Y11585
X2860Y10585
X2860Y9585
X2860Y8585
X2860Y7585
X2860Y6585
X2860Y5585
X2860Y4585
X2860Y3585
X2860Y2585
X5375Y2949
X6375Y2949
X7375Y2949
X7375Y3949
X6375Y3949
X5375Y3949
X14893Y2833
X15893Y2833
T06
X10846Y2469
T07
X10846Y4240
T08
X32100Y4892
X36100Y4892
M30
