%
M48
M72
T01C0.0150
T02C0.0354
T03C0.0394
T04C0.0400
T05C0.0866
T06C0.1260
T07C0.1300
%
T01
X14203Y19235
X15180Y19337
X14154Y20726
X13484Y22163
X12628Y21786
X12255Y22563
X11734Y24639
X13050Y25514
X13509Y25446
X14481Y22529
X17056Y22242
X17008Y21061
X20188Y16688
X20716Y16117
X21538Y15339
X21776Y16080
X22585Y16152
X23185Y17876
X27248Y15675
T02
X22254Y10853
X20521Y10853
T03
X26327Y9173
X27327Y9173
X28327Y9173
X28327Y14881
X26327Y14881
T04
X29513Y20297
X29513Y21297
X18301Y16779
X17301Y16779
X16301Y16779
X15301Y16779
X14301Y16779
X13301Y16779
X12301Y16779
X11301Y16779
X10301Y16779
X9301Y16779
X8301Y16779
X7301Y16779
X6301Y16779
X5301Y16779
X5321Y19299
X5321Y20299
X5321Y21299
X6321Y21299
X6321Y20299
X6321Y19299
X6041Y32293
X5041Y32293
X5041Y34293
X6041Y34293
X7041Y34293
X8041Y34293
X9041Y34293
X10041Y34293
X11041Y34293
X12041Y34293
X13041Y34293
X14041Y34293
X15041Y34293
X16041Y34293
X17041Y34293
X18041Y34293
X18041Y32293
X17041Y32293
X16041Y32293
X15041Y32293
X14041Y32293
X13041Y32293
X12041Y32293
X11041Y32293
X10041Y32293
X9041Y32293
X8041Y32293
X7041Y32293
T05
X25327Y12125
X29327Y12125
T06
X26301Y29579
X7801Y14579
X5801Y28579
T07
X7091Y10389
X9061Y11569
X7091Y12749
M30
