G75*
G70*
%OFA0B0*%
%FSLAX24Y24*%
%IPPOS*%
%LPD*%
%AMOC8*
5,1,8,0,0,1.08239X$1,22.5*
%
%ADD10C,0.0591*%
%ADD11C,0.1299*%
%ADD12R,0.0860X0.0860*%
%ADD13OC8,0.0860*%
%ADD14C,0.0860*%
%ADD15C,0.0740*%
%ADD16OC8,0.1950*%
%ADD17C,0.0120*%
%ADD18C,0.0310*%
D10*
X026327Y009173D03*
X027327Y009173D03*
X028327Y009173D03*
X028327Y014881D03*
X026327Y014881D03*
D11*
X025327Y012125D03*
X029327Y012125D03*
D12*
X005321Y021299D03*
D13*
X005321Y020299D03*
X006321Y020299D03*
X006321Y021299D03*
X006321Y019299D03*
X005321Y019299D03*
D14*
X005301Y016779D03*
X006301Y016779D03*
X007301Y016779D03*
X008301Y016779D03*
X009301Y016779D03*
X010301Y016779D03*
X011301Y016779D03*
X012301Y016779D03*
X013301Y016779D03*
X014301Y016779D03*
X015301Y016779D03*
X016301Y016779D03*
X017301Y016779D03*
X018301Y016779D03*
X018041Y032293D03*
X017041Y032293D03*
X016041Y032293D03*
X015041Y032293D03*
X014041Y032293D03*
X013041Y032293D03*
X012041Y032293D03*
X011041Y032293D03*
X010041Y032293D03*
X009041Y032293D03*
X008041Y032293D03*
X007041Y032293D03*
X006041Y032293D03*
X005041Y032293D03*
X005041Y034293D03*
X006041Y034293D03*
X007041Y034293D03*
X008041Y034293D03*
X009041Y034293D03*
X010041Y034293D03*
X011041Y034293D03*
X012041Y034293D03*
X013041Y034293D03*
X014041Y034293D03*
X015041Y034293D03*
X016041Y034293D03*
X017041Y034293D03*
X018041Y034293D03*
D15*
X029513Y021297D03*
X029513Y020297D03*
D16*
X009061Y011569D03*
X007091Y012749D03*
X007091Y010389D03*
D17*
X004561Y008863D02*
X004561Y019719D01*
X004720Y019560D01*
X004711Y019551D01*
X004711Y019046D01*
X005069Y018689D01*
X005574Y018689D01*
X005836Y018950D01*
X006077Y018709D01*
X006281Y018709D01*
X006281Y019259D01*
X006361Y019259D01*
X006361Y019339D01*
X006911Y019339D01*
X006911Y019543D01*
X006670Y019784D01*
X006868Y019983D01*
X007203Y019648D01*
X007270Y019580D01*
X007358Y019544D01*
X013554Y019544D01*
X013868Y019230D01*
X013868Y019168D01*
X013919Y019045D01*
X014013Y018951D01*
X014136Y018900D01*
X014270Y018900D01*
X014393Y018951D01*
X014487Y019045D01*
X014538Y019168D01*
X014538Y019203D01*
X016352Y017389D01*
X016180Y017389D01*
X015956Y017296D01*
X015801Y017141D01*
X015647Y017296D01*
X015423Y017389D01*
X015180Y017389D01*
X014956Y017296D01*
X014784Y017124D01*
X014783Y017120D01*
X014751Y017163D01*
X014686Y017229D01*
X014611Y017283D01*
X014528Y017325D01*
X014440Y017354D01*
X014348Y017369D01*
X014341Y017369D01*
X014341Y016819D01*
X014261Y016819D01*
X014261Y017369D01*
X014255Y017369D01*
X014163Y017354D01*
X014075Y017325D01*
X013992Y017283D01*
X013917Y017229D01*
X013851Y017163D01*
X013820Y017120D01*
X013819Y017124D01*
X013647Y017296D01*
X013423Y017389D01*
X013180Y017389D01*
X012956Y017296D01*
X012801Y017141D01*
X012647Y017296D01*
X012423Y017389D01*
X012180Y017389D01*
X011956Y017296D01*
X011801Y017141D01*
X011647Y017296D01*
X011423Y017389D01*
X011180Y017389D01*
X010956Y017296D01*
X010801Y017141D01*
X010647Y017296D01*
X010423Y017389D01*
X010180Y017389D01*
X009956Y017296D01*
X009801Y017141D01*
X009647Y017296D01*
X009423Y017389D01*
X009180Y017389D01*
X008956Y017296D01*
X008801Y017141D01*
X008647Y017296D01*
X008423Y017389D01*
X008180Y017389D01*
X007956Y017296D01*
X007801Y017141D01*
X007647Y017296D01*
X007423Y017389D01*
X007180Y017389D01*
X006956Y017296D01*
X006801Y017141D01*
X006647Y017296D01*
X006423Y017389D01*
X006180Y017389D01*
X005956Y017296D01*
X005801Y017141D01*
X005647Y017296D01*
X005423Y017389D01*
X005180Y017389D01*
X004956Y017296D01*
X004784Y017124D01*
X004691Y016900D01*
X004691Y016657D01*
X004784Y016433D01*
X004956Y016261D01*
X005180Y016169D01*
X005423Y016169D01*
X005647Y016261D01*
X005801Y016416D01*
X005956Y016261D01*
X006180Y016169D01*
X006423Y016169D01*
X006647Y016261D01*
X006801Y016416D01*
X006956Y016261D01*
X007180Y016169D01*
X007423Y016169D01*
X007647Y016261D01*
X007801Y016416D01*
X007956Y016261D01*
X008180Y016169D01*
X008423Y016169D01*
X008647Y016261D01*
X008801Y016416D01*
X008956Y016261D01*
X009180Y016169D01*
X009423Y016169D01*
X009647Y016261D01*
X009801Y016416D01*
X009956Y016261D01*
X010180Y016169D01*
X010423Y016169D01*
X010647Y016261D01*
X010801Y016416D01*
X010956Y016261D01*
X011180Y016169D01*
X011423Y016169D01*
X011647Y016261D01*
X011801Y016416D01*
X011956Y016261D01*
X012180Y016169D01*
X012423Y016169D01*
X012647Y016261D01*
X012801Y016416D01*
X012956Y016261D01*
X013180Y016169D01*
X013423Y016169D01*
X013647Y016261D01*
X013819Y016433D01*
X013820Y016437D01*
X013851Y016394D01*
X013917Y016328D01*
X013992Y016274D01*
X014075Y016232D01*
X014163Y016203D01*
X014255Y016189D01*
X014261Y016189D01*
X014261Y016739D01*
X014341Y016739D01*
X014341Y016189D01*
X014348Y016189D01*
X014440Y016203D01*
X014528Y016232D01*
X014611Y016274D01*
X014686Y016328D01*
X014751Y016394D01*
X014783Y016437D01*
X014784Y016433D01*
X014956Y016261D01*
X015180Y016169D01*
X015423Y016169D01*
X015647Y016261D01*
X015801Y016416D01*
X015956Y016261D01*
X016180Y016169D01*
X016423Y016169D01*
X016647Y016261D01*
X016801Y016416D01*
X016956Y016261D01*
X017180Y016169D01*
X017423Y016169D01*
X017647Y016261D01*
X017819Y016433D01*
X017820Y016437D01*
X017851Y016394D01*
X017917Y016328D01*
X017992Y016274D01*
X018075Y016232D01*
X018163Y016203D01*
X018255Y016189D01*
X018261Y016189D01*
X018261Y016739D01*
X018341Y016739D01*
X018341Y016189D01*
X018348Y016189D01*
X018440Y016203D01*
X018528Y016232D01*
X018611Y016274D01*
X018686Y016328D01*
X018751Y016394D01*
X018806Y016469D01*
X018848Y016552D01*
X018877Y016640D01*
X018884Y016683D01*
X019097Y016470D01*
X019097Y016450D01*
X019133Y016362D01*
X020577Y014918D01*
X020645Y014851D01*
X020733Y014814D01*
X024096Y014814D01*
X024184Y014851D01*
X024411Y015077D01*
X025916Y015077D01*
X025906Y015056D01*
X025883Y014988D01*
X025873Y014920D01*
X026289Y014920D01*
X026289Y014843D01*
X025873Y014843D01*
X025883Y014775D01*
X025906Y014706D01*
X025938Y014643D01*
X025980Y014585D01*
X026031Y014534D01*
X026089Y014492D01*
X026153Y014459D01*
X026221Y014437D01*
X026289Y014426D01*
X026289Y014843D01*
X026366Y014843D01*
X026366Y014920D01*
X026782Y014920D01*
X026772Y014988D01*
X026749Y015056D01*
X026739Y015077D01*
X027792Y015077D01*
X027864Y015005D01*
X027852Y014976D01*
X027852Y014787D01*
X027925Y014612D01*
X028058Y014478D01*
X028167Y014433D01*
X026889Y013155D01*
X008325Y013155D01*
X008246Y013122D01*
X008246Y013227D01*
X007785Y013689D01*
X007978Y013689D01*
X008306Y013824D01*
X008556Y014074D01*
X008691Y014402D01*
X008691Y014756D01*
X008556Y015083D01*
X008306Y015333D01*
X007978Y015468D01*
X007624Y015468D01*
X007297Y015333D01*
X007047Y015083D01*
X006912Y014756D01*
X006912Y014402D01*
X007047Y014074D01*
X007218Y013904D01*
X006613Y013904D01*
X005936Y013227D01*
X005936Y012270D01*
X006613Y011594D01*
X007570Y011594D01*
X007926Y011950D01*
X007926Y011629D01*
X009001Y011629D01*
X009001Y011509D01*
X007926Y011509D01*
X007926Y011159D01*
X007562Y011524D01*
X007151Y011524D01*
X007151Y010449D01*
X007031Y010449D01*
X007031Y011524D01*
X006621Y011524D01*
X005956Y010859D01*
X005956Y010449D01*
X007031Y010449D01*
X007031Y010329D01*
X005956Y010329D01*
X005956Y009918D01*
X006621Y009254D01*
X007031Y009254D01*
X007031Y010329D01*
X007151Y010329D01*
X007151Y009254D01*
X007562Y009254D01*
X008226Y009918D01*
X008226Y010329D01*
X007151Y010329D01*
X007151Y010449D01*
X008226Y010449D01*
X008226Y010798D01*
X008591Y010434D01*
X009001Y010434D01*
X009001Y011509D01*
X009121Y011509D01*
X009121Y010434D01*
X009532Y010434D01*
X010196Y011098D01*
X010196Y011509D01*
X009121Y011509D01*
X009121Y011629D01*
X010196Y011629D01*
X010196Y012039D01*
X009560Y012675D01*
X024704Y012675D01*
X024624Y012595D01*
X024498Y012290D01*
X024498Y011960D01*
X024624Y011655D01*
X024858Y011422D01*
X025162Y011296D01*
X025492Y011296D01*
X025797Y011422D01*
X026031Y011655D01*
X026157Y011960D01*
X026157Y012290D01*
X026031Y012595D01*
X025951Y012675D01*
X027036Y012675D01*
X027125Y012712D01*
X030164Y015751D01*
X030232Y015819D01*
X030268Y015907D01*
X030268Y020830D01*
X030232Y020918D01*
X030034Y021116D01*
X030063Y021188D01*
X030063Y021407D01*
X029980Y021609D01*
X029825Y021763D01*
X029623Y021847D01*
X029404Y021847D01*
X029202Y021763D01*
X029047Y021609D01*
X028963Y021407D01*
X028963Y021188D01*
X029047Y020986D01*
X029202Y020831D01*
X029308Y020787D01*
X029236Y020750D01*
X029168Y020701D01*
X029109Y020642D01*
X029060Y020575D01*
X029022Y020501D01*
X028996Y020421D01*
X028983Y020339D01*
X028983Y020337D01*
X029473Y020337D01*
X029473Y020257D01*
X028983Y020257D01*
X028983Y020255D01*
X028996Y020173D01*
X029022Y020094D01*
X029060Y020019D01*
X029109Y019952D01*
X029168Y019893D01*
X029236Y019844D01*
X029310Y019806D01*
X029389Y019780D01*
X029472Y019767D01*
X029473Y019767D01*
X029473Y020257D01*
X029553Y020257D01*
X029553Y019767D01*
X029555Y019767D01*
X029638Y019780D01*
X029717Y019806D01*
X029788Y019842D01*
X029788Y016054D01*
X028776Y015041D01*
X028730Y015150D01*
X028597Y015284D01*
X028422Y015356D01*
X028233Y015356D01*
X028204Y015344D01*
X028028Y015520D01*
X027940Y015557D01*
X027562Y015557D01*
X027583Y015608D01*
X027583Y015742D01*
X027532Y015865D01*
X027438Y015959D01*
X027315Y016010D01*
X027182Y016010D01*
X027059Y015959D01*
X027015Y015915D01*
X022821Y015915D01*
X022869Y015963D01*
X022920Y016086D01*
X022920Y016148D01*
X023389Y016617D01*
X023425Y016705D01*
X023425Y017643D01*
X023469Y017687D01*
X023520Y017810D01*
X023520Y017943D01*
X023469Y018066D01*
X023375Y018160D01*
X023252Y018211D01*
X023119Y018211D01*
X022996Y018160D01*
X022901Y018066D01*
X022850Y017943D01*
X022850Y017810D01*
X022901Y017687D01*
X022945Y017643D01*
X022945Y016853D01*
X022580Y016487D01*
X022518Y016487D01*
X022395Y016436D01*
X022351Y016392D01*
X021896Y016392D01*
X021843Y016415D01*
X021710Y016415D01*
X021587Y016364D01*
X021492Y016269D01*
X021441Y016146D01*
X021441Y016013D01*
X021482Y015915D01*
X020988Y015915D01*
X021000Y015927D01*
X021051Y016050D01*
X021051Y016183D01*
X021000Y016306D01*
X020956Y016350D01*
X020956Y019068D01*
X020919Y019156D01*
X014493Y025582D01*
X014426Y025649D01*
X014337Y025686D01*
X013743Y025686D01*
X013699Y025730D01*
X013576Y025781D01*
X013442Y025781D01*
X013319Y025730D01*
X013313Y025724D01*
X013290Y025747D01*
X013290Y028202D01*
X016815Y031726D01*
X016920Y031683D01*
X017163Y031683D01*
X017387Y031775D01*
X017559Y031947D01*
X017560Y031951D01*
X017591Y031908D01*
X017657Y031843D01*
X017732Y031788D01*
X017815Y031746D01*
X017903Y031717D01*
X017995Y031703D01*
X018001Y031703D01*
X018001Y032253D01*
X018081Y032253D01*
X018081Y032333D01*
X018001Y032333D01*
X018001Y032883D01*
X017995Y032883D01*
X017903Y032868D01*
X017815Y032839D01*
X017732Y032797D01*
X017657Y032743D01*
X017591Y032677D01*
X017560Y032634D01*
X017560Y032634D01*
X017559Y032638D01*
X017387Y032810D01*
X017163Y032903D01*
X016920Y032903D01*
X016696Y032810D01*
X016541Y032655D01*
X016387Y032810D01*
X016163Y032903D01*
X015920Y032903D01*
X015696Y032810D01*
X015541Y032655D01*
X015387Y032810D01*
X015163Y032903D01*
X014920Y032903D01*
X014696Y032810D01*
X014541Y032655D01*
X014387Y032810D01*
X014163Y032903D01*
X013920Y032903D01*
X013696Y032810D01*
X013541Y032655D01*
X013387Y032810D01*
X013163Y032903D01*
X012920Y032903D01*
X012696Y032810D01*
X012541Y032655D01*
X012387Y032810D01*
X012163Y032903D01*
X011920Y032903D01*
X011696Y032810D01*
X011541Y032655D01*
X011387Y032810D01*
X011163Y032903D01*
X010920Y032903D01*
X010696Y032810D01*
X010541Y032655D01*
X010387Y032810D01*
X010163Y032903D01*
X009920Y032903D01*
X009696Y032810D01*
X009541Y032655D01*
X009387Y032810D01*
X009163Y032903D01*
X008920Y032903D01*
X008696Y032810D01*
X008541Y032655D01*
X008387Y032810D01*
X008163Y032903D01*
X007920Y032903D01*
X007696Y032810D01*
X007541Y032655D01*
X007387Y032810D01*
X007163Y032903D01*
X006920Y032903D01*
X006696Y032810D01*
X006541Y032655D01*
X006387Y032810D01*
X006281Y032853D01*
X006281Y033732D01*
X006387Y033775D01*
X006541Y033930D01*
X006696Y033775D01*
X006920Y033683D01*
X007163Y033683D01*
X007387Y033775D01*
X007541Y033930D01*
X007696Y033775D01*
X007920Y033683D01*
X008163Y033683D01*
X008387Y033775D01*
X008541Y033930D01*
X008696Y033775D01*
X008920Y033683D01*
X009163Y033683D01*
X009387Y033775D01*
X009541Y033930D01*
X009696Y033775D01*
X009920Y033683D01*
X010163Y033683D01*
X010387Y033775D01*
X010541Y033930D01*
X010696Y033775D01*
X010920Y033683D01*
X011163Y033683D01*
X011387Y033775D01*
X011541Y033930D01*
X011696Y033775D01*
X011920Y033683D01*
X012163Y033683D01*
X012387Y033775D01*
X012541Y033930D01*
X012696Y033775D01*
X012920Y033683D01*
X013163Y033683D01*
X013387Y033775D01*
X013541Y033930D01*
X013696Y033775D01*
X013920Y033683D01*
X014163Y033683D01*
X014387Y033775D01*
X014541Y033930D01*
X014696Y033775D01*
X014920Y033683D01*
X015163Y033683D01*
X015387Y033775D01*
X015541Y033930D01*
X015696Y033775D01*
X015920Y033683D01*
X016163Y033683D01*
X016387Y033775D01*
X016541Y033930D01*
X016696Y033775D01*
X016920Y033683D01*
X017163Y033683D01*
X017387Y033775D01*
X017559Y033947D01*
X017560Y033951D01*
X017591Y033908D01*
X017657Y033843D01*
X017732Y033788D01*
X017815Y033746D01*
X017903Y033717D01*
X017995Y033703D01*
X018001Y033703D01*
X018001Y034253D01*
X018081Y034253D01*
X018081Y034333D01*
X018631Y034333D01*
X018631Y034339D01*
X018617Y034431D01*
X018588Y034519D01*
X018546Y034602D01*
X018491Y034677D01*
X018426Y034743D01*
X018351Y034797D01*
X018268Y034839D01*
X018180Y034868D01*
X018176Y034869D01*
X030427Y034869D01*
X030427Y008863D01*
X028690Y008863D01*
X028730Y008903D01*
X028803Y009078D01*
X028803Y009267D01*
X028730Y009442D01*
X028597Y009575D01*
X028422Y009648D01*
X028233Y009648D01*
X028058Y009575D01*
X027925Y009442D01*
X027852Y009267D01*
X027852Y009078D01*
X027925Y008903D01*
X027965Y008863D01*
X027661Y008863D01*
X027675Y008876D01*
X027717Y008934D01*
X027912Y008934D01*
X027863Y009053D02*
X027767Y009053D01*
X027772Y009066D02*
X027782Y009134D01*
X027366Y009134D01*
X027366Y009211D01*
X027782Y009211D01*
X027772Y009279D01*
X027749Y009347D01*
X027717Y009411D01*
X027675Y009469D01*
X027624Y009520D01*
X027566Y009562D01*
X027502Y009594D01*
X027434Y009617D01*
X027366Y009627D01*
X027366Y009211D01*
X027289Y009211D01*
X027289Y009627D01*
X027221Y009617D01*
X027153Y009594D01*
X027089Y009562D01*
X027031Y009520D01*
X026980Y009469D01*
X026938Y009411D01*
X026906Y009347D01*
X026883Y009279D01*
X026873Y009211D01*
X027289Y009211D01*
X027289Y009134D01*
X026873Y009134D01*
X026883Y009066D01*
X026906Y008998D01*
X026938Y008934D01*
X026743Y008934D01*
X026730Y008903D02*
X026803Y009078D01*
X026803Y009267D01*
X026730Y009442D01*
X026597Y009575D01*
X026422Y009648D01*
X026233Y009648D01*
X026058Y009575D01*
X025925Y009442D01*
X025852Y009267D01*
X025852Y009078D01*
X025925Y008903D01*
X025965Y008863D01*
X004561Y008863D01*
X004561Y008934D02*
X025912Y008934D01*
X025863Y009053D02*
X004561Y009053D01*
X004561Y009171D02*
X025852Y009171D01*
X025861Y009290D02*
X007598Y009290D01*
X007716Y009408D02*
X025911Y009408D01*
X026009Y009527D02*
X007835Y009527D01*
X007953Y009645D02*
X026226Y009645D01*
X026429Y009645D02*
X028226Y009645D01*
X028429Y009645D02*
X030427Y009645D01*
X030427Y009527D02*
X028646Y009527D01*
X028744Y009408D02*
X030427Y009408D01*
X030427Y009290D02*
X028793Y009290D01*
X028803Y009171D02*
X030427Y009171D01*
X030427Y009053D02*
X028792Y009053D01*
X028743Y008934D02*
X030427Y008934D01*
X030427Y009764D02*
X008072Y009764D01*
X008190Y009882D02*
X030427Y009882D01*
X030427Y010001D02*
X008226Y010001D01*
X008226Y010119D02*
X030427Y010119D01*
X030427Y010238D02*
X008226Y010238D01*
X008226Y010475D02*
X008550Y010475D01*
X008432Y010593D02*
X008226Y010593D01*
X008226Y010712D02*
X008313Y010712D01*
X007926Y011186D02*
X007900Y011186D01*
X007926Y011304D02*
X007781Y011304D01*
X007663Y011423D02*
X007926Y011423D01*
X007881Y011504D02*
X007091Y011504D01*
X007091Y010389D01*
X007031Y010356D02*
X004561Y010356D01*
X004561Y010238D02*
X005956Y010238D01*
X005956Y010119D02*
X004561Y010119D01*
X004561Y010001D02*
X005956Y010001D01*
X005993Y009882D02*
X004561Y009882D01*
X004561Y009764D02*
X006111Y009764D01*
X006230Y009645D02*
X004561Y009645D01*
X004561Y009527D02*
X006348Y009527D01*
X006467Y009408D02*
X004561Y009408D01*
X004561Y009290D02*
X006585Y009290D01*
X007031Y009290D02*
X007151Y009290D01*
X007151Y009408D02*
X007031Y009408D01*
X007031Y009527D02*
X007151Y009527D01*
X007151Y009645D02*
X007031Y009645D01*
X007031Y009764D02*
X007151Y009764D01*
X007151Y009882D02*
X007031Y009882D01*
X007031Y010001D02*
X007151Y010001D01*
X007151Y010119D02*
X007031Y010119D01*
X007031Y010238D02*
X007151Y010238D01*
X007151Y010356D02*
X030427Y010356D01*
X030427Y010475D02*
X022483Y010475D01*
X022501Y010482D02*
X022624Y010605D01*
X022691Y010766D01*
X022691Y010939D01*
X022624Y011100D01*
X022501Y011223D01*
X022341Y011290D01*
X022167Y011290D01*
X022006Y011223D01*
X021883Y011100D01*
X021816Y010939D01*
X021816Y010766D01*
X021883Y010605D01*
X022006Y010482D01*
X022167Y010415D01*
X022341Y010415D01*
X022501Y010482D01*
X022612Y010593D02*
X030427Y010593D01*
X030427Y010712D02*
X022668Y010712D01*
X022691Y010830D02*
X030427Y010830D01*
X030427Y010949D02*
X022687Y010949D01*
X022638Y011067D02*
X030427Y011067D01*
X030427Y011186D02*
X022539Y011186D01*
X021968Y011186D02*
X020807Y011186D01*
X020769Y011223D02*
X020608Y011290D01*
X020434Y011290D01*
X020274Y011223D01*
X020151Y011100D01*
X020084Y010939D01*
X020084Y010766D01*
X020151Y010605D01*
X020274Y010482D01*
X020434Y010415D01*
X020608Y010415D01*
X020769Y010482D01*
X020892Y010605D01*
X020958Y010766D01*
X020958Y010939D01*
X020892Y011100D01*
X020769Y011223D01*
X020906Y011067D02*
X021869Y011067D01*
X021820Y010949D02*
X020955Y010949D01*
X020958Y010830D02*
X021816Y010830D01*
X021839Y010712D02*
X020936Y010712D01*
X020880Y010593D02*
X021895Y010593D01*
X022024Y010475D02*
X020751Y010475D01*
X020292Y010475D02*
X009573Y010475D01*
X009691Y010593D02*
X020163Y010593D01*
X020107Y010712D02*
X009810Y010712D01*
X009928Y010830D02*
X020084Y010830D01*
X020088Y010949D02*
X010047Y010949D01*
X010165Y011067D02*
X020137Y011067D01*
X020236Y011186D02*
X010196Y011186D01*
X010196Y011304D02*
X025142Y011304D01*
X024857Y011423D02*
X010196Y011423D01*
X010196Y011660D02*
X024622Y011660D01*
X024573Y011778D02*
X010196Y011778D01*
X010196Y011897D02*
X024524Y011897D01*
X024498Y012015D02*
X010196Y012015D01*
X010102Y012134D02*
X024498Y012134D01*
X024498Y012252D02*
X009983Y012252D01*
X009865Y012371D02*
X024531Y012371D01*
X024580Y012489D02*
X009746Y012489D01*
X009628Y012608D02*
X024636Y012608D01*
X024738Y011541D02*
X009121Y011541D01*
X009061Y011569D02*
X007946Y011569D01*
X007881Y011504D01*
X007926Y011660D02*
X007636Y011660D01*
X007754Y011778D02*
X007926Y011778D01*
X007926Y011897D02*
X007873Y011897D01*
X008246Y012359D02*
X008563Y012675D01*
X008472Y012675D01*
X008342Y012545D01*
X008254Y012509D01*
X008246Y012509D01*
X008246Y012359D01*
X008246Y012371D02*
X008258Y012371D01*
X008246Y012489D02*
X008377Y012489D01*
X008405Y012608D02*
X008495Y012608D01*
X008207Y012749D02*
X008373Y012915D01*
X026989Y012915D01*
X030028Y015955D01*
X030028Y020782D01*
X029513Y021297D01*
X029130Y020903D02*
X019172Y020903D01*
X019054Y021021D02*
X029032Y021021D01*
X028983Y021140D02*
X018935Y021140D01*
X018817Y021258D02*
X028963Y021258D01*
X028963Y021377D02*
X018698Y021377D01*
X018580Y021495D02*
X029000Y021495D01*
X029052Y021614D02*
X018461Y021614D01*
X018343Y021732D02*
X029170Y021732D01*
X029856Y021732D02*
X030427Y021732D01*
X030427Y021614D02*
X029975Y021614D01*
X030027Y021495D02*
X030427Y021495D01*
X030427Y021377D02*
X030063Y021377D01*
X030063Y021258D02*
X030427Y021258D01*
X030427Y021140D02*
X030043Y021140D01*
X030129Y021021D02*
X030427Y021021D01*
X030427Y020903D02*
X030238Y020903D01*
X030268Y020784D02*
X030427Y020784D01*
X030427Y020666D02*
X030268Y020666D01*
X030268Y020547D02*
X030427Y020547D01*
X030427Y020429D02*
X030268Y020429D01*
X030268Y020310D02*
X030427Y020310D01*
X030427Y020192D02*
X030268Y020192D01*
X030268Y020073D02*
X030427Y020073D01*
X030427Y019955D02*
X030268Y019955D01*
X030268Y019836D02*
X030427Y019836D01*
X030427Y019718D02*
X030268Y019718D01*
X030268Y019599D02*
X030427Y019599D01*
X030427Y019481D02*
X030268Y019481D01*
X030268Y019362D02*
X030427Y019362D01*
X030427Y019244D02*
X030268Y019244D01*
X030268Y019125D02*
X030427Y019125D01*
X030427Y019007D02*
X030268Y019007D01*
X030268Y018888D02*
X030427Y018888D01*
X030427Y018770D02*
X030268Y018770D01*
X030268Y018651D02*
X030427Y018651D01*
X030427Y018533D02*
X030268Y018533D01*
X030268Y018414D02*
X030427Y018414D01*
X030427Y018296D02*
X030268Y018296D01*
X030268Y018177D02*
X030427Y018177D01*
X030427Y018059D02*
X030268Y018059D01*
X030268Y017940D02*
X030427Y017940D01*
X030427Y017822D02*
X030268Y017822D01*
X030268Y017703D02*
X030427Y017703D01*
X030427Y017585D02*
X030268Y017585D01*
X030268Y017466D02*
X030427Y017466D01*
X030427Y017348D02*
X030268Y017348D01*
X030268Y017229D02*
X030427Y017229D01*
X030427Y017111D02*
X030268Y017111D01*
X030268Y016992D02*
X030427Y016992D01*
X030427Y016874D02*
X030268Y016874D01*
X030268Y016755D02*
X030427Y016755D01*
X030427Y016637D02*
X030268Y016637D01*
X030268Y016518D02*
X030427Y016518D01*
X030427Y016400D02*
X030268Y016400D01*
X030268Y016281D02*
X030427Y016281D01*
X030427Y016163D02*
X030268Y016163D01*
X030268Y016044D02*
X030427Y016044D01*
X030427Y015926D02*
X030268Y015926D01*
X030220Y015807D02*
X030427Y015807D01*
X030427Y015689D02*
X030102Y015689D01*
X029983Y015570D02*
X030427Y015570D01*
X030427Y015452D02*
X029865Y015452D01*
X029746Y015333D02*
X030427Y015333D01*
X030427Y015215D02*
X029628Y015215D01*
X029509Y015096D02*
X030427Y015096D01*
X030427Y014978D02*
X029391Y014978D01*
X029272Y014859D02*
X030427Y014859D01*
X030427Y014741D02*
X029154Y014741D01*
X029035Y014622D02*
X030427Y014622D01*
X030427Y014504D02*
X028917Y014504D01*
X028798Y014385D02*
X030427Y014385D01*
X030427Y014267D02*
X028680Y014267D01*
X028561Y014148D02*
X030427Y014148D01*
X030427Y014030D02*
X028443Y014030D01*
X028324Y013911D02*
X030427Y013911D01*
X030427Y013793D02*
X028206Y013793D01*
X028087Y013674D02*
X030427Y013674D01*
X030427Y013556D02*
X027969Y013556D01*
X027850Y013437D02*
X030427Y013437D01*
X030427Y013319D02*
X027732Y013319D01*
X027613Y013200D02*
X030427Y013200D01*
X030427Y013082D02*
X027495Y013082D01*
X027376Y012963D02*
X030427Y012963D01*
X030427Y012845D02*
X029759Y012845D01*
X029797Y012829D02*
X029492Y012955D01*
X029162Y012955D01*
X028858Y012829D01*
X028624Y012595D01*
X028498Y012290D01*
X028498Y011960D01*
X028624Y011655D01*
X028858Y011422D01*
X029162Y011296D01*
X029492Y011296D01*
X029797Y011422D01*
X030031Y011655D01*
X030157Y011960D01*
X030157Y012290D01*
X030031Y012595D01*
X029797Y012829D01*
X029900Y012726D02*
X030427Y012726D01*
X030427Y012608D02*
X030018Y012608D01*
X030075Y012489D02*
X030427Y012489D01*
X030427Y012371D02*
X030124Y012371D01*
X030157Y012252D02*
X030427Y012252D01*
X030427Y012134D02*
X030157Y012134D01*
X030157Y012015D02*
X030427Y012015D01*
X030427Y011897D02*
X030131Y011897D01*
X030082Y011778D02*
X030427Y011778D01*
X030427Y011660D02*
X030032Y011660D01*
X029916Y011541D02*
X030427Y011541D01*
X030427Y011423D02*
X029798Y011423D01*
X029513Y011304D02*
X030427Y011304D01*
X029142Y011304D02*
X025513Y011304D01*
X025798Y011423D02*
X028857Y011423D01*
X028738Y011541D02*
X025916Y011541D01*
X026032Y011660D02*
X028622Y011660D01*
X028573Y011778D02*
X026082Y011778D01*
X026131Y011897D02*
X028524Y011897D01*
X028498Y012015D02*
X026157Y012015D01*
X026157Y012134D02*
X028498Y012134D01*
X028498Y012252D02*
X026157Y012252D01*
X026124Y012371D02*
X028531Y012371D01*
X028580Y012489D02*
X026075Y012489D01*
X026018Y012608D02*
X028636Y012608D01*
X028755Y012726D02*
X027139Y012726D01*
X027258Y012845D02*
X028896Y012845D01*
X027764Y014030D02*
X008511Y014030D01*
X008586Y014148D02*
X027882Y014148D01*
X028001Y014267D02*
X008635Y014267D01*
X008685Y014385D02*
X028119Y014385D01*
X028033Y014504D02*
X026582Y014504D01*
X026566Y014492D02*
X026624Y014534D01*
X026675Y014585D01*
X026717Y014643D01*
X026749Y014706D01*
X026772Y014775D01*
X026782Y014843D01*
X026366Y014843D01*
X026366Y014426D01*
X026434Y014437D01*
X026502Y014459D01*
X026566Y014492D01*
X026702Y014622D02*
X027920Y014622D01*
X027871Y014741D02*
X026760Y014741D01*
X026773Y014978D02*
X027853Y014978D01*
X027852Y014859D02*
X026366Y014859D01*
X026327Y014881D02*
X026296Y014850D01*
X020230Y014850D01*
X018301Y016779D01*
X018261Y016637D02*
X018341Y016637D01*
X018341Y016518D02*
X018261Y016518D01*
X018261Y016400D02*
X018341Y016400D01*
X018341Y016281D02*
X018261Y016281D01*
X017982Y016281D02*
X017667Y016281D01*
X017785Y016400D02*
X017848Y016400D01*
X017301Y016779D02*
X014061Y020019D01*
X008171Y020019D01*
X006892Y021299D01*
X006321Y021299D01*
X006788Y020903D02*
X006948Y020903D01*
X006868Y020983D02*
X007827Y020024D01*
X007505Y020024D01*
X007095Y020434D01*
X007027Y020502D01*
X006939Y020539D01*
X006931Y020539D01*
X006931Y020551D01*
X006684Y020799D01*
X006868Y020983D01*
X006699Y020784D02*
X007067Y020784D01*
X007185Y020666D02*
X006817Y020666D01*
X006931Y020547D02*
X007304Y020547D01*
X007422Y020429D02*
X007101Y020429D01*
X007219Y020310D02*
X007541Y020310D01*
X007659Y020192D02*
X007338Y020192D01*
X007456Y020073D02*
X007778Y020073D01*
X007406Y019784D02*
X013654Y019784D01*
X014203Y019235D01*
X014448Y019007D02*
X014734Y019007D01*
X014616Y019125D02*
X014520Y019125D01*
X014853Y018888D02*
X006745Y018888D01*
X006627Y018770D02*
X014971Y018770D01*
X015090Y018651D02*
X004561Y018651D01*
X004561Y018533D02*
X015208Y018533D01*
X015327Y018414D02*
X004561Y018414D01*
X004561Y018296D02*
X015445Y018296D01*
X015564Y018177D02*
X004561Y018177D01*
X004561Y018059D02*
X015682Y018059D01*
X015801Y017940D02*
X004561Y017940D01*
X004561Y017822D02*
X015919Y017822D01*
X016038Y017703D02*
X004561Y017703D01*
X004561Y017585D02*
X016156Y017585D01*
X016275Y017466D02*
X004561Y017466D01*
X004561Y017348D02*
X005081Y017348D01*
X004889Y017229D02*
X004561Y017229D01*
X004561Y017111D02*
X004779Y017111D01*
X004730Y016992D02*
X004561Y016992D01*
X004561Y016874D02*
X004691Y016874D01*
X004691Y016755D02*
X004561Y016755D01*
X004561Y016637D02*
X004700Y016637D01*
X004749Y016518D02*
X004561Y016518D01*
X004561Y016400D02*
X004818Y016400D01*
X004936Y016281D02*
X004561Y016281D01*
X004561Y016163D02*
X019333Y016163D01*
X019214Y016281D02*
X018621Y016281D01*
X018755Y016400D02*
X019118Y016400D01*
X019049Y016518D02*
X018831Y016518D01*
X018876Y016637D02*
X018930Y016637D01*
X019337Y016570D02*
X019337Y016498D01*
X020781Y015054D01*
X024049Y015054D01*
X024311Y015317D01*
X027892Y015317D01*
X028327Y014881D01*
X028666Y015215D02*
X028949Y015215D01*
X029067Y015333D02*
X028479Y015333D01*
X028753Y015096D02*
X028830Y015096D01*
X029186Y015452D02*
X028097Y015452D01*
X027568Y015570D02*
X029304Y015570D01*
X029423Y015689D02*
X027583Y015689D01*
X027556Y015807D02*
X029541Y015807D01*
X029660Y015926D02*
X027472Y015926D01*
X027248Y015675D02*
X020754Y015675D01*
X019737Y016692D01*
X019737Y016746D01*
X014792Y021691D01*
X013127Y021691D01*
X012255Y022563D01*
X012265Y022898D02*
X012265Y024689D01*
X014216Y022737D01*
X014197Y022719D01*
X014146Y022595D01*
X014146Y022462D01*
X014171Y022403D01*
X013718Y022403D01*
X013674Y022447D01*
X013551Y022498D01*
X013418Y022498D01*
X013294Y022447D01*
X013200Y022353D01*
X013149Y022230D01*
X013149Y022097D01*
X013200Y021973D01*
X013243Y021931D01*
X013226Y021931D01*
X012590Y022567D01*
X012590Y022629D01*
X012539Y022753D01*
X012445Y022847D01*
X012322Y022898D01*
X012265Y022898D01*
X012265Y022917D02*
X014037Y022917D01*
X014155Y022799D02*
X012493Y022799D01*
X012569Y022680D02*
X014181Y022680D01*
X014146Y022562D02*
X012596Y022562D01*
X012714Y022443D02*
X013290Y022443D01*
X013188Y022325D02*
X012833Y022325D01*
X012951Y022206D02*
X013149Y022206D01*
X013153Y022088D02*
X013070Y022088D01*
X013188Y021969D02*
X013205Y021969D01*
X013484Y022163D02*
X014712Y022163D01*
X020188Y016688D01*
X020192Y017023D02*
X014916Y022299D01*
X014848Y022367D01*
X014787Y022392D01*
X014816Y022462D01*
X014816Y022595D01*
X014765Y022719D01*
X014721Y022763D01*
X014721Y022859D01*
X014685Y022948D01*
X010281Y027351D01*
X010281Y031732D01*
X010387Y031775D01*
X010541Y031930D01*
X010696Y031775D01*
X010801Y031732D01*
X010801Y026979D01*
X010838Y026891D01*
X016673Y021056D01*
X016673Y020994D01*
X016724Y020871D01*
X016818Y020777D01*
X016941Y020726D01*
X017074Y020726D01*
X017197Y020777D01*
X017292Y020871D01*
X017343Y020994D01*
X017343Y021127D01*
X017292Y021250D01*
X017197Y021345D01*
X017074Y021396D01*
X017012Y021396D01*
X016406Y022002D01*
X016822Y022002D01*
X016866Y021958D01*
X016989Y021907D01*
X017122Y021907D01*
X017245Y021958D01*
X017340Y022052D01*
X017341Y022055D01*
X020476Y018921D01*
X020476Y016869D01*
X020472Y016877D01*
X020378Y016972D01*
X020255Y017023D01*
X020192Y017023D01*
X020105Y017111D02*
X020476Y017111D01*
X020476Y017229D02*
X019986Y017229D01*
X019868Y017348D02*
X020476Y017348D01*
X020476Y017466D02*
X019749Y017466D01*
X019631Y017585D02*
X020476Y017585D01*
X020476Y017703D02*
X019512Y017703D01*
X019394Y017822D02*
X020476Y017822D01*
X020476Y017940D02*
X019275Y017940D01*
X019157Y018059D02*
X020476Y018059D01*
X020476Y018177D02*
X019038Y018177D01*
X018920Y018296D02*
X020476Y018296D01*
X020476Y018414D02*
X018801Y018414D01*
X018683Y018533D02*
X020476Y018533D01*
X020476Y018651D02*
X018564Y018651D01*
X018446Y018770D02*
X020476Y018770D01*
X020476Y018888D02*
X018327Y018888D01*
X018209Y019007D02*
X020390Y019007D01*
X020271Y019125D02*
X018090Y019125D01*
X017972Y019244D02*
X020153Y019244D01*
X020034Y019362D02*
X017853Y019362D01*
X017735Y019481D02*
X019916Y019481D01*
X019797Y019599D02*
X017616Y019599D01*
X017498Y019718D02*
X019679Y019718D01*
X019560Y019836D02*
X017379Y019836D01*
X017261Y019955D02*
X019442Y019955D01*
X019323Y020073D02*
X017142Y020073D01*
X017024Y020192D02*
X019205Y020192D01*
X019086Y020310D02*
X016905Y020310D01*
X016787Y020429D02*
X018968Y020429D01*
X018849Y020547D02*
X016668Y020547D01*
X016550Y020666D02*
X018731Y020666D01*
X018612Y020784D02*
X017205Y020784D01*
X017305Y020903D02*
X018494Y020903D01*
X018375Y021021D02*
X017343Y021021D01*
X017338Y021140D02*
X018257Y021140D01*
X018138Y021258D02*
X017284Y021258D01*
X017120Y021377D02*
X018020Y021377D01*
X017901Y021495D02*
X016913Y021495D01*
X016794Y021614D02*
X017783Y021614D01*
X017664Y021732D02*
X016676Y021732D01*
X016557Y021851D02*
X017546Y021851D01*
X017427Y021969D02*
X017256Y021969D01*
X017056Y022242D02*
X016284Y022242D01*
X013050Y025476D01*
X013050Y025514D01*
X013050Y028301D01*
X017041Y032293D01*
X017416Y031805D02*
X017709Y031805D01*
X017581Y031923D02*
X017535Y031923D01*
X017171Y031686D02*
X030427Y031686D01*
X030427Y031568D02*
X016656Y031568D01*
X016774Y031686D02*
X016912Y031686D01*
X016537Y031449D02*
X030427Y031449D01*
X030427Y031331D02*
X016419Y031331D01*
X016300Y031212D02*
X030427Y031212D01*
X030427Y031094D02*
X016182Y031094D01*
X016063Y030975D02*
X030427Y030975D01*
X030427Y030857D02*
X015945Y030857D01*
X015826Y030738D02*
X030427Y030738D01*
X030427Y030620D02*
X015708Y030620D01*
X015589Y030501D02*
X030427Y030501D01*
X030427Y030383D02*
X026686Y030383D01*
X026806Y030333D02*
X026478Y030468D01*
X026124Y030468D01*
X025797Y030333D01*
X025547Y030083D01*
X025412Y029756D01*
X025412Y029402D01*
X025547Y029074D01*
X025797Y028824D01*
X026124Y028689D01*
X026478Y028689D01*
X026806Y028824D01*
X027056Y029074D01*
X027191Y029402D01*
X027191Y029756D01*
X027056Y030083D01*
X026806Y030333D01*
X026874Y030264D02*
X030427Y030264D01*
X030427Y030146D02*
X026993Y030146D01*
X027079Y030027D02*
X030427Y030027D01*
X030427Y029909D02*
X027128Y029909D01*
X027177Y029790D02*
X030427Y029790D01*
X030427Y029672D02*
X027191Y029672D01*
X027191Y029553D02*
X030427Y029553D01*
X030427Y029435D02*
X027191Y029435D01*
X027156Y029316D02*
X030427Y029316D01*
X030427Y029198D02*
X027107Y029198D01*
X027058Y029079D02*
X030427Y029079D01*
X030427Y028961D02*
X026942Y028961D01*
X026824Y028842D02*
X030427Y028842D01*
X030427Y028724D02*
X026563Y028724D01*
X026040Y028724D02*
X013812Y028724D01*
X013930Y028842D02*
X025779Y028842D01*
X025661Y028961D02*
X014049Y028961D01*
X014167Y029079D02*
X025545Y029079D01*
X025496Y029198D02*
X014286Y029198D01*
X014404Y029316D02*
X025447Y029316D01*
X025412Y029435D02*
X014523Y029435D01*
X014641Y029553D02*
X025412Y029553D01*
X025412Y029672D02*
X014760Y029672D01*
X014878Y029790D02*
X025426Y029790D01*
X025475Y029909D02*
X014997Y029909D01*
X015115Y030027D02*
X025524Y030027D01*
X025610Y030146D02*
X015234Y030146D01*
X015352Y030264D02*
X025728Y030264D01*
X025917Y030383D02*
X015471Y030383D01*
X015148Y030738D02*
X011281Y030738D01*
X011281Y030620D02*
X015029Y030620D01*
X014911Y030501D02*
X011281Y030501D01*
X011281Y030383D02*
X014792Y030383D01*
X014674Y030264D02*
X011281Y030264D01*
X011281Y030146D02*
X014555Y030146D01*
X014437Y030027D02*
X011281Y030027D01*
X011281Y029909D02*
X014318Y029909D01*
X014200Y029790D02*
X011281Y029790D01*
X011281Y029672D02*
X014081Y029672D01*
X013963Y029553D02*
X011281Y029553D01*
X011281Y029435D02*
X013844Y029435D01*
X013726Y029316D02*
X011281Y029316D01*
X011281Y029198D02*
X013607Y029198D01*
X013489Y029079D02*
X011281Y029079D01*
X011281Y028961D02*
X013370Y028961D01*
X013252Y028842D02*
X011281Y028842D01*
X011281Y028724D02*
X013133Y028724D01*
X013015Y028605D02*
X011281Y028605D01*
X011281Y028487D02*
X012896Y028487D01*
X012914Y028504D02*
X012846Y028437D01*
X012810Y028349D01*
X012810Y025747D01*
X012766Y025703D01*
X012748Y025660D01*
X011281Y027126D01*
X011281Y031732D01*
X011387Y031775D01*
X011541Y031930D01*
X011696Y031775D01*
X011920Y031683D01*
X012163Y031683D01*
X012387Y031775D01*
X012541Y031930D01*
X012696Y031775D01*
X012920Y031683D01*
X013163Y031683D01*
X013387Y031775D01*
X013541Y031930D01*
X013696Y031775D01*
X013920Y031683D01*
X014163Y031683D01*
X014387Y031775D01*
X014541Y031930D01*
X014696Y031775D01*
X014920Y031683D01*
X015163Y031683D01*
X015387Y031775D01*
X015541Y031930D01*
X015696Y031775D01*
X015920Y031683D01*
X016092Y031683D01*
X012914Y028504D01*
X012818Y028368D02*
X011281Y028368D01*
X011281Y028250D02*
X012810Y028250D01*
X012810Y028131D02*
X011281Y028131D01*
X011281Y028013D02*
X012810Y028013D01*
X012810Y027894D02*
X011281Y027894D01*
X011281Y027776D02*
X012810Y027776D01*
X012810Y027657D02*
X011281Y027657D01*
X011281Y027539D02*
X012810Y027539D01*
X012810Y027420D02*
X011281Y027420D01*
X011281Y027302D02*
X012810Y027302D01*
X012810Y027183D02*
X011281Y027183D01*
X011343Y027065D02*
X012810Y027065D01*
X012810Y026946D02*
X011462Y026946D01*
X011580Y026828D02*
X012810Y026828D01*
X012810Y026709D02*
X011699Y026709D01*
X011817Y026591D02*
X012810Y026591D01*
X012810Y026472D02*
X011936Y026472D01*
X012054Y026354D02*
X012810Y026354D01*
X012810Y026235D02*
X012173Y026235D01*
X012291Y026117D02*
X012810Y026117D01*
X012810Y025998D02*
X012410Y025998D01*
X012528Y025880D02*
X012810Y025880D01*
X012810Y025761D02*
X012647Y025761D01*
X012323Y025406D02*
X012227Y025406D01*
X012205Y025524D02*
X012108Y025524D01*
X012086Y025643D02*
X011990Y025643D01*
X011968Y025761D02*
X011871Y025761D01*
X011849Y025880D02*
X011753Y025880D01*
X011731Y025998D02*
X011634Y025998D01*
X011612Y026117D02*
X011516Y026117D01*
X011494Y026235D02*
X011397Y026235D01*
X011375Y026354D02*
X011279Y026354D01*
X011257Y026472D02*
X011160Y026472D01*
X011138Y026591D02*
X011042Y026591D01*
X011020Y026709D02*
X010923Y026709D01*
X010901Y026828D02*
X010805Y026828D01*
X010815Y026946D02*
X010686Y026946D01*
X010801Y027065D02*
X010568Y027065D01*
X010449Y027183D02*
X010801Y027183D01*
X010801Y027302D02*
X010331Y027302D01*
X010281Y027420D02*
X010801Y027420D01*
X010801Y027539D02*
X010281Y027539D01*
X010281Y027657D02*
X010801Y027657D01*
X010801Y027776D02*
X010281Y027776D01*
X010281Y027894D02*
X010801Y027894D01*
X010801Y028013D02*
X010281Y028013D01*
X010281Y028131D02*
X010801Y028131D01*
X010801Y028250D02*
X010281Y028250D01*
X010281Y028368D02*
X010801Y028368D01*
X010801Y028487D02*
X010281Y028487D01*
X010281Y028605D02*
X010801Y028605D01*
X010801Y028724D02*
X010281Y028724D01*
X010281Y028842D02*
X010801Y028842D01*
X010801Y028961D02*
X010281Y028961D01*
X010281Y029079D02*
X010801Y029079D01*
X010801Y029198D02*
X010281Y029198D01*
X010281Y029316D02*
X010801Y029316D01*
X010801Y029435D02*
X010281Y029435D01*
X010281Y029553D02*
X010801Y029553D01*
X010801Y029672D02*
X010281Y029672D01*
X010281Y029790D02*
X010801Y029790D01*
X010801Y029909D02*
X010281Y029909D01*
X010281Y030027D02*
X010801Y030027D01*
X010801Y030146D02*
X010281Y030146D01*
X010281Y030264D02*
X010801Y030264D01*
X010801Y030383D02*
X010281Y030383D01*
X010281Y030501D02*
X010801Y030501D01*
X010801Y030620D02*
X010281Y030620D01*
X010281Y030738D02*
X010801Y030738D01*
X010801Y030857D02*
X010281Y030857D01*
X010281Y030975D02*
X010801Y030975D01*
X010801Y031094D02*
X010281Y031094D01*
X010281Y031212D02*
X010801Y031212D01*
X010801Y031331D02*
X010281Y031331D01*
X010281Y031449D02*
X010801Y031449D01*
X010801Y031568D02*
X010281Y031568D01*
X010281Y031686D02*
X010801Y031686D01*
X010667Y031805D02*
X010416Y031805D01*
X010535Y031923D02*
X010548Y031923D01*
X010041Y032293D02*
X010041Y027252D01*
X014481Y022812D01*
X014481Y022529D01*
X014781Y022680D02*
X015049Y022680D01*
X015167Y022562D02*
X014816Y022562D01*
X014808Y022443D02*
X015286Y022443D01*
X015404Y022325D02*
X014891Y022325D01*
X015009Y022206D02*
X015523Y022206D01*
X015641Y022088D02*
X015128Y022088D01*
X015246Y021969D02*
X015760Y021969D01*
X015878Y021851D02*
X015365Y021851D01*
X015483Y021732D02*
X015997Y021732D01*
X016115Y021614D02*
X015602Y021614D01*
X015720Y021495D02*
X016234Y021495D01*
X016352Y021377D02*
X015839Y021377D01*
X015957Y021258D02*
X016471Y021258D01*
X016589Y021140D02*
X016076Y021140D01*
X016194Y021021D02*
X016673Y021021D01*
X016711Y020903D02*
X016313Y020903D01*
X016431Y020784D02*
X016810Y020784D01*
X017008Y021061D02*
X011041Y027027D01*
X011041Y032293D01*
X011416Y031805D02*
X011667Y031805D01*
X011548Y031923D02*
X011535Y031923D01*
X011281Y031686D02*
X011912Y031686D01*
X012171Y031686D02*
X012912Y031686D01*
X013171Y031686D02*
X013912Y031686D01*
X014171Y031686D02*
X014912Y031686D01*
X015171Y031686D02*
X015912Y031686D01*
X015977Y031568D02*
X011281Y031568D01*
X011281Y031449D02*
X015859Y031449D01*
X015740Y031331D02*
X011281Y031331D01*
X011281Y031212D02*
X015622Y031212D01*
X015503Y031094D02*
X011281Y031094D01*
X011281Y030975D02*
X015385Y030975D01*
X015266Y030857D02*
X011281Y030857D01*
X012416Y031805D02*
X012667Y031805D01*
X012548Y031923D02*
X012535Y031923D01*
X012444Y032753D02*
X012639Y032753D01*
X012844Y032871D02*
X012239Y032871D01*
X011844Y032871D02*
X011239Y032871D01*
X011444Y032753D02*
X011639Y032753D01*
X010844Y032871D02*
X010239Y032871D01*
X010444Y032753D02*
X010639Y032753D01*
X009844Y032871D02*
X009239Y032871D01*
X009444Y032753D02*
X009639Y032753D01*
X008844Y032871D02*
X008239Y032871D01*
X008444Y032753D02*
X008639Y032753D01*
X007844Y032871D02*
X007239Y032871D01*
X007444Y032753D02*
X007639Y032753D01*
X006844Y032871D02*
X006281Y032871D01*
X006281Y032990D02*
X030427Y032990D01*
X030427Y033108D02*
X006281Y033108D01*
X006281Y033227D02*
X030427Y033227D01*
X030427Y033345D02*
X006281Y033345D01*
X006281Y033464D02*
X030427Y033464D01*
X030427Y033582D02*
X006281Y033582D01*
X006281Y033701D02*
X006877Y033701D01*
X006652Y033819D02*
X006431Y033819D01*
X006041Y034293D02*
X006041Y032293D01*
X006041Y030778D01*
X012025Y024794D01*
X012025Y022831D01*
X011813Y022618D01*
X011813Y022175D01*
X005099Y022175D01*
X004751Y021827D01*
X004751Y020299D01*
X005321Y020299D01*
X005722Y019836D02*
X005921Y019836D01*
X005973Y019784D02*
X005836Y019647D01*
X005684Y019799D01*
X005821Y019936D01*
X005973Y019784D01*
X005906Y019718D02*
X005765Y019718D01*
X005321Y019299D02*
X004551Y020069D01*
X004551Y024218D01*
X004851Y024632D01*
X004851Y032217D01*
X005041Y032293D01*
X004611Y031860D02*
X004611Y024710D01*
X004561Y024641D01*
X004561Y031910D01*
X004611Y031860D01*
X004611Y031805D02*
X004561Y031805D01*
X004561Y031686D02*
X004611Y031686D01*
X004611Y031568D02*
X004561Y031568D01*
X004561Y031449D02*
X004611Y031449D01*
X004611Y031331D02*
X004561Y031331D01*
X004561Y031212D02*
X004611Y031212D01*
X004611Y031094D02*
X004561Y031094D01*
X004561Y030975D02*
X004611Y030975D01*
X004611Y030857D02*
X004561Y030857D01*
X004561Y030738D02*
X004611Y030738D01*
X004611Y030620D02*
X004561Y030620D01*
X004561Y030501D02*
X004611Y030501D01*
X004611Y030383D02*
X004561Y030383D01*
X004561Y030264D02*
X004611Y030264D01*
X004611Y030146D02*
X004561Y030146D01*
X004561Y030027D02*
X004611Y030027D01*
X004611Y029909D02*
X004561Y029909D01*
X004561Y029790D02*
X004611Y029790D01*
X004611Y029672D02*
X004561Y029672D01*
X004561Y029553D02*
X004611Y029553D01*
X004611Y029435D02*
X004561Y029435D01*
X004561Y029316D02*
X004611Y029316D01*
X004611Y029198D02*
X004561Y029198D01*
X004561Y029079D02*
X004611Y029079D01*
X004611Y028961D02*
X004561Y028961D01*
X004561Y028842D02*
X004611Y028842D01*
X004611Y028724D02*
X004561Y028724D01*
X004561Y028605D02*
X004611Y028605D01*
X004611Y028487D02*
X004561Y028487D01*
X004561Y028368D02*
X004611Y028368D01*
X004611Y028250D02*
X004561Y028250D01*
X004561Y028131D02*
X004611Y028131D01*
X004611Y028013D02*
X004561Y028013D01*
X004561Y027894D02*
X004611Y027894D01*
X004611Y027776D02*
X004561Y027776D01*
X004561Y027657D02*
X004611Y027657D01*
X004611Y027539D02*
X004561Y027539D01*
X004561Y027420D02*
X004611Y027420D01*
X004611Y027302D02*
X004561Y027302D01*
X004561Y027183D02*
X004611Y027183D01*
X004611Y027065D02*
X004561Y027065D01*
X004561Y026946D02*
X004611Y026946D01*
X004611Y026828D02*
X004561Y026828D01*
X004561Y026709D02*
X004611Y026709D01*
X004611Y026591D02*
X004561Y026591D01*
X004561Y026472D02*
X004611Y026472D01*
X004611Y026354D02*
X004561Y026354D01*
X004561Y026235D02*
X004611Y026235D01*
X004611Y026117D02*
X004561Y026117D01*
X004561Y025998D02*
X004611Y025998D01*
X004611Y025880D02*
X004561Y025880D01*
X004561Y025761D02*
X004611Y025761D01*
X004611Y025643D02*
X004561Y025643D01*
X004561Y025524D02*
X004611Y025524D01*
X004611Y025406D02*
X004561Y025406D01*
X004561Y025287D02*
X004611Y025287D01*
X004611Y025169D02*
X004561Y025169D01*
X004561Y025050D02*
X004611Y025050D01*
X004611Y024932D02*
X004561Y024932D01*
X004561Y024813D02*
X004611Y024813D01*
X004600Y024695D02*
X004561Y024695D01*
X004851Y024632D02*
X011734Y024639D01*
X011500Y024879D02*
X005091Y024872D01*
X005091Y028030D01*
X005297Y027824D01*
X005624Y027689D01*
X005978Y027689D01*
X006306Y027824D01*
X006556Y028074D01*
X006691Y028402D01*
X006691Y028756D01*
X006556Y029083D01*
X006306Y029333D01*
X005978Y029468D01*
X005624Y029468D01*
X005297Y029333D01*
X005091Y029127D01*
X005091Y031683D01*
X005163Y031683D01*
X005387Y031775D01*
X005541Y031930D01*
X005696Y031775D01*
X005801Y031732D01*
X005801Y030730D01*
X005838Y030642D01*
X011553Y024927D01*
X011544Y024923D01*
X011500Y024879D01*
X011548Y024932D02*
X005091Y024932D01*
X005091Y025050D02*
X011430Y025050D01*
X011311Y025169D02*
X005091Y025169D01*
X005091Y025287D02*
X011193Y025287D01*
X011074Y025406D02*
X005091Y025406D01*
X005091Y025524D02*
X010956Y025524D01*
X010837Y025643D02*
X005091Y025643D01*
X005091Y025761D02*
X010719Y025761D01*
X010600Y025880D02*
X005091Y025880D01*
X005091Y025998D02*
X010482Y025998D01*
X010363Y026117D02*
X005091Y026117D01*
X005091Y026235D02*
X010245Y026235D01*
X010126Y026354D02*
X005091Y026354D01*
X005091Y026472D02*
X010008Y026472D01*
X009889Y026591D02*
X005091Y026591D01*
X005091Y026709D02*
X009771Y026709D01*
X009652Y026828D02*
X005091Y026828D01*
X005091Y026946D02*
X009534Y026946D01*
X009415Y027065D02*
X005091Y027065D01*
X005091Y027183D02*
X009297Y027183D01*
X009178Y027302D02*
X005091Y027302D01*
X005091Y027420D02*
X009060Y027420D01*
X008941Y027539D02*
X005091Y027539D01*
X005091Y027657D02*
X008823Y027657D01*
X008704Y027776D02*
X006188Y027776D01*
X006376Y027894D02*
X008586Y027894D01*
X008467Y028013D02*
X006494Y028013D01*
X006579Y028131D02*
X008349Y028131D01*
X008230Y028250D02*
X006628Y028250D01*
X006678Y028368D02*
X008112Y028368D01*
X007993Y028487D02*
X006691Y028487D01*
X006691Y028605D02*
X007875Y028605D01*
X007756Y028724D02*
X006691Y028724D01*
X006656Y028842D02*
X007638Y028842D01*
X007519Y028961D02*
X006606Y028961D01*
X006557Y029079D02*
X007401Y029079D01*
X007282Y029198D02*
X006441Y029198D01*
X006322Y029316D02*
X007164Y029316D01*
X007045Y029435D02*
X006060Y029435D01*
X005543Y029435D02*
X005091Y029435D01*
X005091Y029553D02*
X006927Y029553D01*
X006808Y029672D02*
X005091Y029672D01*
X005091Y029790D02*
X006690Y029790D01*
X006571Y029909D02*
X005091Y029909D01*
X005091Y030027D02*
X006453Y030027D01*
X006334Y030146D02*
X005091Y030146D01*
X005091Y030264D02*
X006216Y030264D01*
X006097Y030383D02*
X005091Y030383D01*
X005091Y030501D02*
X005979Y030501D01*
X005860Y030620D02*
X005091Y030620D01*
X005091Y030738D02*
X005801Y030738D01*
X005801Y030857D02*
X005091Y030857D01*
X005091Y030975D02*
X005801Y030975D01*
X005801Y031094D02*
X005091Y031094D01*
X005091Y031212D02*
X005801Y031212D01*
X005801Y031331D02*
X005091Y031331D01*
X005091Y031449D02*
X005801Y031449D01*
X005801Y031568D02*
X005091Y031568D01*
X005171Y031686D02*
X005801Y031686D01*
X005667Y031805D02*
X005416Y031805D01*
X005535Y031923D02*
X005548Y031923D01*
X005541Y032655D02*
X005387Y032810D01*
X005163Y032903D01*
X004920Y032903D01*
X004696Y032810D01*
X004561Y032675D01*
X004561Y033910D01*
X004696Y033775D01*
X004920Y033683D01*
X005163Y033683D01*
X005387Y033775D01*
X005541Y033930D01*
X005696Y033775D01*
X005801Y033732D01*
X005801Y032853D01*
X005696Y032810D01*
X005541Y032655D01*
X005444Y032753D02*
X005639Y032753D01*
X005801Y032871D02*
X005239Y032871D01*
X004844Y032871D02*
X004561Y032871D01*
X004561Y032753D02*
X004639Y032753D01*
X004561Y032990D02*
X005801Y032990D01*
X005801Y033108D02*
X004561Y033108D01*
X004561Y033227D02*
X005801Y033227D01*
X005801Y033345D02*
X004561Y033345D01*
X004561Y033464D02*
X005801Y033464D01*
X005801Y033582D02*
X004561Y033582D01*
X004561Y033701D02*
X004877Y033701D01*
X004652Y033819D02*
X004561Y033819D01*
X005206Y033701D02*
X005801Y033701D01*
X005652Y033819D02*
X005431Y033819D01*
X005541Y034655D02*
X005387Y034810D01*
X005245Y034869D01*
X005838Y034869D01*
X005696Y034810D01*
X005541Y034655D01*
X005430Y034767D02*
X005653Y034767D01*
X006245Y034869D02*
X006838Y034869D01*
X006696Y034810D01*
X006541Y034655D01*
X006387Y034810D01*
X006245Y034869D01*
X006430Y034767D02*
X006653Y034767D01*
X007245Y034869D02*
X007838Y034869D01*
X007696Y034810D01*
X007541Y034655D01*
X007387Y034810D01*
X007245Y034869D01*
X007430Y034767D02*
X007653Y034767D01*
X008245Y034869D02*
X008838Y034869D01*
X008696Y034810D01*
X008541Y034655D01*
X008387Y034810D01*
X008245Y034869D01*
X008430Y034767D02*
X008653Y034767D01*
X009245Y034869D02*
X009838Y034869D01*
X009696Y034810D01*
X009541Y034655D01*
X009387Y034810D01*
X009245Y034869D01*
X009430Y034767D02*
X009653Y034767D01*
X010245Y034869D02*
X010838Y034869D01*
X010696Y034810D01*
X010541Y034655D01*
X010387Y034810D01*
X010245Y034869D01*
X010430Y034767D02*
X010653Y034767D01*
X011245Y034869D02*
X011838Y034869D01*
X011696Y034810D01*
X011541Y034655D01*
X011387Y034810D01*
X011245Y034869D01*
X011430Y034767D02*
X011653Y034767D01*
X012245Y034869D02*
X012838Y034869D01*
X012696Y034810D01*
X012541Y034655D01*
X012387Y034810D01*
X012245Y034869D01*
X012430Y034767D02*
X012653Y034767D01*
X013245Y034869D02*
X013838Y034869D01*
X013696Y034810D01*
X013541Y034655D01*
X013387Y034810D01*
X013245Y034869D01*
X013430Y034767D02*
X013653Y034767D01*
X014245Y034869D02*
X014838Y034869D01*
X014696Y034810D01*
X014541Y034655D01*
X014387Y034810D01*
X014245Y034869D01*
X014430Y034767D02*
X014653Y034767D01*
X015245Y034869D02*
X015838Y034869D01*
X015696Y034810D01*
X015541Y034655D01*
X015387Y034810D01*
X015245Y034869D01*
X015430Y034767D02*
X015653Y034767D01*
X016245Y034869D02*
X016838Y034869D01*
X016696Y034810D01*
X016541Y034655D01*
X016387Y034810D01*
X016245Y034869D01*
X016430Y034767D02*
X016653Y034767D01*
X017245Y034869D02*
X017906Y034869D01*
X017903Y034868D01*
X017815Y034839D01*
X017732Y034797D01*
X017657Y034743D01*
X017591Y034677D01*
X017560Y034634D01*
X017559Y034638D01*
X017387Y034810D01*
X017245Y034869D01*
X017430Y034767D02*
X017691Y034767D01*
X017571Y034649D02*
X017548Y034649D01*
X018041Y034293D02*
X018041Y032293D01*
X018081Y032279D02*
X030427Y032279D01*
X030427Y032397D02*
X018622Y032397D01*
X018617Y032431D02*
X018588Y032519D01*
X018546Y032602D01*
X018491Y032677D01*
X018426Y032743D01*
X018351Y032797D01*
X018268Y032839D01*
X018180Y032868D01*
X018088Y032883D01*
X018081Y032883D01*
X018081Y032333D01*
X018631Y032333D01*
X018631Y032339D01*
X018617Y032431D01*
X018589Y032516D02*
X030427Y032516D01*
X030427Y032634D02*
X018523Y032634D01*
X018412Y032753D02*
X030427Y032753D01*
X030427Y032871D02*
X018160Y032871D01*
X018081Y032871D02*
X018001Y032871D01*
X017923Y032871D02*
X017239Y032871D01*
X017444Y032753D02*
X017671Y032753D01*
X018001Y032753D02*
X018081Y032753D01*
X018081Y032634D02*
X018001Y032634D01*
X018001Y032516D02*
X018081Y032516D01*
X018081Y032397D02*
X018001Y032397D01*
X018081Y032253D02*
X018631Y032253D01*
X018631Y032246D01*
X018617Y032154D01*
X018588Y032066D01*
X018546Y031983D01*
X018491Y031908D01*
X018426Y031843D01*
X018351Y031788D01*
X018268Y031746D01*
X018180Y031717D01*
X018088Y031703D01*
X018081Y031703D01*
X018081Y032253D01*
X018081Y032160D02*
X018001Y032160D01*
X018001Y032042D02*
X018081Y032042D01*
X018081Y031923D02*
X018001Y031923D01*
X018001Y031805D02*
X018081Y031805D01*
X018374Y031805D02*
X030427Y031805D01*
X030427Y031923D02*
X018502Y031923D01*
X018576Y032042D02*
X030427Y032042D01*
X030427Y032160D02*
X018618Y032160D01*
X018180Y033717D02*
X018268Y033746D01*
X018351Y033788D01*
X018426Y033843D01*
X018491Y033908D01*
X018546Y033983D01*
X018588Y034066D01*
X018617Y034154D01*
X018631Y034246D01*
X018631Y034253D01*
X018081Y034253D01*
X018081Y033703D01*
X018088Y033703D01*
X018180Y033717D01*
X018081Y033819D02*
X018001Y033819D01*
X018001Y033938D02*
X018081Y033938D01*
X018081Y034056D02*
X018001Y034056D01*
X018001Y034175D02*
X018081Y034175D01*
X018081Y034293D02*
X030427Y034293D01*
X030427Y034175D02*
X018620Y034175D01*
X018583Y034056D02*
X030427Y034056D01*
X030427Y033938D02*
X018513Y033938D01*
X018393Y033819D02*
X030427Y033819D01*
X030427Y033701D02*
X017206Y033701D01*
X017431Y033819D02*
X017689Y033819D01*
X017570Y033938D02*
X017549Y033938D01*
X016877Y033701D02*
X016206Y033701D01*
X016431Y033819D02*
X016652Y033819D01*
X015877Y033701D02*
X015206Y033701D01*
X015431Y033819D02*
X015652Y033819D01*
X014877Y033701D02*
X014206Y033701D01*
X014431Y033819D02*
X014652Y033819D01*
X013877Y033701D02*
X013206Y033701D01*
X013431Y033819D02*
X013652Y033819D01*
X012877Y033701D02*
X012206Y033701D01*
X012431Y033819D02*
X012652Y033819D01*
X011877Y033701D02*
X011206Y033701D01*
X011431Y033819D02*
X011652Y033819D01*
X010877Y033701D02*
X010206Y033701D01*
X010431Y033819D02*
X010652Y033819D01*
X009877Y033701D02*
X009206Y033701D01*
X009431Y033819D02*
X009652Y033819D01*
X008877Y033701D02*
X008206Y033701D01*
X008431Y033819D02*
X008652Y033819D01*
X007877Y033701D02*
X007206Y033701D01*
X007431Y033819D02*
X007652Y033819D01*
X006639Y032753D02*
X006444Y032753D01*
X006541Y031930D02*
X006696Y031775D01*
X006920Y031683D01*
X007163Y031683D01*
X007387Y031775D01*
X007541Y031930D01*
X007696Y031775D01*
X007920Y031683D01*
X008163Y031683D01*
X008387Y031775D01*
X008541Y031930D01*
X008696Y031775D01*
X008920Y031683D01*
X009163Y031683D01*
X009387Y031775D01*
X009541Y031930D01*
X009696Y031775D01*
X009801Y031732D01*
X009801Y027357D01*
X006281Y030877D01*
X006281Y031732D01*
X006387Y031775D01*
X006541Y031930D01*
X006535Y031923D02*
X006548Y031923D01*
X006667Y031805D02*
X006416Y031805D01*
X006281Y031686D02*
X006912Y031686D01*
X007171Y031686D02*
X007912Y031686D01*
X008171Y031686D02*
X008912Y031686D01*
X009171Y031686D02*
X009801Y031686D01*
X009801Y031568D02*
X006281Y031568D01*
X006281Y031449D02*
X009801Y031449D01*
X009801Y031331D02*
X006281Y031331D01*
X006281Y031212D02*
X009801Y031212D01*
X009801Y031094D02*
X006281Y031094D01*
X006281Y030975D02*
X009801Y030975D01*
X009801Y030857D02*
X006302Y030857D01*
X006421Y030738D02*
X009801Y030738D01*
X009801Y030620D02*
X006539Y030620D01*
X006658Y030501D02*
X009801Y030501D01*
X009801Y030383D02*
X006776Y030383D01*
X006895Y030264D02*
X009801Y030264D01*
X009801Y030146D02*
X007013Y030146D01*
X007132Y030027D02*
X009801Y030027D01*
X009801Y029909D02*
X007250Y029909D01*
X007369Y029790D02*
X009801Y029790D01*
X009801Y029672D02*
X007487Y029672D01*
X007606Y029553D02*
X009801Y029553D01*
X009801Y029435D02*
X007724Y029435D01*
X007843Y029316D02*
X009801Y029316D01*
X009801Y029198D02*
X007961Y029198D01*
X008080Y029079D02*
X009801Y029079D01*
X009801Y028961D02*
X008198Y028961D01*
X008317Y028842D02*
X009801Y028842D01*
X009801Y028724D02*
X008435Y028724D01*
X008554Y028605D02*
X009801Y028605D01*
X009801Y028487D02*
X008672Y028487D01*
X008791Y028368D02*
X009801Y028368D01*
X009801Y028250D02*
X008909Y028250D01*
X009028Y028131D02*
X009801Y028131D01*
X009801Y028013D02*
X009146Y028013D01*
X009265Y027894D02*
X009801Y027894D01*
X009801Y027776D02*
X009383Y027776D01*
X009502Y027657D02*
X009801Y027657D01*
X009801Y027539D02*
X009620Y027539D01*
X009739Y027420D02*
X009801Y027420D01*
X012345Y025287D02*
X012442Y025287D01*
X012464Y025169D02*
X012560Y025169D01*
X012582Y025050D02*
X012679Y025050D01*
X012701Y024932D02*
X012797Y024932D01*
X012819Y024813D02*
X012916Y024813D01*
X012938Y024695D02*
X013034Y024695D01*
X013056Y024576D02*
X013153Y024576D01*
X013175Y024458D02*
X013271Y024458D01*
X013293Y024339D02*
X013390Y024339D01*
X013412Y024221D02*
X013508Y024221D01*
X013530Y024102D02*
X013627Y024102D01*
X013649Y023984D02*
X013745Y023984D01*
X013767Y023865D02*
X013864Y023865D01*
X013886Y023747D02*
X013982Y023747D01*
X014004Y023628D02*
X014101Y023628D01*
X014123Y023510D02*
X014219Y023510D01*
X014241Y023391D02*
X014338Y023391D01*
X014360Y023273D02*
X014456Y023273D01*
X014478Y023154D02*
X014575Y023154D01*
X014597Y023036D02*
X014693Y023036D01*
X014698Y022917D02*
X014812Y022917D01*
X014721Y022799D02*
X014930Y022799D01*
X015474Y023391D02*
X016005Y023391D01*
X015887Y023510D02*
X015356Y023510D01*
X015237Y023628D02*
X015768Y023628D01*
X015650Y023747D02*
X015119Y023747D01*
X015000Y023865D02*
X015531Y023865D01*
X015413Y023984D02*
X014882Y023984D01*
X014763Y024102D02*
X015294Y024102D01*
X015176Y024221D02*
X014645Y024221D01*
X014526Y024339D02*
X015057Y024339D01*
X014939Y024458D02*
X014408Y024458D01*
X014289Y024576D02*
X014820Y024576D01*
X014702Y024695D02*
X014171Y024695D01*
X014052Y024813D02*
X014583Y024813D01*
X014465Y024932D02*
X013934Y024932D01*
X013815Y025050D02*
X014346Y025050D01*
X014228Y025169D02*
X013705Y025169D01*
X013701Y025164D02*
X013743Y025206D01*
X014190Y025206D01*
X016869Y022527D01*
X016866Y022526D01*
X016822Y022482D01*
X016383Y022482D01*
X013701Y025164D01*
X013509Y025446D02*
X014290Y025446D01*
X020716Y019020D01*
X020716Y016117D01*
X020476Y016350D02*
X020447Y016322D01*
X020369Y016400D01*
X020378Y016404D01*
X020472Y016498D01*
X020476Y016506D01*
X020476Y016350D01*
X020476Y016400D02*
X020369Y016400D01*
X020474Y016874D02*
X020476Y016874D01*
X020476Y016992D02*
X020328Y016992D01*
X020956Y016992D02*
X022945Y016992D01*
X022945Y016874D02*
X020956Y016874D01*
X020956Y016755D02*
X022848Y016755D01*
X022729Y016637D02*
X020956Y016637D01*
X020956Y016518D02*
X022611Y016518D01*
X022358Y016400D02*
X021879Y016400D01*
X021674Y016400D02*
X020956Y016400D01*
X021010Y016281D02*
X021504Y016281D01*
X021448Y016163D02*
X021051Y016163D01*
X021048Y016044D02*
X021441Y016044D01*
X021478Y015926D02*
X020998Y015926D01*
X020807Y015339D02*
X019537Y016610D01*
X019537Y016663D01*
X014756Y021444D01*
X012970Y021444D01*
X012628Y021786D01*
X012424Y022055D02*
X012348Y021980D01*
X012053Y022275D01*
X012053Y022292D01*
X012066Y022279D01*
X012189Y022228D01*
X012251Y022228D01*
X012424Y022055D01*
X012391Y022088D02*
X012240Y022088D01*
X012273Y022206D02*
X012122Y022206D01*
X011813Y022175D02*
X013263Y020726D01*
X014154Y020726D01*
X013921Y020966D02*
X013965Y021010D01*
X014088Y021061D01*
X014221Y021061D01*
X014344Y021010D01*
X014438Y020915D01*
X014489Y020792D01*
X014489Y020659D01*
X014438Y020536D01*
X014374Y020472D01*
X014391Y020465D01*
X015184Y019672D01*
X015247Y019672D01*
X015370Y019621D01*
X015414Y019577D01*
X016284Y019577D01*
X014657Y021204D01*
X013124Y021204D01*
X013362Y020966D01*
X013921Y020966D01*
X013992Y021021D02*
X013307Y021021D01*
X013188Y021140D02*
X014721Y021140D01*
X014840Y021021D02*
X014317Y021021D01*
X014444Y020903D02*
X014958Y020903D01*
X015077Y020784D02*
X014489Y020784D01*
X014489Y020666D02*
X015195Y020666D01*
X015314Y020547D02*
X014443Y020547D01*
X014428Y020429D02*
X015432Y020429D01*
X015551Y020310D02*
X014546Y020310D01*
X014665Y020192D02*
X015669Y020192D01*
X015788Y020073D02*
X014783Y020073D01*
X014902Y019955D02*
X015906Y019955D01*
X016025Y019836D02*
X015020Y019836D01*
X015139Y019718D02*
X016143Y019718D01*
X016262Y019599D02*
X015391Y019599D01*
X015180Y019337D02*
X016569Y019337D01*
X019337Y016570D01*
X019451Y016044D02*
X004561Y016044D01*
X004561Y015926D02*
X019570Y015926D01*
X019688Y015807D02*
X004561Y015807D01*
X004561Y015689D02*
X019807Y015689D01*
X019925Y015570D02*
X004561Y015570D01*
X004561Y015452D02*
X007584Y015452D01*
X007298Y015333D02*
X004561Y015333D01*
X004561Y015215D02*
X007179Y015215D01*
X007060Y015096D02*
X004561Y015096D01*
X004561Y014978D02*
X007003Y014978D01*
X006954Y014859D02*
X004561Y014859D01*
X004561Y014741D02*
X006912Y014741D01*
X006912Y014622D02*
X004561Y014622D01*
X004561Y014504D02*
X006912Y014504D01*
X006918Y014385D02*
X004561Y014385D01*
X004561Y014267D02*
X006967Y014267D01*
X007017Y014148D02*
X004561Y014148D01*
X004561Y014030D02*
X007092Y014030D01*
X007210Y013911D02*
X004561Y013911D01*
X004561Y013793D02*
X006502Y013793D01*
X006384Y013674D02*
X004561Y013674D01*
X004561Y013556D02*
X006265Y013556D01*
X006147Y013437D02*
X004561Y013437D01*
X004561Y013319D02*
X006028Y013319D01*
X005936Y013200D02*
X004561Y013200D01*
X004561Y013082D02*
X005936Y013082D01*
X005936Y012963D02*
X004561Y012963D01*
X004561Y012845D02*
X005936Y012845D01*
X005936Y012726D02*
X004561Y012726D01*
X004561Y012608D02*
X005936Y012608D01*
X005936Y012489D02*
X004561Y012489D01*
X004561Y012371D02*
X005936Y012371D01*
X005955Y012252D02*
X004561Y012252D01*
X004561Y012134D02*
X006073Y012134D01*
X006192Y012015D02*
X004561Y012015D01*
X004561Y011897D02*
X006310Y011897D01*
X006429Y011778D02*
X004561Y011778D01*
X004561Y011660D02*
X006547Y011660D01*
X006520Y011423D02*
X004561Y011423D01*
X004561Y011541D02*
X009001Y011541D01*
X009001Y011423D02*
X009121Y011423D01*
X009121Y011304D02*
X009001Y011304D01*
X009001Y011186D02*
X009121Y011186D01*
X009121Y011067D02*
X009001Y011067D01*
X009001Y010949D02*
X009121Y010949D01*
X009121Y010830D02*
X009001Y010830D01*
X009001Y010712D02*
X009121Y010712D01*
X009121Y010593D02*
X009001Y010593D01*
X009001Y010475D02*
X009121Y010475D01*
X007151Y010475D02*
X007031Y010475D01*
X007031Y010593D02*
X007151Y010593D01*
X007151Y010712D02*
X007031Y010712D01*
X007031Y010830D02*
X007151Y010830D01*
X007151Y010949D02*
X007031Y010949D01*
X007031Y011067D02*
X007151Y011067D01*
X007151Y011186D02*
X007031Y011186D01*
X007031Y011304D02*
X007151Y011304D01*
X007151Y011423D02*
X007031Y011423D01*
X006402Y011304D02*
X004561Y011304D01*
X004561Y011186D02*
X006283Y011186D01*
X006165Y011067D02*
X004561Y011067D01*
X004561Y010949D02*
X006046Y010949D01*
X005956Y010830D02*
X004561Y010830D01*
X004561Y010712D02*
X005956Y010712D01*
X005956Y010593D02*
X004561Y010593D01*
X004561Y010475D02*
X005956Y010475D01*
X007091Y012749D02*
X008207Y012749D01*
X008246Y013200D02*
X026934Y013200D01*
X027053Y013319D02*
X008155Y013319D01*
X008036Y013437D02*
X027171Y013437D01*
X027290Y013556D02*
X007918Y013556D01*
X007799Y013674D02*
X027408Y013674D01*
X027527Y013793D02*
X008229Y013793D01*
X008393Y013911D02*
X027645Y013911D01*
X026366Y014504D02*
X026289Y014504D01*
X026289Y014622D02*
X026366Y014622D01*
X026366Y014741D02*
X026289Y014741D01*
X026289Y014859D02*
X024193Y014859D01*
X024311Y014978D02*
X025882Y014978D01*
X025894Y014741D02*
X008691Y014741D01*
X008691Y014622D02*
X025953Y014622D01*
X026073Y014504D02*
X008691Y014504D01*
X008649Y014859D02*
X020636Y014859D01*
X020518Y014978D02*
X008599Y014978D01*
X008542Y015096D02*
X020399Y015096D01*
X020281Y015215D02*
X008424Y015215D01*
X008305Y015333D02*
X020162Y015333D01*
X020044Y015452D02*
X008019Y015452D01*
X007936Y016281D02*
X007667Y016281D01*
X007785Y016400D02*
X007818Y016400D01*
X007889Y017229D02*
X007714Y017229D01*
X007522Y017348D02*
X008081Y017348D01*
X008522Y017348D02*
X009081Y017348D01*
X008889Y017229D02*
X008714Y017229D01*
X009522Y017348D02*
X010081Y017348D01*
X009889Y017229D02*
X009714Y017229D01*
X010522Y017348D02*
X011081Y017348D01*
X010889Y017229D02*
X010714Y017229D01*
X011522Y017348D02*
X012081Y017348D01*
X011889Y017229D02*
X011714Y017229D01*
X011785Y016400D02*
X011818Y016400D01*
X011936Y016281D02*
X011667Y016281D01*
X010936Y016281D02*
X010667Y016281D01*
X010785Y016400D02*
X010818Y016400D01*
X009936Y016281D02*
X009667Y016281D01*
X009785Y016400D02*
X009818Y016400D01*
X008936Y016281D02*
X008667Y016281D01*
X008785Y016400D02*
X008818Y016400D01*
X007081Y017348D02*
X006522Y017348D01*
X006714Y017229D02*
X006889Y017229D01*
X006081Y017348D02*
X005522Y017348D01*
X005714Y017229D02*
X005889Y017229D01*
X005818Y016400D02*
X005785Y016400D01*
X005667Y016281D02*
X005936Y016281D01*
X006667Y016281D02*
X006936Y016281D01*
X006818Y016400D02*
X006785Y016400D01*
X006566Y018709D02*
X006911Y019054D01*
X006911Y019259D01*
X006361Y019259D01*
X006361Y018709D01*
X006566Y018709D01*
X006361Y018770D02*
X006281Y018770D01*
X006281Y018888D02*
X006361Y018888D01*
X006361Y019007D02*
X006281Y019007D01*
X006281Y019125D02*
X006361Y019125D01*
X006361Y019244D02*
X006281Y019244D01*
X006321Y019299D02*
X011781Y019299D01*
X014301Y016779D01*
X014261Y016874D02*
X014341Y016874D01*
X014341Y016992D02*
X014261Y016992D01*
X014261Y017111D02*
X014341Y017111D01*
X014341Y017229D02*
X014261Y017229D01*
X014261Y017348D02*
X014341Y017348D01*
X014459Y017348D02*
X015081Y017348D01*
X014889Y017229D02*
X014685Y017229D01*
X014341Y016637D02*
X014261Y016637D01*
X014261Y016518D02*
X014341Y016518D01*
X014341Y016400D02*
X014261Y016400D01*
X014261Y016281D02*
X014341Y016281D01*
X014621Y016281D02*
X014936Y016281D01*
X014818Y016400D02*
X014755Y016400D01*
X013982Y016281D02*
X013667Y016281D01*
X013785Y016400D02*
X013848Y016400D01*
X013918Y017229D02*
X013714Y017229D01*
X013522Y017348D02*
X014143Y017348D01*
X013081Y017348D02*
X012522Y017348D01*
X012714Y017229D02*
X012889Y017229D01*
X012818Y016400D02*
X012785Y016400D01*
X012667Y016281D02*
X012936Y016281D01*
X015667Y016281D02*
X015936Y016281D01*
X015818Y016400D02*
X015785Y016400D01*
X015714Y017229D02*
X015889Y017229D01*
X016081Y017348D02*
X015522Y017348D01*
X016242Y018177D02*
X017390Y018177D01*
X017508Y018059D02*
X016361Y018059D01*
X016479Y017940D02*
X017627Y017940D01*
X017745Y017822D02*
X016598Y017822D01*
X016716Y017703D02*
X017864Y017703D01*
X017982Y017585D02*
X016835Y017585D01*
X016953Y017466D02*
X018101Y017466D01*
X018143Y017348D02*
X017522Y017348D01*
X017423Y017389D02*
X017180Y017389D01*
X017075Y017345D01*
X015367Y019052D01*
X015370Y019053D01*
X015414Y019097D01*
X016470Y019097D01*
X018206Y017361D01*
X018163Y017354D01*
X018075Y017325D01*
X017992Y017283D01*
X017917Y017229D01*
X017851Y017163D01*
X017820Y017120D01*
X017819Y017124D01*
X017647Y017296D01*
X017423Y017389D01*
X017714Y017229D02*
X017918Y017229D01*
X017081Y017348D02*
X017072Y017348D01*
X016818Y016400D02*
X016785Y016400D01*
X016667Y016281D02*
X016936Y016281D01*
X017271Y018296D02*
X016124Y018296D01*
X016005Y018414D02*
X017153Y018414D01*
X017034Y018533D02*
X015887Y018533D01*
X015768Y018651D02*
X016916Y018651D01*
X016797Y018770D02*
X015650Y018770D01*
X015531Y018888D02*
X016679Y018888D01*
X016560Y019007D02*
X015413Y019007D01*
X015180Y019337D02*
X014255Y020262D01*
X012559Y020262D01*
X010952Y021869D01*
X005892Y021869D01*
X005321Y021299D01*
X005794Y020689D02*
X005821Y020661D01*
X005959Y020799D01*
X005931Y020826D01*
X005931Y020794D01*
X005826Y020689D01*
X005794Y020689D01*
X005817Y020666D02*
X005826Y020666D01*
X005922Y020784D02*
X005944Y020784D01*
X006321Y020299D02*
X006892Y020299D01*
X007406Y019784D01*
X007252Y019599D02*
X006855Y019599D01*
X006911Y019481D02*
X013618Y019481D01*
X013736Y019362D02*
X006911Y019362D01*
X006911Y019244D02*
X013855Y019244D01*
X013886Y019125D02*
X006911Y019125D01*
X006864Y019007D02*
X013957Y019007D01*
X013176Y020502D02*
X012658Y020502D01*
X011225Y021935D01*
X011713Y021935D01*
X013059Y020590D01*
X013127Y020522D01*
X013176Y020502D01*
X013102Y020547D02*
X012613Y020547D01*
X012495Y020666D02*
X012983Y020666D01*
X012865Y020784D02*
X012376Y020784D01*
X012258Y020903D02*
X012746Y020903D01*
X012628Y021021D02*
X012139Y021021D01*
X012021Y021140D02*
X012509Y021140D01*
X012391Y021258D02*
X011902Y021258D01*
X011784Y021377D02*
X012272Y021377D01*
X012154Y021495D02*
X011665Y021495D01*
X011547Y021614D02*
X012035Y021614D01*
X011917Y021732D02*
X011428Y021732D01*
X011310Y021851D02*
X011798Y021851D01*
X011573Y022415D02*
X005052Y022415D01*
X004963Y022379D01*
X004791Y022207D01*
X004791Y024140D01*
X004974Y024392D01*
X011501Y024399D01*
X011544Y024355D01*
X011668Y024304D01*
X011785Y024304D01*
X011785Y022930D01*
X011677Y022822D01*
X011609Y022754D01*
X011573Y022666D01*
X011573Y022415D01*
X011573Y022443D02*
X004791Y022443D01*
X004791Y022325D02*
X004909Y022325D01*
X004791Y022562D02*
X011573Y022562D01*
X011579Y022680D02*
X004791Y022680D01*
X004791Y022799D02*
X011654Y022799D01*
X011772Y022917D02*
X004791Y022917D01*
X004791Y023036D02*
X011785Y023036D01*
X011785Y023154D02*
X004791Y023154D01*
X004791Y023273D02*
X011785Y023273D01*
X011785Y023391D02*
X004791Y023391D01*
X004791Y023510D02*
X011785Y023510D01*
X011785Y023628D02*
X004791Y023628D01*
X004791Y023747D02*
X011785Y023747D01*
X011785Y023865D02*
X004791Y023865D01*
X004791Y023984D02*
X011785Y023984D01*
X011785Y024102D02*
X004791Y024102D01*
X004850Y024221D02*
X011785Y024221D01*
X011583Y024339D02*
X004936Y024339D01*
X005199Y021935D02*
X005619Y021935D01*
X005592Y021909D01*
X005172Y021909D01*
X005199Y021935D01*
X006854Y021629D02*
X010852Y021629D01*
X012222Y020259D01*
X008270Y020259D01*
X007095Y021434D01*
X007095Y021434D01*
X007027Y021502D01*
X006939Y021539D01*
X006931Y021539D01*
X006931Y021551D01*
X006854Y021629D01*
X006869Y021614D02*
X010868Y021614D01*
X010986Y021495D02*
X007034Y021495D01*
X007153Y021377D02*
X011105Y021377D01*
X011223Y021258D02*
X007271Y021258D01*
X007390Y021140D02*
X011342Y021140D01*
X011460Y021021D02*
X007508Y021021D01*
X007627Y020903D02*
X011579Y020903D01*
X011697Y020784D02*
X007745Y020784D01*
X007864Y020666D02*
X011816Y020666D01*
X011934Y020547D02*
X007982Y020547D01*
X008101Y020429D02*
X012053Y020429D01*
X012171Y020310D02*
X008219Y020310D01*
X007133Y019718D02*
X006737Y019718D01*
X006722Y019836D02*
X007015Y019836D01*
X006896Y019955D02*
X006840Y019955D01*
X005898Y018888D02*
X005774Y018888D01*
X005655Y018770D02*
X006016Y018770D01*
X004988Y018770D02*
X004561Y018770D01*
X004561Y018888D02*
X004869Y018888D01*
X004751Y019007D02*
X004561Y019007D01*
X004561Y019125D02*
X004711Y019125D01*
X004711Y019244D02*
X004561Y019244D01*
X004561Y019362D02*
X004711Y019362D01*
X004711Y019481D02*
X004561Y019481D01*
X004561Y019599D02*
X004682Y019599D01*
X004563Y019718D02*
X004561Y019718D01*
X005091Y027776D02*
X005415Y027776D01*
X005227Y027894D02*
X005091Y027894D01*
X005091Y028013D02*
X005109Y028013D01*
X005091Y029198D02*
X005162Y029198D01*
X005091Y029316D02*
X005280Y029316D01*
X007416Y031805D02*
X007667Y031805D01*
X007548Y031923D02*
X007535Y031923D01*
X008416Y031805D02*
X008667Y031805D01*
X008548Y031923D02*
X008535Y031923D01*
X009416Y031805D02*
X009667Y031805D01*
X009548Y031923D02*
X009535Y031923D01*
X013239Y032871D02*
X013844Y032871D01*
X013639Y032753D02*
X013444Y032753D01*
X014239Y032871D02*
X014844Y032871D01*
X014639Y032753D02*
X014444Y032753D01*
X015239Y032871D02*
X015844Y032871D01*
X015639Y032753D02*
X015444Y032753D01*
X016239Y032871D02*
X016844Y032871D01*
X016639Y032753D02*
X016444Y032753D01*
X015548Y031923D02*
X015535Y031923D01*
X015416Y031805D02*
X015667Y031805D01*
X014667Y031805D02*
X014416Y031805D01*
X014535Y031923D02*
X014548Y031923D01*
X013667Y031805D02*
X013416Y031805D01*
X013535Y031923D02*
X013548Y031923D01*
X013693Y028605D02*
X030427Y028605D01*
X030427Y028487D02*
X013575Y028487D01*
X013456Y028368D02*
X030427Y028368D01*
X030427Y028250D02*
X013338Y028250D01*
X013290Y028131D02*
X030427Y028131D01*
X030427Y028013D02*
X013290Y028013D01*
X013290Y027894D02*
X030427Y027894D01*
X030427Y027776D02*
X013290Y027776D01*
X013290Y027657D02*
X030427Y027657D01*
X030427Y027539D02*
X013290Y027539D01*
X013290Y027420D02*
X030427Y027420D01*
X030427Y027302D02*
X013290Y027302D01*
X013290Y027183D02*
X030427Y027183D01*
X030427Y027065D02*
X013290Y027065D01*
X013290Y026946D02*
X030427Y026946D01*
X030427Y026828D02*
X013290Y026828D01*
X013290Y026709D02*
X030427Y026709D01*
X030427Y026591D02*
X013290Y026591D01*
X013290Y026472D02*
X030427Y026472D01*
X030427Y026354D02*
X013290Y026354D01*
X013290Y026235D02*
X030427Y026235D01*
X030427Y026117D02*
X013290Y026117D01*
X013290Y025998D02*
X030427Y025998D01*
X030427Y025880D02*
X013290Y025880D01*
X013290Y025761D02*
X013394Y025761D01*
X013624Y025761D02*
X030427Y025761D01*
X030427Y025643D02*
X014432Y025643D01*
X014551Y025524D02*
X030427Y025524D01*
X030427Y025406D02*
X014669Y025406D01*
X014788Y025287D02*
X030427Y025287D01*
X030427Y025169D02*
X014906Y025169D01*
X015025Y025050D02*
X030427Y025050D01*
X030427Y024932D02*
X015143Y024932D01*
X015262Y024813D02*
X030427Y024813D01*
X030427Y024695D02*
X015380Y024695D01*
X015499Y024576D02*
X030427Y024576D01*
X030427Y024458D02*
X015617Y024458D01*
X015736Y024339D02*
X030427Y024339D01*
X030427Y024221D02*
X015854Y024221D01*
X015973Y024102D02*
X030427Y024102D01*
X030427Y023984D02*
X016091Y023984D01*
X016210Y023865D02*
X030427Y023865D01*
X030427Y023747D02*
X016328Y023747D01*
X016447Y023628D02*
X030427Y023628D01*
X030427Y023510D02*
X016565Y023510D01*
X016684Y023391D02*
X030427Y023391D01*
X030427Y023273D02*
X016802Y023273D01*
X016921Y023154D02*
X030427Y023154D01*
X030427Y023036D02*
X017039Y023036D01*
X017158Y022917D02*
X030427Y022917D01*
X030427Y022799D02*
X017276Y022799D01*
X017395Y022680D02*
X030427Y022680D01*
X030427Y022562D02*
X017513Y022562D01*
X017632Y022443D02*
X030427Y022443D01*
X030427Y022325D02*
X017750Y022325D01*
X017869Y022206D02*
X030427Y022206D01*
X030427Y022088D02*
X017987Y022088D01*
X018106Y021969D02*
X030427Y021969D01*
X030427Y021851D02*
X018224Y021851D01*
X019291Y020784D02*
X029302Y020784D01*
X029132Y020666D02*
X019409Y020666D01*
X019528Y020547D02*
X029046Y020547D01*
X028999Y020429D02*
X019646Y020429D01*
X019765Y020310D02*
X029473Y020310D01*
X029473Y020192D02*
X029553Y020192D01*
X029553Y020073D02*
X029473Y020073D01*
X029473Y019955D02*
X029553Y019955D01*
X029553Y019836D02*
X029473Y019836D01*
X029251Y019836D02*
X020239Y019836D01*
X020357Y019718D02*
X029788Y019718D01*
X029776Y019836D02*
X029788Y019836D01*
X029788Y019599D02*
X020476Y019599D01*
X020594Y019481D02*
X029788Y019481D01*
X029788Y019362D02*
X020713Y019362D01*
X020831Y019244D02*
X029788Y019244D01*
X029788Y019125D02*
X020932Y019125D01*
X020956Y019007D02*
X029788Y019007D01*
X029788Y018888D02*
X020956Y018888D01*
X020956Y018770D02*
X029788Y018770D01*
X029788Y018651D02*
X020956Y018651D01*
X020956Y018533D02*
X029788Y018533D01*
X029788Y018414D02*
X020956Y018414D01*
X020956Y018296D02*
X029788Y018296D01*
X029788Y018177D02*
X023335Y018177D01*
X023473Y018059D02*
X029788Y018059D01*
X029788Y017940D02*
X023520Y017940D01*
X023520Y017822D02*
X029788Y017822D01*
X029788Y017703D02*
X023476Y017703D01*
X023425Y017585D02*
X029788Y017585D01*
X029788Y017466D02*
X023425Y017466D01*
X023425Y017348D02*
X029788Y017348D01*
X029788Y017229D02*
X023425Y017229D01*
X023425Y017111D02*
X029788Y017111D01*
X029788Y016992D02*
X023425Y016992D01*
X023425Y016874D02*
X029788Y016874D01*
X029788Y016755D02*
X023425Y016755D01*
X023397Y016637D02*
X029788Y016637D01*
X029788Y016518D02*
X023290Y016518D01*
X023171Y016400D02*
X029788Y016400D01*
X029788Y016281D02*
X023053Y016281D01*
X022934Y016163D02*
X029788Y016163D01*
X029778Y016044D02*
X022902Y016044D01*
X022832Y015926D02*
X027025Y015926D01*
X024090Y015435D02*
X023949Y015294D01*
X021873Y015294D01*
X021873Y015406D01*
X021861Y015435D01*
X024090Y015435D01*
X023988Y015333D02*
X021873Y015333D01*
X021538Y015339D02*
X020807Y015339D01*
X021776Y016080D02*
X021849Y016152D01*
X022585Y016152D01*
X023185Y016753D01*
X023185Y017876D01*
X023036Y018177D02*
X020956Y018177D01*
X020956Y018059D02*
X022898Y018059D01*
X022850Y017940D02*
X020956Y017940D01*
X020956Y017822D02*
X022850Y017822D01*
X022895Y017703D02*
X020956Y017703D01*
X020956Y017585D02*
X022945Y017585D01*
X022945Y017466D02*
X020956Y017466D01*
X020956Y017348D02*
X022945Y017348D01*
X022945Y017229D02*
X020956Y017229D01*
X020956Y017111D02*
X022945Y017111D01*
X020120Y019955D02*
X029107Y019955D01*
X029033Y020073D02*
X020002Y020073D01*
X019883Y020192D02*
X028994Y020192D01*
X028009Y009527D02*
X027615Y009527D01*
X027718Y009408D02*
X027911Y009408D01*
X027861Y009290D02*
X027768Y009290D01*
X027852Y009171D02*
X027366Y009171D01*
X027289Y009171D02*
X026803Y009171D01*
X026793Y009290D02*
X026887Y009290D01*
X026936Y009408D02*
X026744Y009408D01*
X026646Y009527D02*
X027040Y009527D01*
X027289Y009527D02*
X027366Y009527D01*
X027366Y009408D02*
X027289Y009408D01*
X027289Y009290D02*
X027366Y009290D01*
X027772Y009066D02*
X027749Y008998D01*
X027717Y008934D01*
X026994Y008863D02*
X026690Y008863D01*
X026730Y008903D01*
X026792Y009053D02*
X026888Y009053D01*
X026938Y008934D02*
X026980Y008876D01*
X026994Y008863D01*
X016855Y021969D02*
X016439Y021969D01*
X016304Y022562D02*
X016835Y022562D01*
X016716Y022680D02*
X016185Y022680D01*
X016067Y022799D02*
X016598Y022799D01*
X016479Y022917D02*
X015948Y022917D01*
X015830Y023036D02*
X016361Y023036D01*
X016242Y023154D02*
X015711Y023154D01*
X015593Y023273D02*
X016124Y023273D01*
X014154Y022443D02*
X013678Y022443D01*
X013918Y023036D02*
X012265Y023036D01*
X012265Y023154D02*
X013800Y023154D01*
X013681Y023273D02*
X012265Y023273D01*
X012265Y023391D02*
X013563Y023391D01*
X013444Y023510D02*
X012265Y023510D01*
X012265Y023628D02*
X013326Y023628D01*
X013207Y023747D02*
X012265Y023747D01*
X012265Y023865D02*
X013089Y023865D01*
X012970Y023984D02*
X012265Y023984D01*
X012265Y024102D02*
X012852Y024102D01*
X012733Y024221D02*
X012265Y024221D01*
X012265Y024339D02*
X012615Y024339D01*
X012496Y024458D02*
X012265Y024458D01*
X012265Y024576D02*
X012378Y024576D01*
X018620Y034412D02*
X030427Y034412D01*
X030427Y034530D02*
X018583Y034530D01*
X018512Y034649D02*
X030427Y034649D01*
X030427Y034767D02*
X018392Y034767D01*
X004838Y034869D02*
X004696Y034810D01*
X004561Y034675D01*
X004561Y034869D01*
X004838Y034869D01*
X004653Y034767D02*
X004561Y034767D01*
D18*
X008601Y028979D03*
X008501Y027729D03*
X007501Y027729D03*
X006301Y027729D03*
X009601Y027879D03*
X010601Y027879D03*
X012101Y027879D03*
X013401Y027879D03*
X014601Y027879D03*
X015501Y027879D03*
X013509Y025446D03*
X013050Y025514D03*
X011734Y024639D03*
X012255Y022563D03*
X012628Y021786D03*
X013484Y022163D03*
X014481Y022529D03*
X014154Y020726D03*
X014203Y019235D03*
X014801Y018279D03*
X015180Y019337D03*
X016601Y018279D03*
X018601Y019779D03*
X017008Y021061D03*
X017056Y022242D03*
X020801Y020079D03*
X023185Y017876D03*
X022585Y016152D03*
X021776Y016080D03*
X021538Y015339D03*
X020716Y016117D03*
X020188Y016688D03*
X024801Y009479D03*
X027248Y015675D03*
X012801Y017879D03*
X010101Y017879D03*
X010001Y018879D03*
X006301Y023779D03*
M02*
