G75*
G70*
%OFA0B0*%
%FSLAX24Y24*%
%IPPOS*%
%LPD*%
%AMOC8*
5,1,8,0,0,1.08239X$1,22.5*
%
%ADD10R,0.0500X0.0220*%
%ADD11R,0.0220X0.0500*%
%ADD12R,0.0472X0.0315*%
%ADD13R,0.0669X0.0276*%
%ADD14R,0.0315X0.0472*%
%ADD15R,0.0197X0.0984*%
%ADD16R,0.0787X0.0984*%
%ADD17R,0.0137X0.0550*%
%ADD18R,0.0984X0.1181*%
%ADD19R,0.0354X0.0394*%
%ADD20R,0.0354X0.0433*%
%ADD21R,0.0500X0.0250*%
%ADD22R,0.0850X0.0420*%
%ADD23R,0.4098X0.4252*%
%ADD24R,0.0472X0.0787*%
%ADD25R,0.0250X0.0500*%
%ADD26R,0.0591X0.0512*%
D10*
X011725Y020302D03*
X011725Y020617D03*
X011725Y020932D03*
X011725Y021247D03*
X011725Y021562D03*
X011725Y021877D03*
X011725Y022192D03*
X011725Y022507D03*
X015105Y022507D03*
X015105Y022192D03*
X015105Y021877D03*
X015105Y021562D03*
X015105Y021247D03*
X015105Y020932D03*
X015105Y020617D03*
X015105Y020302D03*
D11*
X014518Y019715D03*
X014203Y019715D03*
X013888Y019715D03*
X013573Y019715D03*
X013258Y019715D03*
X012943Y019715D03*
X012628Y019715D03*
X012313Y019715D03*
X012313Y023095D03*
X012628Y023095D03*
X012943Y023095D03*
X013258Y023095D03*
X013573Y023095D03*
X013888Y023095D03*
X014203Y023095D03*
X014518Y023095D03*
D12*
X013252Y024216D03*
X013252Y024925D03*
X012500Y024922D03*
X012500Y024213D03*
X010641Y022233D03*
X010641Y021524D03*
X015961Y021433D03*
X016641Y021423D03*
X016641Y020714D03*
X015961Y020724D03*
X019602Y013716D03*
X019602Y013007D03*
X020984Y031863D03*
X020984Y032572D03*
X021972Y032600D03*
X021972Y031891D03*
X021941Y033777D03*
X021941Y034486D03*
X020942Y034485D03*
X020942Y033776D03*
D13*
X010565Y020908D03*
X010565Y020436D03*
X010565Y019963D03*
D14*
X015937Y022069D03*
X016646Y022069D03*
X022080Y018095D03*
X022453Y017397D03*
X022789Y018095D03*
X023162Y017397D03*
X021996Y013079D03*
X021287Y013079D03*
D15*
X021387Y011837D03*
X021072Y011837D03*
X020758Y011837D03*
X021702Y011837D03*
X022017Y011837D03*
D16*
X023159Y011837D03*
X023159Y009671D03*
X019616Y009671D03*
X019616Y011837D03*
D17*
X020514Y013783D03*
X020770Y013783D03*
X021026Y013783D03*
X021282Y013783D03*
X021538Y013783D03*
X021794Y013783D03*
X022049Y013783D03*
X022305Y013783D03*
X022561Y013783D03*
X022817Y013783D03*
X023073Y013783D03*
X023329Y013783D03*
X023585Y013783D03*
X023841Y013783D03*
X023841Y016662D03*
X023585Y016662D03*
X023329Y016662D03*
X023073Y016662D03*
X022817Y016662D03*
X022561Y016662D03*
X022305Y016662D03*
X022049Y016662D03*
X021794Y016662D03*
X021538Y016662D03*
X021282Y016662D03*
X021026Y016662D03*
X020770Y016662D03*
X020514Y016662D03*
D18*
X018734Y021693D03*
X026057Y021693D03*
D19*
X016377Y015299D03*
X016377Y014630D03*
D20*
X015078Y014965D03*
D21*
X019740Y017481D03*
X019737Y018053D03*
X020337Y018053D03*
X020340Y017481D03*
D22*
X017867Y012445D03*
X017867Y011445D03*
X017867Y010445D03*
D23*
X014587Y011445D03*
D24*
X017386Y013505D03*
X018645Y013505D03*
X018650Y009369D03*
X017391Y009369D03*
D25*
X017245Y014543D03*
X017245Y015143D03*
D26*
X019551Y015205D03*
X019551Y015953D03*
M02*
