%
M48
M72
T01C0.0350
T02C0.0354
T03C0.0360
T04C0.0394
T05C0.0400
T06C0.0630
T07C0.0787
T08C0.0866
%
T01
X12409Y6207
X9691Y7152
X9063Y10144
X7693Y10094
X7542Y11302
X10229Y12416
X10844Y13067
X9156Y13639
X10840Y10505
X15870Y8534
X17567Y10060
X22813Y7602
X24386Y9388
X30188Y11237
X32279Y10710
X27185Y13145
X26375Y13145
X28309Y14065
X19665Y15993
X19433Y15145
X17630Y15202
X21379Y5551
T02
X26634Y3619
X28366Y3619
X28216Y17562
X29398Y17562
T03
X15565Y16697
X14565Y16697
X13565Y16697
X12565Y16697
X11565Y16697
X10565Y16697
X9565Y16697
X9565Y15697
X10565Y15697
X11565Y15697
X12565Y15697
X13565Y15697
X14565Y15697
X15565Y15697
T04
X33450Y8027
X35450Y8027
X35450Y2319
X34450Y2319
X33450Y2319
T05
X700Y2585
X700Y3585
X700Y4585
X700Y5585
X700Y6585
X700Y7585
X700Y8585
X700Y9585
X700Y10585
X700Y11585
X700Y12585
X700Y13585
X700Y14585
X700Y15585
X3700Y15585
X3700Y14585
X3700Y13585
X3700Y12585
X3700Y11585
X3700Y10585
X3700Y9585
X3700Y8585
X3700Y7585
X3700Y6585
X3700Y5585
X3700Y4585
X3700Y3585
X3700Y2585
X6215Y2949
X7215Y2949
X8215Y2949
X8215Y3949
X7215Y3949
X6215Y3949
X15733Y2833
X16733Y2833
T06
X11686Y2469
T07
X11686Y4240
T08
X32450Y5272
X36450Y5272
M30
