G75*
G70*
%OFA0B0*%
%FSLAX24Y24*%
%IPPOS*%
%LPD*%
%AMOC8*
5,1,8,0,0,1.08239X$1,22.5*
%
%ADD10R,0.0560X0.0280*%
%ADD11R,0.0280X0.0560*%
%ADD12R,0.0532X0.0375*%
%ADD13R,0.0729X0.0336*%
%ADD14R,0.0375X0.0532*%
%ADD15C,0.0651*%
%ADD16C,0.1359*%
%ADD17R,0.0920X0.0920*%
%ADD18OC8,0.0920*%
%ADD19C,0.0920*%
%ADD20C,0.0800*%
%ADD21R,0.0257X0.1044*%
%ADD22R,0.0847X0.1044*%
%ADD23C,0.0414*%
%ADD24R,0.0197X0.0610*%
%ADD25R,0.1162X0.1162*%
%ADD26C,0.0690*%
%ADD27C,0.0847*%
%ADD28R,0.0375X0.1103*%
%ADD29R,0.1320X0.0493*%
%ADD30R,0.0360X0.0760*%
%ADD31R,0.1241X0.1044*%
%ADD32R,0.0454X0.0414*%
%ADD33R,0.0493X0.0414*%
%ADD34C,0.0600*%
%ADD35OC8,0.0600*%
%ADD36R,0.0310X0.0560*%
%ADD37R,0.0560X0.0310*%
%ADD38R,0.0930X0.0300*%
%ADD39R,0.0454X0.0651*%
%ADD40C,0.0585*%
D10*
X012270Y010416D03*
X012270Y010731D03*
X012270Y011046D03*
X012270Y011361D03*
X012270Y011676D03*
X012270Y011991D03*
X012270Y012306D03*
X012270Y012621D03*
X015650Y012621D03*
X015650Y012306D03*
X015650Y011991D03*
X015650Y011676D03*
X015650Y011361D03*
X015650Y011046D03*
X015650Y010731D03*
X015650Y010416D03*
D11*
X015062Y009829D03*
X014747Y009829D03*
X014432Y009829D03*
X014117Y009829D03*
X013803Y009829D03*
X013488Y009829D03*
X013173Y009829D03*
X012858Y009829D03*
X012858Y013209D03*
X013173Y013209D03*
X013488Y013209D03*
X013803Y013209D03*
X014117Y013209D03*
X014432Y013209D03*
X014747Y013209D03*
X015062Y013209D03*
D12*
X009260Y011473D03*
X008410Y011473D03*
X008410Y010764D03*
X009260Y010764D03*
X014160Y008073D03*
X015016Y008068D03*
X015016Y007359D03*
X014160Y007364D03*
X024060Y011564D03*
X025460Y011564D03*
X025460Y012273D03*
X024060Y012273D03*
X030776Y005745D03*
X031585Y005732D03*
X031585Y005023D03*
X030776Y005036D03*
X036670Y008324D03*
X036670Y009033D03*
D13*
X017460Y011896D03*
X017460Y012369D03*
X017460Y012841D03*
D14*
X025606Y016819D03*
X026314Y016819D03*
X026664Y017819D03*
X025956Y017819D03*
X026973Y011889D03*
X027682Y011889D03*
X028306Y011919D03*
X029014Y011919D03*
X036276Y009799D03*
X036984Y009799D03*
X019614Y006363D03*
X018906Y006363D03*
D15*
X034100Y007647D03*
X036100Y007647D03*
X036100Y001939D03*
X035100Y001939D03*
X034100Y001939D03*
D16*
X033100Y004892D03*
X037100Y004892D03*
D17*
X006375Y002949D03*
D18*
X007375Y002949D03*
X008375Y002949D03*
X008375Y003949D03*
X007375Y003949D03*
X006375Y003949D03*
D19*
X000860Y002585D03*
X000860Y003585D03*
X000860Y004585D03*
X000860Y005585D03*
X000860Y006585D03*
X000860Y007585D03*
X000860Y008585D03*
X000860Y009585D03*
X000860Y010585D03*
X000860Y011585D03*
X000860Y012585D03*
X000860Y013585D03*
X000860Y014585D03*
X000860Y015585D03*
X003860Y015585D03*
X003860Y014585D03*
X003860Y013585D03*
X003860Y012585D03*
X003860Y011585D03*
X003860Y010585D03*
X003860Y009585D03*
X003860Y008585D03*
X003860Y007585D03*
X003860Y006585D03*
X003860Y005585D03*
X003860Y004585D03*
X003860Y003585D03*
X003860Y002585D03*
D20*
X015893Y002833D03*
X016893Y002833D03*
D21*
X027030Y004603D03*
X027345Y004603D03*
X027660Y004603D03*
X027975Y004603D03*
X028290Y004603D03*
D22*
X029432Y004603D03*
X025888Y004603D03*
X025888Y002438D03*
X029432Y002438D03*
D23*
X028526Y003619D03*
X026794Y003619D03*
X028376Y017562D03*
X029558Y017562D03*
D24*
X029323Y009958D03*
X029067Y009958D03*
X028812Y009958D03*
X028556Y009958D03*
X028300Y009958D03*
X028044Y009958D03*
X027788Y009958D03*
X027532Y009958D03*
X027276Y009958D03*
X027020Y009958D03*
X026764Y009958D03*
X026508Y009958D03*
X026253Y009958D03*
X025997Y009958D03*
X025997Y007079D03*
X026253Y007079D03*
X026508Y007079D03*
X026764Y007079D03*
X027020Y007079D03*
X027276Y007079D03*
X027532Y007079D03*
X027788Y007079D03*
X028044Y007079D03*
X028300Y007079D03*
X028556Y007079D03*
X028812Y007079D03*
X029067Y007079D03*
X029323Y007079D03*
D25*
X013972Y004858D03*
X009720Y004858D03*
X009720Y002508D03*
X013972Y002508D03*
D26*
X011846Y002469D03*
D27*
X011846Y004240D03*
D28*
X018760Y004485D03*
X018760Y002713D03*
D29*
X021110Y007572D03*
X024181Y007572D03*
D30*
X022405Y002458D03*
X021342Y002458D03*
D31*
X034460Y010277D03*
X034460Y017600D03*
D32*
X032795Y008769D03*
X032125Y008769D03*
D33*
X032460Y010068D03*
D34*
X009725Y015697D03*
D35*
X010725Y015697D03*
X011725Y015697D03*
X012725Y015697D03*
X013725Y015697D03*
X014725Y015697D03*
X015725Y015697D03*
X015725Y016697D03*
X014725Y016697D03*
X013725Y016697D03*
X012725Y016697D03*
X011725Y016697D03*
X010725Y016697D03*
X009725Y016697D03*
D36*
X024860Y005019D03*
X024860Y004419D03*
D37*
X025660Y005719D03*
X026260Y005719D03*
X016297Y004946D03*
X015697Y004946D03*
X024960Y013319D03*
X025560Y013319D03*
D38*
X023290Y004969D03*
X023290Y004469D03*
X023290Y003969D03*
X023290Y003469D03*
X021230Y003469D03*
X021230Y003969D03*
X021230Y004469D03*
X021230Y004969D03*
D39*
X027983Y016479D03*
X028967Y016479D03*
X029951Y016479D03*
D40*
X029182Y014795D03*
X027345Y013145D03*
X026535Y013145D03*
X030348Y011237D03*
X033403Y010277D03*
X036206Y010656D03*
X024462Y009390D03*
X022973Y007602D03*
X021539Y005661D03*
X015988Y008276D03*
X017743Y010287D03*
X017791Y013658D03*
X019370Y015353D03*
X010991Y013639D03*
X009164Y013200D03*
X010384Y012621D03*
X007702Y011504D03*
X007440Y010156D03*
X010994Y010094D03*
X009196Y007091D03*
X012007Y006701D03*
M02*
