G75*
G70*
%OFA0B0*%
%FSLAX24Y24*%
%IPPOS*%
%LPD*%
%AMOC8*
5,1,8,0,0,1.08239X$1,22.5*
%
%ADD10C,0.0060*%
%ADD11C,0.0030*%
D10*
X006742Y026433D02*
X006635Y026539D01*
X006742Y026646D01*
X006955Y026646D01*
X007062Y026753D01*
X006955Y026860D01*
X006635Y026860D01*
X006742Y026433D02*
X007062Y026433D01*
X007280Y026539D02*
X007280Y026860D01*
X007280Y026539D02*
X007386Y026433D01*
X007493Y026539D01*
X007600Y026433D01*
X007707Y026539D01*
X007707Y026860D01*
X007924Y026753D02*
X007924Y026646D01*
X008351Y026646D01*
X008351Y026539D02*
X008351Y026753D01*
X008245Y026860D01*
X008031Y026860D01*
X007924Y026753D01*
X008031Y026433D02*
X008245Y026433D01*
X008351Y026539D01*
X008568Y026860D02*
X008675Y026860D01*
X008888Y026646D01*
X008888Y026433D02*
X008888Y026860D01*
X009106Y026860D02*
X009426Y026860D01*
X009533Y026753D01*
X009533Y026539D01*
X009426Y026433D01*
X009106Y026433D01*
X009106Y027073D01*
X009750Y026753D02*
X009750Y026433D01*
X009750Y026753D02*
X009857Y026860D01*
X010177Y026860D01*
X010177Y026433D01*
X010395Y026433D02*
X010395Y026860D01*
X010609Y027073D01*
X010822Y026860D01*
X010822Y026433D01*
X010822Y026753D02*
X010395Y026753D01*
X011684Y026860D02*
X012004Y026860D01*
X012111Y026753D01*
X012111Y026539D01*
X012004Y026433D01*
X011684Y026433D01*
X011684Y027073D01*
X012434Y027073D02*
X012434Y027180D01*
X012434Y026860D02*
X012434Y026433D01*
X012541Y026433D02*
X012327Y026433D01*
X012434Y026860D02*
X012541Y026860D01*
X012758Y026860D02*
X012972Y026433D01*
X013185Y026860D01*
X013403Y026753D02*
X013403Y026433D01*
X013723Y026433D01*
X013830Y026539D01*
X013723Y026646D01*
X013403Y026646D01*
X013403Y026753D02*
X013510Y026860D01*
X013723Y026860D01*
X014047Y026966D02*
X014047Y026539D01*
X014154Y026433D01*
X014474Y026433D01*
X014474Y027073D01*
X014154Y027073D01*
X014047Y026966D01*
X015337Y026860D02*
X015657Y026860D01*
X015764Y026753D01*
X015764Y026539D01*
X015657Y026433D01*
X015337Y026433D01*
X015337Y027073D01*
X015981Y026753D02*
X015981Y026433D01*
X015981Y026753D02*
X016088Y026860D01*
X016408Y026860D01*
X016408Y026433D01*
X016626Y026433D02*
X016626Y026753D01*
X016732Y026860D01*
X016946Y026860D01*
X016946Y026646D02*
X016626Y026646D01*
X016626Y026433D02*
X016946Y026433D01*
X017053Y026539D01*
X016946Y026646D01*
X017915Y026539D02*
X018022Y026646D01*
X018235Y026646D01*
X018342Y026753D01*
X018235Y026860D01*
X017915Y026860D01*
X017915Y026539D02*
X018022Y026433D01*
X018342Y026433D01*
X018559Y026539D02*
X018559Y026860D01*
X018559Y026539D02*
X018666Y026433D01*
X018773Y026539D01*
X018880Y026433D01*
X018986Y026539D01*
X018986Y026860D01*
X019204Y026753D02*
X019204Y026646D01*
X019631Y026646D01*
X019631Y026539D02*
X019631Y026753D01*
X019524Y026860D01*
X019311Y026860D01*
X019204Y026753D01*
X019311Y026433D02*
X019524Y026433D01*
X019631Y026539D01*
X019848Y026860D02*
X019955Y026860D01*
X020168Y026646D01*
X020168Y026433D02*
X020168Y026860D01*
X020386Y026860D02*
X020706Y026860D01*
X020813Y026753D01*
X020813Y026539D01*
X020706Y026433D01*
X020386Y026433D01*
X020386Y027073D01*
X021030Y026753D02*
X021030Y026433D01*
X021030Y026753D02*
X021137Y026860D01*
X021457Y026860D01*
X021457Y026433D01*
X021675Y026433D02*
X021675Y026860D01*
X021888Y027073D01*
X022102Y026860D01*
X022102Y026433D01*
X022102Y026753D02*
X021675Y026753D01*
X022964Y026753D02*
X022964Y026433D01*
X022964Y026753D02*
X023070Y026860D01*
X023391Y026860D01*
X023391Y026433D01*
X023607Y026433D02*
X023820Y026433D01*
X023714Y026433D02*
X023714Y026860D01*
X023820Y026860D01*
X024037Y026860D02*
X024250Y026860D01*
X024143Y026966D02*
X024143Y026539D01*
X024037Y026433D01*
X024468Y026539D02*
X024574Y026646D01*
X024788Y026646D01*
X024895Y026753D01*
X024788Y026860D01*
X024468Y026860D01*
X024468Y026539D02*
X024574Y026433D01*
X024895Y026433D01*
X025112Y026433D02*
X025112Y026860D01*
X025539Y026860D02*
X025539Y026539D01*
X025433Y026433D01*
X025112Y026433D01*
X025757Y026539D02*
X025757Y026966D01*
X025864Y027073D01*
X026184Y027073D01*
X026184Y026433D01*
X025864Y026433D01*
X025757Y026539D01*
X027046Y026433D02*
X027366Y026433D01*
X027473Y026539D01*
X027473Y026860D01*
X027690Y026860D02*
X027797Y026753D01*
X028117Y026753D01*
X027797Y026753D02*
X027690Y026646D01*
X027690Y026539D01*
X027797Y026433D01*
X028117Y026433D01*
X028117Y027073D01*
X027797Y027073D01*
X027690Y026966D01*
X027690Y026860D01*
X027046Y026860D02*
X027046Y026326D01*
X027153Y026219D01*
X027259Y026219D01*
X023714Y027073D02*
X023714Y027180D01*
X023830Y030783D02*
X024044Y030996D01*
X023937Y030996D02*
X024257Y030996D01*
X024257Y030783D02*
X024257Y031423D01*
X023937Y031423D01*
X023830Y031316D01*
X023830Y031103D01*
X023937Y030996D01*
X023613Y030889D02*
X023506Y030783D01*
X023293Y030783D01*
X023186Y030889D01*
X023186Y031103D01*
X023293Y031210D01*
X023506Y031210D01*
X023613Y031103D01*
X023613Y030889D01*
X022968Y030783D02*
X022648Y030783D01*
X022541Y030889D01*
X022541Y031103D01*
X022648Y031210D01*
X022968Y031210D01*
X022968Y031423D02*
X022968Y030783D01*
X022324Y030889D02*
X022217Y030783D01*
X022004Y030783D01*
X021897Y030889D01*
X021897Y031103D01*
X022004Y031210D01*
X022217Y031210D01*
X022324Y031103D01*
X022324Y030889D01*
X021679Y031210D02*
X021466Y031210D01*
X021573Y031316D02*
X021573Y030889D01*
X021466Y030783D01*
X021250Y030783D02*
X021036Y030783D01*
X021143Y030783D02*
X021143Y031210D01*
X021250Y031210D01*
X021143Y031423D02*
X021143Y031530D01*
X020820Y031103D02*
X020713Y031210D01*
X020393Y031210D01*
X020393Y030783D02*
X020713Y030783D01*
X020820Y030889D01*
X020820Y031103D01*
X019531Y030783D02*
X019531Y031423D01*
X019317Y031210D01*
X019104Y031423D01*
X019104Y030783D01*
X018886Y030783D02*
X018673Y030783D01*
X018779Y030783D02*
X018779Y031210D01*
X018886Y031210D01*
X018779Y031423D02*
X018779Y031530D01*
X018457Y031210D02*
X018136Y031210D01*
X018029Y031103D01*
X018029Y030783D01*
X017812Y030783D02*
X017598Y030783D01*
X017705Y030783D02*
X017705Y031210D01*
X017812Y031210D01*
X017705Y031423D02*
X017705Y031530D01*
X017276Y031210D02*
X017382Y031103D01*
X017382Y030889D01*
X017276Y030783D01*
X017062Y030783D01*
X016955Y030889D01*
X016955Y031103D01*
X017062Y031210D01*
X017276Y031210D01*
X016738Y031210D02*
X016738Y030783D01*
X016738Y031210D02*
X016417Y031210D01*
X016311Y031103D01*
X016311Y030783D01*
X015449Y030889D02*
X015342Y030783D01*
X015128Y030783D01*
X015022Y030889D01*
X015022Y030996D01*
X015128Y031103D01*
X015342Y031103D01*
X015449Y031210D01*
X015449Y031316D01*
X015342Y031423D01*
X015128Y031423D01*
X015022Y031316D01*
X014804Y031210D02*
X014591Y031210D01*
X014697Y031316D02*
X014697Y030889D01*
X014591Y030783D01*
X014374Y030889D02*
X014268Y030996D01*
X013947Y030996D01*
X013947Y031103D02*
X013947Y030783D01*
X014268Y030783D01*
X014374Y030889D01*
X014268Y031210D02*
X014054Y031210D01*
X013947Y031103D01*
X013730Y031210D02*
X013730Y030783D01*
X013730Y030996D02*
X013516Y031210D01*
X013410Y031210D01*
X013193Y031210D02*
X012979Y031210D01*
X013086Y031316D02*
X013086Y030889D01*
X012979Y030783D01*
X012763Y030889D02*
X012763Y031103D01*
X012656Y031210D01*
X012443Y031210D01*
X012336Y031103D01*
X012336Y030996D01*
X012763Y030996D01*
X012763Y030889D02*
X012656Y030783D01*
X012443Y030783D01*
X012118Y030783D02*
X012118Y031210D01*
X011905Y031210D02*
X012118Y030996D01*
X011905Y031210D02*
X011798Y031210D01*
X010937Y031423D02*
X010937Y030783D01*
X010937Y030996D02*
X010510Y031423D01*
X010292Y031210D02*
X010185Y031210D01*
X010185Y030783D01*
X010079Y030783D02*
X010292Y030783D01*
X010510Y030783D02*
X010830Y031103D01*
X010185Y031423D02*
X010185Y031530D01*
X009863Y031210D02*
X009649Y031210D01*
X009756Y031316D02*
X009756Y030889D01*
X009649Y030783D01*
X018457Y030783D02*
X018457Y031210D01*
D11*
X018131Y032936D02*
X017938Y032936D01*
X017889Y032984D01*
X017889Y033081D01*
X017938Y033129D01*
X018035Y033129D01*
X018035Y033032D01*
X018131Y032936D02*
X018180Y032984D01*
X018180Y033081D01*
X018131Y033129D01*
X018180Y033230D02*
X017889Y033424D01*
X018180Y033424D01*
X018180Y033525D02*
X018180Y033670D01*
X018131Y033718D01*
X017938Y033718D01*
X017889Y033670D01*
X017889Y033525D01*
X018180Y033525D01*
X018180Y033230D02*
X017889Y033230D01*
X017180Y033229D02*
X017180Y033036D01*
X017035Y033036D01*
X017083Y033132D01*
X017083Y033181D01*
X017035Y033229D01*
X016938Y033229D01*
X016889Y033181D01*
X016889Y033084D01*
X016938Y033036D01*
X017083Y033330D02*
X016889Y033427D01*
X017083Y033524D01*
X016280Y033327D02*
X015989Y033327D01*
X015989Y033230D02*
X015989Y033424D01*
X016183Y033230D02*
X016280Y033327D01*
X016183Y033129D02*
X015989Y033129D01*
X016135Y033129D02*
X016135Y032936D01*
X016183Y032936D02*
X015989Y032936D01*
X016183Y032936D02*
X016280Y033032D01*
X016183Y033129D01*
X015180Y033032D02*
X015083Y033129D01*
X014889Y033129D01*
X014889Y033230D02*
X015083Y033424D01*
X015131Y033424D01*
X015180Y033375D01*
X015180Y033279D01*
X015131Y033230D01*
X015035Y033129D02*
X015035Y032936D01*
X015083Y032936D02*
X014889Y032936D01*
X015083Y032936D02*
X015180Y033032D01*
X014889Y033230D02*
X014889Y033424D01*
X014180Y033375D02*
X014131Y033424D01*
X014083Y033424D01*
X014035Y033375D01*
X013986Y033424D01*
X013938Y033424D01*
X013889Y033375D01*
X013889Y033279D01*
X013938Y033230D01*
X013889Y033129D02*
X014083Y033129D01*
X014180Y033032D01*
X014083Y032936D01*
X013889Y032936D01*
X014035Y032936D02*
X014035Y033129D01*
X014131Y033230D02*
X014180Y033279D01*
X014180Y033375D01*
X014035Y033375D02*
X014035Y033327D01*
X013180Y033375D02*
X013035Y033230D01*
X013035Y033424D01*
X013180Y033375D02*
X012889Y033375D01*
X012889Y033129D02*
X013083Y033129D01*
X013180Y033032D01*
X013083Y032936D01*
X012889Y032936D01*
X013035Y032936D02*
X013035Y033129D01*
X012280Y033032D02*
X012183Y033129D01*
X011989Y033129D01*
X012038Y033230D02*
X011989Y033279D01*
X011989Y033375D01*
X012038Y033424D01*
X012135Y033424D01*
X012183Y033375D01*
X012183Y033327D01*
X012135Y033230D01*
X012280Y033230D01*
X012280Y033424D01*
X012135Y033129D02*
X012135Y032936D01*
X012183Y032936D02*
X012280Y033032D01*
X012183Y032936D02*
X011989Y032936D01*
X011280Y033032D02*
X011183Y033129D01*
X010989Y033129D01*
X011038Y033230D02*
X010989Y033279D01*
X010989Y033375D01*
X011038Y033424D01*
X011086Y033424D01*
X011135Y033375D01*
X011135Y033230D01*
X011038Y033230D01*
X011135Y033230D02*
X011231Y033327D01*
X011280Y033424D01*
X011135Y033129D02*
X011135Y032936D01*
X011183Y032936D02*
X011280Y033032D01*
X011183Y032936D02*
X010989Y032936D01*
X010280Y033032D02*
X010183Y033129D01*
X009989Y033129D01*
X009989Y033230D02*
X010038Y033230D01*
X010231Y033424D01*
X010280Y033424D01*
X010280Y033230D01*
X010135Y033129D02*
X010135Y032936D01*
X010183Y032936D02*
X010280Y033032D01*
X010183Y032936D02*
X009989Y032936D01*
X009180Y032936D02*
X009180Y033081D01*
X009131Y033129D01*
X008938Y033129D01*
X008889Y033081D01*
X008889Y032936D01*
X009180Y032936D01*
X009131Y033230D02*
X009180Y033279D01*
X009180Y033375D01*
X009131Y033424D01*
X008938Y033230D01*
X008889Y033279D01*
X008889Y033375D01*
X008938Y033424D01*
X009131Y033424D01*
X009131Y033230D02*
X008938Y033230D01*
X008180Y033327D02*
X007889Y033327D01*
X007889Y033230D02*
X007889Y033424D01*
X008083Y033230D02*
X008180Y033327D01*
X008131Y033129D02*
X007938Y033129D01*
X007889Y033081D01*
X007889Y032936D01*
X008180Y032936D01*
X008180Y033081D01*
X008131Y033129D01*
X007280Y033081D02*
X007280Y032936D01*
X006989Y032936D01*
X006989Y033081D01*
X007038Y033129D01*
X007231Y033129D01*
X007280Y033081D01*
X007231Y033230D02*
X007280Y033279D01*
X007280Y033375D01*
X007231Y033424D01*
X007183Y033424D01*
X007135Y033375D01*
X007086Y033424D01*
X007038Y033424D01*
X006989Y033375D01*
X006989Y033279D01*
X007038Y033230D01*
X007135Y033327D02*
X007135Y033375D01*
X006280Y033327D02*
X005989Y033327D01*
X005989Y033230D02*
X005989Y033424D01*
X006038Y033525D02*
X005989Y033573D01*
X005989Y033670D01*
X006038Y033718D01*
X006086Y033718D01*
X006135Y033670D01*
X006135Y033622D01*
X006135Y033670D02*
X006183Y033718D01*
X006231Y033718D01*
X006280Y033670D01*
X006280Y033573D01*
X006231Y033525D01*
X006280Y033327D02*
X006183Y033230D01*
X006231Y033129D02*
X006280Y033081D01*
X006280Y032936D01*
X005989Y032936D01*
X005989Y033081D01*
X006038Y033129D01*
X006231Y033129D01*
X005169Y033072D02*
X005120Y033120D01*
X005024Y033120D01*
X004975Y033072D01*
X004975Y032927D01*
X004975Y033023D02*
X004878Y033120D01*
X004927Y033221D02*
X004878Y033270D01*
X004878Y033366D01*
X004927Y033415D01*
X004975Y033415D01*
X005024Y033366D01*
X005024Y033270D01*
X005072Y033221D01*
X005120Y033221D01*
X005169Y033270D01*
X005169Y033366D01*
X005120Y033415D01*
X005169Y033516D02*
X005169Y033709D01*
X005169Y033613D02*
X004878Y033613D01*
X005169Y033072D02*
X005169Y032927D01*
X004878Y032927D01*
M02*
