G75*
G70*
%OFA0B0*%
%FSLAX24Y24*%
%IPPOS*%
%LPD*%
%AMOC8*
5,1,8,0,0,1.08239X$1,22.5*
%
%ADD10C,0.0000*%
%ADD11C,0.0060*%
%ADD12C,0.0030*%
%ADD13C,0.0050*%
%ADD14C,0.0100*%
D10*
X000100Y001419D02*
X000100Y018319D01*
X037800Y018319D01*
X037800Y001419D01*
X000100Y001419D01*
X011371Y002469D02*
X011373Y002504D01*
X011379Y002539D01*
X011389Y002573D01*
X011402Y002606D01*
X011419Y002637D01*
X011440Y002665D01*
X011463Y002692D01*
X011490Y002715D01*
X011518Y002736D01*
X011549Y002753D01*
X011582Y002766D01*
X011616Y002776D01*
X011651Y002782D01*
X011686Y002784D01*
X011721Y002782D01*
X011756Y002776D01*
X011790Y002766D01*
X011823Y002753D01*
X011854Y002736D01*
X011882Y002715D01*
X011909Y002692D01*
X011932Y002665D01*
X011953Y002637D01*
X011970Y002606D01*
X011983Y002573D01*
X011993Y002539D01*
X011999Y002504D01*
X012001Y002469D01*
X011999Y002434D01*
X011993Y002399D01*
X011983Y002365D01*
X011970Y002332D01*
X011953Y002301D01*
X011932Y002273D01*
X011909Y002246D01*
X011882Y002223D01*
X011854Y002202D01*
X011823Y002185D01*
X011790Y002172D01*
X011756Y002162D01*
X011721Y002156D01*
X011686Y002154D01*
X011651Y002156D01*
X011616Y002162D01*
X011582Y002172D01*
X011549Y002185D01*
X011518Y002202D01*
X011490Y002223D01*
X011463Y002246D01*
X011440Y002273D01*
X011419Y002301D01*
X011402Y002332D01*
X011389Y002365D01*
X011379Y002399D01*
X011373Y002434D01*
X011371Y002469D01*
X011292Y004240D02*
X011294Y004279D01*
X011300Y004318D01*
X011310Y004356D01*
X011323Y004393D01*
X011340Y004428D01*
X011360Y004462D01*
X011384Y004493D01*
X011411Y004522D01*
X011440Y004548D01*
X011472Y004571D01*
X011506Y004591D01*
X011542Y004607D01*
X011579Y004619D01*
X011618Y004628D01*
X011657Y004633D01*
X011696Y004634D01*
X011735Y004631D01*
X011774Y004624D01*
X011811Y004613D01*
X011848Y004599D01*
X011883Y004581D01*
X011916Y004560D01*
X011947Y004535D01*
X011975Y004508D01*
X012000Y004478D01*
X012022Y004445D01*
X012041Y004411D01*
X012056Y004375D01*
X012068Y004337D01*
X012076Y004299D01*
X012080Y004260D01*
X012080Y004220D01*
X012076Y004181D01*
X012068Y004143D01*
X012056Y004105D01*
X012041Y004069D01*
X012022Y004035D01*
X012000Y004002D01*
X011975Y003972D01*
X011947Y003945D01*
X011916Y003920D01*
X011883Y003899D01*
X011848Y003881D01*
X011811Y003867D01*
X011774Y003856D01*
X011735Y003849D01*
X011696Y003846D01*
X011657Y003847D01*
X011618Y003852D01*
X011579Y003861D01*
X011542Y003873D01*
X011506Y003889D01*
X011472Y003909D01*
X011440Y003932D01*
X011411Y003958D01*
X011384Y003987D01*
X011360Y004018D01*
X011340Y004052D01*
X011323Y004087D01*
X011310Y004124D01*
X011300Y004162D01*
X011294Y004201D01*
X011292Y004240D01*
X026457Y003619D02*
X026459Y003645D01*
X026465Y003671D01*
X026475Y003696D01*
X026488Y003719D01*
X026504Y003739D01*
X026524Y003757D01*
X026546Y003772D01*
X026569Y003784D01*
X026595Y003792D01*
X026621Y003796D01*
X026647Y003796D01*
X026673Y003792D01*
X026699Y003784D01*
X026723Y003772D01*
X026744Y003757D01*
X026764Y003739D01*
X026780Y003719D01*
X026793Y003696D01*
X026803Y003671D01*
X026809Y003645D01*
X026811Y003619D01*
X026809Y003593D01*
X026803Y003567D01*
X026793Y003542D01*
X026780Y003519D01*
X026764Y003499D01*
X026744Y003481D01*
X026722Y003466D01*
X026699Y003454D01*
X026673Y003446D01*
X026647Y003442D01*
X026621Y003442D01*
X026595Y003446D01*
X026569Y003454D01*
X026545Y003466D01*
X026524Y003481D01*
X026504Y003499D01*
X026488Y003519D01*
X026475Y003542D01*
X026465Y003567D01*
X026459Y003593D01*
X026457Y003619D01*
X028189Y003619D02*
X028191Y003645D01*
X028197Y003671D01*
X028207Y003696D01*
X028220Y003719D01*
X028236Y003739D01*
X028256Y003757D01*
X028278Y003772D01*
X028301Y003784D01*
X028327Y003792D01*
X028353Y003796D01*
X028379Y003796D01*
X028405Y003792D01*
X028431Y003784D01*
X028455Y003772D01*
X028476Y003757D01*
X028496Y003739D01*
X028512Y003719D01*
X028525Y003696D01*
X028535Y003671D01*
X028541Y003645D01*
X028543Y003619D01*
X028541Y003593D01*
X028535Y003567D01*
X028525Y003542D01*
X028512Y003519D01*
X028496Y003499D01*
X028476Y003481D01*
X028454Y003466D01*
X028431Y003454D01*
X028405Y003446D01*
X028379Y003442D01*
X028353Y003442D01*
X028327Y003446D01*
X028301Y003454D01*
X028277Y003466D01*
X028256Y003481D01*
X028236Y003499D01*
X028220Y003519D01*
X028207Y003542D01*
X028197Y003567D01*
X028191Y003593D01*
X028189Y003619D01*
X028039Y017562D02*
X028041Y017588D01*
X028047Y017614D01*
X028057Y017639D01*
X028070Y017662D01*
X028086Y017682D01*
X028106Y017700D01*
X028128Y017715D01*
X028151Y017727D01*
X028177Y017735D01*
X028203Y017739D01*
X028229Y017739D01*
X028255Y017735D01*
X028281Y017727D01*
X028305Y017715D01*
X028326Y017700D01*
X028346Y017682D01*
X028362Y017662D01*
X028375Y017639D01*
X028385Y017614D01*
X028391Y017588D01*
X028393Y017562D01*
X028391Y017536D01*
X028385Y017510D01*
X028375Y017485D01*
X028362Y017462D01*
X028346Y017442D01*
X028326Y017424D01*
X028304Y017409D01*
X028281Y017397D01*
X028255Y017389D01*
X028229Y017385D01*
X028203Y017385D01*
X028177Y017389D01*
X028151Y017397D01*
X028127Y017409D01*
X028106Y017424D01*
X028086Y017442D01*
X028070Y017462D01*
X028057Y017485D01*
X028047Y017510D01*
X028041Y017536D01*
X028039Y017562D01*
X029221Y017562D02*
X029223Y017588D01*
X029229Y017614D01*
X029239Y017639D01*
X029252Y017662D01*
X029268Y017682D01*
X029288Y017700D01*
X029310Y017715D01*
X029333Y017727D01*
X029359Y017735D01*
X029385Y017739D01*
X029411Y017739D01*
X029437Y017735D01*
X029463Y017727D01*
X029487Y017715D01*
X029508Y017700D01*
X029528Y017682D01*
X029544Y017662D01*
X029557Y017639D01*
X029567Y017614D01*
X029573Y017588D01*
X029575Y017562D01*
X029573Y017536D01*
X029567Y017510D01*
X029557Y017485D01*
X029544Y017462D01*
X029528Y017442D01*
X029508Y017424D01*
X029486Y017409D01*
X029463Y017397D01*
X029437Y017389D01*
X029411Y017385D01*
X029385Y017385D01*
X029359Y017389D01*
X029333Y017397D01*
X029309Y017409D01*
X029288Y017424D01*
X029268Y017442D01*
X029252Y017462D01*
X029239Y017485D01*
X029229Y017510D01*
X029223Y017536D01*
X029221Y017562D01*
D11*
X023370Y009689D02*
X023050Y009689D01*
X022943Y009583D01*
X022943Y009369D01*
X023050Y009262D01*
X023370Y009262D01*
X023370Y009049D02*
X023370Y009689D01*
X023156Y009262D02*
X022943Y009049D01*
X022725Y009156D02*
X022725Y009369D01*
X022619Y009476D01*
X022405Y009476D01*
X022298Y009369D01*
X022298Y009156D01*
X022405Y009049D01*
X022619Y009049D01*
X022725Y009156D01*
X022081Y009049D02*
X021761Y009049D01*
X021654Y009156D01*
X021654Y009369D01*
X021761Y009476D01*
X022081Y009476D01*
X022081Y009689D02*
X022081Y009049D01*
X021436Y009156D02*
X021330Y009049D01*
X021116Y009049D01*
X021009Y009156D01*
X021009Y009369D01*
X021116Y009476D01*
X021330Y009476D01*
X021436Y009369D01*
X021436Y009156D01*
X020792Y009476D02*
X020578Y009476D01*
X020685Y009583D02*
X020685Y009156D01*
X020578Y009049D01*
X020362Y009049D02*
X020149Y009049D01*
X020255Y009049D02*
X020255Y009476D01*
X020362Y009476D01*
X020255Y009689D02*
X020255Y009796D01*
X019932Y009476D02*
X019719Y009476D01*
X019826Y009583D02*
X019826Y009156D01*
X019719Y009049D01*
X018858Y009049D02*
X018858Y009689D01*
X018645Y009476D01*
X018431Y009689D01*
X018431Y009049D01*
X018214Y009049D02*
X018000Y009049D01*
X018107Y009049D02*
X018107Y009476D01*
X018214Y009476D01*
X018107Y009689D02*
X018107Y009796D01*
X017784Y009476D02*
X017464Y009476D01*
X017357Y009369D01*
X017357Y009049D01*
X017139Y009049D02*
X016926Y009049D01*
X017033Y009049D02*
X017033Y009476D01*
X017139Y009476D01*
X017033Y009689D02*
X017033Y009796D01*
X016710Y009369D02*
X016603Y009476D01*
X016389Y009476D01*
X016283Y009369D01*
X016283Y009156D01*
X016389Y009049D01*
X016603Y009049D01*
X016710Y009156D01*
X016710Y009369D01*
X016065Y009476D02*
X016065Y009049D01*
X015638Y009049D02*
X015638Y009369D01*
X015745Y009476D01*
X016065Y009476D01*
X014776Y009476D02*
X014669Y009369D01*
X014456Y009369D01*
X014349Y009262D01*
X014349Y009156D01*
X014456Y009049D01*
X014669Y009049D01*
X014776Y009156D01*
X014025Y009156D02*
X013918Y009049D01*
X014025Y009156D02*
X014025Y009583D01*
X014131Y009476D02*
X013918Y009476D01*
X013595Y009476D02*
X013381Y009476D01*
X013275Y009369D01*
X013275Y009049D01*
X013595Y009049D01*
X013702Y009156D01*
X013595Y009262D01*
X013275Y009262D01*
X013057Y009262D02*
X012844Y009476D01*
X012737Y009476D01*
X012520Y009476D02*
X012307Y009476D01*
X012413Y009583D02*
X012413Y009156D01*
X012307Y009049D01*
X012090Y009156D02*
X012090Y009369D01*
X011984Y009476D01*
X011770Y009476D01*
X011663Y009369D01*
X011663Y009262D01*
X012090Y009262D01*
X012090Y009156D02*
X011984Y009049D01*
X011770Y009049D01*
X011446Y009049D02*
X011446Y009476D01*
X011446Y009262D02*
X011232Y009476D01*
X011126Y009476D01*
X010264Y009689D02*
X010264Y009049D01*
X010264Y009262D02*
X009837Y009689D01*
X009620Y009476D02*
X009513Y009476D01*
X009513Y009049D01*
X009620Y009049D02*
X009406Y009049D01*
X009083Y009156D02*
X008976Y009049D01*
X009083Y009156D02*
X009083Y009583D01*
X009190Y009476D02*
X008976Y009476D01*
X009513Y009689D02*
X009513Y009796D01*
X010157Y009369D02*
X009837Y009049D01*
X013057Y009049D02*
X013057Y009476D01*
X014349Y009583D02*
X014456Y009689D01*
X014669Y009689D01*
X014776Y009583D01*
X014776Y009476D01*
X017784Y009476D02*
X017784Y009049D01*
X015289Y006289D02*
X015289Y005649D01*
X015609Y005649D01*
X015716Y005756D01*
X015716Y005969D01*
X015609Y006076D01*
X015289Y006076D01*
X015934Y005969D02*
X015934Y005649D01*
X015934Y005969D02*
X016040Y006076D01*
X016361Y006076D01*
X016361Y005649D01*
X016578Y005649D02*
X016898Y005649D01*
X017005Y005756D01*
X016898Y005862D01*
X016578Y005862D01*
X016578Y005969D02*
X016578Y005649D01*
X016578Y005969D02*
X016685Y006076D01*
X016898Y006076D01*
X017867Y006076D02*
X018188Y006076D01*
X018294Y005969D01*
X018188Y005862D01*
X017974Y005862D01*
X017867Y005756D01*
X017974Y005649D01*
X018294Y005649D01*
X018512Y005756D02*
X018512Y006076D01*
X018939Y006076D02*
X018939Y005756D01*
X018832Y005649D01*
X018725Y005756D01*
X018619Y005649D01*
X018512Y005756D01*
X019156Y005862D02*
X019583Y005862D01*
X019583Y005756D02*
X019583Y005969D01*
X019477Y006076D01*
X019263Y006076D01*
X019156Y005969D01*
X019156Y005862D01*
X019263Y005649D02*
X019477Y005649D01*
X019583Y005756D01*
X019800Y006076D02*
X019907Y006076D01*
X020121Y005862D01*
X020121Y005649D02*
X020121Y006076D01*
X020338Y006076D02*
X020658Y006076D01*
X020765Y005969D01*
X020765Y005756D01*
X020658Y005649D01*
X020338Y005649D01*
X020338Y006289D01*
X020983Y005969D02*
X020983Y005649D01*
X020983Y005969D02*
X021089Y006076D01*
X021410Y006076D01*
X021410Y005649D01*
X021627Y005649D02*
X021627Y006076D01*
X021841Y006289D01*
X022054Y006076D01*
X022054Y005649D01*
X022054Y005969D02*
X021627Y005969D01*
X022916Y005969D02*
X022916Y005649D01*
X022916Y005969D02*
X023023Y006076D01*
X023343Y006076D01*
X023343Y005649D01*
X023559Y005649D02*
X023773Y005649D01*
X023666Y005649D02*
X023666Y006076D01*
X023773Y006076D01*
X023989Y006076D02*
X024203Y006076D01*
X024096Y006183D02*
X024096Y005756D01*
X023989Y005649D01*
X024420Y005756D02*
X024527Y005862D01*
X024740Y005862D01*
X024847Y005969D01*
X024740Y006076D01*
X024420Y006076D01*
X024420Y005756D02*
X024527Y005649D01*
X024847Y005649D01*
X025065Y005649D02*
X025065Y006076D01*
X025492Y006076D02*
X025492Y005756D01*
X025385Y005649D01*
X025065Y005649D01*
X025709Y005756D02*
X025709Y006183D01*
X025816Y006289D01*
X026136Y006289D01*
X026136Y005649D01*
X025816Y005649D01*
X025709Y005756D01*
X026998Y005649D02*
X027319Y005649D01*
X027425Y005756D01*
X027425Y006076D01*
X027643Y006076D02*
X027750Y005969D01*
X028070Y005969D01*
X028070Y005649D02*
X027750Y005649D01*
X027643Y005756D01*
X027643Y005862D01*
X027750Y005969D01*
X027643Y006076D02*
X027643Y006183D01*
X027750Y006289D01*
X028070Y006289D01*
X028070Y005649D01*
X027212Y005435D02*
X027105Y005435D01*
X026998Y005542D01*
X026998Y006076D01*
X023666Y006289D02*
X023666Y006396D01*
X014427Y006289D02*
X014427Y005649D01*
X014107Y005649D01*
X014000Y005756D01*
X014000Y006183D01*
X014107Y006289D01*
X014427Y006289D01*
X013676Y006076D02*
X013462Y006076D01*
X013355Y005969D01*
X013355Y005649D01*
X013676Y005649D01*
X013782Y005756D01*
X013676Y005862D01*
X013355Y005862D01*
X013138Y006076D02*
X012924Y005649D01*
X012711Y006076D01*
X012493Y006076D02*
X012387Y006076D01*
X012387Y005649D01*
X012493Y005649D02*
X012280Y005649D01*
X012064Y005756D02*
X012064Y005969D01*
X011957Y006076D01*
X011637Y006076D01*
X011637Y006289D02*
X011637Y005649D01*
X011957Y005649D01*
X012064Y005756D01*
X012387Y006289D02*
X012387Y006396D01*
X010775Y006076D02*
X010775Y005649D01*
X010775Y005969D02*
X010348Y005969D01*
X010348Y006076D02*
X010348Y005649D01*
X010130Y005649D02*
X010130Y006076D01*
X009810Y006076D01*
X009703Y005969D01*
X009703Y005649D01*
X009485Y005756D02*
X009485Y005969D01*
X009379Y006076D01*
X009058Y006076D01*
X009058Y006289D02*
X009058Y005649D01*
X009379Y005649D01*
X009485Y005756D01*
X008841Y005862D02*
X008627Y006076D01*
X008521Y006076D01*
X008304Y005969D02*
X008197Y006076D01*
X007984Y006076D01*
X007877Y005969D01*
X007877Y005862D01*
X008304Y005862D01*
X008304Y005756D02*
X008304Y005969D01*
X008304Y005756D02*
X008197Y005649D01*
X007984Y005649D01*
X007659Y005756D02*
X007553Y005649D01*
X007446Y005756D01*
X007339Y005649D01*
X007232Y005756D01*
X007232Y006076D01*
X007015Y005969D02*
X006908Y006076D01*
X006588Y006076D01*
X006694Y005862D02*
X006908Y005862D01*
X007015Y005969D01*
X007015Y005649D02*
X006694Y005649D01*
X006588Y005756D01*
X006694Y005862D01*
X007659Y005756D02*
X007659Y006076D01*
X008841Y006076D02*
X008841Y005649D01*
X010348Y006076D02*
X010561Y006289D01*
X010775Y006076D01*
X007570Y017549D02*
X007343Y017776D01*
X007343Y017832D01*
X007400Y017889D01*
X007513Y017889D01*
X007570Y017832D01*
X007570Y017549D02*
X007343Y017549D01*
X007202Y017605D02*
X006975Y017832D01*
X006975Y017605D01*
X007032Y017549D01*
X007145Y017549D01*
X007202Y017605D01*
X007202Y017832D01*
X007145Y017889D01*
X007032Y017889D01*
X006975Y017832D01*
X006833Y017776D02*
X006720Y017889D01*
X006720Y017549D01*
X006833Y017549D02*
X006607Y017549D01*
X006465Y017549D02*
X006238Y017776D01*
X006238Y017832D01*
X006295Y017889D01*
X006408Y017889D01*
X006465Y017832D01*
X006465Y017549D02*
X006238Y017549D01*
X006097Y017719D02*
X005870Y017719D01*
X005728Y017832D02*
X005672Y017889D01*
X005558Y017889D01*
X005502Y017832D01*
X005728Y017605D01*
X005672Y017549D01*
X005558Y017549D01*
X005502Y017605D01*
X005502Y017832D01*
X005360Y017889D02*
X005360Y017719D01*
X005247Y017776D01*
X005190Y017776D01*
X005133Y017719D01*
X005133Y017605D01*
X005190Y017549D01*
X005303Y017549D01*
X005360Y017605D01*
X005728Y017605D02*
X005728Y017832D01*
X005360Y017889D02*
X005133Y017889D01*
X004992Y017719D02*
X004765Y017719D01*
X004623Y017776D02*
X004510Y017889D01*
X004510Y017549D01*
X004623Y017549D02*
X004397Y017549D01*
X004255Y017549D02*
X004028Y017776D01*
X004028Y017832D01*
X004085Y017889D01*
X004198Y017889D01*
X004255Y017832D01*
X004255Y017549D02*
X004028Y017549D01*
D12*
X005589Y014424D02*
X005734Y014424D01*
X005734Y014134D01*
X005589Y014134D01*
X005540Y014182D01*
X005540Y014376D01*
X005589Y014424D01*
X005835Y014279D02*
X005835Y014182D01*
X005883Y014134D01*
X005980Y014134D01*
X006029Y014182D01*
X006029Y014279D01*
X005980Y014327D01*
X005883Y014327D01*
X005835Y014279D01*
X006130Y014279D02*
X006275Y014279D01*
X006323Y014327D01*
X006323Y014376D01*
X006275Y014424D01*
X006178Y014424D01*
X006130Y014376D01*
X006130Y014182D01*
X006178Y014134D01*
X006275Y014134D01*
X006323Y014182D01*
X006473Y014182D02*
X006473Y014424D01*
X006521Y014424D02*
X006424Y014424D01*
X006473Y014182D02*
X006521Y014134D01*
X006570Y014134D01*
X006618Y014182D01*
X006719Y014134D02*
X006913Y014424D01*
X007014Y014424D02*
X007110Y014424D01*
X007062Y014424D02*
X007062Y014182D01*
X007110Y014134D01*
X007159Y014134D01*
X007207Y014182D01*
X007308Y014424D02*
X007502Y014134D01*
X007603Y014231D02*
X007603Y014279D01*
X007651Y014327D01*
X007748Y014327D01*
X007797Y014279D01*
X007797Y014182D01*
X007748Y014134D01*
X007651Y014134D01*
X007603Y014231D02*
X007797Y014231D01*
X007898Y014279D02*
X007898Y014134D01*
X007994Y014134D02*
X007994Y014279D01*
X007946Y014327D01*
X007898Y014279D01*
X007994Y014279D02*
X008043Y014327D01*
X008091Y014327D01*
X008091Y014134D01*
X008190Y014134D02*
X008238Y014134D01*
X008238Y014182D01*
X008190Y014182D01*
X008190Y014134D01*
X008340Y014182D02*
X008340Y014279D01*
X008388Y014327D01*
X008533Y014327D01*
X008533Y014424D02*
X008533Y014134D01*
X008388Y014134D01*
X008340Y014182D01*
X008633Y014279D02*
X008730Y014279D01*
X008681Y014376D02*
X008681Y014134D01*
X008829Y014134D02*
X008877Y014134D01*
X008877Y014182D01*
X008829Y014182D01*
X008829Y014134D01*
X008978Y014134D02*
X008978Y014279D01*
X009026Y014327D01*
X009172Y014327D01*
X009172Y014134D01*
X009273Y014182D02*
X009273Y014279D01*
X009321Y014327D01*
X009418Y014327D01*
X009466Y014279D01*
X009466Y014182D01*
X009418Y014134D01*
X009321Y014134D01*
X009273Y014182D01*
X009567Y014424D02*
X009761Y014134D01*
X010056Y014134D02*
X009862Y014424D01*
X010154Y014327D02*
X010154Y014279D01*
X010203Y014279D01*
X010203Y014327D01*
X010154Y014327D01*
X010154Y014182D02*
X010154Y014134D01*
X010203Y014134D01*
X010203Y014182D01*
X010154Y014182D01*
X010304Y014182D02*
X010304Y014279D01*
X010352Y014327D01*
X010497Y014327D01*
X010497Y014037D01*
X010497Y014134D02*
X010352Y014134D01*
X010304Y014182D01*
X010597Y014134D02*
X010646Y014182D01*
X010646Y014376D01*
X010694Y014327D02*
X010597Y014327D01*
X010794Y014327D02*
X010890Y014327D01*
X010842Y014376D02*
X010842Y014182D01*
X010794Y014134D01*
X010992Y014134D02*
X010992Y014279D01*
X011040Y014327D01*
X011137Y014327D01*
X011185Y014279D01*
X011185Y014424D02*
X011185Y014134D01*
X008681Y014376D02*
X008633Y014424D01*
X006913Y014134D02*
X006719Y014424D01*
D13*
X017649Y015214D02*
X017829Y014944D01*
X017944Y014989D02*
X017989Y014944D01*
X018079Y014944D01*
X018124Y014989D01*
X017944Y015169D01*
X017944Y014989D01*
X018124Y014989D02*
X018124Y015169D01*
X018079Y015214D01*
X017989Y015214D01*
X017944Y015169D01*
X018226Y014989D02*
X018226Y014944D01*
X018271Y014944D01*
X018271Y014989D01*
X018226Y014989D01*
X018386Y014944D02*
X018566Y014944D01*
X018386Y015124D01*
X018386Y015169D01*
X018431Y015214D01*
X018521Y015214D01*
X018566Y015169D01*
X018680Y015214D02*
X018860Y014944D01*
X018975Y014944D02*
X019110Y014944D01*
X019155Y014989D01*
X019155Y015124D01*
X019270Y015079D02*
X019315Y015124D01*
X019450Y015124D01*
X019450Y015214D02*
X019450Y014944D01*
X019315Y014944D01*
X019270Y014989D01*
X019270Y015079D01*
X018975Y015124D02*
X018975Y014899D01*
X019020Y014854D01*
X019065Y014854D01*
X019564Y015214D02*
X019744Y014944D01*
X019859Y014989D02*
X019904Y015034D01*
X019994Y015034D01*
X020039Y015079D01*
X019994Y015124D01*
X019859Y015124D01*
X019859Y014989D02*
X019904Y014944D01*
X020039Y014944D01*
X020154Y015034D02*
X020154Y015079D01*
X020199Y015124D01*
X020289Y015124D01*
X020334Y015079D01*
X020334Y014989D01*
X020289Y014944D01*
X020199Y014944D01*
X020154Y015034D02*
X020334Y015034D01*
X020448Y014989D02*
X020493Y015034D01*
X020583Y015034D01*
X020628Y015079D01*
X020583Y015124D01*
X020448Y015124D01*
X020448Y014989D02*
X020493Y014944D01*
X020628Y014944D01*
X020743Y014944D02*
X020743Y015079D01*
X020788Y015124D01*
X020923Y015124D01*
X020923Y014944D01*
X021037Y015034D02*
X021218Y015034D01*
X021218Y014989D02*
X021218Y015079D01*
X021173Y015124D01*
X021083Y015124D01*
X021037Y015079D01*
X021037Y015034D01*
X021083Y014944D02*
X021173Y014944D01*
X021218Y014989D01*
X021332Y014944D02*
X021467Y014944D01*
X021512Y014989D01*
X021512Y015079D01*
X021467Y015124D01*
X021332Y015124D01*
X021664Y015124D02*
X021664Y014944D01*
X021709Y014944D02*
X021619Y014944D01*
X021664Y015124D02*
X021709Y015124D01*
X021664Y015214D02*
X021664Y015259D01*
X021860Y015214D02*
X021860Y014944D01*
X021905Y014944D02*
X021815Y014944D01*
X021860Y015214D02*
X021905Y015214D01*
X022020Y015214D02*
X022200Y014944D01*
X022314Y014944D02*
X022449Y014944D01*
X022494Y014989D01*
X022494Y015079D01*
X022449Y015124D01*
X022314Y015124D01*
X022314Y014899D01*
X022359Y014854D01*
X022404Y014854D01*
X022740Y014944D02*
X022740Y015124D01*
X022740Y015034D02*
X022650Y015124D01*
X022605Y015124D01*
X022854Y015079D02*
X022854Y014989D01*
X022900Y014944D01*
X022990Y014944D01*
X023035Y014989D01*
X023035Y015079D01*
X022990Y015124D01*
X022900Y015124D01*
X022854Y015079D01*
X023137Y014989D02*
X023137Y014944D01*
X023182Y014944D01*
X023182Y014989D01*
X023137Y014989D01*
X023296Y014989D02*
X023342Y015034D01*
X023432Y015034D01*
X023477Y015079D01*
X023432Y015124D01*
X023296Y015124D01*
X023296Y014989D02*
X023342Y014944D01*
X023477Y014944D01*
X023591Y014944D02*
X023591Y015079D01*
X023636Y015124D01*
X023771Y015124D01*
X023771Y014944D01*
X023886Y014989D02*
X023886Y015079D01*
X023931Y015124D01*
X024021Y015124D01*
X024066Y015079D01*
X024066Y014989D01*
X024021Y014944D01*
X023931Y014944D01*
X023886Y014989D01*
X024180Y014944D02*
X024180Y015079D01*
X024225Y015124D01*
X024270Y015079D01*
X024270Y014944D01*
X024361Y014944D02*
X024361Y015124D01*
X024316Y015124D01*
X024270Y015079D01*
X024475Y015079D02*
X024475Y014944D01*
X024565Y014944D02*
X024565Y015079D01*
X024520Y015124D01*
X024475Y015079D01*
X024565Y015079D02*
X024610Y015124D01*
X024655Y015124D01*
X024655Y014944D01*
X024770Y014989D02*
X024770Y015079D01*
X024815Y015124D01*
X024905Y015124D01*
X024950Y015079D01*
X024950Y014989D01*
X024905Y014944D01*
X024815Y014944D01*
X024770Y014989D01*
X025064Y014944D02*
X025199Y014944D01*
X025245Y014989D01*
X025245Y015079D01*
X025199Y015124D01*
X025064Y015124D01*
X025359Y015079D02*
X025359Y015034D01*
X025539Y015034D01*
X025539Y014989D02*
X025539Y015079D01*
X025494Y015124D01*
X025404Y015124D01*
X025359Y015079D01*
X025404Y014944D02*
X025494Y014944D01*
X025539Y014989D01*
X025654Y015124D02*
X025744Y014944D01*
X025834Y015124D01*
X025985Y015124D02*
X025985Y014944D01*
X026030Y014944D02*
X025940Y014944D01*
X025985Y015124D02*
X026030Y015124D01*
X025985Y015214D02*
X025985Y015259D01*
X026137Y015124D02*
X026227Y015124D01*
X026182Y015169D02*
X026182Y014989D01*
X026137Y014944D01*
X026341Y014944D02*
X026341Y015079D01*
X026386Y015124D01*
X026476Y015124D01*
X026476Y015034D02*
X026341Y015034D01*
X026341Y014944D02*
X026476Y014944D01*
X026521Y014989D01*
X026476Y015034D01*
X026636Y015034D02*
X026636Y015079D01*
X026681Y015124D01*
X026771Y015124D01*
X026816Y015079D01*
X026816Y014989D01*
X026771Y014944D01*
X026681Y014944D01*
X026636Y015034D02*
X026816Y015034D01*
X026926Y015124D02*
X026971Y015124D01*
X027062Y015034D01*
X027062Y014944D02*
X027062Y015124D01*
X027176Y015124D02*
X027311Y015124D01*
X027356Y015079D01*
X027356Y014989D01*
X027311Y014944D01*
X027176Y014944D01*
X027471Y015214D02*
X027651Y014944D01*
X027765Y015214D02*
X027946Y014944D01*
X028048Y014944D02*
X028093Y014944D01*
X028093Y014989D01*
X028048Y014989D01*
X028048Y014944D01*
X028048Y015079D02*
X028093Y015079D01*
X028093Y015124D01*
X028048Y015124D01*
X028048Y015079D01*
X028207Y015079D02*
X028207Y014989D01*
X028252Y014944D01*
X028387Y014944D01*
X028387Y014854D02*
X028387Y015124D01*
X028252Y015124D01*
X028207Y015079D01*
X028494Y015124D02*
X028584Y015124D01*
X028539Y015169D02*
X028539Y014989D01*
X028494Y014944D01*
X028690Y014944D02*
X028735Y014989D01*
X028735Y015169D01*
X028780Y015124D02*
X028690Y015124D01*
X028895Y015079D02*
X028895Y014944D01*
X028895Y015079D02*
X028940Y015124D01*
X029030Y015124D01*
X029075Y015079D01*
X029075Y015214D02*
X029075Y014944D01*
D14*
X028990Y013709D02*
X028300Y013019D01*
X028960Y012039D01*
X028560Y011109D02*
X027420Y010899D01*
X027430Y009919D01*
X028540Y009709D01*
X028920Y008729D02*
X028300Y007799D01*
X028990Y007109D01*
X029890Y007729D01*
X030280Y007499D01*
X030990Y009219D01*
X032200Y009219D02*
X032910Y007499D01*
X033300Y007719D01*
X034200Y007109D01*
X034900Y007799D01*
X034270Y008729D01*
X034660Y009709D02*
X035780Y009919D01*
X035780Y010899D01*
X034630Y011119D01*
X034240Y012049D02*
X034900Y013019D01*
X034200Y013709D01*
X033220Y013039D01*
X032300Y013419D02*
X032090Y014589D01*
X031100Y014589D01*
X030890Y013409D01*
X029970Y013039D02*
X028990Y013709D01*
X034240Y012049D02*
X034314Y011924D01*
X034382Y011797D01*
X034445Y011666D01*
X034500Y011532D01*
X034550Y011397D01*
X034593Y011258D01*
X034630Y011119D01*
X034660Y009709D02*
X034625Y009562D01*
X034583Y009416D01*
X034534Y009273D01*
X034478Y009132D01*
X034415Y008995D01*
X034345Y008860D01*
X034270Y008729D01*
X028920Y008729D02*
X028845Y008860D01*
X028778Y008995D01*
X028716Y009133D01*
X028662Y009274D01*
X028614Y009417D01*
X028573Y009562D01*
X028540Y009709D01*
X032300Y013419D02*
X032439Y013383D01*
X032575Y013340D01*
X032709Y013292D01*
X032841Y013237D01*
X032971Y013177D01*
X033097Y013111D01*
X033220Y013039D01*
X032200Y009219D02*
X032262Y009254D01*
X032322Y009292D01*
X032380Y009334D01*
X032436Y009379D01*
X032488Y009427D01*
X032539Y009478D01*
X032586Y009531D01*
X032630Y009587D01*
X032671Y009646D01*
X032709Y009706D01*
X032743Y009769D01*
X032774Y009833D01*
X032801Y009899D01*
X032825Y009967D01*
X032845Y010035D01*
X032861Y010105D01*
X032873Y010175D01*
X032881Y010246D01*
X032885Y010317D01*
X032886Y010388D01*
X032882Y010460D01*
X032875Y010531D01*
X032863Y010601D01*
X032848Y010671D01*
X032829Y010740D01*
X032806Y010807D01*
X032779Y010873D01*
X032749Y010938D01*
X032715Y011001D01*
X032678Y011062D01*
X032637Y011121D01*
X032594Y011177D01*
X032547Y011231D01*
X032497Y011282D01*
X032445Y011331D01*
X032390Y011376D01*
X032333Y011419D01*
X032273Y011458D01*
X032211Y011493D01*
X032148Y011526D01*
X032082Y011555D01*
X032015Y011580D01*
X031947Y011601D01*
X031878Y011619D01*
X031808Y011632D01*
X031737Y011642D01*
X031666Y011648D01*
X031595Y011650D01*
X031524Y011648D01*
X031453Y011642D01*
X031382Y011632D01*
X031312Y011619D01*
X031243Y011601D01*
X031175Y011580D01*
X031108Y011555D01*
X031042Y011526D01*
X030979Y011493D01*
X030917Y011458D01*
X030857Y011419D01*
X030800Y011376D01*
X030745Y011331D01*
X030693Y011282D01*
X030643Y011231D01*
X030596Y011177D01*
X030553Y011121D01*
X030512Y011062D01*
X030475Y011001D01*
X030441Y010938D01*
X030411Y010873D01*
X030384Y010807D01*
X030361Y010740D01*
X030342Y010671D01*
X030327Y010601D01*
X030315Y010531D01*
X030308Y010460D01*
X030304Y010388D01*
X030305Y010317D01*
X030309Y010246D01*
X030317Y010175D01*
X030329Y010105D01*
X030345Y010035D01*
X030365Y009967D01*
X030389Y009899D01*
X030416Y009833D01*
X030447Y009769D01*
X030481Y009706D01*
X030519Y009646D01*
X030560Y009587D01*
X030604Y009531D01*
X030651Y009478D01*
X030702Y009427D01*
X030754Y009379D01*
X030810Y009334D01*
X030868Y009292D01*
X030928Y009254D01*
X030990Y009219D01*
X029970Y013039D02*
X030093Y013109D01*
X030220Y013174D01*
X030349Y013233D01*
X030481Y013286D01*
X030616Y013333D01*
X030752Y013374D01*
X030890Y013409D01*
X028960Y012039D02*
X028885Y011914D01*
X028815Y011787D01*
X028752Y011656D01*
X028694Y011523D01*
X028643Y011387D01*
X028598Y011249D01*
X028560Y011109D01*
M02*
