G75*
G70*
%OFA0B0*%
%FSLAX24Y24*%
%IPPOS*%
%LPD*%
%AMOC8*
5,1,8,0,0,1.08239X$1,22.5*
%
%ADD10C,0.0060*%
%ADD11C,0.0030*%
%ADD12C,0.0050*%
%ADD13C,0.0100*%
D10*
X005608Y005206D02*
X005714Y005312D01*
X005928Y005312D01*
X006035Y005419D01*
X005928Y005526D01*
X005608Y005526D01*
X005608Y005206D02*
X005714Y005099D01*
X006035Y005099D01*
X006252Y005206D02*
X006252Y005526D01*
X006679Y005526D02*
X006679Y005206D01*
X006573Y005099D01*
X006466Y005206D01*
X006359Y005099D01*
X006252Y005206D01*
X006897Y005312D02*
X007324Y005312D01*
X007324Y005206D02*
X007324Y005419D01*
X007217Y005526D01*
X007004Y005526D01*
X006897Y005419D01*
X006897Y005312D01*
X007004Y005099D02*
X007217Y005099D01*
X007324Y005206D01*
X007647Y005526D02*
X007861Y005312D01*
X007861Y005099D02*
X007861Y005526D01*
X007647Y005526D02*
X007541Y005526D01*
X008078Y005526D02*
X008399Y005526D01*
X008505Y005419D01*
X008505Y005206D01*
X008399Y005099D01*
X008078Y005099D01*
X008078Y005739D01*
X008723Y005419D02*
X008723Y005099D01*
X008723Y005419D02*
X008830Y005526D01*
X009150Y005526D01*
X009150Y005099D01*
X009368Y005099D02*
X009368Y005526D01*
X009581Y005739D01*
X009795Y005526D01*
X009795Y005099D01*
X009795Y005419D02*
X009368Y005419D01*
X010657Y005526D02*
X010977Y005526D01*
X011084Y005419D01*
X011084Y005206D01*
X010977Y005099D01*
X010657Y005099D01*
X010657Y005739D01*
X011407Y005739D02*
X011407Y005846D01*
X011407Y005526D02*
X011407Y005099D01*
X011513Y005099D02*
X011300Y005099D01*
X011407Y005526D02*
X011513Y005526D01*
X011731Y005526D02*
X011944Y005099D01*
X012158Y005526D01*
X012375Y005419D02*
X012375Y005099D01*
X012696Y005099D01*
X012802Y005206D01*
X012696Y005312D01*
X012375Y005312D01*
X012375Y005419D02*
X012482Y005526D01*
X012696Y005526D01*
X013020Y005633D02*
X013127Y005739D01*
X013447Y005739D01*
X013447Y005099D01*
X013127Y005099D01*
X013020Y005206D01*
X013020Y005633D01*
X014309Y005739D02*
X014309Y005099D01*
X014629Y005099D01*
X014736Y005206D01*
X014736Y005419D01*
X014629Y005526D01*
X014309Y005526D01*
X014954Y005419D02*
X014954Y005099D01*
X014954Y005419D02*
X015060Y005526D01*
X015381Y005526D01*
X015381Y005099D01*
X015598Y005099D02*
X015918Y005099D01*
X016025Y005206D01*
X015918Y005312D01*
X015598Y005312D01*
X015598Y005419D02*
X015598Y005099D01*
X015598Y005419D02*
X015705Y005526D01*
X015918Y005526D01*
X016887Y005526D02*
X017208Y005526D01*
X017314Y005419D01*
X017208Y005312D01*
X016994Y005312D01*
X016887Y005206D01*
X016994Y005099D01*
X017314Y005099D01*
X017532Y005206D02*
X017532Y005526D01*
X017959Y005526D02*
X017959Y005206D01*
X017852Y005099D01*
X017745Y005206D01*
X017639Y005099D01*
X017532Y005206D01*
X018176Y005312D02*
X018603Y005312D01*
X018603Y005206D02*
X018603Y005419D01*
X018497Y005526D01*
X018283Y005526D01*
X018176Y005419D01*
X018176Y005312D01*
X018283Y005099D02*
X018497Y005099D01*
X018603Y005206D01*
X018820Y005526D02*
X018927Y005526D01*
X019141Y005312D01*
X019141Y005099D02*
X019141Y005526D01*
X019358Y005526D02*
X019678Y005526D01*
X019785Y005419D01*
X019785Y005206D01*
X019678Y005099D01*
X019358Y005099D01*
X019358Y005739D01*
X020003Y005419D02*
X020003Y005099D01*
X020003Y005419D02*
X020109Y005526D01*
X020430Y005526D01*
X020430Y005099D01*
X020647Y005099D02*
X020647Y005526D01*
X020861Y005739D01*
X021074Y005526D01*
X021074Y005099D01*
X021074Y005419D02*
X020647Y005419D01*
X021936Y005419D02*
X021936Y005099D01*
X021936Y005419D02*
X022043Y005526D01*
X022363Y005526D01*
X022363Y005099D01*
X022579Y005099D02*
X022793Y005099D01*
X022686Y005099D02*
X022686Y005526D01*
X022793Y005526D01*
X023009Y005526D02*
X023223Y005526D01*
X023116Y005633D02*
X023116Y005206D01*
X023009Y005099D01*
X023440Y005206D02*
X023547Y005312D01*
X023760Y005312D01*
X023867Y005419D01*
X023760Y005526D01*
X023440Y005526D01*
X023440Y005206D02*
X023547Y005099D01*
X023867Y005099D01*
X024085Y005099D02*
X024085Y005526D01*
X024512Y005526D02*
X024512Y005206D01*
X024405Y005099D01*
X024085Y005099D01*
X024729Y005206D02*
X024729Y005633D01*
X024836Y005739D01*
X025156Y005739D01*
X025156Y005099D01*
X024836Y005099D01*
X024729Y005206D01*
X026018Y005099D02*
X026339Y005099D01*
X026445Y005206D01*
X026445Y005526D01*
X026663Y005526D02*
X026770Y005419D01*
X027090Y005419D01*
X027090Y005099D02*
X026770Y005099D01*
X026663Y005206D01*
X026663Y005312D01*
X026770Y005419D01*
X026663Y005526D02*
X026663Y005633D01*
X026770Y005739D01*
X027090Y005739D01*
X027090Y005099D01*
X026232Y004885D02*
X026125Y004885D01*
X026018Y004992D01*
X026018Y005526D01*
X022686Y005739D02*
X022686Y005846D01*
X022779Y009049D02*
X022885Y009156D01*
X022885Y009369D01*
X022779Y009476D01*
X022565Y009476D01*
X022458Y009369D01*
X022458Y009156D01*
X022565Y009049D01*
X022779Y009049D01*
X023103Y009049D02*
X023316Y009262D01*
X023210Y009262D02*
X023530Y009262D01*
X023530Y009049D02*
X023530Y009689D01*
X023210Y009689D01*
X023103Y009583D01*
X023103Y009369D01*
X023210Y009262D01*
X022241Y009049D02*
X022241Y009689D01*
X022241Y009476D02*
X021921Y009476D01*
X021814Y009369D01*
X021814Y009156D01*
X021921Y009049D01*
X022241Y009049D01*
X021596Y009156D02*
X021490Y009049D01*
X021276Y009049D01*
X021169Y009156D01*
X021169Y009369D01*
X021276Y009476D01*
X021490Y009476D01*
X021596Y009369D01*
X021596Y009156D01*
X020952Y009476D02*
X020738Y009476D01*
X020845Y009583D02*
X020845Y009156D01*
X020738Y009049D01*
X020522Y009049D02*
X020309Y009049D01*
X020415Y009049D02*
X020415Y009476D01*
X020522Y009476D01*
X020415Y009689D02*
X020415Y009796D01*
X020092Y009476D02*
X019879Y009476D01*
X019986Y009583D02*
X019986Y009156D01*
X019879Y009049D01*
X019018Y009049D02*
X019018Y009689D01*
X018805Y009476D01*
X018591Y009689D01*
X018591Y009049D01*
X018374Y009049D02*
X018160Y009049D01*
X018267Y009049D02*
X018267Y009476D01*
X018374Y009476D01*
X018267Y009689D02*
X018267Y009796D01*
X017944Y009476D02*
X017624Y009476D01*
X017517Y009369D01*
X017517Y009049D01*
X017299Y009049D02*
X017086Y009049D01*
X017193Y009049D02*
X017193Y009476D01*
X017299Y009476D01*
X017193Y009689D02*
X017193Y009796D01*
X016870Y009369D02*
X016763Y009476D01*
X016549Y009476D01*
X016443Y009369D01*
X016443Y009156D01*
X016549Y009049D01*
X016763Y009049D01*
X016870Y009156D01*
X016870Y009369D01*
X016225Y009476D02*
X016225Y009049D01*
X015798Y009049D02*
X015798Y009369D01*
X015905Y009476D01*
X016225Y009476D01*
X014936Y009476D02*
X014829Y009369D01*
X014616Y009369D01*
X014509Y009262D01*
X014509Y009156D01*
X014616Y009049D01*
X014829Y009049D01*
X014936Y009156D01*
X014936Y009476D02*
X014936Y009583D01*
X014829Y009689D01*
X014616Y009689D01*
X014509Y009583D01*
X014291Y009476D02*
X014078Y009476D01*
X014185Y009583D02*
X014185Y009156D01*
X014078Y009049D01*
X013862Y009156D02*
X013755Y009262D01*
X013435Y009262D01*
X013435Y009369D02*
X013435Y009049D01*
X013755Y009049D01*
X013862Y009156D01*
X013541Y009476D02*
X013435Y009369D01*
X013541Y009476D02*
X013755Y009476D01*
X013217Y009476D02*
X013217Y009049D01*
X013217Y009262D02*
X013004Y009476D01*
X012897Y009476D01*
X012680Y009476D02*
X012467Y009476D01*
X012573Y009583D02*
X012573Y009156D01*
X012467Y009049D01*
X012250Y009156D02*
X012250Y009369D01*
X012144Y009476D01*
X011930Y009476D01*
X011823Y009369D01*
X011823Y009262D01*
X012250Y009262D01*
X012250Y009156D02*
X012144Y009049D01*
X011930Y009049D01*
X011606Y009049D02*
X011606Y009476D01*
X011606Y009262D02*
X011392Y009476D01*
X011286Y009476D01*
X010424Y009689D02*
X010424Y009049D01*
X010424Y009262D02*
X009997Y009689D01*
X009780Y009476D02*
X009673Y009476D01*
X009673Y009049D01*
X009780Y009049D02*
X009566Y009049D01*
X009243Y009156D02*
X009136Y009049D01*
X009243Y009156D02*
X009243Y009583D01*
X009350Y009476D02*
X009136Y009476D01*
X009673Y009689D02*
X009673Y009796D01*
X010317Y009369D02*
X009997Y009049D01*
X017944Y009049D02*
X017944Y009476D01*
X008500Y016559D02*
X008273Y016559D01*
X008132Y016615D02*
X007905Y016842D01*
X007905Y016615D01*
X007962Y016559D01*
X008075Y016559D01*
X008132Y016615D01*
X008132Y016842D01*
X008075Y016899D01*
X007962Y016899D01*
X007905Y016842D01*
X007763Y016786D02*
X007650Y016899D01*
X007650Y016559D01*
X007763Y016559D02*
X007537Y016559D01*
X007395Y016559D02*
X007168Y016786D01*
X007168Y016842D01*
X007225Y016899D01*
X007338Y016899D01*
X007395Y016842D01*
X007395Y016559D02*
X007168Y016559D01*
X007027Y016729D02*
X006800Y016729D01*
X006658Y016842D02*
X006602Y016899D01*
X006488Y016899D01*
X006432Y016842D01*
X006658Y016615D01*
X006602Y016559D01*
X006488Y016559D01*
X006432Y016615D01*
X006432Y016842D01*
X006290Y016899D02*
X006290Y016729D01*
X006177Y016786D01*
X006120Y016786D01*
X006063Y016729D01*
X006063Y016615D01*
X006120Y016559D01*
X006233Y016559D01*
X006290Y016615D01*
X006658Y016615D02*
X006658Y016842D01*
X006290Y016899D02*
X006063Y016899D01*
X005922Y016729D02*
X005695Y016729D01*
X005553Y016786D02*
X005440Y016899D01*
X005440Y016559D01*
X005553Y016559D02*
X005327Y016559D01*
X005185Y016559D02*
X004958Y016786D01*
X004958Y016842D01*
X005015Y016899D01*
X005128Y016899D01*
X005185Y016842D01*
X005185Y016559D02*
X004958Y016559D01*
X008273Y016786D02*
X008273Y016842D01*
X008330Y016899D01*
X008443Y016899D01*
X008500Y016842D01*
X008273Y016786D02*
X008500Y016559D01*
D11*
X001942Y002323D02*
X001942Y002033D01*
X002140Y002033D02*
X002333Y002033D01*
X002333Y002323D01*
X002140Y002323D01*
X002038Y002323D02*
X001845Y002323D01*
X002236Y002178D02*
X002333Y002178D01*
X002434Y002130D02*
X002434Y002081D01*
X002483Y002033D01*
X002579Y002033D01*
X002628Y002081D01*
X002579Y002178D02*
X002483Y002178D01*
X002434Y002130D01*
X002434Y002275D02*
X002483Y002323D01*
X002579Y002323D01*
X002628Y002275D01*
X002628Y002226D01*
X002579Y002178D01*
X002729Y002323D02*
X002922Y002323D01*
X002922Y002033D01*
X002729Y002033D01*
X002826Y002178D02*
X002922Y002178D01*
X003024Y002178D02*
X003072Y002130D01*
X003217Y002130D01*
X003120Y002130D02*
X003024Y002033D01*
X003024Y002178D02*
X003024Y002275D01*
X003072Y002323D01*
X003217Y002323D01*
X003217Y002033D01*
X003217Y003533D02*
X003072Y003533D01*
X003024Y003581D01*
X003024Y003775D01*
X003072Y003823D01*
X003217Y003823D01*
X003217Y003533D01*
X002922Y003533D02*
X002729Y003533D01*
X002826Y003533D02*
X002826Y003823D01*
X002922Y003726D01*
X002628Y003775D02*
X002579Y003823D01*
X002483Y003823D01*
X002434Y003775D01*
X002434Y003726D01*
X002483Y003678D01*
X002434Y003630D01*
X002434Y003581D01*
X002483Y003533D01*
X002579Y003533D01*
X002628Y003581D01*
X002531Y003678D02*
X002483Y003678D01*
X002333Y004533D02*
X002333Y004823D01*
X002188Y004823D01*
X002140Y004775D01*
X002140Y004678D01*
X002188Y004630D01*
X002333Y004630D01*
X002434Y004678D02*
X002628Y004678D01*
X002729Y004726D02*
X002777Y004678D01*
X002729Y004630D01*
X002729Y004581D01*
X002777Y004533D01*
X002874Y004533D01*
X002922Y004581D01*
X003024Y004581D02*
X003024Y004775D01*
X003072Y004823D01*
X003217Y004823D01*
X003217Y004533D01*
X003072Y004533D01*
X003024Y004581D01*
X002922Y004775D02*
X002874Y004823D01*
X002777Y004823D01*
X002729Y004775D01*
X002729Y004726D01*
X002777Y004678D02*
X002826Y004678D01*
X002038Y004823D02*
X002038Y004533D01*
X001942Y004630D01*
X001845Y004533D01*
X001845Y004823D01*
X001744Y004823D02*
X001647Y004726D01*
X001550Y004823D01*
X001550Y004533D01*
X001744Y004533D02*
X001744Y004823D01*
X001845Y005433D02*
X002038Y005723D01*
X002140Y005723D02*
X002333Y005723D01*
X002236Y005723D02*
X002236Y005433D01*
X002038Y005433D02*
X001845Y005723D01*
X002434Y005723D02*
X002628Y005433D01*
X002729Y005433D02*
X002922Y005433D01*
X002826Y005433D02*
X002826Y005723D01*
X002922Y005626D01*
X003024Y005675D02*
X003072Y005723D01*
X003217Y005723D01*
X003217Y005433D01*
X003072Y005433D01*
X003024Y005481D01*
X003024Y005675D01*
X003072Y006433D02*
X003024Y006481D01*
X003024Y006675D01*
X003072Y006723D01*
X003217Y006723D01*
X003217Y006433D01*
X003072Y006433D01*
X002922Y006481D02*
X002729Y006675D01*
X002729Y006481D01*
X002777Y006433D01*
X002874Y006433D01*
X002922Y006481D01*
X002922Y006675D01*
X002874Y006723D01*
X002777Y006723D01*
X002729Y006675D01*
X002628Y006433D02*
X002434Y006723D01*
X002333Y006723D02*
X002188Y006723D01*
X002140Y006675D01*
X002140Y006578D01*
X002188Y006530D01*
X002333Y006530D01*
X002236Y006530D02*
X002140Y006433D01*
X002038Y006433D02*
X001845Y006723D01*
X002038Y006723D02*
X001845Y006433D01*
X002333Y006433D02*
X002333Y006723D01*
X002922Y007533D02*
X002922Y007581D01*
X002729Y007775D01*
X002729Y007823D01*
X002922Y007823D01*
X003024Y007726D02*
X003024Y007533D01*
X003024Y007678D02*
X003217Y007678D01*
X003217Y007726D02*
X003120Y007823D01*
X003024Y007726D01*
X003217Y007726D02*
X003217Y007533D01*
X003217Y008533D02*
X003217Y008726D01*
X003120Y008823D01*
X003024Y008726D01*
X003024Y008533D01*
X002922Y008581D02*
X002874Y008533D01*
X002777Y008533D01*
X002729Y008581D01*
X002729Y008630D01*
X002777Y008678D01*
X002922Y008678D01*
X002922Y008581D01*
X002922Y008678D02*
X002826Y008775D01*
X002729Y008823D01*
X003024Y008678D02*
X003217Y008678D01*
X003217Y009533D02*
X003217Y009726D01*
X003120Y009823D01*
X003024Y009726D01*
X003024Y009533D01*
X002922Y009581D02*
X002874Y009533D01*
X002777Y009533D01*
X002729Y009581D01*
X002729Y009678D01*
X002777Y009726D01*
X002826Y009726D01*
X002922Y009678D01*
X002922Y009823D01*
X002729Y009823D01*
X003024Y009678D02*
X003217Y009678D01*
X003217Y010433D02*
X003217Y010626D01*
X003120Y010723D01*
X003024Y010626D01*
X003024Y010433D01*
X003024Y010578D02*
X003217Y010578D01*
X002922Y010578D02*
X002777Y010723D01*
X002777Y010433D01*
X002729Y010578D02*
X002922Y010578D01*
X002874Y011433D02*
X002922Y011481D01*
X002874Y011433D02*
X002777Y011433D01*
X002729Y011481D01*
X002729Y011530D01*
X002777Y011578D01*
X002826Y011578D01*
X002777Y011578D02*
X002729Y011626D01*
X002729Y011675D01*
X002777Y011723D01*
X002874Y011723D01*
X002922Y011675D01*
X003024Y011626D02*
X003024Y011433D01*
X003024Y011578D02*
X003217Y011578D01*
X003217Y011626D02*
X003120Y011723D01*
X003024Y011626D01*
X003217Y011626D02*
X003217Y011433D01*
X003217Y012433D02*
X003217Y012626D01*
X003120Y012723D01*
X003024Y012626D01*
X003024Y012433D01*
X002922Y012433D02*
X002729Y012626D01*
X002729Y012675D01*
X002777Y012723D01*
X002874Y012723D01*
X002922Y012675D01*
X003024Y012578D02*
X003217Y012578D01*
X002922Y012433D02*
X002729Y012433D01*
X002729Y013533D02*
X002922Y013533D01*
X002826Y013533D02*
X002826Y013823D01*
X002922Y013726D01*
X003024Y013726D02*
X003024Y013533D01*
X003024Y013678D02*
X003217Y013678D01*
X003217Y013726D02*
X003120Y013823D01*
X003024Y013726D01*
X003217Y013726D02*
X003217Y013533D01*
X003069Y014433D02*
X002972Y014433D01*
X002924Y014481D01*
X002924Y014578D01*
X002972Y014626D01*
X003020Y014626D01*
X003117Y014578D01*
X003117Y014723D01*
X002924Y014723D01*
X002822Y014626D02*
X002726Y014433D01*
X002629Y014626D01*
X003069Y014433D02*
X003117Y014481D01*
X003072Y015433D02*
X003024Y015481D01*
X003024Y015578D01*
X003120Y015578D01*
X003024Y015675D02*
X003072Y015723D01*
X003169Y015723D01*
X003217Y015675D01*
X003217Y015481D01*
X003169Y015433D01*
X003072Y015433D01*
X002922Y015433D02*
X002922Y015723D01*
X002729Y015433D01*
X002729Y015723D01*
X002628Y015723D02*
X002483Y015723D01*
X002434Y015675D01*
X002434Y015481D01*
X002483Y015433D01*
X002628Y015433D01*
X002628Y015723D01*
X017510Y012256D02*
X017510Y012062D01*
X017559Y012014D01*
X017704Y012014D01*
X017704Y012304D01*
X017559Y012304D01*
X017510Y012256D01*
X017805Y012159D02*
X017853Y012207D01*
X017950Y012207D01*
X017999Y012159D01*
X017999Y012062D01*
X017950Y012014D01*
X017853Y012014D01*
X017805Y012062D01*
X017805Y012159D01*
X018100Y012159D02*
X018245Y012159D01*
X018293Y012207D01*
X018293Y012256D01*
X018245Y012304D01*
X018148Y012304D01*
X018100Y012256D01*
X018100Y012062D01*
X018148Y012014D01*
X018245Y012014D01*
X018293Y012062D01*
X018443Y012062D02*
X018443Y012304D01*
X018491Y012304D02*
X018394Y012304D01*
X018443Y012062D02*
X018491Y012014D01*
X018540Y012014D01*
X018588Y012062D01*
X018689Y012014D02*
X018883Y012304D01*
X018984Y012304D02*
X019080Y012304D01*
X019032Y012304D02*
X019032Y012062D01*
X019080Y012014D01*
X019129Y012014D01*
X019177Y012062D01*
X019278Y012304D02*
X019472Y012014D01*
X019573Y012111D02*
X019767Y012111D01*
X019767Y012159D02*
X019718Y012207D01*
X019621Y012207D01*
X019573Y012159D01*
X019573Y012111D01*
X019621Y012014D02*
X019718Y012014D01*
X019767Y012062D01*
X019767Y012159D01*
X019868Y012159D02*
X019868Y012014D01*
X019964Y012014D02*
X019964Y012159D01*
X019916Y012207D01*
X019868Y012159D01*
X019964Y012159D02*
X020013Y012207D01*
X020061Y012207D01*
X020061Y012014D01*
X020160Y012014D02*
X020208Y012014D01*
X020208Y012062D01*
X020160Y012062D01*
X020160Y012014D01*
X020310Y012062D02*
X020310Y012159D01*
X020358Y012207D01*
X020503Y012207D01*
X020503Y012304D02*
X020503Y012014D01*
X020358Y012014D01*
X020310Y012062D01*
X020603Y012159D02*
X020700Y012159D01*
X020651Y012256D02*
X020651Y012014D01*
X020799Y012014D02*
X020847Y012014D01*
X020847Y012062D01*
X020799Y012062D01*
X020799Y012014D01*
X020948Y012014D02*
X020948Y012159D01*
X020996Y012207D01*
X021142Y012207D01*
X021142Y012014D01*
X021243Y012062D02*
X021291Y012014D01*
X021388Y012014D01*
X021436Y012062D01*
X021436Y012159D01*
X021388Y012207D01*
X021291Y012207D01*
X021243Y012159D01*
X021243Y012062D01*
X021537Y012304D02*
X021731Y012014D01*
X022026Y012014D02*
X021832Y012304D01*
X022124Y012207D02*
X022124Y012159D01*
X022173Y012159D01*
X022173Y012207D01*
X022124Y012207D01*
X022124Y012062D02*
X022124Y012014D01*
X022173Y012014D01*
X022173Y012062D01*
X022124Y012062D01*
X022274Y012062D02*
X022322Y012014D01*
X022467Y012014D01*
X022467Y011917D02*
X022467Y012207D01*
X022322Y012207D01*
X022274Y012159D01*
X022274Y012062D01*
X022567Y012014D02*
X022616Y012062D01*
X022616Y012256D01*
X022664Y012207D02*
X022567Y012207D01*
X022764Y012207D02*
X022860Y012207D01*
X022812Y012256D02*
X022812Y012062D01*
X022764Y012014D01*
X022962Y012014D02*
X022962Y012159D01*
X023010Y012207D01*
X023107Y012207D01*
X023155Y012159D01*
X023155Y012304D02*
X023155Y012014D01*
X020651Y012256D02*
X020603Y012304D01*
X018883Y012014D02*
X018689Y012304D01*
D12*
X018633Y014394D02*
X018633Y014529D01*
X018678Y014574D01*
X018813Y014574D01*
X018813Y014394D01*
X018927Y014484D02*
X019108Y014484D01*
X019108Y014529D02*
X019063Y014574D01*
X018973Y014574D01*
X018927Y014529D01*
X018927Y014484D01*
X018973Y014394D02*
X019063Y014394D01*
X019108Y014439D01*
X019108Y014529D01*
X019222Y014574D02*
X019357Y014574D01*
X019402Y014529D01*
X019402Y014439D01*
X019357Y014394D01*
X019222Y014394D01*
X019509Y014394D02*
X019599Y014394D01*
X019554Y014394D02*
X019554Y014574D01*
X019599Y014574D01*
X019554Y014664D02*
X019554Y014709D01*
X019750Y014664D02*
X019750Y014394D01*
X019795Y014394D02*
X019705Y014394D01*
X019910Y014664D02*
X020090Y014394D01*
X020204Y014394D02*
X020339Y014394D01*
X020384Y014439D01*
X020384Y014529D01*
X020339Y014574D01*
X020204Y014574D01*
X020204Y014349D01*
X020249Y014304D01*
X020294Y014304D01*
X020495Y014574D02*
X020540Y014574D01*
X020630Y014484D01*
X020630Y014394D02*
X020630Y014574D01*
X020744Y014529D02*
X020790Y014574D01*
X020880Y014574D01*
X020925Y014529D01*
X020925Y014439D01*
X020880Y014394D01*
X020790Y014394D01*
X020744Y014439D01*
X020744Y014529D01*
X021027Y014439D02*
X021027Y014394D01*
X021072Y014394D01*
X021072Y014439D01*
X021027Y014439D01*
X021186Y014439D02*
X021232Y014484D01*
X021322Y014484D01*
X021367Y014529D01*
X021322Y014574D01*
X021186Y014574D01*
X021186Y014439D02*
X021232Y014394D01*
X021367Y014394D01*
X021481Y014394D02*
X021481Y014529D01*
X021526Y014574D01*
X021661Y014574D01*
X021661Y014394D01*
X021776Y014439D02*
X021776Y014529D01*
X021821Y014574D01*
X021911Y014574D01*
X021956Y014529D01*
X021956Y014439D01*
X021911Y014394D01*
X021821Y014394D01*
X021776Y014439D01*
X022070Y014394D02*
X022070Y014529D01*
X022115Y014574D01*
X022160Y014529D01*
X022160Y014394D01*
X022251Y014394D02*
X022251Y014574D01*
X022206Y014574D01*
X022160Y014529D01*
X022365Y014529D02*
X022365Y014394D01*
X022455Y014394D02*
X022455Y014529D01*
X022410Y014574D01*
X022365Y014529D01*
X022455Y014529D02*
X022500Y014574D01*
X022545Y014574D01*
X022545Y014394D01*
X022660Y014439D02*
X022660Y014529D01*
X022705Y014574D01*
X022795Y014574D01*
X022840Y014529D01*
X022840Y014439D01*
X022795Y014394D01*
X022705Y014394D01*
X022660Y014439D01*
X022954Y014394D02*
X023089Y014394D01*
X023135Y014439D01*
X023135Y014529D01*
X023089Y014574D01*
X022954Y014574D01*
X023249Y014529D02*
X023249Y014484D01*
X023429Y014484D01*
X023429Y014529D02*
X023384Y014574D01*
X023294Y014574D01*
X023249Y014529D01*
X023294Y014394D02*
X023384Y014394D01*
X023429Y014439D01*
X023429Y014529D01*
X023544Y014574D02*
X023634Y014394D01*
X023724Y014574D01*
X023875Y014574D02*
X023875Y014394D01*
X023920Y014394D02*
X023830Y014394D01*
X023875Y014574D02*
X023920Y014574D01*
X023875Y014664D02*
X023875Y014709D01*
X024027Y014574D02*
X024117Y014574D01*
X024072Y014619D02*
X024072Y014439D01*
X024027Y014394D01*
X024231Y014394D02*
X024366Y014394D01*
X024411Y014439D01*
X024366Y014484D01*
X024231Y014484D01*
X024231Y014529D02*
X024231Y014394D01*
X024231Y014529D02*
X024276Y014574D01*
X024366Y014574D01*
X024526Y014529D02*
X024526Y014484D01*
X024706Y014484D01*
X024706Y014529D02*
X024661Y014574D01*
X024571Y014574D01*
X024526Y014529D01*
X024571Y014394D02*
X024661Y014394D01*
X024706Y014439D01*
X024706Y014529D01*
X024816Y014574D02*
X024861Y014574D01*
X024952Y014484D01*
X024952Y014394D02*
X024952Y014574D01*
X025066Y014574D02*
X025201Y014574D01*
X025246Y014529D01*
X025246Y014439D01*
X025201Y014394D01*
X025066Y014394D01*
X025361Y014664D02*
X025541Y014394D01*
X025655Y014664D02*
X025836Y014394D01*
X025938Y014394D02*
X025983Y014394D01*
X025983Y014439D01*
X025938Y014439D01*
X025938Y014394D01*
X025938Y014529D02*
X025983Y014529D01*
X025983Y014574D01*
X025938Y014574D01*
X025938Y014529D01*
X026097Y014529D02*
X026097Y014439D01*
X026142Y014394D01*
X026277Y014394D01*
X026277Y014304D02*
X026277Y014574D01*
X026142Y014574D01*
X026097Y014529D01*
X026384Y014574D02*
X026474Y014574D01*
X026429Y014619D02*
X026429Y014439D01*
X026384Y014394D01*
X026580Y014394D02*
X026625Y014439D01*
X026625Y014619D01*
X026670Y014574D02*
X026580Y014574D01*
X026785Y014529D02*
X026785Y014394D01*
X026785Y014529D02*
X026830Y014574D01*
X026920Y014574D01*
X026965Y014529D01*
X026965Y014664D02*
X026965Y014394D01*
X019795Y014664D02*
X019750Y014664D01*
X018518Y014529D02*
X018473Y014574D01*
X018338Y014574D01*
X018383Y014484D02*
X018473Y014484D01*
X018518Y014529D01*
X018518Y014394D02*
X018383Y014394D01*
X018338Y014439D01*
X018383Y014484D01*
X018224Y014484D02*
X018044Y014484D01*
X018044Y014529D01*
X018089Y014574D01*
X018179Y014574D01*
X018224Y014529D01*
X018224Y014439D01*
X018179Y014394D01*
X018089Y014394D01*
X017929Y014394D02*
X017794Y014394D01*
X017749Y014439D01*
X017794Y014484D01*
X017884Y014484D01*
X017929Y014529D01*
X017884Y014574D01*
X017749Y014574D01*
X017634Y014394D02*
X017454Y014664D01*
X017340Y014664D02*
X017340Y014394D01*
X017205Y014394D01*
X017160Y014439D01*
X017160Y014529D01*
X017205Y014574D01*
X017340Y014574D01*
X017045Y014574D02*
X017045Y014439D01*
X017000Y014394D01*
X016865Y014394D01*
X016865Y014349D02*
X016910Y014304D01*
X016955Y014304D01*
X016865Y014349D02*
X016865Y014574D01*
X016750Y014394D02*
X016570Y014664D01*
X016456Y014619D02*
X016411Y014664D01*
X016321Y014664D01*
X016276Y014619D01*
X016276Y014574D01*
X016456Y014394D01*
X016276Y014394D01*
X016161Y014394D02*
X016116Y014394D01*
X016116Y014439D01*
X016161Y014439D01*
X016161Y014394D01*
X016014Y014439D02*
X015834Y014619D01*
X015834Y014439D01*
X015879Y014394D01*
X015969Y014394D01*
X016014Y014439D01*
X016014Y014619D01*
X015969Y014664D01*
X015879Y014664D01*
X015834Y014619D01*
X015719Y014394D02*
X015539Y014664D01*
D13*
X026670Y009939D02*
X026680Y008959D01*
X027790Y008749D01*
X028170Y007769D02*
X027550Y006839D01*
X028240Y006149D01*
X029140Y006769D01*
X029530Y006539D01*
X030240Y008259D01*
X031450Y008259D02*
X032160Y006539D01*
X032550Y006759D01*
X033450Y006149D01*
X034150Y006839D01*
X033520Y007769D01*
X033910Y008749D02*
X035030Y008959D01*
X035030Y009939D01*
X033880Y010159D01*
X033490Y011089D02*
X034150Y012059D01*
X033450Y012749D01*
X032470Y012079D01*
X031550Y012459D02*
X031340Y013629D01*
X030350Y013629D01*
X030140Y012449D01*
X029220Y012079D02*
X028240Y012749D01*
X027550Y012059D01*
X028210Y011079D01*
X027810Y010149D02*
X026670Y009939D01*
X031550Y012459D02*
X031689Y012423D01*
X031825Y012380D01*
X031959Y012332D01*
X032091Y012277D01*
X032221Y012217D01*
X032347Y012151D01*
X032470Y012079D01*
X033490Y011089D02*
X033564Y010964D01*
X033632Y010837D01*
X033695Y010706D01*
X033750Y010572D01*
X033800Y010437D01*
X033843Y010298D01*
X033880Y010159D01*
X033910Y008749D02*
X033875Y008602D01*
X033833Y008456D01*
X033784Y008313D01*
X033728Y008172D01*
X033665Y008035D01*
X033595Y007900D01*
X033520Y007769D01*
X028170Y007769D02*
X028095Y007900D01*
X028028Y008035D01*
X027966Y008173D01*
X027912Y008314D01*
X027864Y008457D01*
X027823Y008602D01*
X027790Y008749D01*
X029220Y012079D02*
X029343Y012149D01*
X029470Y012214D01*
X029599Y012273D01*
X029731Y012326D01*
X029866Y012373D01*
X030002Y012414D01*
X030140Y012449D01*
X030240Y008259D02*
X030178Y008294D01*
X030118Y008332D01*
X030060Y008374D01*
X030004Y008419D01*
X029952Y008467D01*
X029901Y008518D01*
X029854Y008571D01*
X029810Y008627D01*
X029769Y008686D01*
X029731Y008746D01*
X029697Y008809D01*
X029666Y008873D01*
X029639Y008939D01*
X029615Y009007D01*
X029595Y009075D01*
X029579Y009145D01*
X029567Y009215D01*
X029559Y009286D01*
X029555Y009357D01*
X029554Y009428D01*
X029558Y009500D01*
X029565Y009571D01*
X029577Y009641D01*
X029592Y009711D01*
X029611Y009780D01*
X029634Y009847D01*
X029661Y009913D01*
X029691Y009978D01*
X029725Y010041D01*
X029762Y010102D01*
X029803Y010161D01*
X029846Y010217D01*
X029893Y010271D01*
X029943Y010322D01*
X029995Y010371D01*
X030050Y010416D01*
X030107Y010459D01*
X030167Y010498D01*
X030229Y010533D01*
X030292Y010566D01*
X030358Y010595D01*
X030425Y010620D01*
X030493Y010641D01*
X030562Y010659D01*
X030632Y010672D01*
X030703Y010682D01*
X030774Y010688D01*
X030845Y010690D01*
X030916Y010688D01*
X030987Y010682D01*
X031058Y010672D01*
X031128Y010659D01*
X031197Y010641D01*
X031265Y010620D01*
X031332Y010595D01*
X031398Y010566D01*
X031461Y010533D01*
X031523Y010498D01*
X031583Y010459D01*
X031640Y010416D01*
X031695Y010371D01*
X031747Y010322D01*
X031797Y010271D01*
X031844Y010217D01*
X031887Y010161D01*
X031928Y010102D01*
X031965Y010041D01*
X031999Y009978D01*
X032029Y009913D01*
X032056Y009847D01*
X032079Y009780D01*
X032098Y009711D01*
X032113Y009641D01*
X032125Y009571D01*
X032132Y009500D01*
X032136Y009428D01*
X032135Y009357D01*
X032131Y009286D01*
X032123Y009215D01*
X032111Y009145D01*
X032095Y009075D01*
X032075Y009007D01*
X032051Y008939D01*
X032024Y008873D01*
X031993Y008809D01*
X031959Y008746D01*
X031921Y008686D01*
X031880Y008627D01*
X031836Y008571D01*
X031789Y008518D01*
X031738Y008467D01*
X031686Y008419D01*
X031630Y008374D01*
X031572Y008332D01*
X031512Y008294D01*
X031450Y008259D01*
X027810Y010149D02*
X027848Y010289D01*
X027893Y010427D01*
X027944Y010563D01*
X028002Y010696D01*
X028065Y010827D01*
X028135Y010954D01*
X028210Y011079D01*
M02*
