G75*
G70*
%OFA0B0*%
%FSLAX24Y24*%
%IPPOS*%
%LPD*%
%AMOC8*
5,1,8,0,0,1.08239X$1,22.5*
%
%ADD10C,0.1320*%
%ADD11R,0.0560X0.0280*%
%ADD12R,0.0280X0.0560*%
%ADD13R,0.0532X0.0375*%
%ADD14R,0.0729X0.0336*%
%ADD15R,0.0375X0.0532*%
%ADD16C,0.0651*%
%ADD17C,0.1359*%
%ADD18R,0.0920X0.0920*%
%ADD19OC8,0.0920*%
%ADD20C,0.0920*%
%ADD21C,0.0800*%
%ADD22R,0.0257X0.1044*%
%ADD23R,0.0847X0.1044*%
%ADD24C,0.0414*%
%ADD25R,0.0197X0.0610*%
%ADD26R,0.1044X0.1241*%
%ADD27R,0.0414X0.0454*%
%ADD28R,0.0414X0.0493*%
%ADD29R,0.0560X0.0310*%
%ADD30R,0.0910X0.0480*%
%ADD31R,0.4158X0.4312*%
%ADD32R,0.0532X0.0847*%
%ADD33R,0.0310X0.0560*%
%ADD34C,0.0709*%
%ADD35OC8,0.2010*%
%ADD36R,0.0651X0.0572*%
%ADD37C,0.0350*%
D10*
X007801Y014579D03*
X005801Y028579D03*
X026301Y029579D03*
D11*
X015105Y022507D03*
X015105Y022192D03*
X015105Y021877D03*
X015105Y021562D03*
X015105Y021247D03*
X015105Y020932D03*
X015105Y020617D03*
X015105Y020302D03*
X011725Y020302D03*
X011725Y020617D03*
X011725Y020932D03*
X011725Y021247D03*
X011725Y021562D03*
X011725Y021877D03*
X011725Y022192D03*
X011725Y022507D03*
D12*
X012313Y023095D03*
X012628Y023095D03*
X012943Y023095D03*
X013258Y023095D03*
X013573Y023095D03*
X013888Y023095D03*
X014203Y023095D03*
X014518Y023095D03*
X014518Y019715D03*
X014203Y019715D03*
X013888Y019715D03*
X013573Y019715D03*
X013258Y019715D03*
X012943Y019715D03*
X012628Y019715D03*
X012313Y019715D03*
D13*
X010641Y021524D03*
X010641Y022233D03*
X012500Y024213D03*
X012500Y024922D03*
X013252Y024925D03*
X013252Y024216D03*
X015961Y021433D03*
X016641Y021423D03*
X016641Y020714D03*
X015961Y020724D03*
X019602Y013716D03*
X019602Y013007D03*
X020984Y031863D03*
X020984Y032572D03*
X021972Y032600D03*
X021972Y031891D03*
X021941Y033777D03*
X021941Y034486D03*
X020942Y034485D03*
X020942Y033776D03*
D14*
X010565Y020908D03*
X010565Y020436D03*
X010565Y019963D03*
D15*
X015937Y022069D03*
X016646Y022069D03*
X022080Y018095D03*
X022453Y017397D03*
X022789Y018095D03*
X023162Y017397D03*
X021996Y013079D03*
X021287Y013079D03*
D16*
X026327Y014881D03*
X028327Y014881D03*
X028327Y009173D03*
X027327Y009173D03*
X026327Y009173D03*
D17*
X025327Y012125D03*
X029327Y012125D03*
D18*
X005321Y021299D03*
D19*
X005321Y020299D03*
X006321Y020299D03*
X006321Y021299D03*
X006321Y019299D03*
X005321Y019299D03*
D20*
X005301Y016779D03*
X006301Y016779D03*
X007301Y016779D03*
X008301Y016779D03*
X009301Y016779D03*
X010301Y016779D03*
X011301Y016779D03*
X012301Y016779D03*
X013301Y016779D03*
X014301Y016779D03*
X015301Y016779D03*
X016301Y016779D03*
X017301Y016779D03*
X018301Y016779D03*
X018041Y032293D03*
X017041Y032293D03*
X016041Y032293D03*
X015041Y032293D03*
X014041Y032293D03*
X013041Y032293D03*
X012041Y032293D03*
X011041Y032293D03*
X010041Y032293D03*
X009041Y032293D03*
X008041Y032293D03*
X007041Y032293D03*
X006041Y032293D03*
X005041Y032293D03*
X005041Y034293D03*
X006041Y034293D03*
X007041Y034293D03*
X008041Y034293D03*
X009041Y034293D03*
X010041Y034293D03*
X011041Y034293D03*
X012041Y034293D03*
X013041Y034293D03*
X014041Y034293D03*
X015041Y034293D03*
X016041Y034293D03*
X017041Y034293D03*
X018041Y034293D03*
D21*
X029513Y021297D03*
X029513Y020297D03*
D22*
X022017Y011837D03*
X021702Y011837D03*
X021387Y011837D03*
X021072Y011837D03*
X020758Y011837D03*
D23*
X019616Y011837D03*
X019616Y009671D03*
X023159Y009671D03*
X023159Y011837D03*
D24*
X022254Y010853D03*
X020521Y010853D03*
D25*
X020514Y013783D03*
X020770Y013783D03*
X021026Y013783D03*
X021282Y013783D03*
X021538Y013783D03*
X021794Y013783D03*
X022049Y013783D03*
X022305Y013783D03*
X022561Y013783D03*
X022817Y013783D03*
X023073Y013783D03*
X023329Y013783D03*
X023585Y013783D03*
X023841Y013783D03*
X023841Y016662D03*
X023585Y016662D03*
X023329Y016662D03*
X023073Y016662D03*
X022817Y016662D03*
X022561Y016662D03*
X022305Y016662D03*
X022049Y016662D03*
X021794Y016662D03*
X021538Y016662D03*
X021282Y016662D03*
X021026Y016662D03*
X020770Y016662D03*
X020514Y016662D03*
D26*
X018734Y021693D03*
X026057Y021693D03*
D27*
X016377Y015299D03*
X016377Y014630D03*
D28*
X015078Y014965D03*
D29*
X019740Y017481D03*
X019737Y018053D03*
X020337Y018053D03*
X020340Y017481D03*
D30*
X017867Y012445D03*
X017867Y011445D03*
X017867Y010445D03*
D31*
X014587Y011445D03*
D32*
X017386Y013505D03*
X018645Y013505D03*
X018650Y009369D03*
X017391Y009369D03*
D33*
X017245Y014543D03*
X017245Y015143D03*
D34*
X029561Y009659D03*
X006041Y033289D03*
D35*
X007091Y010389D03*
X009061Y011569D03*
X007091Y012749D03*
D36*
X019551Y015205D03*
X019551Y015953D03*
D37*
X020188Y016688D03*
X020716Y016117D03*
X021538Y015339D03*
X021776Y016080D03*
X022585Y016152D03*
X023185Y017876D03*
X027248Y015675D03*
X017008Y021061D03*
X017056Y022242D03*
X014481Y022529D03*
X013484Y022163D03*
X012628Y021786D03*
X012255Y022563D03*
X011734Y024639D03*
X013050Y025514D03*
X013509Y025446D03*
X014154Y020726D03*
X014203Y019235D03*
X015180Y019337D03*
M02*
