G75*
G70*
%OFA0B0*%
%FSLAX24Y24*%
%IPPOS*%
%LPD*%
%AMOC8*
5,1,8,0,0,1.08239X$1,22.5*
%
%ADD10C,0.1320*%
%ADD11C,0.0651*%
%ADD12C,0.1359*%
%ADD13R,0.0920X0.0920*%
%ADD14OC8,0.0920*%
%ADD15C,0.0920*%
%ADD16C,0.0800*%
%ADD17C,0.0414*%
%ADD18C,0.0690*%
%ADD19C,0.0847*%
%ADD20C,0.0585*%
%ADD21C,0.0585*%
D10*
X007801Y014579D03*
X005801Y028579D03*
X026301Y029579D03*
X030121Y020999D03*
D11*
X028327Y014881D03*
X026327Y014881D03*
X026327Y009173D03*
X027327Y009173D03*
X028327Y009173D03*
D12*
X029327Y012125D03*
X025327Y012125D03*
D13*
X005301Y020079D03*
D14*
X005301Y019079D03*
X006301Y019079D03*
X006301Y020079D03*
X006301Y018079D03*
X005301Y018079D03*
D15*
X005301Y016779D03*
X006301Y016779D03*
X007301Y016779D03*
X008301Y016779D03*
X009301Y016779D03*
X010301Y016779D03*
X011301Y016779D03*
X012301Y016779D03*
X013301Y016779D03*
X014301Y016779D03*
X015301Y016779D03*
X016301Y016779D03*
X017301Y016779D03*
X018301Y016779D03*
X018041Y032293D03*
X017041Y032293D03*
X016041Y032293D03*
X015041Y032293D03*
X014041Y032293D03*
X013041Y032293D03*
X012041Y032293D03*
X011041Y032293D03*
X010041Y032293D03*
X009041Y032293D03*
X008041Y032293D03*
X007041Y032293D03*
X006041Y032293D03*
X005041Y032293D03*
X005041Y034293D03*
X006041Y034293D03*
X007041Y034293D03*
X008041Y034293D03*
X009041Y034293D03*
X010041Y034293D03*
X011041Y034293D03*
X012041Y034293D03*
X013041Y034293D03*
X014041Y034293D03*
X015041Y034293D03*
X016041Y034293D03*
X017041Y034293D03*
X018041Y034293D03*
D16*
X011313Y011397D03*
X011313Y010397D03*
D17*
X020521Y010853D03*
X022254Y010853D03*
D18*
X007293Y009364D03*
D19*
X007293Y011136D03*
D20*
X009765Y018697D03*
X009879Y020143D03*
X009890Y021091D03*
X009448Y021795D03*
X007562Y019800D03*
X010757Y024795D03*
X011829Y024397D03*
X012766Y024519D03*
X012239Y025549D03*
X011360Y026203D03*
X010391Y027186D03*
X015280Y024688D03*
X016692Y022929D03*
X017550Y023036D03*
X019685Y021258D03*
X016608Y019614D03*
X017698Y018071D03*
X019332Y014706D03*
X022822Y018140D03*
X025454Y015357D03*
X024691Y021353D03*
X018420Y026203D03*
X016229Y028304D03*
X014536Y018273D03*
D21*
X021072Y010250D03*
X024337Y017448D03*
X015228Y027440D03*
M02*
