G75*
G70*
%OFA0B0*%
%FSLAX24Y24*%
%IPPOS*%
%LPD*%
%AMOC8*
5,1,8,0,0,1.08239X$1,22.5*
%
%ADD10R,0.0500X0.0220*%
%ADD11R,0.0220X0.0500*%
%ADD12R,0.0472X0.0315*%
%ADD13R,0.0669X0.0276*%
%ADD14R,0.0315X0.0472*%
%ADD15C,0.0591*%
%ADD16C,0.1299*%
%ADD17R,0.0860X0.0860*%
%ADD18OC8,0.0860*%
%ADD19C,0.0860*%
%ADD20C,0.0740*%
%ADD21R,0.0197X0.0984*%
%ADD22R,0.0787X0.0984*%
%ADD23R,0.0137X0.0550*%
%ADD24R,0.1102X0.1102*%
%ADD25R,0.0315X0.1043*%
%ADD26R,0.1260X0.0433*%
%ADD27R,0.0300X0.0700*%
%ADD28R,0.1181X0.0984*%
%ADD29R,0.0394X0.0354*%
%ADD30R,0.0433X0.0354*%
%ADD31C,0.0540*%
%ADD32OC8,0.0540*%
%ADD33R,0.0250X0.0500*%
%ADD34C,0.0160*%
%ADD35R,0.0500X0.0250*%
%ADD36R,0.0870X0.0240*%
%ADD37R,0.0394X0.0591*%
%ADD38C,0.0525*%
%ADD39C,0.0137*%
D10*
X012270Y010416D03*
X012270Y010731D03*
X012270Y011046D03*
X012270Y011361D03*
X012270Y011676D03*
X012270Y011991D03*
X012270Y012306D03*
X012270Y012621D03*
X015650Y012621D03*
X015650Y012306D03*
X015650Y011991D03*
X015650Y011676D03*
X015650Y011361D03*
X015650Y011046D03*
X015650Y010731D03*
X015650Y010416D03*
D11*
X015062Y009829D03*
X014747Y009829D03*
X014432Y009829D03*
X014117Y009829D03*
X013803Y009829D03*
X013488Y009829D03*
X013173Y009829D03*
X012858Y009829D03*
X012858Y013209D03*
X013173Y013209D03*
X013488Y013209D03*
X013803Y013209D03*
X014117Y013209D03*
X014432Y013209D03*
X014747Y013209D03*
X015062Y013209D03*
D12*
X009260Y011473D03*
X008410Y011473D03*
X008410Y010764D03*
X009260Y010764D03*
X014160Y008073D03*
X015016Y008068D03*
X015016Y007359D03*
X014160Y007364D03*
X024060Y011564D03*
X025460Y011564D03*
X025460Y012273D03*
X024060Y012273D03*
X030776Y005745D03*
X031585Y005732D03*
X031585Y005023D03*
X030776Y005036D03*
X036670Y008324D03*
X036670Y009033D03*
D13*
X017460Y011896D03*
X017460Y012369D03*
X017460Y012841D03*
D14*
X025606Y016819D03*
X026314Y016819D03*
X026664Y017819D03*
X025956Y017819D03*
X026973Y011889D03*
X027682Y011889D03*
X028306Y011919D03*
X029014Y011919D03*
X036276Y009799D03*
X036984Y009799D03*
X019614Y006363D03*
X018906Y006363D03*
D15*
X034100Y007647D03*
X036100Y007647D03*
X036100Y001939D03*
X035100Y001939D03*
X034100Y001939D03*
D16*
X033100Y004892D03*
X037100Y004892D03*
D17*
X006375Y002949D03*
D18*
X007375Y002949D03*
X008375Y002949D03*
X008375Y003949D03*
X007375Y003949D03*
X006375Y003949D03*
D19*
X003860Y003585D03*
X003860Y004585D03*
X003860Y005585D03*
X003860Y006585D03*
X003860Y007585D03*
X003860Y008585D03*
X003860Y009585D03*
X003860Y010585D03*
X003860Y011585D03*
X003860Y012585D03*
X003860Y013585D03*
X003860Y014585D03*
X003860Y015585D03*
X000860Y015585D03*
X000860Y014585D03*
X000860Y013585D03*
X000860Y012585D03*
X000860Y011585D03*
X000860Y010585D03*
X000860Y009585D03*
X000860Y008585D03*
X000860Y007585D03*
X000860Y006585D03*
X000860Y005585D03*
X000860Y004585D03*
X000860Y003585D03*
X000860Y002585D03*
X003860Y002585D03*
D20*
X015893Y002833D03*
X016893Y002833D03*
D21*
X027030Y004603D03*
X027345Y004603D03*
X027660Y004603D03*
X027975Y004603D03*
X028290Y004603D03*
D22*
X029432Y004603D03*
X025888Y004603D03*
X025888Y002438D03*
X029432Y002438D03*
D23*
X029323Y007079D03*
X029067Y007079D03*
X028812Y007079D03*
X028556Y007079D03*
X028300Y007079D03*
X028044Y007079D03*
X027788Y007079D03*
X027532Y007079D03*
X027276Y007079D03*
X027020Y007079D03*
X026764Y007079D03*
X026508Y007079D03*
X026253Y007079D03*
X025997Y007079D03*
X025997Y009958D03*
X026253Y009958D03*
X026508Y009958D03*
X026764Y009958D03*
X027020Y009958D03*
X027276Y009958D03*
X027532Y009958D03*
X027788Y009958D03*
X028044Y009958D03*
X028300Y009958D03*
X028556Y009958D03*
X028812Y009958D03*
X029067Y009958D03*
X029323Y009958D03*
D24*
X013972Y004858D03*
X009720Y004858D03*
X009720Y002508D03*
X013972Y002508D03*
D25*
X018760Y002713D03*
X018760Y004485D03*
D26*
X021110Y007572D03*
X024181Y007572D03*
D27*
X022405Y002458D03*
X021342Y002458D03*
D28*
X034460Y010277D03*
X034460Y017600D03*
D29*
X032795Y008769D03*
X032125Y008769D03*
D30*
X032460Y010068D03*
D31*
X009725Y015697D03*
D32*
X010725Y015697D03*
X011725Y015697D03*
X012725Y015697D03*
X013725Y015697D03*
X014725Y015697D03*
X015725Y015697D03*
X015725Y016697D03*
X014725Y016697D03*
X013725Y016697D03*
X012725Y016697D03*
X011725Y016697D03*
X010725Y016697D03*
X009725Y016697D03*
D33*
X024860Y005019D03*
X024860Y004419D03*
D34*
X004394Y002051D02*
X003860Y002585D01*
X000860Y002585D01*
X003860Y003585D02*
X005106Y002339D01*
X007375Y002339D01*
X007375Y002949D01*
X007477Y002051D02*
X008375Y002949D01*
X009720Y002508D02*
X010451Y002508D01*
X011191Y001768D01*
X015828Y001768D01*
X016893Y002833D01*
X017139Y003398D02*
X016458Y003398D01*
X015893Y002833D01*
X015697Y002833D01*
X015028Y002833D01*
X014703Y002508D01*
X013972Y002508D01*
X015697Y002833D02*
X015697Y004946D01*
X014791Y004946D01*
X014703Y004858D01*
X013972Y004858D01*
X013241Y004858D01*
X012510Y005589D01*
X009086Y005589D01*
X008375Y004879D01*
X008375Y003949D01*
X009720Y004858D02*
X009720Y002508D01*
X007477Y002051D02*
X004394Y002051D01*
X006375Y003949D02*
X008336Y005910D01*
X013070Y005910D01*
X014160Y006999D01*
X019012Y006999D01*
X019981Y007969D01*
X021816Y007969D01*
X021939Y007846D01*
X021939Y007455D01*
X024375Y005019D01*
X024860Y005019D01*
X024850Y005029D02*
X024850Y004459D01*
X024860Y004419D02*
X024455Y004419D01*
X023905Y004969D01*
X023290Y004969D01*
X022675Y004969D01*
X022675Y005790D01*
X021289Y007176D01*
X021110Y007176D01*
X020764Y007176D01*
X019952Y006363D01*
X019614Y006363D01*
X019243Y006363D02*
X019243Y006068D01*
X019364Y005947D01*
X020997Y005947D01*
X021195Y006206D01*
X021872Y006206D01*
X022146Y005832D01*
X022109Y003874D01*
X021703Y003469D01*
X021342Y003469D01*
X021230Y003469D01*
X021342Y003469D02*
X021342Y002458D01*
X022405Y002458D02*
X022506Y002358D01*
X022506Y002284D01*
X022131Y001909D01*
X019564Y001909D01*
X018760Y002713D01*
X018760Y003533D01*
X019679Y003533D01*
X020615Y004469D01*
X021230Y004469D01*
X020615Y004469D02*
X020615Y004969D01*
X021230Y004969D01*
X021519Y005340D02*
X021539Y005661D01*
X021519Y005340D02*
X019449Y005340D01*
X019098Y004904D01*
X019098Y005116D01*
X019027Y005187D01*
X018760Y005187D01*
X018760Y004485D01*
X018760Y003533D02*
X017405Y003533D01*
X016297Y004641D01*
X016297Y004946D01*
X016257Y004936D02*
X015687Y004936D01*
X017139Y003398D02*
X018898Y001669D01*
X023950Y001669D01*
X025723Y003413D01*
X026157Y003413D01*
X026157Y003554D01*
X026487Y004003D01*
X026487Y005176D01*
X026249Y005414D01*
X025660Y005414D01*
X025660Y005719D01*
X025700Y005729D02*
X026270Y005729D01*
X026260Y005719D02*
X026529Y005719D01*
X027532Y006722D01*
X027532Y007079D01*
X027532Y008223D01*
X028556Y009247D01*
X028556Y009958D01*
X028816Y009958D02*
X028816Y010536D01*
X029014Y010735D01*
X029014Y011919D01*
X028643Y011919D02*
X028643Y012214D01*
X028772Y012343D01*
X029266Y012343D01*
X029442Y012166D01*
X029442Y010777D01*
X030096Y010124D01*
X030096Y006168D01*
X029203Y005275D01*
X028290Y005275D01*
X028290Y004603D01*
X027660Y004603D02*
X027660Y005149D01*
X028242Y005731D01*
X028962Y005731D01*
X029835Y006605D01*
X029835Y008991D01*
X029323Y009503D01*
X029323Y009958D01*
X028556Y010658D02*
X028306Y010658D01*
X028112Y010658D01*
X027781Y010327D01*
X027781Y009965D01*
X028051Y009854D02*
X028051Y009623D01*
X026695Y008266D01*
X023644Y011318D01*
X023644Y011857D01*
X024060Y012273D01*
X025460Y012273D01*
X025560Y012373D01*
X025560Y013319D01*
X025520Y013309D02*
X024950Y013309D01*
X024960Y013319D02*
X024960Y013624D01*
X025890Y013624D01*
X026000Y013514D01*
X026000Y012924D01*
X026618Y012306D01*
X026973Y012306D01*
X027278Y012610D01*
X027567Y012610D01*
X028112Y013155D01*
X029584Y013155D01*
X031768Y010972D01*
X031768Y009484D01*
X032125Y009126D01*
X032125Y008769D01*
X032795Y008769D02*
X033172Y008769D01*
X033172Y008576D01*
X034100Y007647D01*
X034777Y008324D01*
X035240Y008324D01*
X035240Y016148D01*
X034460Y016928D01*
X034460Y017600D01*
X028980Y016469D02*
X028960Y016449D01*
X028960Y015659D01*
X027345Y014044D01*
X027345Y013698D01*
X027345Y013145D01*
X026535Y013145D02*
X026535Y015031D01*
X027983Y016479D01*
X026664Y017169D02*
X026314Y016819D01*
X026664Y017169D02*
X026664Y017819D01*
X025956Y017819D02*
X025965Y017438D01*
X025955Y013689D01*
X025890Y013624D01*
X024960Y013624D02*
X022691Y015893D01*
X019111Y015893D01*
X018810Y015591D01*
X018810Y012498D01*
X017891Y011579D01*
X016080Y011579D01*
X016080Y011991D01*
X015650Y011991D01*
X015650Y011676D02*
X015220Y011676D01*
X015220Y011384D01*
X015197Y011361D01*
X015197Y011069D01*
X015220Y011046D01*
X015650Y011046D01*
X015650Y011361D02*
X016080Y011361D01*
X016080Y011579D01*
X016493Y012306D02*
X016903Y011896D01*
X017460Y011896D01*
X017460Y012369D02*
X017975Y012369D01*
X018364Y012759D01*
X018364Y016819D01*
X018028Y017155D01*
X011539Y017155D01*
X011264Y016879D01*
X011264Y016516D01*
X011632Y016147D01*
X011725Y016147D01*
X011725Y015697D01*
X012175Y015602D02*
X013803Y013975D01*
X013803Y013209D01*
X014117Y013209D02*
X014117Y014640D01*
X014725Y015247D01*
X014725Y015697D01*
X015177Y015909D02*
X015177Y015317D01*
X014432Y014573D01*
X014432Y013209D01*
X014747Y013209D02*
X014747Y014270D01*
X015725Y015247D01*
X015725Y015697D01*
X015177Y015909D02*
X014838Y016247D01*
X014725Y016247D01*
X014725Y016697D01*
X012175Y016247D02*
X012175Y015602D01*
X011844Y014920D02*
X011225Y015538D01*
X011225Y015848D01*
X010826Y016247D01*
X010725Y016247D01*
X010725Y016697D01*
X010198Y016670D02*
X010171Y016697D01*
X009725Y016697D01*
X010171Y016697D02*
X010171Y016805D01*
X011184Y017819D01*
X025956Y017819D01*
X025606Y016819D02*
X018364Y016819D01*
X019370Y015353D02*
X019370Y012675D01*
X017426Y010731D01*
X015650Y010731D01*
X015650Y010416D02*
X017613Y010416D01*
X017743Y010287D01*
X015501Y009390D02*
X015062Y009829D01*
X014747Y009829D02*
X014747Y009517D01*
X015988Y008276D01*
X015447Y008331D02*
X015447Y007851D01*
X015327Y007731D01*
X012056Y007731D01*
X010882Y006556D01*
X003889Y006556D01*
X003860Y006585D01*
X000860Y006585D01*
X000860Y007585D02*
X003860Y007585D01*
X003860Y008585D02*
X000860Y008585D01*
X000860Y009585D02*
X003860Y009585D01*
X004981Y008464D01*
X012960Y008464D01*
X013803Y009306D01*
X013803Y009829D01*
X014117Y009829D02*
X014117Y008453D01*
X014160Y008411D01*
X014160Y008073D01*
X010178Y008073D01*
X009196Y007091D01*
X011556Y006249D02*
X012007Y006701D01*
X011556Y006249D02*
X004525Y006249D01*
X003860Y005585D01*
X000860Y005585D01*
X000860Y004585D02*
X003860Y004585D01*
X005709Y008736D02*
X003860Y010585D01*
X000860Y010585D01*
X000860Y011585D02*
X003860Y011585D01*
X006430Y009014D01*
X012676Y009014D01*
X013173Y009511D01*
X013173Y009829D01*
X013488Y009829D02*
X013488Y009399D01*
X012825Y008736D01*
X005709Y008736D01*
X007102Y009288D02*
X012317Y009288D01*
X012858Y009829D01*
X011840Y010163D02*
X011840Y010416D01*
X012270Y010416D01*
X011840Y010163D02*
X011236Y009558D01*
X007256Y009558D01*
X005634Y011181D01*
X005634Y011811D01*
X003860Y013585D01*
X000860Y013585D01*
X000860Y014585D02*
X003860Y014585D01*
X003860Y015585D02*
X006869Y015585D01*
X006982Y015697D01*
X009725Y015697D01*
X010198Y015531D02*
X010198Y016670D01*
X011725Y016697D02*
X012175Y016247D01*
X010198Y015531D02*
X007139Y012473D01*
X007139Y011289D01*
X007467Y010961D01*
X007797Y010961D01*
X007994Y010764D01*
X008410Y010764D01*
X008071Y011136D02*
X007702Y011504D01*
X008071Y011136D02*
X010037Y011136D01*
X010893Y011991D01*
X012270Y011991D01*
X012270Y012306D02*
X010826Y012306D01*
X010330Y011811D01*
X009260Y011811D01*
X009260Y011473D01*
X008410Y011473D01*
X007662Y010691D02*
X007353Y010691D01*
X006869Y011175D01*
X006869Y015585D01*
X003860Y015585D02*
X000860Y015585D01*
X000860Y012585D02*
X003860Y012585D01*
X003860Y012531D01*
X007102Y009288D01*
X007440Y010156D02*
X010248Y010156D01*
X011138Y011046D01*
X012270Y011046D01*
X012270Y011361D02*
X015197Y011361D01*
X015650Y012306D02*
X016493Y012306D01*
X016080Y012621D02*
X016300Y012841D01*
X017460Y012841D01*
X016080Y012621D02*
X015650Y012621D01*
X015062Y013209D02*
X015062Y013639D01*
X017772Y013639D01*
X017791Y013658D01*
X013488Y013790D02*
X013488Y013209D01*
X013173Y013209D02*
X013173Y013713D01*
X012694Y014191D01*
X010155Y014191D01*
X009164Y013200D01*
X010384Y012621D02*
X012270Y012621D01*
X012858Y013209D02*
X012858Y013639D01*
X010991Y013639D01*
X011844Y014920D02*
X012357Y014920D01*
X013488Y013790D01*
X012270Y011361D02*
X010645Y011361D01*
X010048Y010764D01*
X009260Y010764D01*
X009260Y010427D01*
X007926Y010427D01*
X007662Y010691D01*
X010994Y010094D02*
X011631Y010731D01*
X012270Y010731D01*
X014432Y009829D02*
X014432Y009346D01*
X015447Y008331D01*
X015016Y008068D02*
X014581Y008068D01*
X014576Y008073D01*
X014160Y008073D01*
X015447Y007851D02*
X015559Y007740D01*
X017201Y007740D01*
X018162Y008701D01*
X024526Y008701D01*
X025993Y007235D01*
X025737Y007123D02*
X024455Y008404D01*
X019907Y008404D01*
X018862Y007359D01*
X015016Y007359D01*
X014160Y007364D02*
X014160Y006999D01*
X015501Y009390D02*
X024462Y009390D01*
X026508Y009958D02*
X026508Y010305D01*
X025460Y011353D01*
X025460Y011564D01*
X024060Y011564D01*
X025460Y012273D02*
X026260Y011473D01*
X027205Y011473D01*
X027311Y011579D01*
X027311Y012167D01*
X027494Y012350D01*
X027674Y012350D01*
X028195Y012870D01*
X029474Y012870D01*
X030884Y011461D01*
X030884Y006771D01*
X031585Y006069D01*
X031585Y005732D01*
X030776Y005745D02*
X030776Y006083D01*
X030181Y006083D01*
X030096Y006168D01*
X029572Y006709D02*
X029335Y006472D01*
X028542Y006472D01*
X027345Y005275D01*
X027345Y004603D01*
X027030Y004603D02*
X027030Y004073D01*
X027991Y003112D01*
X029161Y003112D01*
X030776Y004728D01*
X030776Y005036D01*
X031193Y005036D01*
X031206Y005023D01*
X031585Y005023D01*
X029572Y006709D02*
X029572Y008045D01*
X029067Y008549D01*
X026764Y008197D02*
X026695Y008266D01*
X026764Y008197D02*
X026764Y007079D01*
X027028Y006975D02*
X027028Y006722D01*
X026662Y006357D01*
X024218Y006357D01*
X022973Y007602D01*
X022739Y008143D02*
X022418Y007822D01*
X022418Y007384D01*
X024014Y005788D01*
X024741Y005788D01*
X025166Y005363D01*
X025166Y004067D01*
X023557Y002458D01*
X022606Y002458D01*
X022506Y002358D01*
X021798Y003969D02*
X021230Y003969D01*
X021798Y003969D02*
X021845Y004016D01*
X021845Y005184D01*
X021748Y005310D01*
X021519Y005340D01*
X019243Y006363D02*
X018906Y006363D01*
X021110Y007176D02*
X021110Y007572D01*
X022739Y008143D02*
X024007Y008143D01*
X024181Y007969D01*
X024181Y007572D01*
X025737Y007123D02*
X025737Y006729D01*
X025841Y006624D01*
X026206Y006624D01*
X026253Y006671D01*
X026253Y007079D01*
X026764Y009958D02*
X026764Y010305D01*
X026508Y010305D01*
X026764Y010305D02*
X026873Y010413D01*
X027695Y010413D01*
X027781Y010327D01*
X028306Y010658D02*
X028306Y011919D01*
X028643Y011919D01*
X028316Y012610D02*
X027682Y011977D01*
X027682Y011889D01*
X026973Y011889D02*
X026973Y012306D01*
X028316Y012610D02*
X029366Y012610D01*
X030348Y011628D01*
X030348Y011237D01*
X032460Y011517D02*
X032460Y010068D01*
X033403Y010277D02*
X034460Y010277D01*
X036220Y010659D02*
X036276Y010603D01*
X036276Y009799D01*
X036984Y009799D02*
X036984Y009347D01*
X036670Y009033D01*
X036670Y008324D02*
X035240Y008324D01*
X034100Y007647D02*
X034100Y003157D01*
X035100Y002157D01*
X035100Y001939D01*
X034100Y003157D02*
X031431Y003157D01*
X031361Y003087D01*
X030023Y001749D01*
X027821Y001749D01*
X026157Y003413D01*
X032460Y011517D02*
X029182Y014795D01*
D35*
X025560Y013319D03*
X024960Y013319D03*
X025660Y005719D03*
X026260Y005719D03*
X016297Y004946D03*
X015697Y004946D03*
D36*
X021230Y004969D03*
X021230Y004469D03*
X021230Y003969D03*
X021230Y003469D03*
X023290Y003469D03*
X023290Y003969D03*
X023290Y004469D03*
X023290Y004969D03*
D37*
X027983Y016479D03*
X028967Y016479D03*
X029951Y016479D03*
D38*
X029182Y014795D03*
X027345Y013145D03*
X026535Y013145D03*
X030348Y011237D03*
X033403Y010277D03*
X036206Y010656D03*
X024462Y009390D03*
X022973Y007602D03*
X021539Y005661D03*
X015988Y008276D03*
X017743Y010287D03*
X017791Y013658D03*
X019370Y015353D03*
X010991Y013639D03*
X009164Y013200D03*
X010384Y012621D03*
X007702Y011504D03*
X007440Y010156D03*
X010994Y010094D03*
X009196Y007091D03*
X012007Y006701D03*
D39*
X025993Y007084D02*
X025997Y007079D01*
X025993Y007084D02*
X025993Y007235D01*
X027020Y007079D02*
X027028Y007072D01*
X027028Y006975D01*
X029067Y008549D02*
X029067Y009958D01*
X028816Y009958D02*
X028812Y009958D01*
X028556Y009958D02*
X028556Y010658D01*
X028044Y009958D02*
X028051Y009951D01*
X028051Y009854D01*
X027788Y009958D02*
X027781Y009965D01*
M02*
