G75*
G70*
%OFA0B0*%
%FSLAX24Y24*%
%IPPOS*%
%LPD*%
%AMOC8*
5,1,8,0,0,1.08239X$1,22.5*
%
%ADD10C,0.0591*%
%ADD11C,0.1299*%
%ADD12R,0.0860X0.0860*%
%ADD13OC8,0.0860*%
%ADD14C,0.0860*%
%ADD15C,0.0740*%
%ADD16C,0.0540*%
%ADD17OC8,0.0540*%
%ADD18C,0.0160*%
%ADD19C,0.0525*%
%ADD20C,0.0525*%
D10*
X031550Y002319D03*
X032550Y002319D03*
X033550Y002319D03*
X033550Y008027D03*
X031550Y008027D03*
D11*
X030550Y005272D03*
X034550Y005272D03*
D12*
X004315Y002949D03*
D13*
X005315Y002949D03*
X006315Y002949D03*
X006315Y003949D03*
X005315Y003949D03*
X004315Y003949D03*
D14*
X001800Y003585D03*
X000800Y003585D03*
X000800Y004585D03*
X001800Y004585D03*
X001800Y005585D03*
X000800Y005585D03*
X000800Y006585D03*
X001800Y006585D03*
X001800Y007585D03*
X000800Y007585D03*
X000800Y008585D03*
X001800Y008585D03*
X001800Y009585D03*
X000800Y009585D03*
X000800Y010585D03*
X001800Y010585D03*
X001800Y011585D03*
X000800Y011585D03*
X000800Y012585D03*
X001800Y012585D03*
X001800Y013585D03*
X000800Y013585D03*
X000800Y014585D03*
X001800Y014585D03*
X001800Y015585D03*
X000800Y015585D03*
X000800Y002585D03*
X001800Y002585D03*
D15*
X013833Y002833D03*
X014833Y002833D03*
D16*
X007665Y015697D03*
D17*
X008665Y015697D03*
X009665Y015697D03*
X010665Y015697D03*
X011665Y015697D03*
X012665Y015697D03*
X013665Y015697D03*
X013665Y016697D03*
X012665Y016697D03*
X011665Y016697D03*
X010665Y016697D03*
X009665Y016697D03*
X008665Y016697D03*
X007665Y016697D03*
D18*
X001800Y003585D02*
X003046Y002339D01*
X005315Y002339D01*
X005315Y002949D01*
X005315Y002339D02*
X006595Y002339D01*
X008218Y003961D01*
X008218Y012604D01*
X008218Y013090D01*
X009672Y014545D01*
X014941Y014545D01*
X015562Y015167D01*
X025427Y015167D01*
X030657Y009937D01*
X032364Y009937D01*
X032914Y009388D01*
X032560Y008027D02*
X031104Y009484D01*
X030742Y009484D01*
X025319Y014907D01*
X015670Y014907D01*
X013805Y013041D01*
X008926Y013041D01*
X007684Y013126D02*
X007684Y015678D01*
X008172Y016166D01*
X008840Y016166D01*
X009215Y015791D01*
X009215Y015697D01*
X009665Y015697D01*
X009118Y015245D02*
X008665Y015697D01*
X009118Y015245D02*
X014905Y015245D01*
X015107Y015446D01*
X025917Y015446D01*
X029533Y011831D01*
X026304Y011449D02*
X031550Y006202D01*
X031550Y002319D01*
X032550Y002319D02*
X032550Y007027D01*
X031550Y008027D01*
X032560Y008027D02*
X033550Y008027D01*
X029211Y006345D02*
X026504Y006345D01*
X022499Y010350D01*
X021796Y010410D02*
X024932Y013546D01*
X025188Y013546D01*
X024608Y014111D02*
X019221Y008724D01*
X019221Y005557D01*
X019534Y005021D02*
X021336Y006824D01*
X021871Y006602D02*
X021871Y007046D01*
X021796Y007120D01*
X021796Y010410D01*
X022356Y009435D02*
X029966Y001825D01*
X033056Y001825D01*
X033550Y002319D01*
X021871Y006602D02*
X018102Y002833D01*
X014833Y002833D01*
X016119Y005021D02*
X019534Y005021D01*
X016119Y005021D02*
X013853Y007287D01*
X013853Y008653D01*
X015416Y007888D02*
X016406Y008878D01*
X016687Y008878D01*
X017964Y007601D01*
X016406Y008878D02*
X016406Y011361D01*
X017337Y011475D02*
X017337Y012469D01*
X015847Y013959D01*
X015778Y014647D02*
X024844Y014647D01*
X026304Y013187D01*
X026304Y011449D01*
X015662Y010083D02*
X012279Y010083D01*
X008769Y006574D01*
X007683Y007491D02*
X007683Y004317D01*
X006315Y002949D01*
X006315Y003949D02*
X006315Y004559D01*
X006986Y005230D01*
X006986Y009964D01*
X007172Y010150D01*
X007172Y012613D01*
X007684Y013126D01*
X007149Y013348D02*
X006637Y012835D01*
X006637Y005881D01*
X005315Y004559D01*
X005315Y003949D01*
X004315Y003949D02*
X004315Y004559D01*
X006377Y006621D01*
X006377Y014391D01*
X006183Y014585D01*
X001800Y014585D01*
X005836Y012523D02*
X006117Y012243D01*
X006117Y009774D01*
X003698Y007355D01*
X003698Y003566D01*
X004315Y002949D01*
X010580Y007287D02*
X013853Y007287D01*
X011467Y010335D02*
X008936Y010335D01*
X011467Y010335D02*
X015778Y014647D01*
X007684Y015678D02*
X007665Y015697D01*
X007665Y016247D02*
X007665Y016697D01*
X007665Y016247D02*
X007572Y016247D01*
X006183Y014859D01*
X006183Y014585D01*
X005435Y011307D02*
X004522Y011307D01*
X001800Y008585D01*
X001800Y007585D02*
X003171Y007585D01*
X005581Y009995D01*
D19*
X005581Y009995D03*
X007172Y010150D03*
X008936Y010335D03*
X005435Y011307D03*
X005836Y012523D03*
X007149Y013348D03*
X008218Y012604D03*
X008926Y013041D03*
X015662Y010083D03*
X017337Y011475D03*
X015847Y013959D03*
X022499Y010350D03*
X022356Y009435D03*
X021336Y006824D03*
X019221Y005557D03*
X017964Y007601D03*
X015416Y007888D03*
X013853Y008653D03*
X010580Y007287D03*
X008769Y006574D03*
X007683Y007491D03*
X024608Y014111D03*
X025188Y013546D03*
X029533Y011831D03*
X032914Y009388D03*
X029211Y006345D03*
D20*
X016406Y011361D03*
M02*
