%
M48
M72
T01C0.0350
T02C0.0354
T03C0.0394
T04C0.0400
T05C0.0630
T06C0.0787
T07C0.0866
T08C0.1260
%
T01
X14536Y18273
X16608Y19614
X17698Y18071
X19332Y14706
X22822Y18140
X24337Y17448
X25454Y15357
X21072Y10250
X19685Y21258
X17550Y23036
X16692Y22929
X15280Y24688
X15228Y27440
X16229Y28304
X18420Y26203
X12766Y24519
X11829Y24397
X10757Y24795
X11360Y26203
X12239Y25549
X10391Y27186
X9448Y21795
X9890Y21091
X9879Y20143
X9765Y18697
X7562Y19800
X24691Y21353
T02
X22254Y10853
X20521Y10853
T03
X26327Y9173
X27327Y9173
X28327Y9173
X28327Y14881
X26327Y14881
T04
X18301Y16779
X17301Y16779
X16301Y16779
X15301Y16779
X14301Y16779
X13301Y16779
X12301Y16779
X11301Y16779
X10301Y16779
X9301Y16779
X8301Y16779
X7301Y16779
X6301Y16779
X5301Y16779
X5301Y18079
X5301Y19079
X5301Y20079
X6301Y20079
X6301Y19079
X6301Y18079
X11313Y11397
X11313Y10397
X11041Y32293
X12041Y32293
X13041Y32293
X14041Y32293
X15041Y32293
X16041Y32293
X17041Y32293
X18041Y32293
X18041Y34293
X17041Y34293
X16041Y34293
X15041Y34293
X14041Y34293
X13041Y34293
X12041Y34293
X11041Y34293
X10041Y34293
X9041Y34293
X8041Y34293
X7041Y34293
X6041Y34293
X5041Y34293
X5041Y32293
X6041Y32293
X7041Y32293
X8041Y32293
X9041Y32293
X10041Y32293
T05
X7293Y9364
T06
X7293Y11136
T07
X25327Y12125
X29327Y12125
T08
X30121Y20999
X26301Y29579
X7801Y14579
X5801Y28579
M30
