G75*
G70*
%OFA0B0*%
%FSLAX24Y24*%
%IPPOS*%
%LPD*%
%AMOC8*
5,1,8,0,0,1.08239X$1,22.5*
%
%ADD10C,0.0591*%
%ADD11C,0.1299*%
%ADD12R,0.0860X0.0860*%
%ADD13OC8,0.0860*%
%ADD14C,0.0860*%
%ADD15C,0.0740*%
%ADD16C,0.0540*%
%ADD17OC8,0.0540*%
%ADD18C,0.0160*%
%ADD19C,0.0525*%
D10*
X034100Y001939D03*
X035100Y001939D03*
X036100Y001939D03*
X036100Y007647D03*
X034100Y007647D03*
D11*
X033100Y004892D03*
X037100Y004892D03*
D12*
X006375Y002949D03*
D13*
X007375Y002949D03*
X008375Y002949D03*
X008375Y003949D03*
X007375Y003949D03*
X006375Y003949D03*
D14*
X000860Y002585D03*
X000860Y003585D03*
X000860Y004585D03*
X000860Y005585D03*
X000860Y006585D03*
X000860Y007585D03*
X000860Y008585D03*
X000860Y009585D03*
X000860Y010585D03*
X000860Y011585D03*
X000860Y012585D03*
X000860Y013585D03*
X000860Y014585D03*
X000860Y015585D03*
X003860Y015585D03*
X003860Y014585D03*
X003860Y013585D03*
X003860Y012585D03*
X003860Y011585D03*
X003860Y010585D03*
X003860Y009585D03*
X003860Y008585D03*
X003860Y007585D03*
X003860Y006585D03*
X003860Y005585D03*
X003860Y004585D03*
X003860Y003585D03*
X003860Y002585D03*
D15*
X015893Y002833D03*
X016893Y002833D03*
D16*
X009725Y015697D03*
D17*
X010725Y015697D03*
X011725Y015697D03*
X012725Y015697D03*
X013725Y015697D03*
X014725Y015697D03*
X015725Y015697D03*
X015725Y016697D03*
X014725Y016697D03*
X013725Y016697D03*
X012725Y016697D03*
X011725Y016697D03*
X010725Y016697D03*
X009725Y016697D03*
D18*
X009725Y016247D01*
X009632Y016247D01*
X007990Y014606D01*
X007990Y014585D01*
X003860Y014585D01*
X007990Y014585D02*
X008254Y014321D01*
X008254Y007839D01*
X006375Y005960D01*
X006375Y003949D01*
X007375Y003949D02*
X007375Y006578D01*
X008525Y007729D01*
X008525Y012562D01*
X009164Y013200D01*
X009725Y013005D02*
X009725Y015697D01*
X010176Y016148D01*
X011275Y016148D01*
X011725Y015697D01*
X011175Y015697D02*
X011175Y015585D01*
X011965Y014795D01*
X029182Y014795D01*
X029703Y013978D02*
X018111Y013978D01*
X017791Y013658D01*
X019370Y015353D02*
X018025Y016697D01*
X015725Y016697D01*
X011175Y015697D02*
X010725Y015697D01*
X010835Y014248D02*
X032615Y014248D01*
X036206Y010656D01*
X033403Y010277D02*
X029703Y013978D01*
X029186Y013688D02*
X035227Y007647D01*
X036100Y007647D01*
X034100Y007647D02*
X033938Y007647D01*
X030348Y011237D01*
X027345Y013145D02*
X023804Y009604D01*
X023804Y007157D01*
X019479Y002833D01*
X016893Y002833D01*
X015970Y001939D02*
X010994Y006915D01*
X010994Y010094D01*
X010772Y010629D02*
X010415Y010272D01*
X010415Y003345D01*
X008845Y001775D01*
X006424Y001775D01*
X005635Y002565D01*
X005635Y002810D01*
X003860Y004585D01*
X003860Y003585D02*
X000860Y003585D01*
X006375Y002949D02*
X007278Y002045D01*
X008733Y002045D01*
X010021Y003333D01*
X010021Y010260D01*
X010991Y011230D01*
X010991Y013639D01*
X011507Y013123D01*
X023867Y013123D01*
X024432Y013688D01*
X029186Y013688D01*
X026535Y013145D02*
X023533Y010144D01*
X023533Y007405D01*
X021680Y005551D01*
X021539Y005661D01*
X022973Y007602D02*
X015988Y007602D01*
X012909Y007602D01*
X012007Y006701D01*
X009196Y007091D02*
X009196Y003770D01*
X008375Y002949D01*
X008625Y002333D02*
X007991Y002333D01*
X007375Y002949D01*
X008625Y002333D02*
X009751Y003459D01*
X009751Y011989D01*
X010384Y012621D01*
X010384Y013797D01*
X010835Y014248D01*
X009725Y013005D02*
X008797Y012077D01*
X008797Y007618D01*
X008375Y007196D01*
X008375Y003949D01*
X004869Y007585D02*
X003860Y007585D01*
X004869Y007585D02*
X007440Y010156D01*
X007702Y011504D02*
X004783Y008585D01*
X003860Y008585D01*
X010772Y010629D02*
X017401Y010629D01*
X017743Y010287D01*
X015988Y008276D02*
X015988Y007602D01*
X024462Y009390D02*
X029835Y004016D01*
X034023Y004016D01*
X036100Y001939D01*
X034100Y001939D02*
X015970Y001939D01*
D19*
X021539Y005661D03*
X022973Y007602D03*
X024462Y009390D03*
X030348Y011237D03*
X033403Y010277D03*
X036206Y010656D03*
X029182Y014795D03*
X027345Y013145D03*
X026535Y013145D03*
X019370Y015353D03*
X017791Y013658D03*
X017743Y010287D03*
X015988Y008276D03*
X012007Y006701D03*
X009196Y007091D03*
X010994Y010094D03*
X007702Y011504D03*
X007440Y010156D03*
X010384Y012621D03*
X009164Y013200D03*
X010991Y013639D03*
M02*
