G75*
G70*
%OFA0B0*%
%FSLAX24Y24*%
%IPPOS*%
%LPD*%
%AMOC8*
5,1,8,0,0,1.08239X$1,22.5*
%
%ADD10C,0.0060*%
%ADD11C,0.0030*%
%ADD12C,0.0040*%
%ADD13C,0.0080*%
%ADD14C,0.0050*%
%ADD15C,0.0010*%
%ADD16C,0.0020*%
%ADD17R,0.0200X0.0100*%
%ADD18R,0.0150X0.0050*%
%ADD19R,0.0100X0.0100*%
D10*
X012924Y007601D02*
X012924Y007837D01*
X013396Y007837D02*
X013396Y007601D01*
X013780Y007596D02*
X013780Y007832D01*
X014252Y007832D02*
X014252Y007596D01*
X018142Y006599D02*
X018378Y006599D01*
X018378Y006127D02*
X018142Y006127D01*
X020550Y005149D02*
X021970Y005149D01*
X021970Y003289D02*
X020550Y003289D01*
X016217Y003669D02*
X015790Y003669D01*
X016004Y003456D02*
X016004Y003883D01*
X024613Y007367D02*
X024613Y009670D01*
X028707Y009670D01*
X028707Y007367D01*
X024613Y007367D01*
X024816Y007751D02*
X024818Y007777D01*
X024824Y007803D01*
X024833Y007828D01*
X024846Y007851D01*
X024862Y007872D01*
X024881Y007890D01*
X024903Y007906D01*
X024926Y007918D01*
X024951Y007926D01*
X024977Y007931D01*
X025004Y007932D01*
X025030Y007929D01*
X025055Y007922D01*
X025080Y007912D01*
X025102Y007898D01*
X025123Y007881D01*
X025140Y007862D01*
X025155Y007840D01*
X025166Y007816D01*
X025174Y007790D01*
X025178Y007764D01*
X025178Y007738D01*
X025174Y007712D01*
X025166Y007686D01*
X025155Y007662D01*
X025140Y007640D01*
X025123Y007621D01*
X025102Y007604D01*
X025080Y007590D01*
X025055Y007580D01*
X025030Y007573D01*
X025004Y007570D01*
X024977Y007571D01*
X024951Y007576D01*
X024926Y007584D01*
X024903Y007596D01*
X024881Y007612D01*
X024862Y007630D01*
X024846Y007651D01*
X024833Y007674D01*
X024824Y007699D01*
X024818Y007725D01*
X024816Y007751D01*
X029540Y005509D02*
X029540Y005273D01*
X030013Y005273D02*
X030013Y005509D01*
X030348Y005496D02*
X030348Y005259D01*
X030821Y005259D02*
X030821Y005496D01*
X035434Y008561D02*
X035434Y008797D01*
X035906Y008797D02*
X035906Y008561D01*
X027778Y011683D02*
X027542Y011683D01*
X027542Y012155D02*
X027778Y012155D01*
X026446Y012126D02*
X026210Y012126D01*
X026210Y011653D02*
X026446Y011653D01*
X024696Y011801D02*
X024696Y012037D01*
X024224Y012037D02*
X024224Y011801D01*
X023296Y011801D02*
X023296Y012037D01*
X022824Y012037D02*
X022824Y011801D01*
X016215Y014827D02*
X016215Y015347D01*
X016215Y015947D01*
X016215Y016447D01*
X016215Y017047D01*
X016215Y017577D01*
X015875Y017577D01*
X015225Y017577D01*
X008225Y017577D01*
X007575Y017577D01*
X007225Y017577D01*
X007225Y017047D01*
X007225Y016447D01*
X007225Y015947D01*
X007225Y015347D01*
X007225Y014827D01*
X007575Y014827D01*
X008225Y014827D01*
X015225Y014827D01*
X015875Y014827D01*
X016215Y014827D01*
X015875Y014827D02*
X015875Y015347D01*
X016215Y015347D01*
X016215Y015947D02*
X015875Y015947D01*
X015875Y016447D01*
X016215Y016447D01*
X016215Y017047D02*
X015875Y017047D01*
X015875Y017577D01*
X010550Y017667D02*
X010550Y018108D01*
X010256Y018108D02*
X010550Y017667D01*
X010256Y017667D02*
X010256Y018108D01*
X010089Y018034D02*
X010016Y018108D01*
X009869Y018108D01*
X009796Y018034D01*
X009796Y017741D01*
X009869Y017667D01*
X010016Y017667D01*
X010089Y017741D01*
X010089Y018034D01*
X009629Y018034D02*
X009556Y018108D01*
X009409Y018108D01*
X009335Y018034D01*
X009335Y017741D01*
X009409Y017667D01*
X009556Y017667D01*
X009629Y017741D01*
X009169Y017741D02*
X009095Y017667D01*
X008875Y017667D01*
X008875Y018108D01*
X009095Y018108D01*
X009169Y018034D01*
X009169Y017741D01*
X008708Y017741D02*
X008635Y017667D01*
X008488Y017667D01*
X008415Y017741D01*
X008415Y018034D01*
X008488Y018108D01*
X008635Y018108D01*
X008708Y018034D01*
X008248Y017667D02*
X007954Y017667D01*
X007954Y018108D01*
X007575Y017577D02*
X007575Y017047D01*
X007225Y017047D01*
X007225Y016447D02*
X007575Y016447D01*
X007575Y015947D01*
X007225Y015947D01*
X007805Y015838D02*
X007985Y016018D01*
X007985Y015477D01*
X007805Y015477D02*
X008166Y015477D01*
X008555Y015277D02*
X008725Y014947D01*
X008725Y015047D01*
X008725Y014947D02*
X008895Y015277D01*
X008555Y015277D01*
X007575Y015347D02*
X007575Y014827D01*
X007575Y015347D02*
X007225Y015347D01*
X011580Y012899D02*
X014340Y012899D01*
X014340Y010279D01*
X014200Y010139D01*
X011580Y010139D01*
X011580Y012899D01*
X008496Y011237D02*
X008496Y011001D01*
X008024Y011001D02*
X008024Y011237D01*
X007646Y011237D02*
X007646Y011001D01*
X007174Y011001D02*
X007174Y011237D01*
X013899Y010439D02*
X013901Y010462D01*
X013907Y010485D01*
X013916Y010506D01*
X013929Y010526D01*
X013945Y010543D01*
X013963Y010557D01*
X013983Y010568D01*
X014005Y010576D01*
X014028Y010580D01*
X014052Y010580D01*
X014075Y010576D01*
X014097Y010568D01*
X014117Y010557D01*
X014135Y010543D01*
X014151Y010526D01*
X014164Y010506D01*
X014173Y010485D01*
X014179Y010462D01*
X014181Y010439D01*
X014179Y010416D01*
X014173Y010393D01*
X014164Y010372D01*
X014151Y010352D01*
X014135Y010335D01*
X014117Y010321D01*
X014097Y010310D01*
X014075Y010302D01*
X014052Y010298D01*
X014028Y010298D01*
X014005Y010302D01*
X013983Y010310D01*
X013963Y010321D01*
X013945Y010335D01*
X013929Y010352D01*
X013916Y010372D01*
X013907Y010393D01*
X013901Y010416D01*
X013899Y010439D01*
X024842Y016583D02*
X025078Y016583D01*
X025078Y017055D02*
X024842Y017055D01*
X031690Y014389D02*
X031690Y013749D01*
X032010Y013749D01*
X032117Y013856D01*
X032117Y013962D01*
X032010Y014069D01*
X031690Y014069D01*
X032010Y014069D02*
X032117Y014176D01*
X032117Y014283D01*
X032010Y014389D01*
X031690Y014389D01*
X032335Y014176D02*
X032335Y013856D01*
X032441Y013749D01*
X032762Y013749D01*
X032762Y014176D01*
X032979Y014176D02*
X033406Y014176D01*
X032979Y013749D01*
X033406Y013749D01*
X033624Y013749D02*
X034051Y013749D01*
X034268Y013856D02*
X034268Y014069D01*
X034375Y014176D01*
X034588Y014176D01*
X034695Y014069D01*
X034695Y013962D01*
X034268Y013962D01*
X034268Y013856D02*
X034375Y013749D01*
X034588Y013749D01*
X034913Y013749D02*
X034913Y014176D01*
X035126Y014176D02*
X035233Y014176D01*
X035126Y014176D02*
X034913Y013962D01*
X034051Y014176D02*
X033624Y013749D01*
X033624Y014176D02*
X034051Y014176D01*
D11*
X027863Y012501D02*
X027863Y012307D01*
X027815Y012259D01*
X027718Y012259D01*
X027670Y012307D01*
X027568Y012307D02*
X027520Y012259D01*
X027423Y012259D01*
X027375Y012307D01*
X027375Y012501D01*
X027423Y012549D01*
X027520Y012549D01*
X027568Y012501D01*
X027670Y012501D02*
X027670Y012452D01*
X027718Y012404D01*
X027863Y012404D01*
X027863Y012501D02*
X027815Y012549D01*
X027718Y012549D01*
X027670Y012501D01*
X026591Y012309D02*
X026398Y012309D01*
X026495Y012309D02*
X026495Y012600D01*
X026398Y012503D01*
X026297Y012551D02*
X026248Y012600D01*
X026152Y012600D01*
X026103Y012551D01*
X026103Y012358D01*
X026152Y012309D01*
X026248Y012309D01*
X026297Y012358D01*
X024151Y012113D02*
X024151Y012017D01*
X024103Y011968D01*
X024054Y011968D01*
X024006Y012017D01*
X024006Y012113D01*
X024054Y012162D01*
X024103Y012162D01*
X024151Y012113D01*
X024006Y012113D02*
X023958Y012162D01*
X023909Y012162D01*
X023861Y012113D01*
X023861Y012017D01*
X023909Y011968D01*
X023958Y011968D01*
X024006Y012017D01*
X024103Y011867D02*
X024151Y011819D01*
X024151Y011722D01*
X024103Y011673D01*
X023909Y011673D01*
X023861Y011722D01*
X023861Y011819D01*
X023909Y011867D01*
X022720Y011928D02*
X022672Y011928D01*
X022478Y012122D01*
X022430Y012122D01*
X022430Y011928D01*
X022478Y011827D02*
X022430Y011779D01*
X022430Y011682D01*
X022478Y011634D01*
X022672Y011634D01*
X022720Y011682D01*
X022720Y011779D01*
X022672Y011827D01*
X026475Y009424D02*
X026475Y009182D01*
X026523Y009134D01*
X026620Y009134D01*
X026668Y009182D01*
X026668Y009424D01*
X026770Y009327D02*
X026866Y009424D01*
X026866Y009134D01*
X026770Y009134D02*
X026963Y009134D01*
X031175Y009334D02*
X031175Y009624D01*
X031320Y009624D01*
X031368Y009576D01*
X031368Y009479D01*
X031320Y009431D01*
X031175Y009431D01*
X031272Y009431D02*
X031368Y009334D01*
X031470Y009479D02*
X031663Y009479D01*
X031615Y009624D02*
X031470Y009479D01*
X031615Y009334D02*
X031615Y009624D01*
X034695Y009612D02*
X034695Y009418D01*
X034985Y009418D01*
X034985Y009612D01*
X034985Y009713D02*
X034695Y009713D01*
X034695Y009858D01*
X034743Y009907D01*
X034937Y009907D01*
X034985Y009858D01*
X034985Y009713D01*
X034840Y009515D02*
X034840Y009418D01*
X034985Y009317D02*
X034985Y009124D01*
X034695Y009124D01*
X035040Y008834D02*
X035088Y008882D01*
X035137Y008882D01*
X035330Y008688D01*
X035330Y008882D01*
X035040Y008834D02*
X035040Y008737D01*
X035088Y008688D01*
X035088Y008587D02*
X035185Y008587D01*
X035233Y008539D01*
X035233Y008394D01*
X035233Y008491D02*
X035330Y008587D01*
X035330Y008394D02*
X035040Y008394D01*
X035040Y008539D01*
X035088Y008587D01*
X034985Y010008D02*
X034792Y010201D01*
X034743Y010201D01*
X034695Y010153D01*
X034695Y010056D01*
X034743Y010008D01*
X034985Y010008D02*
X034985Y010201D01*
X029436Y005346D02*
X029388Y005394D01*
X029340Y005394D01*
X029291Y005346D01*
X029291Y005200D01*
X029388Y005200D01*
X029436Y005249D01*
X029436Y005346D01*
X029291Y005200D02*
X029194Y005297D01*
X029146Y005394D01*
X029194Y005099D02*
X029146Y005051D01*
X029146Y004954D01*
X029194Y004906D01*
X029388Y004906D01*
X029436Y004954D01*
X029436Y005051D01*
X029388Y005099D01*
X030429Y004756D02*
X030429Y004562D01*
X030720Y004562D01*
X030720Y004756D01*
X030575Y004659D02*
X030575Y004562D01*
X030429Y004461D02*
X030429Y004268D01*
X030429Y004364D02*
X030720Y004364D01*
X030720Y004168D02*
X030720Y004071D01*
X030720Y004120D02*
X030429Y004120D01*
X030429Y004168D02*
X030429Y004071D01*
X030478Y003970D02*
X030575Y003970D01*
X030623Y003922D01*
X030623Y003777D01*
X030623Y003873D02*
X030720Y003970D01*
X030720Y003777D02*
X030429Y003777D01*
X030429Y003922D01*
X030478Y003970D01*
X030478Y003675D02*
X030575Y003675D01*
X030623Y003627D01*
X030623Y003482D01*
X030623Y003579D02*
X030720Y003675D01*
X030720Y003482D02*
X030429Y003482D01*
X030429Y003627D01*
X030478Y003675D01*
X030429Y003381D02*
X030429Y003187D01*
X030720Y003187D01*
X030720Y003381D01*
X030575Y003284D02*
X030575Y003187D01*
X030429Y003086D02*
X030429Y002893D01*
X030720Y002893D01*
X030575Y002893D02*
X030575Y002989D01*
X027542Y002776D02*
X027542Y002582D01*
X027493Y002534D01*
X027348Y002534D01*
X027348Y002824D01*
X027493Y002824D01*
X027542Y002776D01*
X027247Y002824D02*
X027247Y002534D01*
X027054Y002534D02*
X027054Y002824D01*
X027150Y002727D01*
X027247Y002824D01*
X026952Y002776D02*
X026904Y002824D01*
X026807Y002824D01*
X026759Y002776D01*
X026759Y002727D01*
X026807Y002679D01*
X026904Y002679D01*
X026952Y002631D01*
X026952Y002582D01*
X026904Y002534D01*
X026807Y002534D01*
X026759Y002582D01*
X026658Y002582D02*
X026658Y002631D01*
X026609Y002679D01*
X026464Y002679D01*
X026363Y002631D02*
X026363Y002582D01*
X026315Y002534D01*
X026218Y002534D01*
X026170Y002582D01*
X026068Y002582D02*
X026068Y002824D01*
X026170Y002776D02*
X026218Y002824D01*
X026315Y002824D01*
X026363Y002776D01*
X026315Y002679D02*
X026363Y002631D01*
X026315Y002679D02*
X026218Y002679D01*
X026170Y002727D01*
X026170Y002776D01*
X026068Y002582D02*
X026020Y002534D01*
X025923Y002534D01*
X025875Y002582D01*
X025875Y002824D01*
X026464Y002824D02*
X026464Y002534D01*
X026609Y002534D01*
X026658Y002582D01*
X026609Y002679D02*
X026658Y002727D01*
X026658Y002776D01*
X026609Y002824D01*
X026464Y002824D01*
X018463Y006703D02*
X018270Y006703D01*
X018463Y006897D01*
X018463Y006945D01*
X018415Y006993D01*
X018318Y006993D01*
X018270Y006945D01*
X018168Y006703D02*
X017975Y006703D01*
X017975Y006993D01*
X020955Y007982D02*
X021003Y007934D01*
X021197Y007934D01*
X021245Y007982D01*
X021245Y008079D01*
X021197Y008127D01*
X021197Y008228D02*
X021245Y008277D01*
X021245Y008374D01*
X021197Y008422D01*
X021100Y008422D01*
X021052Y008374D01*
X021052Y008325D01*
X021100Y008228D01*
X020955Y008228D01*
X020955Y008422D01*
X021003Y008127D02*
X020955Y008079D01*
X020955Y007982D01*
X021955Y008031D02*
X022245Y008031D01*
X022245Y008127D02*
X022245Y007934D01*
X022052Y007934D02*
X021955Y008031D01*
X022003Y008228D02*
X021955Y008277D01*
X021955Y008374D01*
X022003Y008422D01*
X022052Y008422D01*
X022245Y008228D01*
X022245Y008422D01*
X022197Y008523D02*
X022003Y008717D01*
X022197Y008717D01*
X022245Y008668D01*
X022245Y008571D01*
X022197Y008523D01*
X022003Y008523D01*
X021955Y008571D01*
X021955Y008668D01*
X022003Y008717D01*
X022052Y008818D02*
X022197Y008818D01*
X022245Y008866D01*
X022245Y009011D01*
X022052Y009011D01*
X022100Y009112D02*
X022100Y009209D01*
X022003Y009161D02*
X021955Y009209D01*
X022003Y009161D02*
X022245Y009161D01*
X015945Y012131D02*
X015800Y012131D01*
X015703Y012227D01*
X015655Y012227D01*
X015752Y012328D02*
X015655Y012425D01*
X015945Y012425D01*
X015945Y012328D02*
X015945Y012522D01*
X015800Y012131D02*
X015703Y012034D01*
X015655Y012034D01*
X014224Y012462D02*
X014175Y012414D01*
X014079Y012414D01*
X014030Y012462D01*
X014030Y012511D01*
X014079Y012559D01*
X014175Y012559D01*
X014224Y012511D01*
X014224Y012462D01*
X014175Y012559D02*
X014224Y012607D01*
X014224Y012656D01*
X014175Y012704D01*
X014079Y012704D01*
X014030Y012656D01*
X014030Y012607D01*
X014079Y012559D01*
X013929Y012704D02*
X013736Y012414D01*
X013635Y012414D02*
X013441Y012704D01*
X013340Y012607D02*
X013340Y012414D01*
X013441Y012414D02*
X013635Y012704D01*
X013736Y012704D02*
X013929Y012414D01*
X013340Y012559D02*
X013146Y012559D01*
X013146Y012607D02*
X013243Y012704D01*
X013340Y012607D01*
X013146Y012607D02*
X013146Y012414D01*
X013045Y012462D02*
X012997Y012414D01*
X012900Y012414D01*
X012852Y012462D01*
X012852Y012656D01*
X012900Y012704D01*
X012997Y012704D01*
X013045Y012656D01*
X013045Y012559D02*
X012948Y012559D01*
X013045Y012559D02*
X013045Y012462D01*
X012751Y012414D02*
X012557Y012414D01*
X012557Y012704D01*
X012751Y012704D01*
X012654Y012559D02*
X012557Y012559D01*
X012456Y012704D02*
X012359Y012607D01*
X012262Y012704D01*
X012262Y012414D01*
X012456Y012414D02*
X012456Y012704D01*
X012161Y012704D02*
X011968Y012704D01*
X012065Y012704D02*
X012065Y012414D01*
X011867Y012414D02*
X011867Y012607D01*
X011770Y012704D01*
X011673Y012607D01*
X011673Y012414D01*
X011673Y012559D02*
X011867Y012559D01*
X008921Y011357D02*
X008921Y011261D01*
X008873Y011212D01*
X008873Y011111D02*
X008921Y011063D01*
X008921Y010966D01*
X008873Y010917D01*
X008679Y010917D01*
X008631Y010966D01*
X008631Y011063D01*
X008679Y011111D01*
X008679Y011212D02*
X008631Y011261D01*
X008631Y011357D01*
X008679Y011406D01*
X008728Y011406D01*
X008776Y011357D01*
X008824Y011406D01*
X008873Y011406D01*
X008921Y011357D01*
X008776Y011357D02*
X008776Y011309D01*
X007488Y010436D02*
X007488Y010242D01*
X007488Y010339D02*
X007198Y010339D01*
X007295Y010242D01*
X007488Y010141D02*
X007488Y009948D01*
X007198Y009948D01*
X004451Y009893D02*
X004258Y009893D01*
X004258Y009748D01*
X004354Y009796D01*
X004403Y009796D01*
X004451Y009748D01*
X004451Y009651D01*
X004403Y009603D01*
X004306Y009603D01*
X004258Y009651D01*
X004156Y009603D02*
X004156Y009796D01*
X004060Y009893D01*
X003963Y009796D01*
X003963Y009603D01*
X003963Y009748D02*
X004156Y009748D01*
X004156Y010503D02*
X004156Y010696D01*
X004060Y010793D01*
X003963Y010696D01*
X003963Y010503D01*
X003963Y010648D02*
X004156Y010648D01*
X004258Y010648D02*
X004451Y010648D01*
X004403Y010503D02*
X004403Y010793D01*
X004258Y010648D01*
X004306Y011503D02*
X004258Y011551D01*
X004306Y011503D02*
X004403Y011503D01*
X004451Y011551D01*
X004451Y011600D01*
X004403Y011648D01*
X004354Y011648D01*
X004403Y011648D02*
X004451Y011696D01*
X004451Y011745D01*
X004403Y011793D01*
X004306Y011793D01*
X004258Y011745D01*
X004156Y011696D02*
X004156Y011503D01*
X004156Y011648D02*
X003963Y011648D01*
X003963Y011696D02*
X004060Y011793D01*
X004156Y011696D01*
X003963Y011696D02*
X003963Y011503D01*
X003963Y012503D02*
X003963Y012696D01*
X004060Y012793D01*
X004156Y012696D01*
X004156Y012503D01*
X004258Y012503D02*
X004451Y012696D01*
X004451Y012745D01*
X004403Y012793D01*
X004306Y012793D01*
X004258Y012745D01*
X004156Y012648D02*
X003963Y012648D01*
X004258Y012503D02*
X004451Y012503D01*
X004451Y013603D02*
X004258Y013603D01*
X004354Y013603D02*
X004354Y013893D01*
X004258Y013796D01*
X004156Y013796D02*
X004156Y013603D01*
X004156Y013748D02*
X003963Y013748D01*
X003963Y013796D02*
X004060Y013893D01*
X004156Y013796D01*
X003963Y013796D02*
X003963Y013603D01*
X004111Y014503D02*
X004063Y014551D01*
X004111Y014503D02*
X004208Y014503D01*
X004256Y014551D01*
X004256Y014648D01*
X004208Y014696D01*
X004160Y014696D01*
X004063Y014648D01*
X004063Y014793D01*
X004256Y014793D01*
X004358Y014696D02*
X004454Y014503D01*
X004551Y014696D01*
X004552Y015503D02*
X004697Y015503D01*
X004746Y015551D01*
X004746Y015745D01*
X004697Y015793D01*
X004552Y015793D01*
X004552Y015503D01*
X004451Y015503D02*
X004451Y015793D01*
X004258Y015793D02*
X004258Y015503D01*
X004156Y015551D02*
X004156Y015648D01*
X004060Y015648D01*
X004156Y015745D02*
X004108Y015793D01*
X004011Y015793D01*
X003963Y015745D01*
X003963Y015551D01*
X004011Y015503D01*
X004108Y015503D01*
X004156Y015551D01*
X004258Y015793D02*
X004451Y015503D01*
X004451Y008893D02*
X004354Y008845D01*
X004258Y008748D01*
X004403Y008748D01*
X004451Y008700D01*
X004451Y008651D01*
X004403Y008603D01*
X004306Y008603D01*
X004258Y008651D01*
X004258Y008748D01*
X004156Y008748D02*
X003963Y008748D01*
X003963Y008796D02*
X004060Y008893D01*
X004156Y008796D01*
X004156Y008603D01*
X003963Y008603D02*
X003963Y008796D01*
X004060Y007893D02*
X004156Y007796D01*
X004156Y007603D01*
X004258Y007603D02*
X004258Y007651D01*
X004451Y007845D01*
X004451Y007893D01*
X004258Y007893D01*
X004156Y007748D02*
X003963Y007748D01*
X003963Y007796D02*
X004060Y007893D01*
X003963Y007796D02*
X003963Y007603D01*
X003963Y006793D02*
X004108Y006793D01*
X004156Y006745D01*
X004156Y006551D01*
X004108Y006503D01*
X003963Y006503D01*
X003963Y006793D01*
X004258Y006745D02*
X004258Y006551D01*
X004451Y006745D01*
X004451Y006551D01*
X004403Y006503D01*
X004306Y006503D01*
X004258Y006551D01*
X004258Y006745D02*
X004306Y006793D01*
X004403Y006793D01*
X004451Y006745D01*
X004552Y006503D02*
X004746Y006793D01*
X004847Y006793D02*
X004847Y006503D01*
X004847Y006600D02*
X004992Y006600D01*
X005040Y006648D01*
X005040Y006745D01*
X004992Y006793D01*
X004847Y006793D01*
X004944Y006600D02*
X005040Y006503D01*
X005142Y006503D02*
X005335Y006793D01*
X005142Y006793D02*
X005335Y006503D01*
X005335Y005793D02*
X005142Y005503D01*
X005335Y005503D02*
X005142Y005793D01*
X005040Y005793D02*
X004847Y005793D01*
X004944Y005793D02*
X004944Y005503D01*
X004746Y005793D02*
X004552Y005503D01*
X004451Y005503D02*
X004258Y005503D01*
X004354Y005503D02*
X004354Y005793D01*
X004258Y005696D01*
X004156Y005745D02*
X004108Y005793D01*
X003963Y005793D01*
X003963Y005503D01*
X004108Y005503D01*
X004156Y005551D01*
X004156Y005745D01*
X004108Y004893D02*
X003963Y004893D01*
X003963Y004603D01*
X004108Y004603D01*
X004156Y004651D01*
X004156Y004845D01*
X004108Y004893D01*
X004258Y004845D02*
X004306Y004893D01*
X004403Y004893D01*
X004451Y004845D01*
X004451Y004796D01*
X004403Y004748D01*
X004451Y004700D01*
X004451Y004651D01*
X004403Y004603D01*
X004306Y004603D01*
X004258Y004651D01*
X004354Y004748D02*
X004403Y004748D01*
X004847Y004796D02*
X004944Y004893D01*
X005043Y004893D02*
X005189Y004893D01*
X005237Y004845D01*
X005237Y004748D01*
X005189Y004700D01*
X005043Y004700D01*
X005043Y004603D02*
X005043Y004893D01*
X004847Y004796D02*
X004847Y004700D01*
X004944Y004603D01*
X005338Y004603D02*
X005435Y004700D01*
X005532Y004603D01*
X005532Y004893D01*
X005633Y004893D02*
X005729Y004796D01*
X005826Y004893D01*
X005826Y004603D01*
X005927Y004603D02*
X006024Y004700D01*
X006024Y004796D01*
X005927Y004893D01*
X005633Y004893D02*
X005633Y004603D01*
X005338Y004603D02*
X005338Y004893D01*
X004697Y003893D02*
X004746Y003845D01*
X004746Y003796D01*
X004697Y003748D01*
X004746Y003700D01*
X004746Y003651D01*
X004697Y003603D01*
X004601Y003603D01*
X004552Y003651D01*
X004451Y003603D02*
X004258Y003603D01*
X004354Y003603D02*
X004354Y003893D01*
X004258Y003796D01*
X004156Y003845D02*
X004156Y003651D01*
X004108Y003603D01*
X003963Y003603D01*
X003963Y003893D01*
X004108Y003893D01*
X004156Y003845D01*
X004552Y003845D02*
X004601Y003893D01*
X004697Y003893D01*
X004697Y003748D02*
X004649Y003748D01*
X004601Y002393D02*
X004552Y002345D01*
X004552Y002296D01*
X004601Y002248D01*
X004697Y002248D01*
X004746Y002200D01*
X004746Y002151D01*
X004697Y002103D01*
X004601Y002103D01*
X004552Y002151D01*
X004451Y002103D02*
X004258Y002103D01*
X004258Y002393D01*
X004451Y002393D01*
X004601Y002393D02*
X004697Y002393D01*
X004746Y002345D01*
X004847Y002393D02*
X004847Y002103D01*
X005040Y002103D01*
X004944Y002248D02*
X004847Y002248D01*
X004847Y002393D02*
X005040Y002393D01*
X005142Y002393D02*
X005335Y002393D01*
X005238Y002393D02*
X005238Y002103D01*
X004354Y002248D02*
X004258Y002248D01*
X004156Y002248D02*
X004108Y002200D01*
X003963Y002200D01*
X004060Y002200D02*
X004156Y002103D01*
X004156Y002248D02*
X004156Y002345D01*
X004108Y002393D01*
X003963Y002393D01*
X003963Y002103D01*
X012166Y007664D02*
X012166Y007954D01*
X012311Y007954D01*
X012359Y007906D01*
X012359Y007809D01*
X012311Y007761D01*
X012166Y007761D01*
X012262Y007761D02*
X012359Y007664D01*
X012460Y007664D02*
X012654Y007664D01*
X012557Y007664D02*
X012557Y007954D01*
X012460Y007857D01*
X013772Y008402D02*
X013820Y008354D01*
X013917Y008354D01*
X013965Y008402D01*
X014066Y008354D02*
X014260Y008547D01*
X014260Y008596D01*
X014211Y008644D01*
X014115Y008644D01*
X014066Y008596D01*
X013965Y008596D02*
X013917Y008644D01*
X013820Y008644D01*
X013772Y008596D01*
X013772Y008402D01*
X014066Y008354D02*
X014260Y008354D01*
X023875Y016759D02*
X023875Y017049D01*
X024020Y017049D01*
X024068Y017001D01*
X024068Y016904D01*
X024020Y016856D01*
X023875Y016856D01*
X023972Y016856D02*
X024068Y016759D01*
X024170Y016807D02*
X024218Y016759D01*
X024315Y016759D01*
X024363Y016807D01*
X024363Y016856D01*
X024315Y016904D01*
X024266Y016904D01*
X024315Y016904D02*
X024363Y016952D01*
X024363Y017001D01*
X024315Y017049D01*
X024218Y017049D01*
X024170Y017001D01*
X024216Y017734D02*
X024361Y017734D01*
X024409Y017782D01*
X024409Y017976D01*
X024361Y018024D01*
X024216Y018024D01*
X024216Y017734D01*
X024115Y017734D02*
X023921Y017734D01*
X023921Y018024D01*
X024115Y018024D01*
X024018Y017879D02*
X023921Y017879D01*
X023820Y017734D02*
X023626Y017734D01*
X023626Y018024D01*
X024510Y017927D02*
X024607Y018024D01*
X024607Y017734D01*
X024510Y017734D02*
X024704Y017734D01*
D12*
X024830Y012358D02*
X024863Y012325D01*
X025030Y012325D01*
X024930Y012291D02*
X024930Y012358D01*
X024897Y012204D02*
X025030Y012204D01*
X025030Y012104D01*
X024997Y012070D01*
X024897Y012070D01*
X024863Y011983D02*
X024830Y011983D01*
X024830Y011849D01*
X024863Y011983D02*
X024997Y011849D01*
X025030Y011849D01*
X025030Y011772D02*
X025030Y011739D01*
X024997Y011739D01*
X024997Y011772D01*
X025030Y011772D01*
X025030Y011618D02*
X024830Y011618D01*
X024930Y011518D01*
X024930Y011651D01*
X025753Y011386D02*
X025787Y011420D01*
X025853Y011420D01*
X025887Y011386D01*
X025753Y011253D01*
X025787Y011219D01*
X025853Y011219D01*
X025887Y011253D01*
X025887Y011386D01*
X025753Y011386D02*
X025753Y011253D01*
X025974Y011253D02*
X025974Y011219D01*
X026008Y011219D01*
X026008Y011253D01*
X025974Y011253D01*
X026085Y011219D02*
X026218Y011219D01*
X026151Y011219D02*
X026151Y011420D01*
X026085Y011353D01*
X026306Y011353D02*
X026306Y011253D01*
X026339Y011219D01*
X026439Y011219D01*
X026439Y011353D01*
X026527Y011319D02*
X026593Y011319D01*
X026527Y011219D02*
X026527Y011420D01*
X026660Y011420D01*
X027280Y011422D02*
X027413Y011556D01*
X027413Y011422D01*
X027380Y011389D01*
X027313Y011389D01*
X027280Y011422D01*
X027280Y011556D01*
X027313Y011589D01*
X027380Y011589D01*
X027413Y011556D01*
X027501Y011422D02*
X027534Y011422D01*
X027534Y011389D01*
X027501Y011389D01*
X027501Y011422D01*
X027611Y011389D02*
X027745Y011389D01*
X027678Y011389D02*
X027678Y011589D01*
X027611Y011522D01*
X027832Y011522D02*
X027832Y011422D01*
X027866Y011389D01*
X027966Y011389D01*
X027966Y011522D01*
X028053Y011489D02*
X028120Y011489D01*
X028087Y011556D02*
X028120Y011589D01*
X028087Y011556D02*
X028087Y011389D01*
X030540Y010354D02*
X030540Y010254D01*
X030740Y010254D01*
X030740Y010354D01*
X030707Y010387D01*
X030573Y010387D01*
X030540Y010354D01*
X030540Y010166D02*
X030740Y010166D01*
X030740Y010033D02*
X030540Y010033D01*
X030607Y010100D01*
X030540Y010166D01*
X030573Y009945D02*
X030540Y009912D01*
X030540Y009845D01*
X030573Y009812D01*
X030607Y009812D01*
X030640Y009845D01*
X030640Y009912D01*
X030673Y009945D01*
X030707Y009945D01*
X030740Y009912D01*
X030740Y009845D01*
X030707Y009812D01*
X030740Y009658D02*
X030540Y009658D01*
X030540Y009724D02*
X030540Y009591D01*
X030573Y009504D02*
X030540Y009470D01*
X030540Y009403D01*
X030573Y009370D01*
X030707Y009370D01*
X030740Y009403D01*
X030740Y009470D01*
X030707Y009504D01*
X030573Y009504D01*
X030573Y009283D02*
X030640Y009283D01*
X030673Y009249D01*
X030673Y009149D01*
X030740Y009149D02*
X030540Y009149D01*
X030540Y009249D01*
X030573Y009283D01*
X030540Y009062D02*
X030740Y009062D01*
X030740Y008928D02*
X030540Y008928D01*
X030607Y008995D01*
X030540Y009062D01*
X030540Y008847D02*
X030540Y008781D01*
X030540Y008814D02*
X030740Y008814D01*
X030740Y008781D02*
X030740Y008847D01*
X030740Y008693D02*
X030673Y008626D01*
X030673Y008660D02*
X030673Y008560D01*
X030740Y008560D02*
X030540Y008560D01*
X030540Y008660D01*
X030573Y008693D01*
X030640Y008693D01*
X030673Y008660D01*
X030540Y008472D02*
X030540Y008339D01*
X030540Y008406D02*
X030740Y008406D01*
X029706Y007039D02*
X029540Y007039D01*
X029506Y007072D01*
X029606Y007072D02*
X029606Y007005D01*
X029573Y006918D02*
X029706Y006918D01*
X029706Y006818D01*
X029673Y006784D01*
X029573Y006784D01*
X029706Y006697D02*
X029706Y006563D01*
X029706Y006630D02*
X029506Y006630D01*
X029573Y006563D01*
X029540Y006476D02*
X029673Y006342D01*
X029706Y006376D01*
X029706Y006442D01*
X029673Y006476D01*
X029540Y006476D01*
X029506Y006442D01*
X029506Y006376D01*
X029540Y006342D01*
X029673Y006342D01*
X029673Y006265D02*
X029706Y006265D01*
X029706Y006232D01*
X029673Y006232D01*
X029673Y006265D01*
X029673Y006144D02*
X029540Y006144D01*
X029673Y006011D01*
X029706Y006044D01*
X029706Y006111D01*
X029673Y006144D01*
X029776Y006161D02*
X029776Y006468D01*
X029540Y006144D02*
X029506Y006111D01*
X029506Y006044D01*
X029540Y006011D01*
X029673Y006011D01*
X029776Y004718D02*
X029776Y004411D01*
X029623Y004564D02*
X029930Y004564D01*
X033120Y002652D02*
X033273Y002805D01*
X033580Y002805D01*
X033350Y002805D02*
X033350Y002498D01*
X033273Y002498D02*
X033120Y002652D01*
X033273Y002498D02*
X033580Y002498D01*
X034120Y002575D02*
X034196Y002498D01*
X034503Y002498D01*
X034580Y002575D01*
X034580Y002729D01*
X034503Y002805D01*
X034196Y002805D02*
X034120Y002729D01*
X034120Y002575D01*
X035120Y002498D02*
X035120Y002729D01*
X035196Y002805D01*
X035273Y002805D01*
X035350Y002729D01*
X035350Y002498D01*
X035580Y002498D02*
X035580Y002729D01*
X035503Y002805D01*
X035427Y002805D01*
X035350Y002729D01*
X035580Y002498D02*
X035120Y002498D01*
X035120Y006498D02*
X035580Y006498D01*
X035580Y006805D01*
X035350Y006652D02*
X035350Y006498D01*
X035120Y006498D02*
X035120Y006805D01*
X033580Y006498D02*
X033120Y006498D01*
X033120Y006805D01*
X033350Y006652D02*
X033350Y006498D01*
X028223Y008139D02*
X028190Y008106D01*
X028090Y008106D01*
X028090Y008039D02*
X028090Y008239D01*
X028190Y008239D01*
X028223Y008206D01*
X028223Y008139D01*
X028002Y008206D02*
X027969Y008239D01*
X027902Y008239D01*
X027869Y008206D01*
X027869Y008072D01*
X027902Y008039D01*
X027969Y008039D01*
X028002Y008072D01*
X028002Y008206D01*
X027781Y008206D02*
X027748Y008239D01*
X027681Y008239D01*
X027648Y008206D01*
X027648Y008172D01*
X027681Y008139D01*
X027748Y008139D01*
X027781Y008106D01*
X027781Y008072D01*
X027748Y008039D01*
X027681Y008039D01*
X027648Y008072D01*
X027560Y008072D02*
X027527Y008039D01*
X027460Y008039D01*
X027427Y008072D01*
X027460Y008139D02*
X027527Y008139D01*
X027560Y008106D01*
X027560Y008072D01*
X027460Y008139D02*
X027427Y008172D01*
X027427Y008206D01*
X027460Y008239D01*
X027527Y008239D01*
X027560Y008206D01*
X027339Y008039D02*
X027206Y008039D01*
X027206Y008239D01*
X027118Y008206D02*
X027085Y008239D01*
X026985Y008239D01*
X026985Y008039D01*
X026985Y008106D02*
X027085Y008106D01*
X027118Y008139D01*
X027118Y008206D01*
X027052Y008106D02*
X027118Y008039D01*
X026897Y008039D02*
X026764Y008039D01*
X026897Y008172D01*
X026897Y008206D01*
X026864Y008239D01*
X026797Y008239D01*
X026764Y008206D01*
X026676Y008206D02*
X026643Y008239D01*
X026576Y008239D01*
X026543Y008206D01*
X026455Y008206D02*
X026422Y008239D01*
X026355Y008239D01*
X026322Y008206D01*
X026234Y008239D02*
X026101Y008239D01*
X026168Y008239D02*
X026168Y008039D01*
X026322Y008039D02*
X026455Y008172D01*
X026455Y008206D01*
X026543Y008072D02*
X026576Y008039D01*
X026643Y008039D01*
X026676Y008072D01*
X026676Y008106D01*
X026643Y008139D01*
X026610Y008139D01*
X026643Y008139D02*
X026676Y008172D01*
X026676Y008206D01*
X026455Y008039D02*
X026322Y008039D01*
X026013Y008239D02*
X025880Y008239D01*
X025880Y008039D01*
X025880Y008139D02*
X025947Y008139D01*
X023557Y011539D02*
X023423Y011672D01*
X023557Y011672D01*
X023590Y011639D01*
X023590Y011572D01*
X023557Y011539D01*
X023423Y011539D01*
X023390Y011572D01*
X023390Y011639D01*
X023423Y011672D01*
X023557Y011760D02*
X023557Y011793D01*
X023590Y011793D01*
X023590Y011760D01*
X023557Y011760D01*
X023590Y011870D02*
X023590Y012004D01*
X023590Y011937D02*
X023390Y011937D01*
X023457Y011870D01*
X023457Y012091D02*
X023557Y012091D01*
X023590Y012125D01*
X023590Y012225D01*
X023457Y012225D01*
X023490Y012312D02*
X023490Y012379D01*
X023423Y012346D02*
X023390Y012379D01*
X023423Y012346D02*
X023590Y012346D01*
X015332Y007483D02*
X015198Y007483D01*
X015198Y007283D01*
X015111Y007283D02*
X015111Y007416D01*
X015198Y007383D02*
X015265Y007383D01*
X015111Y007283D02*
X015011Y007283D01*
X014977Y007316D01*
X014977Y007416D01*
X014890Y007283D02*
X014756Y007283D01*
X014823Y007283D02*
X014823Y007483D01*
X014756Y007416D01*
X014679Y007316D02*
X014679Y007283D01*
X014646Y007283D01*
X014646Y007316D01*
X014679Y007316D01*
X014558Y007316D02*
X014525Y007283D01*
X014458Y007283D01*
X014425Y007316D01*
X014558Y007450D01*
X014558Y007316D01*
X014425Y007316D02*
X014425Y007450D01*
X014458Y007483D01*
X014525Y007483D01*
X014558Y007450D01*
X012742Y007399D02*
X012609Y007266D01*
X012642Y007299D02*
X012742Y007199D01*
X012609Y007199D02*
X012609Y007399D01*
X012521Y007366D02*
X012388Y007232D01*
X012421Y007199D01*
X012488Y007199D01*
X012521Y007232D01*
X012521Y007366D01*
X012488Y007399D01*
X012421Y007399D01*
X012388Y007366D01*
X012388Y007232D01*
X012300Y007199D02*
X012167Y007199D01*
X012234Y007199D02*
X012234Y007399D01*
X012167Y007332D01*
X010208Y005768D02*
X010131Y005845D01*
X009824Y005845D01*
X009748Y005768D01*
X009748Y005538D01*
X010208Y005538D01*
X010208Y005768D01*
X010208Y005384D02*
X009748Y005384D01*
X009901Y005231D01*
X009748Y005077D01*
X010208Y005077D01*
X010131Y004924D02*
X010208Y004847D01*
X010208Y004694D01*
X010131Y004617D01*
X009978Y004694D02*
X009978Y004847D01*
X010055Y004924D01*
X010131Y004924D01*
X009978Y004694D02*
X009901Y004617D01*
X009824Y004617D01*
X009748Y004694D01*
X009748Y004847D01*
X009824Y004924D01*
X009748Y004464D02*
X010055Y004157D01*
X009978Y004233D02*
X010208Y004464D01*
X010208Y004157D02*
X009748Y004157D01*
X009824Y004003D02*
X009748Y003926D01*
X009748Y003773D01*
X009824Y003696D01*
X010131Y003696D01*
X010208Y003773D01*
X010208Y003926D01*
X010131Y004003D01*
X010208Y003543D02*
X009901Y003543D01*
X009748Y003389D01*
X009901Y003236D01*
X010208Y003236D01*
X009978Y003236D02*
X009978Y003543D01*
X009748Y003082D02*
X009748Y002929D01*
X009748Y003006D02*
X010131Y003006D01*
X010208Y002929D01*
X010208Y002852D01*
X010131Y002775D01*
X010131Y002622D02*
X010208Y002545D01*
X010208Y002392D01*
X010131Y002315D01*
X009824Y002315D01*
X009748Y002392D01*
X009748Y002545D01*
X009824Y002622D01*
X009824Y002162D02*
X009748Y002085D01*
X009748Y001855D01*
X010208Y001855D01*
X010208Y002085D01*
X010131Y002162D01*
X009824Y002162D01*
X016780Y002122D02*
X016780Y001816D01*
X016857Y001739D01*
X017010Y001739D01*
X017087Y001816D01*
X017240Y001969D02*
X017547Y001969D01*
X017471Y001739D02*
X017471Y002199D01*
X017240Y001969D01*
X017087Y002122D02*
X017010Y002199D01*
X016857Y002199D01*
X016780Y002122D01*
X017557Y003339D02*
X017710Y003339D01*
X017787Y003416D01*
X017787Y003492D01*
X017710Y003569D01*
X017480Y003569D01*
X017480Y003416D01*
X017557Y003339D01*
X017480Y003569D02*
X017633Y003722D01*
X017787Y003799D01*
X017940Y003722D02*
X017940Y003646D01*
X018017Y003569D01*
X018171Y003569D01*
X018247Y003492D01*
X018247Y003416D01*
X018171Y003339D01*
X018017Y003339D01*
X017940Y003416D01*
X017940Y003492D01*
X018017Y003569D01*
X018171Y003569D02*
X018247Y003646D01*
X018247Y003722D01*
X018171Y003799D01*
X018017Y003799D01*
X017940Y003722D01*
X018401Y003646D02*
X018401Y003416D01*
X018478Y003339D01*
X018708Y003339D01*
X018708Y003646D01*
X018861Y003569D02*
X019015Y003569D01*
X018938Y003722D02*
X018938Y003339D01*
X018938Y003722D02*
X019015Y003799D01*
X020319Y003060D02*
X020319Y003027D01*
X020353Y002993D01*
X020419Y002993D01*
X020453Y002960D01*
X020453Y002926D01*
X020419Y002893D01*
X020353Y002893D01*
X020319Y002926D01*
X020319Y003060D02*
X020353Y003093D01*
X020419Y003093D01*
X020453Y003060D01*
X020540Y003060D02*
X020540Y002926D01*
X020574Y002893D01*
X020640Y002893D01*
X020674Y002926D01*
X020761Y002893D02*
X020761Y003093D01*
X020674Y003060D02*
X020640Y003093D01*
X020574Y003093D01*
X020540Y003060D01*
X020761Y002993D02*
X020895Y002993D01*
X020895Y003093D02*
X020895Y002893D01*
X020982Y002926D02*
X021016Y002893D01*
X021082Y002893D01*
X021116Y002926D01*
X021116Y003060D01*
X021082Y003093D01*
X021016Y003093D01*
X020982Y003060D01*
X020982Y002926D01*
X021203Y003093D02*
X021337Y003093D01*
X021270Y003093D02*
X021270Y002893D01*
X021491Y002893D02*
X021491Y003093D01*
X021424Y003093D02*
X021558Y003093D01*
X021645Y003093D02*
X021645Y002893D01*
X021645Y002960D02*
X021779Y003093D01*
X021866Y003093D02*
X021866Y002893D01*
X022000Y002893D01*
X021933Y002993D02*
X021866Y002993D01*
X021866Y003093D02*
X022000Y003093D01*
X022087Y003093D02*
X022087Y003060D01*
X022154Y002993D01*
X022154Y002893D01*
X022154Y002993D02*
X022221Y003060D01*
X022221Y003093D01*
X021779Y002893D02*
X021679Y002993D01*
X018897Y005833D02*
X018897Y006033D01*
X018897Y005933D02*
X018764Y005933D01*
X018676Y005967D02*
X018676Y005833D01*
X018576Y005833D01*
X018543Y005867D01*
X018543Y005967D01*
X018455Y006000D02*
X018422Y006033D01*
X018355Y006033D01*
X018322Y006000D01*
X018322Y005867D01*
X018455Y006000D01*
X018455Y005867D01*
X018422Y005833D01*
X018355Y005833D01*
X018322Y005867D01*
X018234Y005867D02*
X018201Y005833D01*
X018134Y005833D01*
X018101Y005867D01*
X018234Y006000D01*
X018234Y005867D01*
X018234Y006000D02*
X018201Y006033D01*
X018134Y006033D01*
X018101Y006000D01*
X018101Y005867D01*
X018013Y005833D02*
X017880Y005833D01*
X017947Y005833D02*
X017947Y006033D01*
X017880Y005967D01*
X018764Y006033D02*
X018764Y005833D01*
X008390Y011822D02*
X008357Y011789D01*
X008223Y011922D01*
X008357Y011922D01*
X008390Y011889D01*
X008390Y011822D01*
X008357Y011789D02*
X008223Y011789D01*
X008190Y011822D01*
X008190Y011889D01*
X008223Y011922D01*
X008357Y012010D02*
X008357Y012043D01*
X008390Y012043D01*
X008390Y012010D01*
X008357Y012010D01*
X008390Y012120D02*
X008390Y012254D01*
X008390Y012187D02*
X008190Y012187D01*
X008257Y012120D01*
X008257Y012341D02*
X008357Y012341D01*
X008390Y012375D01*
X008390Y012475D01*
X008257Y012475D01*
X008290Y012562D02*
X008290Y012629D01*
X008390Y012562D02*
X008190Y012562D01*
X008190Y012696D01*
X007490Y012535D02*
X007290Y012535D01*
X007390Y012535D02*
X007390Y012402D01*
X007357Y012314D02*
X007490Y012314D01*
X007490Y012214D01*
X007457Y012181D01*
X007357Y012181D01*
X007323Y012093D02*
X007457Y011960D01*
X007490Y011993D01*
X007490Y012060D01*
X007457Y012093D01*
X007323Y012093D01*
X007290Y012060D01*
X007290Y011993D01*
X007323Y011960D01*
X007457Y011960D01*
X007490Y011872D02*
X007490Y011739D01*
X007490Y011806D02*
X007290Y011806D01*
X007357Y011739D01*
X007290Y012402D02*
X007490Y012402D01*
X036270Y010021D02*
X036270Y009921D01*
X036470Y009921D01*
X036470Y010021D01*
X036437Y010054D01*
X036303Y010054D01*
X036270Y010021D01*
X036270Y009833D02*
X036270Y009700D01*
X036470Y009700D01*
X036470Y009833D01*
X036370Y009766D02*
X036370Y009700D01*
X036370Y009612D02*
X036303Y009612D01*
X036270Y009579D01*
X036270Y009479D01*
X036470Y009479D01*
X036403Y009479D02*
X036403Y009579D01*
X036370Y009612D01*
X036403Y009546D02*
X036470Y009612D01*
D13*
X001110Y002085D02*
X000610Y002085D01*
X000360Y002335D01*
X000360Y002835D01*
X000610Y003085D01*
X000360Y003335D01*
X000360Y003835D01*
X000610Y004085D01*
X000360Y004335D01*
X000360Y004835D01*
X000610Y005085D01*
X000360Y005335D01*
X000360Y005835D01*
X000610Y006085D01*
X000360Y006335D01*
X000360Y006835D01*
X000610Y007085D01*
X000360Y007335D01*
X000360Y007835D01*
X000610Y008085D01*
X000360Y008335D01*
X000360Y008835D01*
X000610Y009085D01*
X000360Y009335D01*
X000360Y009835D01*
X000610Y010085D01*
X000360Y010335D01*
X000360Y010835D01*
X000610Y011085D01*
X000360Y011335D01*
X000360Y011835D01*
X000610Y012085D01*
X000360Y012335D01*
X000360Y012835D01*
X000610Y013085D01*
X000360Y013335D01*
X000360Y013835D01*
X000610Y014085D01*
X000360Y014335D01*
X000360Y014835D01*
X000610Y015085D01*
X000360Y015335D01*
X000360Y015835D01*
X000610Y016085D01*
X001110Y016085D01*
X001360Y015835D01*
X001360Y015335D01*
X001110Y015085D01*
X001360Y014835D01*
X001360Y014335D01*
X001110Y014085D01*
X001360Y013835D01*
X001360Y013335D01*
X001110Y013085D01*
X001360Y012835D01*
X001360Y012335D01*
X001110Y012085D01*
X001360Y011835D01*
X001360Y011335D01*
X001110Y011085D01*
X001360Y010835D01*
X001360Y010335D01*
X001110Y010085D01*
X001360Y009835D01*
X001360Y009335D01*
X001110Y009085D01*
X001360Y008835D01*
X001360Y008335D01*
X001110Y008085D01*
X001360Y007835D01*
X001360Y007335D01*
X001110Y007085D01*
X001360Y006835D01*
X001360Y006335D01*
X001110Y006085D01*
X001360Y005835D01*
X001360Y005335D01*
X001110Y005085D01*
X001360Y004835D01*
X001360Y004335D01*
X001110Y004085D01*
X001360Y003835D01*
X001360Y003335D01*
X001110Y003085D01*
X001360Y002835D01*
X001360Y002335D01*
X001110Y002085D01*
X002360Y002335D02*
X002360Y002835D01*
X002610Y003085D01*
X002360Y003335D01*
X002360Y003835D01*
X002610Y004085D01*
X002360Y004335D01*
X002360Y004835D01*
X002610Y005085D01*
X002360Y005335D01*
X002360Y005835D01*
X002610Y006085D01*
X002360Y006335D01*
X002360Y006835D01*
X002610Y007085D01*
X002360Y007335D01*
X002360Y007835D01*
X002610Y008085D01*
X002360Y008335D01*
X002360Y008835D01*
X002610Y009085D01*
X002360Y009335D01*
X002360Y009835D01*
X002610Y010085D01*
X002360Y010335D01*
X002360Y010835D01*
X002610Y011085D01*
X002360Y011335D01*
X002360Y011835D01*
X002610Y012085D01*
X002360Y012335D01*
X002360Y012835D01*
X002610Y013085D01*
X002360Y013335D01*
X002360Y013835D01*
X002610Y014085D01*
X002360Y014335D01*
X002360Y014835D01*
X002610Y015085D01*
X002360Y015335D01*
X002360Y015835D01*
X002610Y016085D01*
X003110Y016085D01*
X003360Y015835D01*
X003360Y015335D01*
X003110Y015085D01*
X003360Y014835D01*
X003360Y014335D01*
X003110Y014085D01*
X003360Y013835D01*
X003360Y013335D01*
X003110Y013085D01*
X003360Y012835D01*
X003360Y012335D01*
X003110Y012085D01*
X003360Y011835D01*
X003360Y011335D01*
X003110Y011085D01*
X003360Y010835D01*
X003360Y010335D01*
X003110Y010085D01*
X003360Y009835D01*
X003360Y009335D01*
X003110Y009085D01*
X003360Y008835D01*
X003360Y008335D01*
X003110Y008085D01*
X003360Y007835D01*
X003360Y007335D01*
X003110Y007085D01*
X003360Y006835D01*
X003360Y006335D01*
X003110Y006085D01*
X003360Y005835D01*
X003360Y005335D01*
X003110Y005085D01*
X003360Y004835D01*
X003360Y004335D01*
X003110Y004085D01*
X003360Y003835D01*
X003360Y003335D01*
X003110Y003085D01*
X003360Y002835D01*
X003360Y002335D01*
X003110Y002085D01*
X002610Y002085D01*
X002360Y002335D01*
X014393Y002583D02*
X014393Y003083D01*
X014643Y003333D01*
X015143Y003333D01*
X015393Y003083D01*
X015643Y003333D01*
X016143Y003333D01*
X016393Y003083D01*
X016393Y002583D01*
X016143Y002333D01*
X015643Y002333D01*
X015393Y002583D01*
X015143Y002333D01*
X014643Y002333D01*
X014393Y002583D01*
X021593Y003509D02*
X021595Y003524D01*
X021601Y003537D01*
X021610Y003549D01*
X021621Y003558D01*
X021635Y003564D01*
X021650Y003566D01*
X021665Y003564D01*
X021678Y003558D01*
X021690Y003549D01*
X021699Y003538D01*
X021705Y003524D01*
X021707Y003509D01*
X021705Y003494D01*
X021699Y003481D01*
X021690Y003469D01*
X021679Y003460D01*
X021665Y003454D01*
X021650Y003452D01*
X021635Y003454D01*
X021622Y003460D01*
X021610Y003469D01*
X021601Y003480D01*
X021595Y003494D01*
X021593Y003509D01*
X025164Y003107D02*
X025164Y003934D01*
X025440Y004918D02*
X025794Y004918D01*
X027526Y004918D02*
X027880Y004918D01*
X028156Y003934D02*
X028156Y003107D01*
X030830Y008789D02*
X030830Y010049D01*
X031066Y010049D01*
X031854Y010049D02*
X032090Y010049D01*
X032090Y008789D01*
X035518Y009657D02*
X035726Y009796D01*
X035726Y009977D01*
X035691Y009809D02*
X035523Y009937D01*
X035726Y009796D02*
X035726Y009610D01*
X029739Y016873D02*
X029542Y016873D01*
X029739Y016873D02*
X029739Y018251D01*
X026195Y018251D01*
X026195Y016873D01*
X026392Y016873D01*
X025406Y017630D02*
X025406Y017816D01*
X025198Y017677D01*
X025371Y017829D02*
X025203Y017957D01*
X025406Y017997D02*
X025406Y017816D01*
X016716Y013077D02*
X016204Y013077D01*
X016204Y011660D02*
X016716Y011660D01*
D14*
X019480Y008793D02*
X020347Y009659D01*
X023772Y009659D01*
X023772Y006588D01*
X021685Y006588D01*
X021764Y006863D02*
X021737Y006835D01*
X021712Y006805D01*
X021691Y006772D01*
X021673Y006738D01*
X021658Y006702D01*
X021647Y006664D01*
X021639Y006626D01*
X021635Y006587D01*
X021635Y006549D01*
X021639Y006510D01*
X021647Y006472D01*
X021658Y006434D01*
X021673Y006398D01*
X021691Y006364D01*
X021712Y006331D01*
X021737Y006301D01*
X021764Y006273D01*
X021213Y006273D02*
X021213Y006588D01*
X021213Y006903D01*
X021213Y006588D01*
X019520Y006588D01*
X019480Y006312D02*
X020347Y005446D01*
X023772Y005446D01*
X023772Y006588D01*
X020504Y008399D02*
X020229Y008399D01*
X020229Y008714D01*
X020229Y008124D01*
X020229Y008399D02*
X019914Y008399D01*
X020229Y008399D02*
X020504Y008399D01*
X019480Y008793D02*
X019480Y006312D01*
X018784Y004957D02*
X016815Y004957D01*
X016500Y004642D01*
X016500Y002359D01*
X019099Y002359D01*
X019099Y004642D01*
X018784Y004957D01*
X018469Y004721D02*
X018469Y004406D01*
X018784Y004406D01*
X018193Y004406D01*
X018469Y004406D02*
X018469Y004131D01*
X018469Y004406D01*
X017327Y003658D02*
X017051Y003658D01*
X016776Y003658D01*
X017051Y003658D02*
X017327Y003658D01*
X017051Y003658D02*
X017051Y004918D01*
X015488Y003988D02*
X015488Y003688D01*
X015337Y003538D01*
X015187Y003688D01*
X015187Y003988D01*
X015027Y003913D02*
X014952Y003988D01*
X014802Y003988D01*
X014727Y003913D01*
X014727Y003838D01*
X014802Y003763D01*
X015027Y003763D01*
X015027Y003613D02*
X015027Y003913D01*
X015027Y003613D02*
X014952Y003538D01*
X014802Y003538D01*
X014727Y003613D01*
X017051Y003461D02*
X017051Y002398D01*
X017327Y003343D02*
X017299Y003370D01*
X017269Y003394D01*
X017236Y003415D01*
X017202Y003433D01*
X017165Y003446D01*
X017128Y003456D01*
X017090Y003462D01*
X017051Y003464D01*
X017012Y003462D01*
X016974Y003456D01*
X016937Y003446D01*
X016900Y003433D01*
X016866Y003415D01*
X016833Y003394D01*
X016803Y003370D01*
X016775Y003343D01*
X020499Y002834D02*
X021287Y002834D01*
X020617Y002794D02*
X020617Y002122D01*
X020499Y002083D02*
X021287Y002083D01*
X012618Y001720D02*
X012618Y001681D01*
X012618Y001720D01*
X007643Y004724D02*
X007493Y004724D01*
X007568Y004724D02*
X007568Y005174D01*
X007493Y005174D02*
X007643Y005174D01*
X007333Y005099D02*
X007333Y004949D01*
X007258Y004874D01*
X007032Y004874D01*
X007032Y004724D02*
X007032Y005174D01*
X007258Y005174D01*
X007333Y005099D01*
X006872Y005099D02*
X006797Y005174D01*
X006647Y005174D01*
X006572Y005099D01*
X006572Y005024D01*
X006647Y004949D01*
X006797Y004949D01*
X006872Y004874D01*
X006872Y004799D01*
X006797Y004724D01*
X006647Y004724D01*
X006572Y004799D01*
X030310Y010789D02*
X036610Y010789D01*
X036610Y017088D01*
X030310Y017088D01*
X030310Y010789D01*
X031502Y007549D02*
X036698Y007549D01*
X036698Y002037D01*
X034002Y002037D01*
X031502Y002037D01*
X031502Y007549D01*
X033352Y004892D02*
X033354Y004947D01*
X033360Y005001D01*
X033370Y005055D01*
X033384Y005107D01*
X033401Y005159D01*
X033423Y005209D01*
X033448Y005258D01*
X033476Y005305D01*
X033508Y005349D01*
X033543Y005391D01*
X033581Y005430D01*
X033622Y005467D01*
X033665Y005500D01*
X033710Y005530D01*
X033758Y005557D01*
X033807Y005580D01*
X033858Y005600D01*
X033911Y005616D01*
X033964Y005628D01*
X034018Y005636D01*
X034073Y005640D01*
X034127Y005640D01*
X034182Y005636D01*
X034236Y005628D01*
X034289Y005616D01*
X034342Y005600D01*
X034393Y005580D01*
X034442Y005557D01*
X034490Y005530D01*
X034535Y005500D01*
X034578Y005467D01*
X034619Y005430D01*
X034657Y005391D01*
X034692Y005349D01*
X034724Y005305D01*
X034752Y005258D01*
X034777Y005209D01*
X034799Y005159D01*
X034816Y005107D01*
X034830Y005055D01*
X034840Y005001D01*
X034846Y004947D01*
X034848Y004892D01*
X034846Y004837D01*
X034840Y004783D01*
X034830Y004729D01*
X034816Y004677D01*
X034799Y004625D01*
X034777Y004575D01*
X034752Y004526D01*
X034724Y004479D01*
X034692Y004435D01*
X034657Y004393D01*
X034619Y004354D01*
X034578Y004317D01*
X034535Y004284D01*
X034490Y004254D01*
X034442Y004227D01*
X034393Y004204D01*
X034342Y004184D01*
X034289Y004168D01*
X034236Y004156D01*
X034182Y004148D01*
X034127Y004144D01*
X034073Y004144D01*
X034018Y004148D01*
X033964Y004156D01*
X033911Y004168D01*
X033858Y004184D01*
X033807Y004204D01*
X033758Y004227D01*
X033710Y004254D01*
X033665Y004284D01*
X033622Y004317D01*
X033581Y004354D01*
X033543Y004393D01*
X033508Y004435D01*
X033476Y004479D01*
X033448Y004526D01*
X033423Y004575D01*
X033401Y004625D01*
X033384Y004677D01*
X033370Y004729D01*
X033360Y004783D01*
X033354Y004837D01*
X033352Y004892D01*
X032919Y004892D02*
X032921Y004961D01*
X032927Y005029D01*
X032937Y005097D01*
X032951Y005164D01*
X032969Y005231D01*
X032990Y005296D01*
X033016Y005360D01*
X033045Y005422D01*
X033077Y005482D01*
X033113Y005541D01*
X033153Y005597D01*
X033195Y005651D01*
X033241Y005702D01*
X033290Y005751D01*
X033341Y005797D01*
X033395Y005839D01*
X033451Y005879D01*
X033509Y005915D01*
X033570Y005947D01*
X033632Y005976D01*
X033696Y006002D01*
X033761Y006023D01*
X033828Y006041D01*
X033895Y006055D01*
X033963Y006065D01*
X034031Y006071D01*
X034100Y006073D01*
X034169Y006071D01*
X034237Y006065D01*
X034305Y006055D01*
X034372Y006041D01*
X034439Y006023D01*
X034504Y006002D01*
X034568Y005976D01*
X034630Y005947D01*
X034690Y005915D01*
X034749Y005879D01*
X034805Y005839D01*
X034859Y005797D01*
X034910Y005751D01*
X034959Y005702D01*
X035005Y005651D01*
X035047Y005597D01*
X035087Y005541D01*
X035123Y005482D01*
X035155Y005422D01*
X035184Y005360D01*
X035210Y005296D01*
X035231Y005231D01*
X035249Y005164D01*
X035263Y005097D01*
X035273Y005029D01*
X035279Y004961D01*
X035281Y004892D01*
X035279Y004823D01*
X035273Y004755D01*
X035263Y004687D01*
X035249Y004620D01*
X035231Y004553D01*
X035210Y004488D01*
X035184Y004424D01*
X035155Y004362D01*
X035123Y004301D01*
X035087Y004243D01*
X035047Y004187D01*
X035005Y004133D01*
X034959Y004082D01*
X034910Y004033D01*
X034859Y003987D01*
X034805Y003945D01*
X034749Y003905D01*
X034691Y003869D01*
X034630Y003837D01*
X034568Y003808D01*
X034504Y003782D01*
X034439Y003761D01*
X034372Y003743D01*
X034305Y003729D01*
X034237Y003719D01*
X034169Y003713D01*
X034100Y003711D01*
X034031Y003713D01*
X033963Y003719D01*
X033895Y003729D01*
X033828Y003743D01*
X033761Y003761D01*
X033696Y003782D01*
X033632Y003808D01*
X033570Y003837D01*
X033509Y003869D01*
X033451Y003905D01*
X033395Y003945D01*
X033341Y003987D01*
X033290Y004033D01*
X033241Y004082D01*
X033195Y004133D01*
X033153Y004187D01*
X033113Y004243D01*
X033077Y004301D01*
X033045Y004362D01*
X033016Y004424D01*
X032990Y004488D01*
X032969Y004553D01*
X032951Y004620D01*
X032937Y004687D01*
X032927Y004755D01*
X032921Y004823D01*
X032919Y004892D01*
D15*
X036090Y008284D02*
X036065Y008309D01*
X036065Y008359D01*
X036090Y008384D01*
X036115Y008384D01*
X036215Y008284D01*
X036215Y008384D01*
X036215Y008431D02*
X036115Y008531D01*
X036090Y008531D01*
X036065Y008506D01*
X036065Y008456D01*
X036090Y008431D01*
X036215Y008431D02*
X036215Y008531D01*
X036190Y008578D02*
X036090Y008679D01*
X036190Y008679D01*
X036215Y008653D01*
X036215Y008603D01*
X036190Y008578D01*
X036090Y008578D01*
X036065Y008603D01*
X036065Y008653D01*
X036090Y008679D01*
X021505Y004535D02*
X021355Y004535D01*
X021430Y004460D01*
X021430Y004560D01*
X021430Y004413D02*
X021430Y004338D01*
X021405Y004313D01*
X021380Y004313D01*
X021355Y004338D01*
X021355Y004388D01*
X021380Y004413D01*
X021480Y004413D01*
X021505Y004388D01*
X021505Y004338D01*
X021480Y004313D01*
X021480Y004266D02*
X021505Y004241D01*
X021505Y004191D01*
X021480Y004166D01*
X021430Y004166D02*
X021405Y004216D01*
X021405Y004241D01*
X021430Y004266D01*
X021480Y004266D01*
X021430Y004166D02*
X021355Y004166D01*
X021355Y004266D01*
X021255Y004289D02*
X021255Y004339D01*
X021230Y004364D01*
X021255Y004411D02*
X021105Y004411D01*
X021130Y004364D02*
X021105Y004339D01*
X021105Y004289D01*
X021130Y004264D01*
X021230Y004264D01*
X021255Y004289D01*
X021255Y004167D02*
X021105Y004167D01*
X021105Y004117D02*
X021105Y004217D01*
X021105Y004068D02*
X021105Y004018D01*
X021105Y004043D02*
X021255Y004043D01*
X021255Y004018D02*
X021255Y004068D01*
X021255Y003971D02*
X021105Y003971D01*
X021105Y003871D02*
X021255Y003871D01*
X021205Y003921D01*
X021255Y003971D01*
X021355Y003971D02*
X021505Y003971D01*
X021505Y004018D02*
X021405Y004119D01*
X021380Y004119D01*
X021355Y004093D01*
X021355Y004043D01*
X021380Y004018D01*
X021355Y003971D02*
X021405Y003921D01*
X021355Y003871D01*
X021505Y003871D01*
X021505Y003824D02*
X021505Y003724D01*
X021355Y003724D01*
X021255Y003749D02*
X021230Y003724D01*
X021255Y003749D02*
X021255Y003799D01*
X021230Y003824D01*
X021205Y003824D01*
X021180Y003799D01*
X021180Y003749D01*
X021155Y003724D01*
X021130Y003724D01*
X021105Y003749D01*
X021105Y003799D01*
X021130Y003824D01*
X021505Y004018D02*
X021505Y004119D01*
X021180Y004411D02*
X021180Y004511D01*
X021205Y004559D02*
X021205Y004634D01*
X021180Y004659D01*
X021130Y004659D01*
X021105Y004634D01*
X021105Y004559D01*
X021255Y004559D01*
X021255Y004511D02*
X021105Y004511D01*
X021205Y004609D02*
X021255Y004659D01*
X021255Y004706D02*
X021255Y004806D01*
X021230Y004853D02*
X021255Y004878D01*
X021255Y004928D01*
X021230Y004953D01*
X021180Y004953D01*
X021180Y004903D01*
X021130Y004853D02*
X021230Y004853D01*
X021130Y004853D02*
X021105Y004878D01*
X021105Y004928D01*
X021130Y004953D01*
X021105Y004806D02*
X021105Y004706D01*
X021255Y004706D01*
X021180Y004706D02*
X021180Y004756D01*
D16*
X021173Y002610D02*
X021100Y002536D01*
X021100Y002389D01*
X021100Y002500D02*
X021247Y002500D01*
X021247Y002536D02*
X021247Y002389D01*
X021247Y002536D02*
X021173Y002610D01*
X024677Y007431D02*
X024677Y009607D01*
X028643Y009607D01*
X028643Y007431D01*
X024677Y007431D01*
X024335Y016479D02*
X024288Y016479D01*
X024265Y016502D01*
X024358Y016596D01*
X024358Y016502D01*
X024335Y016479D01*
X024265Y016502D02*
X024265Y016596D01*
X024288Y016619D01*
X024335Y016619D01*
X024358Y016596D01*
X024211Y016596D02*
X024187Y016619D01*
X024141Y016619D01*
X024117Y016596D01*
X024063Y016596D02*
X024040Y016619D01*
X023993Y016619D01*
X023970Y016596D01*
X024063Y016596D02*
X024063Y016572D01*
X023970Y016479D01*
X024063Y016479D01*
X024117Y016479D02*
X024211Y016572D01*
X024211Y016596D01*
X024211Y016479D02*
X024117Y016479D01*
X025920Y017672D02*
X025943Y017649D01*
X026037Y017649D01*
X026060Y017672D01*
X026060Y017719D01*
X026037Y017742D01*
X025990Y017742D01*
X025990Y017695D01*
X025943Y017742D02*
X025920Y017719D01*
X025920Y017672D01*
X025920Y017796D02*
X025920Y017866D01*
X025943Y017890D01*
X025990Y017890D01*
X026013Y017866D01*
X026013Y017796D01*
X026013Y017843D02*
X026060Y017890D01*
X026060Y017943D02*
X025920Y017943D01*
X026060Y018037D01*
X025920Y018037D01*
X025920Y017796D02*
X026060Y017796D01*
X027477Y017858D02*
X027514Y017822D01*
X027587Y017822D01*
X027624Y017858D01*
X027624Y017895D01*
X027587Y017932D01*
X027514Y017932D01*
X027477Y017969D01*
X027477Y018005D01*
X027514Y018042D01*
X027587Y018042D01*
X027624Y018005D01*
X027698Y017969D02*
X027771Y018042D01*
X027771Y017822D01*
X027698Y017822D02*
X027845Y017822D01*
D17*
X008725Y015157D03*
D18*
X008650Y015232D03*
X008800Y015232D03*
D19*
X008725Y015077D03*
M02*
