G75*
G70*
%OFA0B0*%
%FSLAX24Y24*%
%IPPOS*%
%LPD*%
%AMOC8*
5,1,8,0,0,1.08239X$1,22.5*
%
%ADD10R,0.0500X0.0220*%
%ADD11R,0.0220X0.0500*%
%ADD12R,0.0472X0.0315*%
%ADD13R,0.0669X0.0276*%
%ADD14R,0.0315X0.0472*%
%ADD15R,0.0197X0.0984*%
%ADD16R,0.0787X0.0984*%
%ADD17R,0.0137X0.0550*%
%ADD18R,0.1102X0.1102*%
%ADD19R,0.0315X0.1043*%
%ADD20R,0.1260X0.0433*%
%ADD21R,0.0300X0.0700*%
%ADD22R,0.1181X0.0984*%
%ADD23R,0.0394X0.0354*%
%ADD24R,0.0433X0.0354*%
%ADD25R,0.0250X0.0500*%
%ADD26R,0.0500X0.0250*%
%ADD27R,0.0870X0.0240*%
%ADD28R,0.0394X0.0591*%
D10*
X011270Y010416D03*
X011270Y010731D03*
X011270Y011046D03*
X011270Y011361D03*
X011270Y011676D03*
X011270Y011991D03*
X011270Y012306D03*
X011270Y012621D03*
X014650Y012621D03*
X014650Y012306D03*
X014650Y011991D03*
X014650Y011676D03*
X014650Y011361D03*
X014650Y011046D03*
X014650Y010731D03*
X014650Y010416D03*
D11*
X014062Y009829D03*
X013747Y009829D03*
X013432Y009829D03*
X013117Y009829D03*
X012803Y009829D03*
X012488Y009829D03*
X012173Y009829D03*
X011858Y009829D03*
X011858Y013209D03*
X012173Y013209D03*
X012488Y013209D03*
X012803Y013209D03*
X013117Y013209D03*
X013432Y013209D03*
X013747Y013209D03*
X014062Y013209D03*
D12*
X008260Y011473D03*
X007410Y011473D03*
X007410Y010764D03*
X008260Y010764D03*
X013160Y008073D03*
X014016Y008068D03*
X014016Y007359D03*
X013160Y007364D03*
X023060Y011564D03*
X023060Y012273D03*
X024460Y012273D03*
X024460Y011564D03*
X029776Y005745D03*
X030585Y005732D03*
X030585Y005023D03*
X029776Y005036D03*
X035670Y008324D03*
X035670Y009033D03*
D13*
X016460Y011896D03*
X016460Y012369D03*
X016460Y012841D03*
D14*
X024606Y016819D03*
X025314Y016819D03*
X025664Y017819D03*
X024956Y017819D03*
X025973Y011889D03*
X026682Y011889D03*
X027306Y011919D03*
X028014Y011919D03*
X035276Y009799D03*
X035984Y009799D03*
X018614Y006363D03*
X017906Y006363D03*
D15*
X026030Y004603D03*
X026345Y004603D03*
X026660Y004603D03*
X026975Y004603D03*
X027290Y004603D03*
D16*
X028432Y004603D03*
X024888Y004603D03*
X024888Y002438D03*
X028432Y002438D03*
D17*
X028323Y007079D03*
X028067Y007079D03*
X027812Y007079D03*
X027556Y007079D03*
X027300Y007079D03*
X027044Y007079D03*
X026788Y007079D03*
X026532Y007079D03*
X026276Y007079D03*
X026020Y007079D03*
X025764Y007079D03*
X025508Y007079D03*
X025253Y007079D03*
X024997Y007079D03*
X024997Y009958D03*
X025253Y009958D03*
X025508Y009958D03*
X025764Y009958D03*
X026020Y009958D03*
X026276Y009958D03*
X026532Y009958D03*
X026788Y009958D03*
X027044Y009958D03*
X027300Y009958D03*
X027556Y009958D03*
X027812Y009958D03*
X028067Y009958D03*
X028323Y009958D03*
D18*
X008720Y002508D03*
X008720Y004858D03*
X012972Y004858D03*
X012972Y002508D03*
D19*
X017760Y002713D03*
X017760Y004485D03*
D20*
X020110Y007572D03*
X023181Y007572D03*
D21*
X021405Y002458D03*
X020342Y002458D03*
D22*
X033460Y010277D03*
X033460Y017600D03*
D23*
X031795Y008769D03*
X031125Y008769D03*
D24*
X031460Y010068D03*
D25*
X023860Y005019D03*
X023860Y004419D03*
D26*
X024660Y005719D03*
X025260Y005719D03*
X015297Y004946D03*
X014697Y004946D03*
X023960Y013319D03*
X024560Y013319D03*
D27*
X022290Y004969D03*
X022290Y004469D03*
X022290Y003969D03*
X022290Y003469D03*
X020230Y003469D03*
X020230Y003969D03*
X020230Y004469D03*
X020230Y004969D03*
D28*
X026983Y016479D03*
X027967Y016479D03*
X028951Y016479D03*
M02*
