G75*
G70*
%OFA0B0*%
%FSLAX24Y24*%
%IPPOS*%
%LPD*%
%AMOC8*
5,1,8,0,0,1.08239X$1,22.5*
%
%ADD10R,0.0500X0.0220*%
%ADD11R,0.0220X0.0500*%
%ADD12R,0.0472X0.0315*%
%ADD13R,0.0669X0.0276*%
%ADD14R,0.0315X0.0472*%
%ADD15C,0.0591*%
%ADD16C,0.1299*%
%ADD17R,0.0860X0.0860*%
%ADD18OC8,0.0860*%
%ADD19C,0.0860*%
%ADD20C,0.0740*%
%ADD21R,0.0197X0.0984*%
%ADD22R,0.0787X0.0984*%
%ADD23R,0.0137X0.0550*%
%ADD24R,0.0984X0.1181*%
%ADD25R,0.0354X0.0394*%
%ADD26R,0.0354X0.0433*%
%ADD27C,0.0160*%
%ADD28R,0.0500X0.0250*%
%ADD29R,0.0850X0.0420*%
%ADD30R,0.4098X0.4252*%
%ADD31R,0.0472X0.0787*%
%ADD32R,0.0250X0.0500*%
%ADD33C,0.0394*%
%ADD34OC8,0.1950*%
%ADD35R,0.0591X0.0512*%
%ADD36C,0.0120*%
%ADD37C,0.0310*%
D10*
X011725Y020302D03*
X011725Y020617D03*
X011725Y020932D03*
X011725Y021247D03*
X011725Y021562D03*
X011725Y021877D03*
X011725Y022192D03*
X011725Y022507D03*
X015105Y022507D03*
X015105Y022192D03*
X015105Y021877D03*
X015105Y021562D03*
X015105Y021247D03*
X015105Y020932D03*
X015105Y020617D03*
X015105Y020302D03*
D11*
X014518Y019715D03*
X014203Y019715D03*
X013888Y019715D03*
X013573Y019715D03*
X013258Y019715D03*
X012943Y019715D03*
X012628Y019715D03*
X012313Y019715D03*
X012313Y023095D03*
X012628Y023095D03*
X012943Y023095D03*
X013258Y023095D03*
X013573Y023095D03*
X013888Y023095D03*
X014203Y023095D03*
X014518Y023095D03*
D12*
X013252Y024216D03*
X013252Y024925D03*
X012500Y024922D03*
X012500Y024213D03*
X010641Y022233D03*
X010641Y021524D03*
X015961Y021433D03*
X016641Y021423D03*
X016641Y020714D03*
X015961Y020724D03*
X019602Y013716D03*
X019602Y013007D03*
X020984Y031863D03*
X020984Y032572D03*
X021972Y032600D03*
X021972Y031891D03*
X021941Y033777D03*
X021941Y034486D03*
X020942Y034485D03*
X020942Y033776D03*
D13*
X010565Y020908D03*
X010565Y020436D03*
X010565Y019963D03*
D14*
X015937Y022069D03*
X016646Y022069D03*
X022080Y018095D03*
X022453Y017397D03*
X022789Y018095D03*
X023162Y017397D03*
X021996Y013079D03*
X021287Y013079D03*
D15*
X026327Y014881D03*
X028327Y014881D03*
X028327Y009173D03*
X027327Y009173D03*
X026327Y009173D03*
D16*
X025327Y012125D03*
X029327Y012125D03*
D17*
X005321Y021299D03*
D18*
X005321Y020299D03*
X006321Y020299D03*
X006321Y021299D03*
X006321Y019299D03*
X005321Y019299D03*
D19*
X005301Y016779D03*
X006301Y016779D03*
X007301Y016779D03*
X008301Y016779D03*
X009301Y016779D03*
X010301Y016779D03*
X011301Y016779D03*
X012301Y016779D03*
X013301Y016779D03*
X014301Y016779D03*
X015301Y016779D03*
X016301Y016779D03*
X017301Y016779D03*
X018301Y016779D03*
X018041Y032293D03*
X017041Y032293D03*
X016041Y032293D03*
X015041Y032293D03*
X014041Y032293D03*
X013041Y032293D03*
X012041Y032293D03*
X011041Y032293D03*
X010041Y032293D03*
X009041Y032293D03*
X008041Y032293D03*
X007041Y032293D03*
X006041Y032293D03*
X005041Y032293D03*
X005041Y034293D03*
X006041Y034293D03*
X007041Y034293D03*
X008041Y034293D03*
X009041Y034293D03*
X010041Y034293D03*
X011041Y034293D03*
X012041Y034293D03*
X013041Y034293D03*
X014041Y034293D03*
X015041Y034293D03*
X016041Y034293D03*
X017041Y034293D03*
X018041Y034293D03*
D20*
X029513Y021297D03*
X029513Y020297D03*
D21*
X022017Y011837D03*
X021702Y011837D03*
X021387Y011837D03*
X021072Y011837D03*
X020758Y011837D03*
D22*
X019616Y011837D03*
X019616Y009671D03*
X023159Y009671D03*
X023159Y011837D03*
D23*
X023073Y013783D03*
X022817Y013783D03*
X022561Y013783D03*
X022305Y013783D03*
X022049Y013783D03*
X021794Y013783D03*
X021538Y013783D03*
X021282Y013783D03*
X021026Y013783D03*
X020770Y013783D03*
X020514Y013783D03*
X020514Y016662D03*
X020770Y016662D03*
X021026Y016662D03*
X021282Y016662D03*
X021538Y016662D03*
X021794Y016662D03*
X022049Y016662D03*
X022305Y016662D03*
X022561Y016662D03*
X022817Y016662D03*
X023073Y016662D03*
X023329Y016662D03*
X023585Y016662D03*
X023841Y016662D03*
X023841Y013783D03*
X023585Y013783D03*
X023329Y013783D03*
D24*
X026057Y021693D03*
X018734Y021693D03*
D25*
X016377Y015299D03*
X016377Y014630D03*
D26*
X015078Y014965D03*
D27*
X017235Y015153D02*
X017235Y014583D01*
X019780Y017491D02*
X020350Y017491D01*
X020297Y018043D02*
X019727Y018043D01*
D28*
X019737Y018053D03*
X019740Y017481D03*
X020340Y017481D03*
X020337Y018053D03*
D29*
X017867Y012445D03*
X017867Y011445D03*
X017867Y010445D03*
D30*
X014587Y011445D03*
D31*
X017386Y013505D03*
X018645Y013505D03*
X018650Y009369D03*
X017391Y009369D03*
D32*
X017245Y014543D03*
X017245Y015143D03*
D33*
X029561Y009659D03*
X006041Y033289D03*
D34*
X007091Y012749D03*
X009061Y011569D03*
X007091Y010389D03*
D35*
X019551Y015205D03*
X019551Y015953D03*
D36*
X004561Y017179D02*
X004561Y008863D01*
X017012Y008863D01*
X016974Y008900D01*
X016974Y008930D01*
X016972Y008929D01*
X006685Y008929D01*
X006596Y008966D01*
X005840Y009722D01*
X005773Y009789D01*
X005736Y009878D01*
X005736Y010913D01*
X005773Y011001D01*
X006489Y011717D01*
X005936Y012270D01*
X005936Y013227D01*
X006613Y013904D01*
X007218Y013904D01*
X007047Y014074D01*
X006912Y014402D01*
X006912Y014756D01*
X007047Y015083D01*
X007297Y015333D01*
X007624Y015468D01*
X007978Y015468D01*
X008306Y015333D01*
X008556Y015083D01*
X008691Y014756D01*
X008691Y014402D01*
X008556Y014074D01*
X008306Y013824D01*
X007978Y013689D01*
X007785Y013689D01*
X008246Y013227D01*
X008246Y012359D01*
X008591Y012704D01*
X009001Y012704D01*
X009001Y011629D01*
X009121Y011629D01*
X009121Y012704D01*
X009532Y012704D01*
X010196Y012039D01*
X010196Y011629D01*
X009121Y011629D01*
X009121Y011509D01*
X009121Y010434D01*
X009532Y010434D01*
X010196Y011098D01*
X010196Y011509D01*
X009121Y011509D01*
X009001Y011509D01*
X007926Y011509D01*
X007926Y011159D01*
X007562Y011524D01*
X007306Y011524D01*
X007331Y011586D01*
X007331Y011594D01*
X007570Y011594D01*
X007926Y011950D01*
X007926Y011629D01*
X009001Y011629D01*
X009001Y011509D01*
X009001Y010434D01*
X008591Y010434D01*
X008226Y010798D01*
X008226Y010449D01*
X007151Y010449D01*
X007151Y010329D01*
X008226Y010329D01*
X008226Y009918D01*
X007717Y009409D01*
X012378Y009409D01*
X012378Y011385D01*
X014527Y011385D01*
X014527Y011505D01*
X014527Y013730D01*
X012517Y013730D01*
X012476Y013720D01*
X012440Y013699D01*
X012410Y013669D01*
X012389Y013632D01*
X012378Y013592D01*
X012378Y011505D01*
X014527Y011505D01*
X014647Y011505D01*
X014647Y013730D01*
X016658Y013730D01*
X016698Y013720D01*
X016735Y013699D01*
X016765Y013669D01*
X016786Y013632D01*
X016797Y013592D01*
X016797Y011505D01*
X014647Y011505D01*
X014647Y011385D01*
X016797Y011385D01*
X016797Y009409D01*
X016825Y009409D01*
X016974Y009559D01*
X016974Y009837D01*
X017068Y009930D01*
X017062Y009943D01*
X017062Y010492D01*
X017099Y010580D01*
X017166Y010648D01*
X017255Y010685D01*
X017262Y010685D01*
X017262Y010729D01*
X017368Y010835D01*
X018367Y010835D01*
X018472Y010729D01*
X018472Y010160D01*
X018367Y010055D01*
X017578Y010055D01*
X017594Y010038D01*
X017631Y009950D01*
X017631Y009942D01*
X017701Y009942D01*
X017807Y009837D01*
X017807Y008900D01*
X017769Y008863D01*
X018300Y008863D01*
X018286Y008877D01*
X018265Y008913D01*
X018254Y008954D01*
X018254Y009310D01*
X018592Y009310D01*
X018592Y009427D01*
X018592Y009922D01*
X018393Y009922D01*
X018352Y009911D01*
X018316Y009890D01*
X018286Y009860D01*
X018265Y009824D01*
X018254Y009783D01*
X018254Y009427D01*
X018592Y009427D01*
X018709Y009427D01*
X018709Y009922D01*
X018908Y009922D01*
X018948Y009911D01*
X018985Y009890D01*
X019015Y009860D01*
X019036Y009824D01*
X019042Y009800D01*
X019042Y010238D01*
X019148Y010344D01*
X020084Y010344D01*
X020189Y010238D01*
X020189Y009105D01*
X020084Y008999D01*
X019148Y008999D01*
X019047Y009100D01*
X019047Y008954D01*
X019036Y008913D01*
X019015Y008877D01*
X019001Y008863D01*
X022542Y008863D01*
X022507Y008898D01*
X020916Y010489D01*
X020796Y010370D01*
X020796Y010370D01*
X020517Y010295D01*
X020517Y010295D01*
X020239Y010370D01*
X020239Y010370D01*
X020035Y010574D01*
X020035Y010574D01*
X019960Y010853D01*
X019960Y010853D01*
X020035Y011131D01*
X020035Y011131D01*
X020068Y011165D01*
X019148Y011165D01*
X019042Y011270D01*
X019042Y012403D01*
X019148Y012509D01*
X019463Y012509D01*
X019399Y012574D01*
X019362Y012662D01*
X019362Y012670D01*
X019291Y012670D01*
X019186Y012775D01*
X019186Y013084D01*
X019090Y013180D01*
X019042Y013228D01*
X019042Y013090D01*
X019031Y013049D01*
X019010Y013013D01*
X018980Y012983D01*
X018943Y012962D01*
X018903Y012951D01*
X018704Y012951D01*
X018704Y013446D01*
X018587Y013446D01*
X018587Y012951D01*
X018388Y012951D01*
X018347Y012962D01*
X018311Y012983D01*
X018281Y013013D01*
X018260Y013049D01*
X018249Y013090D01*
X018249Y013446D01*
X018587Y013446D01*
X018587Y013563D01*
X018587Y014058D01*
X018388Y014058D01*
X018347Y014047D01*
X018311Y014026D01*
X018281Y013996D01*
X018260Y013960D01*
X018249Y013919D01*
X018249Y013563D01*
X018587Y013563D01*
X018704Y013563D01*
X018704Y014058D01*
X018903Y014058D01*
X018943Y014047D01*
X018980Y014026D01*
X018986Y014020D01*
X018986Y014531D01*
X019022Y014619D01*
X019177Y014773D01*
X019076Y014874D01*
X019076Y015535D01*
X019120Y015579D01*
X019076Y015622D01*
X019076Y016283D01*
X019182Y016388D01*
X019311Y016388D01*
X019311Y016526D01*
X019348Y016614D01*
X019416Y016682D01*
X019930Y017196D01*
X019743Y017196D01*
X019743Y017231D01*
X019738Y017231D01*
X019738Y017196D01*
X019469Y017196D01*
X019429Y017206D01*
X019392Y017228D01*
X019362Y017257D01*
X019341Y017294D01*
X019330Y017334D01*
X019330Y017478D01*
X019520Y017478D01*
X019520Y017483D01*
X019330Y017483D01*
X019330Y017627D01*
X019341Y017667D01*
X019362Y017704D01*
X019392Y017734D01*
X019416Y017748D01*
X019413Y017748D01*
X019307Y017853D01*
X019307Y018078D01*
X018940Y018078D01*
X018226Y017364D01*
X018255Y017369D01*
X018261Y017369D01*
X018261Y016819D01*
X018341Y016819D01*
X018341Y017369D01*
X018348Y017369D01*
X018440Y017354D01*
X018528Y017325D01*
X018611Y017283D01*
X018686Y017229D01*
X018751Y017163D01*
X018806Y017088D01*
X018848Y017005D01*
X018877Y016917D01*
X018891Y016825D01*
X018891Y016819D01*
X018341Y016819D01*
X018341Y016739D01*
X018891Y016739D01*
X018891Y016732D01*
X018877Y016640D01*
X018848Y016552D01*
X018806Y016469D01*
X018751Y016394D01*
X018686Y016328D01*
X018611Y016274D01*
X018528Y016232D01*
X018440Y016203D01*
X018348Y016189D01*
X018341Y016189D01*
X018341Y016739D01*
X018261Y016739D01*
X018261Y016189D01*
X018255Y016189D01*
X018163Y016203D01*
X018075Y016232D01*
X017992Y016274D01*
X017917Y016328D01*
X017851Y016394D01*
X017820Y016437D01*
X017819Y016433D01*
X017647Y016261D01*
X017541Y016218D01*
X017541Y015541D01*
X017523Y015495D01*
X017550Y015467D01*
X017550Y014218D01*
X017548Y014215D01*
X017589Y014174D01*
X017626Y014086D01*
X017626Y014078D01*
X017696Y014078D01*
X017802Y013973D01*
X017802Y013036D01*
X017696Y012931D01*
X017626Y012931D01*
X017626Y012923D01*
X017589Y012835D01*
X017589Y012835D01*
X018367Y012835D01*
X018472Y012729D01*
X018472Y012160D01*
X018367Y012055D01*
X017368Y012055D01*
X017262Y012160D01*
X017262Y012205D01*
X017255Y012205D01*
X017166Y012241D01*
X017099Y012309D01*
X017062Y012397D01*
X017062Y012935D01*
X017065Y012941D01*
X016969Y013036D01*
X016969Y013973D01*
X017034Y014037D01*
X017005Y014105D01*
X017005Y014153D01*
X016940Y014218D01*
X016940Y014537D01*
X016830Y014426D01*
X016742Y014390D01*
X016734Y014390D01*
X016734Y014358D01*
X016629Y014253D01*
X016125Y014253D01*
X016020Y014358D01*
X016020Y014901D01*
X016097Y014979D01*
X016072Y015004D01*
X016051Y015041D01*
X016040Y015081D01*
X016040Y015270D01*
X015531Y014761D01*
X015443Y014725D01*
X015435Y014725D01*
X015435Y014673D01*
X015330Y014568D01*
X014826Y014568D01*
X014721Y014673D01*
X014721Y015256D01*
X014826Y015361D01*
X015330Y015361D01*
X015391Y015300D01*
X016061Y015970D01*
X016061Y016218D01*
X015956Y016261D01*
X015801Y016416D01*
X015647Y016261D01*
X015423Y016169D01*
X015180Y016169D01*
X014956Y016261D01*
X014784Y016433D01*
X014783Y016437D01*
X014751Y016394D01*
X014686Y016328D01*
X014611Y016274D01*
X014528Y016232D01*
X014440Y016203D01*
X014348Y016189D01*
X014341Y016189D01*
X014341Y016739D01*
X014261Y016739D01*
X014261Y016189D01*
X014255Y016189D01*
X014163Y016203D01*
X014075Y016232D01*
X013992Y016274D01*
X013917Y016328D01*
X013851Y016394D01*
X013820Y016437D01*
X013819Y016433D01*
X013647Y016261D01*
X013423Y016169D01*
X013180Y016169D01*
X012956Y016261D01*
X012801Y016416D01*
X012647Y016261D01*
X012423Y016169D01*
X012180Y016169D01*
X011956Y016261D01*
X011801Y016416D01*
X011647Y016261D01*
X011423Y016169D01*
X011180Y016169D01*
X010956Y016261D01*
X010801Y016416D01*
X010647Y016261D01*
X010423Y016169D01*
X010180Y016169D01*
X009956Y016261D01*
X009801Y016416D01*
X009647Y016261D01*
X009423Y016169D01*
X009180Y016169D01*
X008956Y016261D01*
X008801Y016416D01*
X008647Y016261D01*
X008423Y016169D01*
X008180Y016169D01*
X007956Y016261D01*
X007801Y016416D01*
X007647Y016261D01*
X007423Y016169D01*
X007180Y016169D01*
X006956Y016261D01*
X006801Y016416D01*
X006647Y016261D01*
X006423Y016169D01*
X006180Y016169D01*
X005956Y016261D01*
X005801Y016416D01*
X005647Y016261D01*
X005423Y016169D01*
X005180Y016169D01*
X004956Y016261D01*
X004784Y016433D01*
X004691Y016657D01*
X004691Y016900D01*
X004735Y017005D01*
X004561Y017179D01*
X004561Y017111D02*
X004630Y017111D01*
X004561Y016992D02*
X004730Y016992D01*
X004691Y016874D02*
X004561Y016874D01*
X004561Y016755D02*
X004691Y016755D01*
X004700Y016637D02*
X004561Y016637D01*
X004561Y016518D02*
X004749Y016518D01*
X004818Y016400D02*
X004561Y016400D01*
X004561Y016281D02*
X004936Y016281D01*
X004561Y016163D02*
X016061Y016163D01*
X016061Y016044D02*
X004561Y016044D01*
X004561Y015926D02*
X016017Y015926D01*
X015898Y015807D02*
X004561Y015807D01*
X004561Y015689D02*
X015780Y015689D01*
X015661Y015570D02*
X004561Y015570D01*
X004561Y015452D02*
X007584Y015452D01*
X007298Y015333D02*
X004561Y015333D01*
X004561Y015215D02*
X007179Y015215D01*
X007060Y015096D02*
X004561Y015096D01*
X004561Y014978D02*
X007003Y014978D01*
X006954Y014859D02*
X004561Y014859D01*
X004561Y014741D02*
X006912Y014741D01*
X006912Y014622D02*
X004561Y014622D01*
X004561Y014504D02*
X006912Y014504D01*
X006918Y014385D02*
X004561Y014385D01*
X004561Y014267D02*
X006967Y014267D01*
X007017Y014148D02*
X004561Y014148D01*
X004561Y014030D02*
X007092Y014030D01*
X007210Y013911D02*
X004561Y013911D01*
X004561Y013793D02*
X006502Y013793D01*
X006384Y013674D02*
X004561Y013674D01*
X004561Y013556D02*
X006265Y013556D01*
X006147Y013437D02*
X004561Y013437D01*
X004561Y013319D02*
X006028Y013319D01*
X005936Y013200D02*
X004561Y013200D01*
X004561Y013082D02*
X005936Y013082D01*
X005936Y012963D02*
X004561Y012963D01*
X004561Y012845D02*
X005936Y012845D01*
X005936Y012726D02*
X004561Y012726D01*
X004561Y012608D02*
X005936Y012608D01*
X005936Y012489D02*
X004561Y012489D01*
X004561Y012371D02*
X005936Y012371D01*
X005955Y012252D02*
X004561Y012252D01*
X004561Y012134D02*
X006073Y012134D01*
X006192Y012015D02*
X004561Y012015D01*
X004561Y011897D02*
X006310Y011897D01*
X006429Y011778D02*
X004561Y011778D01*
X004561Y011660D02*
X006432Y011660D01*
X006313Y011541D02*
X004561Y011541D01*
X004561Y011423D02*
X006195Y011423D01*
X006076Y011304D02*
X004561Y011304D01*
X004561Y011186D02*
X005958Y011186D01*
X005839Y011067D02*
X004561Y011067D01*
X004561Y010949D02*
X005751Y010949D01*
X005736Y010830D02*
X004561Y010830D01*
X004561Y010712D02*
X005736Y010712D01*
X005736Y010593D02*
X004561Y010593D01*
X004561Y010475D02*
X005736Y010475D01*
X005736Y010356D02*
X004561Y010356D01*
X004561Y010238D02*
X005736Y010238D01*
X005736Y010119D02*
X004561Y010119D01*
X004561Y010001D02*
X005736Y010001D01*
X005736Y009882D02*
X004561Y009882D01*
X004561Y009764D02*
X005799Y009764D01*
X005917Y009645D02*
X004561Y009645D01*
X004561Y009527D02*
X006036Y009527D01*
X006154Y009408D02*
X004561Y009408D01*
X004561Y009290D02*
X006273Y009290D01*
X006391Y009171D02*
X004561Y009171D01*
X004561Y009053D02*
X006510Y009053D01*
X006673Y008934D02*
X004561Y008934D01*
X005976Y009925D02*
X005976Y010865D01*
X006745Y011633D01*
X007091Y011633D01*
X007091Y012749D01*
X007918Y013556D02*
X012378Y013556D01*
X012378Y013437D02*
X008036Y013437D01*
X008155Y013319D02*
X012378Y013319D01*
X012378Y013200D02*
X008246Y013200D01*
X008246Y013082D02*
X012378Y013082D01*
X012378Y012963D02*
X008246Y012963D01*
X008246Y012845D02*
X012378Y012845D01*
X012378Y012726D02*
X008246Y012726D01*
X008246Y012608D02*
X008495Y012608D01*
X008377Y012489D02*
X008246Y012489D01*
X008246Y012371D02*
X008258Y012371D01*
X007926Y011897D02*
X007873Y011897D01*
X007926Y011778D02*
X007754Y011778D01*
X007636Y011660D02*
X007926Y011660D01*
X007926Y011423D02*
X007663Y011423D01*
X007781Y011304D02*
X007926Y011304D01*
X007926Y011186D02*
X007900Y011186D01*
X008226Y010712D02*
X008313Y010712D01*
X008226Y010593D02*
X008432Y010593D01*
X008550Y010475D02*
X008226Y010475D01*
X008226Y010238D02*
X012378Y010238D01*
X012378Y010356D02*
X007151Y010356D01*
X007953Y009645D02*
X012378Y009645D01*
X012378Y009527D02*
X007835Y009527D01*
X008072Y009764D02*
X012378Y009764D01*
X012378Y009882D02*
X008190Y009882D01*
X008226Y010001D02*
X012378Y010001D01*
X012378Y010119D02*
X008226Y010119D01*
X009001Y010475D02*
X009121Y010475D01*
X009121Y010593D02*
X009001Y010593D01*
X009001Y010712D02*
X009121Y010712D01*
X009121Y010830D02*
X009001Y010830D01*
X009001Y010949D02*
X009121Y010949D01*
X009121Y011067D02*
X009001Y011067D01*
X009001Y011186D02*
X009121Y011186D01*
X009121Y011304D02*
X009001Y011304D01*
X009001Y011423D02*
X009121Y011423D01*
X009121Y011541D02*
X012378Y011541D01*
X012378Y011660D02*
X010196Y011660D01*
X010177Y011569D02*
X010301Y011445D01*
X014587Y011445D01*
X015369Y011445D01*
X015369Y014608D01*
X014843Y014608D01*
X014301Y015149D01*
X014301Y016779D01*
X014261Y016819D02*
X014261Y017369D01*
X014255Y017369D01*
X014163Y017354D01*
X014075Y017325D01*
X013992Y017283D01*
X013917Y017229D01*
X013851Y017163D01*
X013820Y017120D01*
X013819Y017124D01*
X013813Y017130D01*
X013813Y017928D01*
X014377Y017364D01*
X014348Y017369D01*
X014341Y017369D01*
X014341Y016819D01*
X014261Y016819D01*
X014261Y016874D02*
X014341Y016874D01*
X014341Y016992D02*
X014261Y016992D01*
X014261Y017111D02*
X014341Y017111D01*
X014341Y017229D02*
X014261Y017229D01*
X014261Y017348D02*
X014341Y017348D01*
X014275Y017466D02*
X013813Y017466D01*
X013813Y017348D02*
X014143Y017348D01*
X014156Y017585D02*
X013813Y017585D01*
X013813Y017703D02*
X014038Y017703D01*
X013919Y017822D02*
X013813Y017822D01*
X013888Y018192D02*
X013888Y019715D01*
X014203Y019715D02*
X014203Y019324D01*
X014203Y019235D01*
X014518Y019324D02*
X014518Y019715D01*
X014808Y019718D02*
X019144Y019718D01*
X019144Y019836D02*
X016683Y019836D01*
X016714Y019849D02*
X018062Y021197D01*
X018062Y021027D01*
X018167Y020922D01*
X019144Y020922D01*
X019144Y018558D01*
X018793Y018558D01*
X018705Y018521D01*
X017528Y017345D01*
X017423Y017389D01*
X017180Y017389D01*
X016956Y017296D01*
X016801Y017141D01*
X016647Y017296D01*
X016423Y017389D01*
X016180Y017389D01*
X015956Y017296D01*
X015801Y017141D01*
X015647Y017296D01*
X015423Y017389D01*
X015180Y017389D01*
X015075Y017345D01*
X014128Y018291D01*
X014128Y018903D01*
X014136Y018900D01*
X014270Y018900D01*
X014393Y018951D01*
X014487Y019045D01*
X014503Y019084D01*
X014958Y019084D01*
X014990Y019053D01*
X015113Y019002D01*
X015247Y019002D01*
X015370Y019053D01*
X015464Y019147D01*
X015515Y019270D01*
X015515Y019403D01*
X015464Y019527D01*
X015370Y019621D01*
X015247Y019672D01*
X015113Y019672D01*
X014990Y019621D01*
X014934Y019564D01*
X014808Y019564D01*
X014808Y019812D01*
X016625Y019812D01*
X016714Y019849D01*
X016820Y019955D02*
X019144Y019955D01*
X019144Y020073D02*
X016938Y020073D01*
X017057Y020192D02*
X019144Y020192D01*
X019144Y020310D02*
X017175Y020310D01*
X017294Y020429D02*
X019144Y020429D01*
X019144Y020547D02*
X017412Y020547D01*
X017531Y020666D02*
X019144Y020666D01*
X019144Y020784D02*
X017649Y020784D01*
X017768Y020903D02*
X019144Y020903D01*
X019624Y020903D02*
X020789Y020903D01*
X020670Y021021D02*
X019624Y021021D01*
X019624Y021140D02*
X020552Y021140D01*
X020433Y021258D02*
X019624Y021258D01*
X019624Y021377D02*
X020315Y021377D01*
X020196Y021495D02*
X019624Y021495D01*
X019624Y021614D02*
X020078Y021614D01*
X019959Y021732D02*
X019624Y021732D01*
X019624Y021851D02*
X019841Y021851D01*
X019722Y021969D02*
X019624Y021969D01*
X019624Y022067D02*
X024230Y017461D01*
X024230Y017178D01*
X024194Y017213D01*
X024127Y017280D01*
X024039Y017317D01*
X023552Y017317D01*
X023532Y017365D01*
X023499Y017398D01*
X023499Y017707D01*
X023484Y017722D01*
X023520Y017810D01*
X023520Y017943D01*
X023469Y018066D01*
X023375Y018160D01*
X023307Y018189D01*
X023290Y018230D01*
X023222Y018298D01*
X023134Y018335D01*
X023126Y018335D01*
X023126Y018405D01*
X023021Y018511D01*
X022600Y018511D01*
X022425Y018686D01*
X022337Y018722D01*
X020455Y018722D01*
X020366Y018686D01*
X020299Y018618D01*
X020202Y018521D01*
X020201Y018521D01*
X020134Y018454D01*
X020097Y018365D01*
X020097Y018358D01*
X020062Y018358D01*
X019977Y018358D01*
X019977Y018365D01*
X019941Y018454D01*
X019873Y018521D01*
X019785Y018558D01*
X019624Y018558D01*
X019624Y022067D01*
X019384Y022337D02*
X019384Y018318D01*
X019737Y018318D01*
X019737Y018053D01*
X019957Y018414D02*
X020118Y018414D01*
X020213Y018533D02*
X019846Y018533D01*
X019624Y018651D02*
X020332Y018651D01*
X020299Y018618D02*
X020299Y018618D01*
X020502Y018482D02*
X022289Y018482D01*
X022491Y018280D01*
X022491Y018095D01*
X022789Y018095D01*
X023086Y018095D01*
X023086Y017975D01*
X023185Y017876D01*
X023335Y018177D02*
X023514Y018177D01*
X023473Y018059D02*
X023633Y018059D01*
X023520Y017940D02*
X023751Y017940D01*
X023870Y017822D02*
X023520Y017822D01*
X023499Y017703D02*
X023988Y017703D01*
X024107Y017585D02*
X023499Y017585D01*
X023499Y017466D02*
X024225Y017466D01*
X024230Y017348D02*
X023540Y017348D01*
X023329Y017229D02*
X023329Y016662D01*
X023073Y016662D02*
X023073Y016247D01*
X023073Y016238D01*
X022694Y015859D01*
X022300Y015859D01*
X022300Y016656D01*
X022305Y016662D01*
X022305Y017077D01*
X022071Y017312D01*
X021836Y017077D01*
X021282Y017077D01*
X021282Y017077D01*
X021282Y016662D01*
X021026Y016662D02*
X021026Y016819D01*
X021026Y016949D01*
X021026Y017077D01*
X020377Y017077D01*
X020340Y017114D01*
X020340Y017215D01*
X020340Y017481D01*
X020340Y017114D02*
X020187Y017114D01*
X019551Y016478D01*
X019551Y016348D01*
X019551Y015953D01*
X019801Y016388D02*
X019907Y016495D01*
X019948Y016454D01*
X019948Y016362D01*
X019921Y016388D01*
X019801Y016388D01*
X019812Y016400D02*
X019948Y016400D01*
X020188Y016688D02*
X020188Y014524D01*
X020514Y014198D01*
X020514Y013783D01*
X020266Y013793D02*
X020018Y013793D01*
X020018Y013911D02*
X020266Y013911D01*
X020266Y014030D02*
X019937Y014030D01*
X019913Y014053D02*
X019466Y014053D01*
X019466Y014383D01*
X019687Y014605D01*
X019755Y014673D01*
X019791Y014761D01*
X019791Y014769D01*
X019921Y014769D01*
X019948Y014795D01*
X019948Y014476D01*
X019985Y014388D01*
X020052Y014321D01*
X020266Y014107D01*
X020266Y013555D01*
X020018Y013555D01*
X020018Y013948D01*
X019913Y014053D01*
X020106Y014267D02*
X019466Y014267D01*
X019467Y014385D02*
X019988Y014385D01*
X019948Y014504D02*
X019586Y014504D01*
X019704Y014622D02*
X019948Y014622D01*
X019948Y014741D02*
X019783Y014741D01*
X019551Y014809D02*
X019551Y015205D01*
X019551Y014809D02*
X019226Y014483D01*
X019226Y013383D01*
X019602Y013007D01*
X019602Y012709D01*
X020517Y012709D01*
X020758Y012469D01*
X020758Y011837D01*
X020479Y011778D02*
X020189Y011778D01*
X020189Y011660D02*
X020479Y011660D01*
X020479Y011541D02*
X020189Y011541D01*
X020189Y011423D02*
X020479Y011423D01*
X020479Y011400D02*
X020239Y011335D01*
X020239Y011335D01*
X020189Y011286D01*
X020189Y012403D01*
X020124Y012469D01*
X020418Y012469D01*
X020481Y012406D01*
X020479Y012403D01*
X020479Y011400D01*
X020208Y011304D02*
X020189Y011304D01*
X020018Y011067D02*
X016797Y011067D01*
X016797Y010949D02*
X019986Y010949D01*
X019966Y010830D02*
X018371Y010830D01*
X018472Y010712D02*
X019998Y010712D01*
X020030Y010593D02*
X018472Y010593D01*
X018472Y010475D02*
X020134Y010475D01*
X020290Y010356D02*
X018472Y010356D01*
X018472Y010238D02*
X019042Y010238D01*
X019042Y010119D02*
X018432Y010119D01*
X018308Y009882D02*
X017762Y009882D01*
X017807Y009764D02*
X018254Y009764D01*
X018254Y009645D02*
X017807Y009645D01*
X017807Y009527D02*
X018254Y009527D01*
X018254Y009290D02*
X017807Y009290D01*
X017807Y009408D02*
X018592Y009408D01*
X018650Y009369D02*
X018650Y009902D01*
X018714Y009965D01*
X018714Y011362D01*
X018631Y011445D01*
X018432Y011445D01*
X017877Y011445D01*
X017867Y011445D01*
X017302Y011445D01*
X015369Y011445D01*
X014647Y011423D02*
X017822Y011423D01*
X017822Y011400D02*
X017282Y011400D01*
X017282Y011213D01*
X017293Y011173D01*
X017314Y011136D01*
X017344Y011106D01*
X017381Y011085D01*
X017421Y011075D01*
X017822Y011075D01*
X017822Y011400D01*
X017822Y011490D01*
X017822Y011815D01*
X017421Y011815D01*
X017381Y011804D01*
X017344Y011783D01*
X017314Y011753D01*
X017293Y011716D01*
X017282Y011676D01*
X017282Y011490D01*
X017822Y011490D01*
X017912Y011490D01*
X017912Y011815D01*
X018314Y011815D01*
X018354Y011804D01*
X018391Y011783D01*
X018420Y011753D01*
X018442Y011716D01*
X018452Y011676D01*
X018452Y011490D01*
X017912Y011490D01*
X017912Y011400D01*
X017912Y011075D01*
X018314Y011075D01*
X018354Y011085D01*
X018391Y011106D01*
X018420Y011136D01*
X018442Y011173D01*
X018452Y011213D01*
X018452Y011400D01*
X017912Y011400D01*
X017822Y011400D01*
X017912Y011423D02*
X019042Y011423D01*
X019042Y011541D02*
X018452Y011541D01*
X018452Y011660D02*
X019042Y011660D01*
X019042Y011778D02*
X018395Y011778D01*
X018446Y012134D02*
X019042Y012134D01*
X019042Y012252D02*
X018472Y012252D01*
X018472Y012371D02*
X019042Y012371D01*
X019128Y012489D02*
X018472Y012489D01*
X018472Y012608D02*
X019385Y012608D01*
X019235Y012726D02*
X018472Y012726D01*
X018587Y012963D02*
X018704Y012963D01*
X018704Y013082D02*
X018587Y013082D01*
X018587Y013200D02*
X018704Y013200D01*
X018704Y013319D02*
X018587Y013319D01*
X018587Y013437D02*
X018704Y013437D01*
X018645Y013505D02*
X018645Y011459D01*
X018631Y011445D01*
X018452Y011304D02*
X019042Y011304D01*
X019127Y011186D02*
X018445Y011186D01*
X017912Y011186D02*
X017822Y011186D01*
X017822Y011304D02*
X017912Y011304D01*
X017912Y011541D02*
X017822Y011541D01*
X017822Y011660D02*
X017912Y011660D01*
X017912Y011778D02*
X017822Y011778D01*
X017340Y011778D02*
X016797Y011778D01*
X016797Y011660D02*
X017282Y011660D01*
X017282Y011541D02*
X016797Y011541D01*
X016797Y011304D02*
X017282Y011304D01*
X017290Y011186D02*
X016797Y011186D01*
X016797Y010830D02*
X017363Y010830D01*
X017262Y010712D02*
X016797Y010712D01*
X016797Y010593D02*
X017112Y010593D01*
X017062Y010475D02*
X016797Y010475D01*
X016797Y010356D02*
X017062Y010356D01*
X017062Y010238D02*
X016797Y010238D01*
X016797Y010119D02*
X017062Y010119D01*
X017062Y010001D02*
X016797Y010001D01*
X016797Y009882D02*
X017020Y009882D01*
X016974Y009764D02*
X016797Y009764D01*
X016797Y009645D02*
X016974Y009645D01*
X016942Y009527D02*
X016797Y009527D01*
X016924Y009169D02*
X006732Y009169D01*
X005976Y009925D01*
X007313Y011541D02*
X009001Y011541D01*
X009061Y011569D02*
X010177Y011569D01*
X010196Y011423D02*
X014527Y011423D01*
X014527Y011541D02*
X014647Y011541D01*
X014647Y011660D02*
X014527Y011660D01*
X014527Y011778D02*
X014647Y011778D01*
X014647Y011897D02*
X014527Y011897D01*
X014527Y012015D02*
X014647Y012015D01*
X014647Y012134D02*
X014527Y012134D01*
X014527Y012252D02*
X014647Y012252D01*
X014647Y012371D02*
X014527Y012371D01*
X014527Y012489D02*
X014647Y012489D01*
X014647Y012608D02*
X014527Y012608D01*
X014527Y012726D02*
X014647Y012726D01*
X014647Y012845D02*
X014527Y012845D01*
X014527Y012963D02*
X014647Y012963D01*
X014647Y013082D02*
X014527Y013082D01*
X014527Y013200D02*
X014647Y013200D01*
X014647Y013319D02*
X014527Y013319D01*
X014527Y013437D02*
X014647Y013437D01*
X014647Y013556D02*
X014527Y013556D01*
X014527Y013674D02*
X014647Y013674D01*
X014772Y014622D02*
X008691Y014622D01*
X008691Y014504D02*
X016020Y014504D01*
X016020Y014622D02*
X015384Y014622D01*
X015369Y014608D02*
X016060Y015299D01*
X016377Y015299D01*
X016406Y015271D02*
X016406Y015328D01*
X016714Y015328D01*
X016714Y015517D01*
X016703Y015558D01*
X016682Y015594D01*
X016652Y015624D01*
X016616Y015645D01*
X016575Y015656D01*
X016426Y015656D01*
X016505Y015735D01*
X016541Y015823D01*
X016541Y016218D01*
X016647Y016261D01*
X016801Y016416D01*
X016956Y016261D01*
X017061Y016218D01*
X017061Y015688D01*
X017042Y015669D01*
X017005Y015580D01*
X017005Y015532D01*
X016940Y015467D01*
X016940Y015383D01*
X016933Y015383D01*
X016844Y015346D01*
X016777Y015278D01*
X016740Y015190D01*
X016740Y015015D01*
X016680Y014955D01*
X016657Y014979D01*
X016682Y015004D01*
X016703Y015041D01*
X016714Y015081D01*
X016714Y015271D01*
X016406Y015271D01*
X016714Y015215D02*
X016750Y015215D01*
X016740Y015096D02*
X016714Y015096D01*
X016703Y014978D02*
X016658Y014978D01*
X016980Y014916D02*
X016694Y014630D01*
X016377Y014630D01*
X016020Y014741D02*
X015481Y014741D01*
X015629Y014859D02*
X016020Y014859D01*
X016096Y014978D02*
X015747Y014978D01*
X015866Y015096D02*
X016040Y015096D01*
X016040Y015215D02*
X015984Y015215D01*
X015543Y015452D02*
X008019Y015452D01*
X008305Y015333D02*
X014798Y015333D01*
X014721Y015215D02*
X008424Y015215D01*
X008542Y015096D02*
X014721Y015096D01*
X014721Y014978D02*
X008599Y014978D01*
X008649Y014859D02*
X014721Y014859D01*
X014721Y014741D02*
X008691Y014741D01*
X008685Y014385D02*
X016020Y014385D01*
X016112Y014267D02*
X008635Y014267D01*
X008586Y014148D02*
X017005Y014148D01*
X017026Y014030D02*
X008511Y014030D01*
X008393Y013911D02*
X016969Y013911D01*
X016969Y013793D02*
X008229Y013793D01*
X007799Y013674D02*
X012416Y013674D01*
X012378Y012608D02*
X009628Y012608D01*
X009746Y012489D02*
X012378Y012489D01*
X012378Y012371D02*
X009865Y012371D01*
X009983Y012252D02*
X012378Y012252D01*
X012378Y012134D02*
X010102Y012134D01*
X010196Y012015D02*
X012378Y012015D01*
X012378Y011897D02*
X010196Y011897D01*
X010196Y011778D02*
X012378Y011778D01*
X012378Y011304D02*
X010196Y011304D01*
X010196Y011186D02*
X012378Y011186D01*
X012378Y011067D02*
X010165Y011067D01*
X010047Y010949D02*
X012378Y010949D01*
X012378Y010830D02*
X009928Y010830D01*
X009810Y010712D02*
X012378Y010712D01*
X012378Y010593D02*
X009691Y010593D01*
X009573Y010475D02*
X012378Y010475D01*
X009121Y011660D02*
X009001Y011660D01*
X009001Y011778D02*
X009121Y011778D01*
X009121Y011897D02*
X009001Y011897D01*
X009001Y012015D02*
X009121Y012015D01*
X009121Y012134D02*
X009001Y012134D01*
X009001Y012252D02*
X009121Y012252D01*
X009121Y012371D02*
X009001Y012371D01*
X009001Y012489D02*
X009121Y012489D01*
X009121Y012608D02*
X009001Y012608D01*
X008936Y016281D02*
X008667Y016281D01*
X008785Y016400D02*
X008818Y016400D01*
X008301Y016779D02*
X008872Y017349D01*
X011282Y017349D01*
X013258Y019324D01*
X013258Y019715D01*
X012943Y019715D02*
X012943Y019324D01*
X012089Y018470D01*
X008993Y018470D01*
X007301Y016779D01*
X007528Y017345D02*
X007423Y017389D01*
X007251Y017389D01*
X008947Y019084D01*
X012364Y019084D01*
X011989Y018710D01*
X008945Y018710D01*
X008857Y018674D01*
X007528Y017345D01*
X007531Y017348D02*
X007522Y017348D01*
X007650Y017466D02*
X007328Y017466D01*
X007447Y017585D02*
X007768Y017585D01*
X007887Y017703D02*
X007565Y017703D01*
X007684Y017822D02*
X008005Y017822D01*
X008124Y017940D02*
X007802Y017940D01*
X007921Y018059D02*
X008242Y018059D01*
X008361Y018177D02*
X008039Y018177D01*
X008158Y018296D02*
X008479Y018296D01*
X008598Y018414D02*
X008276Y018414D01*
X008395Y018533D02*
X008716Y018533D01*
X008835Y018651D02*
X008513Y018651D01*
X008632Y018770D02*
X012049Y018770D01*
X012167Y018888D02*
X008750Y018888D01*
X008869Y019007D02*
X012286Y019007D01*
X012628Y019324D02*
X012628Y019715D01*
X012313Y019715D02*
X012313Y020105D01*
X014686Y020105D01*
X014738Y020052D01*
X016578Y020052D01*
X018102Y021576D01*
X018102Y021693D01*
X018734Y021693D01*
X018062Y021933D02*
X018054Y021933D01*
X017966Y021896D01*
X017898Y021828D01*
X017862Y021740D01*
X017862Y021676D01*
X017334Y021148D01*
X017292Y021250D01*
X017197Y021345D01*
X017074Y021396D01*
X017058Y021396D01*
X017058Y021655D01*
X016969Y021744D01*
X016983Y021758D01*
X016983Y021829D01*
X016991Y021829D01*
X017079Y021865D01*
X017121Y021907D01*
X017122Y021907D01*
X017245Y021958D01*
X017340Y022052D01*
X017391Y022175D01*
X017391Y022192D01*
X018062Y022192D01*
X018062Y021933D01*
X018062Y021969D02*
X017256Y021969D01*
X017354Y022088D02*
X018062Y022088D01*
X017920Y021851D02*
X017044Y021851D01*
X016981Y021732D02*
X017862Y021732D01*
X017800Y021614D02*
X017058Y021614D01*
X017058Y021495D02*
X017681Y021495D01*
X017563Y021377D02*
X017120Y021377D01*
X017284Y021258D02*
X017444Y021258D01*
X017008Y021060D02*
X017008Y021061D01*
X017008Y021060D02*
X015639Y021060D01*
X015510Y020932D01*
X015105Y020932D01*
X015105Y020617D02*
X015496Y020617D01*
X015496Y020635D01*
X015585Y020724D01*
X015961Y020724D01*
X016338Y020724D01*
X016348Y020714D01*
X016641Y020714D01*
X016563Y020377D02*
X016478Y020292D01*
X015535Y020292D01*
X015535Y020377D01*
X015543Y020377D01*
X015626Y020411D01*
X015651Y020387D01*
X016272Y020387D01*
X016296Y020411D01*
X016331Y020377D01*
X016563Y020377D01*
X016496Y020310D02*
X015535Y020310D01*
X015105Y020302D02*
X015041Y020367D01*
X014513Y020367D01*
X014154Y020726D01*
X014489Y020730D02*
X014489Y020792D01*
X014438Y020915D01*
X014344Y021010D01*
X014221Y021061D01*
X014088Y021061D01*
X013965Y021010D01*
X013870Y020915D01*
X013819Y020792D01*
X013819Y020659D01*
X013870Y020536D01*
X013965Y020442D01*
X014088Y020391D01*
X014150Y020391D01*
X014196Y020345D01*
X012265Y020345D01*
X012177Y020308D01*
X012155Y020286D01*
X012155Y021117D01*
X012135Y021137D01*
X012135Y021247D01*
X012135Y021357D01*
X012155Y021377D01*
X014675Y021377D01*
X014675Y021432D02*
X014675Y020607D01*
X014612Y020607D01*
X014489Y020730D01*
X014489Y020784D02*
X014675Y020784D01*
X014675Y020666D02*
X014554Y020666D01*
X014444Y020903D02*
X014675Y020903D01*
X014675Y021021D02*
X014317Y021021D01*
X013992Y021021D02*
X012155Y021021D01*
X012155Y020903D02*
X013865Y020903D01*
X013819Y020784D02*
X012155Y020784D01*
X012155Y020666D02*
X013819Y020666D01*
X013866Y020547D02*
X012155Y020547D01*
X012155Y020429D02*
X013996Y020429D01*
X013573Y019715D02*
X013573Y017050D01*
X013301Y016779D01*
X013081Y017348D02*
X012522Y017348D01*
X012423Y017389D02*
X012647Y017296D01*
X012801Y017141D01*
X012956Y017296D01*
X013180Y017389D01*
X013333Y017389D01*
X013333Y019060D01*
X011592Y017319D01*
X011647Y017296D01*
X011801Y017141D01*
X011956Y017296D01*
X012180Y017389D01*
X012423Y017389D01*
X012714Y017229D02*
X012889Y017229D01*
X013333Y017466D02*
X011739Y017466D01*
X011620Y017348D02*
X012081Y017348D01*
X011889Y017229D02*
X011714Y017229D01*
X011857Y017585D02*
X013333Y017585D01*
X013333Y017703D02*
X011976Y017703D01*
X012094Y017822D02*
X013333Y017822D01*
X013333Y017940D02*
X012213Y017940D01*
X012331Y018059D02*
X013333Y018059D01*
X013333Y018177D02*
X012450Y018177D01*
X012568Y018296D02*
X013333Y018296D01*
X013333Y018414D02*
X012687Y018414D01*
X012805Y018533D02*
X013333Y018533D01*
X013333Y018651D02*
X012924Y018651D01*
X013042Y018770D02*
X013333Y018770D01*
X013333Y018888D02*
X013161Y018888D01*
X013279Y019007D02*
X013333Y019007D01*
X012628Y019324D02*
X008847Y019324D01*
X006301Y016779D01*
X006081Y017348D02*
X005522Y017348D01*
X005423Y017389D02*
X005647Y017296D01*
X005801Y017141D01*
X005956Y017296D01*
X006180Y017389D01*
X006423Y017389D01*
X006528Y017345D01*
X008644Y019460D01*
X008711Y019528D01*
X008800Y019564D01*
X012023Y019564D01*
X012023Y020012D01*
X011401Y020012D01*
X011393Y020020D01*
X011275Y019902D01*
X011244Y019827D01*
X011176Y019760D01*
X011088Y019723D01*
X011052Y019723D01*
X010975Y019645D01*
X010156Y019645D01*
X010051Y019751D01*
X010051Y020175D01*
X010093Y020217D01*
X010082Y020236D01*
X010071Y020277D01*
X010071Y020427D01*
X010557Y020427D01*
X010557Y020444D01*
X010071Y020444D01*
X010071Y020594D01*
X010082Y020635D01*
X010093Y020654D01*
X010051Y020696D01*
X010051Y021120D01*
X010156Y021226D01*
X010292Y021226D01*
X010233Y021284D01*
X007217Y021284D01*
X007027Y021095D01*
X006939Y021059D01*
X006931Y021059D01*
X006931Y021046D01*
X006684Y020799D01*
X006931Y020551D01*
X006931Y020046D01*
X006670Y019784D01*
X006911Y019543D01*
X006911Y019339D01*
X006361Y019339D01*
X006361Y019259D01*
X006911Y019259D01*
X006911Y019054D01*
X006566Y018709D01*
X006361Y018709D01*
X006361Y019259D01*
X006281Y019259D01*
X006281Y018709D01*
X006077Y018709D01*
X005836Y018950D01*
X005574Y018689D01*
X005069Y018689D01*
X004787Y018970D01*
X004787Y017633D01*
X005075Y017345D01*
X005180Y017389D01*
X005423Y017389D01*
X005714Y017229D02*
X005889Y017229D01*
X006522Y017348D02*
X006531Y017348D01*
X006650Y017466D02*
X004953Y017466D01*
X004835Y017585D02*
X006768Y017585D01*
X006887Y017703D02*
X004787Y017703D01*
X004787Y017822D02*
X007005Y017822D01*
X007124Y017940D02*
X004787Y017940D01*
X004787Y018059D02*
X007242Y018059D01*
X007361Y018177D02*
X004787Y018177D01*
X004787Y018296D02*
X007479Y018296D01*
X007598Y018414D02*
X004787Y018414D01*
X004787Y018533D02*
X007716Y018533D01*
X007835Y018651D02*
X004787Y018651D01*
X004787Y018770D02*
X004988Y018770D01*
X005071Y018728D02*
X004747Y019053D01*
X004747Y021816D01*
X005101Y022170D01*
X010641Y022170D01*
X010641Y022233D01*
X010623Y022252D02*
X010623Y022214D01*
X010660Y022214D01*
X010660Y021915D01*
X010899Y021915D01*
X010939Y021926D01*
X010976Y021947D01*
X011006Y021977D01*
X011027Y022014D01*
X011038Y022054D01*
X011038Y022118D01*
X011167Y021988D01*
X011256Y021952D01*
X011315Y021952D01*
X011315Y021877D01*
X011725Y021877D01*
X011725Y021877D01*
X011315Y021877D01*
X011315Y021802D01*
X011288Y021802D01*
X011199Y021765D01*
X011158Y021724D01*
X011154Y021728D01*
X011065Y021764D01*
X011050Y021764D01*
X010952Y021862D01*
X010331Y021862D01*
X010233Y021764D01*
X007069Y021764D01*
X006981Y021728D01*
X006868Y021615D01*
X006574Y021909D01*
X006069Y021909D01*
X005931Y021771D01*
X005931Y021803D01*
X005826Y021909D01*
X004896Y021909D01*
X005278Y022290D01*
X010245Y022290D01*
X010245Y022252D01*
X010623Y022252D01*
X010623Y022214D02*
X010245Y022214D01*
X010245Y022054D01*
X010256Y022014D01*
X010277Y021977D01*
X010307Y021947D01*
X010343Y021926D01*
X010384Y021915D01*
X010623Y021915D01*
X010623Y022214D01*
X010623Y022206D02*
X010660Y022206D01*
X010641Y022170D02*
X010641Y021935D01*
X011277Y021935D01*
X011335Y021877D01*
X011530Y021877D01*
X011725Y021877D01*
X012116Y021877D01*
X012116Y021494D01*
X014647Y021494D01*
X014715Y021562D01*
X015105Y021562D01*
X014695Y021562D01*
X014695Y021637D01*
X014668Y021637D01*
X014579Y021673D01*
X014278Y021975D01*
X014241Y022063D01*
X014241Y022295D01*
X014197Y022339D01*
X014146Y022462D01*
X014146Y022595D01*
X014175Y022665D01*
X013322Y022665D01*
X013489Y022498D01*
X013551Y022498D01*
X013674Y022447D01*
X013768Y022353D01*
X013819Y022230D01*
X013819Y022097D01*
X013768Y021973D01*
X013674Y021879D01*
X013551Y021828D01*
X013418Y021828D01*
X013294Y021879D01*
X013200Y021973D01*
X013149Y022097D01*
X013149Y022159D01*
X012868Y022440D01*
X012868Y022020D01*
X012912Y021976D01*
X012963Y021852D01*
X012963Y021719D01*
X012912Y021596D01*
X012818Y021502D01*
X012695Y021451D01*
X012561Y021451D01*
X012438Y021502D01*
X012344Y021596D01*
X012293Y021719D01*
X012293Y021852D01*
X012344Y021976D01*
X012388Y022020D01*
X012388Y022255D01*
X012322Y022228D01*
X012189Y022228D01*
X012155Y022242D01*
X012155Y022007D01*
X012135Y021987D01*
X012135Y021877D01*
X011725Y021877D01*
X011725Y021877D01*
X012135Y021877D01*
X012135Y021767D01*
X012155Y021747D01*
X012155Y021377D01*
X012155Y021495D02*
X012455Y021495D01*
X012337Y021614D02*
X012155Y021614D01*
X012155Y021732D02*
X012293Y021732D01*
X012293Y021851D02*
X012135Y021851D01*
X012135Y021969D02*
X012341Y021969D01*
X012388Y022088D02*
X012155Y022088D01*
X012155Y022206D02*
X012388Y022206D01*
X012255Y022563D02*
X012255Y022647D01*
X012313Y022704D01*
X012313Y023095D01*
X012023Y023154D02*
X011028Y023154D01*
X011146Y023036D02*
X012023Y023036D01*
X012023Y022917D02*
X011265Y022917D01*
X011383Y022799D02*
X012017Y022799D01*
X012016Y022797D02*
X011401Y022797D01*
X011393Y022789D01*
X007281Y026900D01*
X007281Y031732D01*
X007387Y031775D01*
X007541Y031930D01*
X007696Y031775D01*
X007801Y031732D01*
X007801Y027598D01*
X007838Y027510D01*
X011999Y023349D01*
X012023Y023325D01*
X012023Y022804D01*
X012016Y022797D01*
X011725Y022507D02*
X011335Y022507D01*
X007041Y026801D01*
X007041Y032293D01*
X007041Y034293D01*
X006801Y033732D02*
X006801Y032853D01*
X006696Y032810D01*
X006541Y032655D01*
X006387Y032810D01*
X006350Y032825D01*
X006359Y032828D01*
X006359Y032828D01*
X006537Y033029D01*
X006601Y033289D01*
X006537Y033548D01*
X006537Y033548D01*
X006359Y033749D01*
X006340Y033756D01*
X006387Y033775D01*
X006541Y033930D01*
X006696Y033775D01*
X006801Y033732D01*
X006801Y033701D02*
X006402Y033701D01*
X006359Y033749D02*
X006359Y033749D01*
X006431Y033819D02*
X006652Y033819D01*
X006507Y033582D02*
X006801Y033582D01*
X006801Y033464D02*
X006558Y033464D01*
X006587Y033345D02*
X006801Y033345D01*
X006801Y033227D02*
X006586Y033227D01*
X006556Y033108D02*
X006801Y033108D01*
X006801Y032990D02*
X006502Y032990D01*
X006537Y033029D02*
X006537Y033029D01*
X006397Y032871D02*
X006801Y032871D01*
X006639Y032753D02*
X006444Y032753D01*
X005748Y032831D02*
X005696Y032810D01*
X005541Y032655D01*
X005387Y032810D01*
X005281Y032853D01*
X005281Y033732D01*
X005387Y033775D01*
X005541Y033930D01*
X005696Y033775D01*
X005755Y033751D01*
X005623Y033659D01*
X005498Y033422D01*
X005498Y033155D01*
X005623Y032918D01*
X005748Y032831D01*
X005690Y032871D02*
X005281Y032871D01*
X005281Y032990D02*
X005585Y032990D01*
X005623Y032918D02*
X005623Y032918D01*
X005623Y032918D01*
X005639Y032753D02*
X005444Y032753D01*
X005523Y033108D02*
X005281Y033108D01*
X005281Y033227D02*
X005498Y033227D01*
X005498Y033345D02*
X005281Y033345D01*
X005281Y033464D02*
X005520Y033464D01*
X005582Y033582D02*
X005281Y033582D01*
X005281Y033701D02*
X005682Y033701D01*
X005623Y033659D02*
X005623Y033659D01*
X005623Y033659D01*
X005652Y033819D02*
X005431Y033819D01*
X005041Y034293D02*
X005041Y032293D01*
X004561Y032675D02*
X004561Y033910D01*
X004696Y033775D01*
X004801Y033732D01*
X004801Y032853D01*
X004696Y032810D01*
X004561Y032675D01*
X004561Y032753D02*
X004639Y032753D01*
X004561Y032871D02*
X004801Y032871D01*
X004801Y032990D02*
X004561Y032990D01*
X004561Y033108D02*
X004801Y033108D01*
X004801Y033227D02*
X004561Y033227D01*
X004561Y033345D02*
X004801Y033345D01*
X004801Y033464D02*
X004561Y033464D01*
X004561Y033582D02*
X004801Y033582D01*
X004801Y033701D02*
X004561Y033701D01*
X004561Y033819D02*
X004652Y033819D01*
X004561Y034675D02*
X004561Y034869D01*
X004838Y034869D01*
X004696Y034810D01*
X004561Y034675D01*
X004561Y034767D02*
X004653Y034767D01*
X005245Y034869D02*
X005838Y034869D01*
X005696Y034810D01*
X005541Y034655D01*
X005387Y034810D01*
X005245Y034869D01*
X005430Y034767D02*
X005653Y034767D01*
X006245Y034869D02*
X006268Y034859D01*
X006278Y034869D01*
X006245Y034869D01*
X006612Y034863D02*
X022169Y034863D01*
X022318Y034715D01*
X022318Y034265D01*
X022127Y034075D01*
X021941Y034075D01*
X021941Y033777D01*
X021805Y033440D02*
X022252Y033440D01*
X022358Y033545D01*
X022358Y033966D01*
X022521Y034129D01*
X022558Y034217D01*
X022558Y034762D01*
X022521Y034851D01*
X022503Y034869D01*
X030427Y034869D01*
X030427Y008863D01*
X028690Y008863D01*
X028730Y008903D01*
X028803Y009078D01*
X028803Y009267D01*
X028730Y009442D01*
X028597Y009575D01*
X028422Y009648D01*
X028233Y009648D01*
X028204Y009636D01*
X027488Y010351D01*
X027488Y015441D01*
X027532Y015485D01*
X027583Y015608D01*
X027583Y015742D01*
X027532Y015865D01*
X027438Y015959D01*
X027315Y016010D01*
X027182Y016010D01*
X027059Y015959D01*
X026964Y015865D01*
X026913Y015742D01*
X026913Y015608D01*
X026964Y015485D01*
X027008Y015441D01*
X027008Y010204D01*
X027045Y010116D01*
X027112Y010048D01*
X027112Y010048D01*
X027864Y009296D01*
X027852Y009267D01*
X027852Y009078D01*
X027925Y008903D01*
X027965Y008863D01*
X027661Y008863D01*
X027675Y008876D01*
X027717Y008934D01*
X027912Y008934D01*
X027863Y009053D02*
X027767Y009053D01*
X027772Y009066D02*
X027782Y009134D01*
X027366Y009134D01*
X027366Y009211D01*
X027782Y009211D01*
X027772Y009279D01*
X027749Y009347D01*
X027717Y009411D01*
X027675Y009469D01*
X027624Y009520D01*
X027566Y009562D01*
X027502Y009594D01*
X027434Y009617D01*
X027366Y009627D01*
X027366Y009211D01*
X027289Y009211D01*
X027289Y009627D01*
X027221Y009617D01*
X027153Y009594D01*
X027089Y009562D01*
X027031Y009520D01*
X026980Y009469D01*
X026938Y009411D01*
X026906Y009347D01*
X026883Y009279D01*
X026873Y009211D01*
X027289Y009211D01*
X027289Y009134D01*
X026873Y009134D01*
X026883Y009066D01*
X026906Y008998D01*
X026938Y008934D01*
X026743Y008934D01*
X026730Y008903D02*
X026803Y009078D01*
X026803Y009267D01*
X026730Y009442D01*
X026597Y009575D01*
X026422Y009648D01*
X026233Y009648D01*
X026204Y009636D01*
X024710Y011130D01*
X024710Y011570D01*
X024858Y011422D01*
X025162Y011296D01*
X025492Y011296D01*
X025797Y011422D01*
X026031Y011655D01*
X026157Y011960D01*
X026157Y012290D01*
X026031Y012595D01*
X025797Y012829D01*
X025492Y012955D01*
X025162Y012955D01*
X024858Y012829D01*
X024710Y012681D01*
X024710Y017609D01*
X024673Y017697D01*
X019587Y022783D01*
X019519Y022851D01*
X019431Y022887D01*
X015864Y022887D01*
X015798Y022860D01*
X016177Y023239D01*
X016245Y023307D01*
X016281Y023395D01*
X016281Y031732D01*
X016387Y031775D01*
X016541Y031930D01*
X016696Y031775D01*
X016920Y031683D01*
X017163Y031683D01*
X017387Y031775D01*
X017559Y031947D01*
X017560Y031951D01*
X017591Y031908D01*
X017657Y031843D01*
X017732Y031788D01*
X017815Y031746D01*
X017903Y031717D01*
X017995Y031703D01*
X018001Y031703D01*
X018001Y032253D01*
X018081Y032253D01*
X018081Y032333D01*
X018001Y032333D01*
X018001Y032883D01*
X017995Y032883D01*
X017903Y032868D01*
X017851Y032851D01*
X017851Y033482D01*
X020560Y033482D01*
X020580Y033491D01*
X020632Y033439D01*
X021079Y033439D01*
X021079Y033303D01*
X020781Y033005D01*
X020744Y032917D01*
X020744Y032909D01*
X020674Y032909D01*
X020568Y032804D01*
X020568Y032340D01*
X020674Y032234D01*
X021295Y032234D01*
X021354Y032293D01*
X021362Y032274D01*
X021429Y032207D01*
X021556Y032080D01*
X021556Y031659D01*
X021662Y031554D01*
X022283Y031554D01*
X022389Y031659D01*
X022389Y032123D01*
X022283Y032229D01*
X022212Y032229D01*
X022212Y032236D01*
X022193Y032282D01*
X022230Y032282D01*
X022270Y032293D01*
X022307Y032314D01*
X022337Y032344D01*
X022358Y032381D01*
X022369Y032421D01*
X022369Y032581D01*
X021991Y032581D01*
X021991Y032619D01*
X021954Y032619D01*
X021954Y032917D01*
X021805Y032917D01*
X021805Y033440D01*
X021805Y033345D02*
X030427Y033345D01*
X030427Y033227D02*
X021805Y033227D01*
X021805Y033108D02*
X030427Y033108D01*
X030427Y032990D02*
X021805Y032990D01*
X021954Y032871D02*
X021991Y032871D01*
X021991Y032917D02*
X021991Y032619D01*
X022369Y032619D01*
X022369Y032778D01*
X022358Y032819D01*
X022337Y032856D01*
X022307Y032885D01*
X022270Y032906D01*
X022230Y032917D01*
X021991Y032917D01*
X021991Y032753D02*
X021954Y032753D01*
X021954Y032634D02*
X021991Y032634D01*
X021972Y032600D02*
X022359Y032213D01*
X022359Y031566D01*
X020984Y031566D01*
X020984Y031863D01*
X018471Y031863D01*
X018041Y032293D01*
X018081Y032279D02*
X020629Y032279D01*
X020686Y032170D02*
X020650Y032149D01*
X020620Y032119D01*
X020599Y032082D01*
X020588Y032042D01*
X020588Y031882D01*
X020966Y031882D01*
X020966Y032181D01*
X020727Y032181D01*
X020686Y032170D01*
X020670Y032160D02*
X018618Y032160D01*
X018617Y032154D02*
X018631Y032246D01*
X018631Y032253D01*
X018081Y032253D01*
X018081Y031703D01*
X018088Y031703D01*
X018180Y031717D01*
X018268Y031746D01*
X018351Y031788D01*
X018426Y031843D01*
X018491Y031908D01*
X018546Y031983D01*
X018588Y032066D01*
X018617Y032154D01*
X018576Y032042D02*
X020588Y032042D01*
X020588Y031923D02*
X018502Y031923D01*
X018374Y031805D02*
X020588Y031805D01*
X020588Y031844D02*
X020588Y031685D01*
X020599Y031644D01*
X020620Y031607D01*
X020650Y031578D01*
X020686Y031557D01*
X020727Y031546D01*
X020966Y031546D01*
X020966Y031844D01*
X021003Y031844D01*
X021003Y031546D01*
X021242Y031546D01*
X021282Y031557D01*
X021319Y031578D01*
X021349Y031607D01*
X021370Y031644D01*
X021381Y031685D01*
X021381Y031844D01*
X021003Y031844D01*
X021003Y031882D01*
X020966Y031882D01*
X020966Y031844D01*
X020588Y031844D01*
X020588Y031686D02*
X017171Y031686D01*
X016912Y031686D02*
X016281Y031686D01*
X016281Y031568D02*
X020668Y031568D01*
X020966Y031568D02*
X021003Y031568D01*
X021003Y031686D02*
X020966Y031686D01*
X020966Y031805D02*
X021003Y031805D01*
X021003Y031882D02*
X021381Y031882D01*
X021381Y032042D01*
X021370Y032082D01*
X021349Y032119D01*
X021319Y032149D01*
X021282Y032170D01*
X021242Y032181D01*
X021003Y032181D01*
X021003Y031882D01*
X021003Y031923D02*
X020966Y031923D01*
X020966Y032042D02*
X021003Y032042D01*
X021003Y032160D02*
X020966Y032160D01*
X021299Y032160D02*
X021476Y032160D01*
X021556Y032042D02*
X021381Y032042D01*
X021381Y031923D02*
X021556Y031923D01*
X021556Y031805D02*
X021381Y031805D01*
X021381Y031686D02*
X021556Y031686D01*
X021648Y031568D02*
X021301Y031568D01*
X021339Y032279D02*
X021360Y032279D01*
X021565Y032410D02*
X021565Y034110D01*
X021941Y034486D01*
X021525Y034530D02*
X021359Y034530D01*
X021359Y034623D02*
X021359Y034296D01*
X021386Y034269D01*
X021525Y034409D01*
X021525Y034623D01*
X021359Y034623D01*
X021359Y034412D02*
X021525Y034412D01*
X021409Y034293D02*
X021362Y034293D01*
X021128Y034187D02*
X021319Y033997D01*
X021319Y033204D01*
X020984Y032869D01*
X020984Y032572D01*
X020568Y032516D02*
X018589Y032516D01*
X018588Y032519D02*
X018546Y032602D01*
X018491Y032677D01*
X018426Y032743D01*
X018351Y032797D01*
X018268Y032839D01*
X018180Y032868D01*
X018088Y032883D01*
X018081Y032883D01*
X018081Y032333D01*
X018631Y032333D01*
X018631Y032339D01*
X018617Y032431D01*
X018588Y032519D01*
X018622Y032397D02*
X020568Y032397D01*
X020568Y032634D02*
X018523Y032634D01*
X018412Y032753D02*
X020568Y032753D01*
X020635Y032871D02*
X018160Y032871D01*
X018081Y032871D02*
X018001Y032871D01*
X017923Y032871D02*
X017851Y032871D01*
X017851Y032990D02*
X020774Y032990D01*
X020884Y033108D02*
X017851Y033108D01*
X017851Y033227D02*
X021002Y033227D01*
X021079Y033345D02*
X017851Y033345D01*
X017851Y033464D02*
X020607Y033464D01*
X020512Y033722D02*
X017611Y033722D01*
X017611Y032863D01*
X017041Y032293D01*
X016667Y031805D02*
X016416Y031805D01*
X016535Y031923D02*
X016548Y031923D01*
X016541Y032655D02*
X016387Y032810D01*
X016281Y032853D01*
X016281Y033732D01*
X016387Y033775D01*
X016541Y033930D01*
X016696Y033775D01*
X016920Y033683D01*
X017163Y033683D01*
X017268Y033726D01*
X017371Y033623D01*
X017371Y032962D01*
X017268Y032859D01*
X017163Y032903D01*
X016920Y032903D01*
X016696Y032810D01*
X016541Y032655D01*
X016444Y032753D02*
X016639Y032753D01*
X016844Y032871D02*
X016281Y032871D01*
X016281Y032990D02*
X017371Y032990D01*
X017371Y033108D02*
X016281Y033108D01*
X016281Y033227D02*
X017371Y033227D01*
X017371Y033345D02*
X016281Y033345D01*
X016281Y033464D02*
X017371Y033464D01*
X017371Y033582D02*
X016281Y033582D01*
X016281Y033701D02*
X016877Y033701D01*
X016652Y033819D02*
X016431Y033819D01*
X016041Y034293D02*
X016041Y032293D01*
X016041Y023443D01*
X015105Y022507D01*
X015056Y022797D02*
X014808Y022797D01*
X014808Y023419D01*
X014800Y023427D01*
X015245Y023872D01*
X015281Y023960D01*
X015281Y031732D01*
X015387Y031775D01*
X015541Y031930D01*
X015696Y031775D01*
X015801Y031732D01*
X015801Y023542D01*
X015056Y022797D01*
X015058Y022799D02*
X014808Y022799D01*
X014808Y022917D02*
X015176Y022917D01*
X015295Y023036D02*
X014808Y023036D01*
X014808Y023154D02*
X015413Y023154D01*
X015532Y023273D02*
X014808Y023273D01*
X014808Y023391D02*
X015650Y023391D01*
X015769Y023510D02*
X014882Y023510D01*
X015001Y023628D02*
X015801Y023628D01*
X015801Y023747D02*
X015119Y023747D01*
X015238Y023865D02*
X015801Y023865D01*
X015801Y023984D02*
X015281Y023984D01*
X015281Y024102D02*
X015801Y024102D01*
X015801Y024221D02*
X015281Y024221D01*
X015281Y024339D02*
X015801Y024339D01*
X015801Y024458D02*
X015281Y024458D01*
X015281Y024576D02*
X015801Y024576D01*
X015801Y024695D02*
X015281Y024695D01*
X015281Y024813D02*
X015801Y024813D01*
X015801Y024932D02*
X015281Y024932D01*
X015281Y025050D02*
X015801Y025050D01*
X015801Y025169D02*
X015281Y025169D01*
X015281Y025287D02*
X015801Y025287D01*
X015801Y025406D02*
X015281Y025406D01*
X015281Y025524D02*
X015801Y025524D01*
X015801Y025643D02*
X015281Y025643D01*
X015281Y025761D02*
X015801Y025761D01*
X015801Y025880D02*
X015281Y025880D01*
X015281Y025998D02*
X015801Y025998D01*
X015801Y026117D02*
X015281Y026117D01*
X015281Y026235D02*
X015801Y026235D01*
X015801Y026354D02*
X015281Y026354D01*
X015281Y026472D02*
X015801Y026472D01*
X015801Y026591D02*
X015281Y026591D01*
X015281Y026709D02*
X015801Y026709D01*
X015801Y026828D02*
X015281Y026828D01*
X015281Y026946D02*
X015801Y026946D01*
X015801Y027065D02*
X015281Y027065D01*
X015281Y027183D02*
X015801Y027183D01*
X015801Y027302D02*
X015281Y027302D01*
X015281Y027420D02*
X015801Y027420D01*
X015801Y027539D02*
X015281Y027539D01*
X015281Y027657D02*
X015801Y027657D01*
X015801Y027776D02*
X015281Y027776D01*
X015281Y027894D02*
X015801Y027894D01*
X015801Y028013D02*
X015281Y028013D01*
X015281Y028131D02*
X015801Y028131D01*
X015801Y028250D02*
X015281Y028250D01*
X015281Y028368D02*
X015801Y028368D01*
X015801Y028487D02*
X015281Y028487D01*
X015281Y028605D02*
X015801Y028605D01*
X015801Y028724D02*
X015281Y028724D01*
X015281Y028842D02*
X015801Y028842D01*
X015801Y028961D02*
X015281Y028961D01*
X015281Y029079D02*
X015801Y029079D01*
X015801Y029198D02*
X015281Y029198D01*
X015281Y029316D02*
X015801Y029316D01*
X015801Y029435D02*
X015281Y029435D01*
X015281Y029553D02*
X015801Y029553D01*
X015801Y029672D02*
X015281Y029672D01*
X015281Y029790D02*
X015801Y029790D01*
X015801Y029909D02*
X015281Y029909D01*
X015281Y030027D02*
X015801Y030027D01*
X015801Y030146D02*
X015281Y030146D01*
X015281Y030264D02*
X015801Y030264D01*
X015801Y030383D02*
X015281Y030383D01*
X015281Y030501D02*
X015801Y030501D01*
X015801Y030620D02*
X015281Y030620D01*
X015281Y030738D02*
X015801Y030738D01*
X015801Y030857D02*
X015281Y030857D01*
X015281Y030975D02*
X015801Y030975D01*
X015801Y031094D02*
X015281Y031094D01*
X015281Y031212D02*
X015801Y031212D01*
X015801Y031331D02*
X015281Y031331D01*
X015281Y031449D02*
X015801Y031449D01*
X015801Y031568D02*
X015281Y031568D01*
X015281Y031686D02*
X015801Y031686D01*
X015667Y031805D02*
X015416Y031805D01*
X015535Y031923D02*
X015548Y031923D01*
X015541Y032655D02*
X015387Y032810D01*
X015281Y032853D01*
X015281Y033732D01*
X015387Y033775D01*
X015541Y033930D01*
X015696Y033775D01*
X015801Y033732D01*
X015801Y032853D01*
X015696Y032810D01*
X015541Y032655D01*
X015444Y032753D02*
X015639Y032753D01*
X015801Y032871D02*
X015281Y032871D01*
X015281Y032990D02*
X015801Y032990D01*
X015801Y033108D02*
X015281Y033108D01*
X015281Y033227D02*
X015801Y033227D01*
X015801Y033345D02*
X015281Y033345D01*
X015281Y033464D02*
X015801Y033464D01*
X015801Y033582D02*
X015281Y033582D01*
X015281Y033701D02*
X015801Y033701D01*
X015652Y033819D02*
X015431Y033819D01*
X015041Y034293D02*
X015041Y032293D01*
X015041Y024008D01*
X014518Y023485D01*
X014518Y023095D01*
X014203Y023095D02*
X014203Y023485D01*
X014203Y032131D01*
X014041Y032293D01*
X014041Y034293D01*
X013801Y033732D02*
X013801Y032853D01*
X013696Y032810D01*
X013541Y032655D01*
X013387Y032810D01*
X013281Y032853D01*
X013281Y033732D01*
X013387Y033775D01*
X013541Y033930D01*
X013696Y033775D01*
X013801Y033732D01*
X013801Y033701D02*
X013281Y033701D01*
X013281Y033582D02*
X013801Y033582D01*
X013801Y033464D02*
X013281Y033464D01*
X013281Y033345D02*
X013801Y033345D01*
X013801Y033227D02*
X013281Y033227D01*
X013281Y033108D02*
X013801Y033108D01*
X013801Y032990D02*
X013281Y032990D01*
X013281Y032871D02*
X013801Y032871D01*
X013639Y032753D02*
X013444Y032753D01*
X013041Y032293D02*
X013041Y034293D01*
X012801Y033732D02*
X012801Y032853D01*
X012696Y032810D01*
X012541Y032655D01*
X012387Y032810D01*
X012281Y032853D01*
X012281Y033732D01*
X012387Y033775D01*
X012541Y033930D01*
X012696Y033775D01*
X012801Y033732D01*
X012801Y033701D02*
X012281Y033701D01*
X012281Y033582D02*
X012801Y033582D01*
X012801Y033464D02*
X012281Y033464D01*
X012281Y033345D02*
X012801Y033345D01*
X012801Y033227D02*
X012281Y033227D01*
X012281Y033108D02*
X012801Y033108D01*
X012801Y032990D02*
X012281Y032990D01*
X012281Y032871D02*
X012801Y032871D01*
X012639Y032753D02*
X012444Y032753D01*
X011801Y032853D02*
X011696Y032810D01*
X011541Y032655D01*
X011387Y032810D01*
X011281Y032853D01*
X011281Y033732D01*
X011387Y033775D01*
X011541Y033930D01*
X011696Y033775D01*
X011801Y033732D01*
X011801Y032853D01*
X011801Y032871D02*
X011281Y032871D01*
X011281Y032990D02*
X011801Y032990D01*
X011801Y033108D02*
X011281Y033108D01*
X011281Y033227D02*
X011801Y033227D01*
X011801Y033345D02*
X011281Y033345D01*
X011281Y033464D02*
X011801Y033464D01*
X011801Y033582D02*
X011281Y033582D01*
X011281Y033701D02*
X011801Y033701D01*
X011652Y033819D02*
X011431Y033819D01*
X011041Y034293D02*
X011041Y032293D01*
X010667Y031805D02*
X010416Y031805D01*
X010387Y031775D02*
X010541Y031930D01*
X010696Y031775D01*
X010920Y031683D01*
X011163Y031683D01*
X011387Y031775D01*
X011541Y031930D01*
X011696Y031775D01*
X011920Y031683D01*
X012163Y031683D01*
X012268Y031726D01*
X013554Y030440D01*
X013554Y025781D01*
X013442Y025781D01*
X013319Y025730D01*
X013313Y025724D01*
X013240Y025798D01*
X013116Y025849D01*
X012983Y025849D01*
X012860Y025798D01*
X012766Y025703D01*
X012715Y025580D01*
X012715Y025518D01*
X012656Y025459D01*
X012453Y025459D01*
X012365Y025423D01*
X012297Y025355D01*
X012260Y025267D01*
X012260Y025259D01*
X012190Y025259D01*
X012084Y025154D01*
X012084Y024690D01*
X012190Y024584D01*
X012811Y024584D01*
X012878Y024651D01*
X012942Y024587D01*
X013554Y024587D01*
X013554Y024554D01*
X012942Y024554D01*
X012875Y024487D01*
X012811Y024551D01*
X012190Y024551D01*
X012176Y024537D01*
X012069Y024643D01*
X012069Y024706D01*
X012018Y024829D01*
X011924Y024923D01*
X011801Y024974D01*
X011668Y024974D01*
X011544Y024923D01*
X011465Y024844D01*
X009281Y027028D01*
X009281Y031732D01*
X009387Y031775D01*
X009541Y031930D01*
X009696Y031775D01*
X009920Y031683D01*
X010163Y031683D01*
X010387Y031775D01*
X010535Y031923D02*
X010548Y031923D01*
X010912Y031686D02*
X010171Y031686D01*
X009912Y031686D02*
X009281Y031686D01*
X009281Y031568D02*
X012427Y031568D01*
X012308Y031686D02*
X012171Y031686D01*
X011912Y031686D02*
X011171Y031686D01*
X011416Y031805D02*
X011667Y031805D01*
X011548Y031923D02*
X011535Y031923D01*
X012041Y032293D02*
X012041Y034293D01*
X012431Y033819D02*
X012652Y033819D01*
X013431Y033819D02*
X013652Y033819D01*
X014281Y033732D02*
X014387Y033775D01*
X014541Y033930D01*
X014696Y033775D01*
X014801Y033732D01*
X014801Y032853D01*
X014696Y032810D01*
X014541Y032655D01*
X014387Y032810D01*
X014281Y032853D01*
X014281Y033732D01*
X014281Y033701D02*
X014801Y033701D01*
X014801Y033582D02*
X014281Y033582D01*
X014281Y033464D02*
X014801Y033464D01*
X014801Y033345D02*
X014281Y033345D01*
X014281Y033227D02*
X014801Y033227D01*
X014801Y033108D02*
X014281Y033108D01*
X014281Y032990D02*
X014801Y032990D01*
X014801Y032871D02*
X014281Y032871D01*
X014444Y032753D02*
X014639Y032753D01*
X014541Y031930D02*
X014443Y031831D01*
X014443Y023749D01*
X014801Y024108D01*
X014801Y031732D01*
X014696Y031775D01*
X014541Y031930D01*
X014535Y031923D02*
X014548Y031923D01*
X014443Y031805D02*
X014667Y031805D01*
X014801Y031686D02*
X014443Y031686D01*
X014443Y031568D02*
X014801Y031568D01*
X014801Y031449D02*
X014443Y031449D01*
X014443Y031331D02*
X014801Y031331D01*
X014801Y031212D02*
X014443Y031212D01*
X014443Y031094D02*
X014801Y031094D01*
X014801Y030975D02*
X014443Y030975D01*
X014443Y030857D02*
X014801Y030857D01*
X014801Y030738D02*
X014443Y030738D01*
X014443Y030620D02*
X014801Y030620D01*
X014801Y030501D02*
X014443Y030501D01*
X014443Y030383D02*
X014801Y030383D01*
X014801Y030264D02*
X014443Y030264D01*
X014443Y030146D02*
X014801Y030146D01*
X014801Y030027D02*
X014443Y030027D01*
X014443Y029909D02*
X014801Y029909D01*
X014801Y029790D02*
X014443Y029790D01*
X014443Y029672D02*
X014801Y029672D01*
X014801Y029553D02*
X014443Y029553D01*
X014443Y029435D02*
X014801Y029435D01*
X014801Y029316D02*
X014443Y029316D01*
X014443Y029198D02*
X014801Y029198D01*
X014801Y029079D02*
X014443Y029079D01*
X014443Y028961D02*
X014801Y028961D01*
X014801Y028842D02*
X014443Y028842D01*
X014443Y028724D02*
X014801Y028724D01*
X014801Y028605D02*
X014443Y028605D01*
X014443Y028487D02*
X014801Y028487D01*
X014801Y028368D02*
X014443Y028368D01*
X014443Y028250D02*
X014801Y028250D01*
X014801Y028131D02*
X014443Y028131D01*
X014443Y028013D02*
X014801Y028013D01*
X014801Y027894D02*
X014443Y027894D01*
X014443Y027776D02*
X014801Y027776D01*
X014801Y027657D02*
X014443Y027657D01*
X014443Y027539D02*
X014801Y027539D01*
X014801Y027420D02*
X014443Y027420D01*
X014443Y027302D02*
X014801Y027302D01*
X014801Y027183D02*
X014443Y027183D01*
X014443Y027065D02*
X014801Y027065D01*
X014801Y026946D02*
X014443Y026946D01*
X014443Y026828D02*
X014801Y026828D01*
X014801Y026709D02*
X014443Y026709D01*
X014443Y026591D02*
X014801Y026591D01*
X014801Y026472D02*
X014443Y026472D01*
X014443Y026354D02*
X014801Y026354D01*
X014801Y026235D02*
X014443Y026235D01*
X014443Y026117D02*
X014801Y026117D01*
X014801Y025998D02*
X014443Y025998D01*
X014443Y025880D02*
X014801Y025880D01*
X014801Y025761D02*
X014443Y025761D01*
X014443Y025643D02*
X014801Y025643D01*
X014801Y025524D02*
X014443Y025524D01*
X014443Y025406D02*
X014801Y025406D01*
X014801Y025287D02*
X014443Y025287D01*
X014443Y025169D02*
X014801Y025169D01*
X014801Y025050D02*
X014443Y025050D01*
X014443Y024932D02*
X014801Y024932D01*
X014801Y024813D02*
X014443Y024813D01*
X014443Y024695D02*
X014801Y024695D01*
X014801Y024576D02*
X014443Y024576D01*
X014443Y024458D02*
X014801Y024458D01*
X014801Y024339D02*
X014443Y024339D01*
X014443Y024221D02*
X014801Y024221D01*
X014796Y024102D02*
X014443Y024102D01*
X014443Y023984D02*
X014677Y023984D01*
X014559Y023865D02*
X014443Y023865D01*
X013994Y023591D02*
X013994Y031340D01*
X013041Y032293D01*
X013268Y031726D02*
X013163Y031683D01*
X012991Y031683D01*
X013754Y030919D01*
X013754Y031240D01*
X013268Y031726D01*
X013308Y031686D02*
X013171Y031686D01*
X013106Y031568D02*
X013427Y031568D01*
X013545Y031449D02*
X013224Y031449D01*
X013343Y031331D02*
X013664Y031331D01*
X013754Y031212D02*
X013461Y031212D01*
X013580Y031094D02*
X013754Y031094D01*
X013754Y030975D02*
X013698Y030975D01*
X013794Y030540D02*
X012041Y032293D01*
X011639Y032753D02*
X011444Y032753D01*
X010801Y032853D02*
X010801Y033732D01*
X010696Y033775D01*
X010541Y033930D01*
X010387Y033775D01*
X010281Y033732D01*
X010281Y032853D01*
X010387Y032810D01*
X010541Y032655D01*
X010696Y032810D01*
X010801Y032853D01*
X010801Y032871D02*
X010281Y032871D01*
X010281Y032990D02*
X010801Y032990D01*
X010801Y033108D02*
X010281Y033108D01*
X010281Y033227D02*
X010801Y033227D01*
X010801Y033345D02*
X010281Y033345D01*
X010281Y033464D02*
X010801Y033464D01*
X010801Y033582D02*
X010281Y033582D01*
X010281Y033701D02*
X010801Y033701D01*
X010652Y033819D02*
X010431Y033819D01*
X010041Y034293D02*
X010041Y032293D01*
X009667Y031805D02*
X009416Y031805D01*
X009535Y031923D02*
X009548Y031923D01*
X009541Y032655D02*
X009387Y032810D01*
X009281Y032853D01*
X009281Y033732D01*
X009387Y033775D01*
X009541Y033930D01*
X009696Y033775D01*
X009801Y033732D01*
X009801Y032853D01*
X009696Y032810D01*
X009541Y032655D01*
X009444Y032753D02*
X009639Y032753D01*
X009801Y032871D02*
X009281Y032871D01*
X009281Y032990D02*
X009801Y032990D01*
X009801Y033108D02*
X009281Y033108D01*
X009281Y033227D02*
X009801Y033227D01*
X009801Y033345D02*
X009281Y033345D01*
X009281Y033464D02*
X009801Y033464D01*
X009801Y033582D02*
X009281Y033582D01*
X009281Y033701D02*
X009801Y033701D01*
X009652Y033819D02*
X009431Y033819D01*
X009041Y034293D02*
X009041Y032293D01*
X009041Y026929D01*
X012199Y023771D01*
X012657Y023771D01*
X012943Y023485D01*
X012943Y023095D01*
X012943Y022704D01*
X013484Y022163D01*
X013364Y021851D02*
X012963Y021851D01*
X012963Y021732D02*
X014521Y021732D01*
X014402Y021851D02*
X013605Y021851D01*
X013764Y021969D02*
X014284Y021969D01*
X014241Y022088D02*
X013816Y022088D01*
X013819Y022206D02*
X014241Y022206D01*
X014212Y022325D02*
X013780Y022325D01*
X013678Y022443D02*
X014154Y022443D01*
X014146Y022562D02*
X013425Y022562D01*
X013102Y022206D02*
X012868Y022206D01*
X012868Y022088D02*
X013153Y022088D01*
X013205Y021969D02*
X012915Y021969D01*
X012628Y021786D02*
X012628Y023095D01*
X012628Y023485D01*
X012203Y023485D01*
X008041Y027646D01*
X008041Y032293D01*
X008041Y034293D01*
X007801Y033732D02*
X007696Y033775D01*
X007541Y033930D01*
X007387Y033775D01*
X007281Y033732D01*
X007281Y032853D01*
X007387Y032810D01*
X007541Y032655D01*
X007696Y032810D01*
X007801Y032853D01*
X007801Y033732D01*
X007801Y033701D02*
X007281Y033701D01*
X007281Y033582D02*
X007801Y033582D01*
X007801Y033464D02*
X007281Y033464D01*
X007281Y033345D02*
X007801Y033345D01*
X007801Y033227D02*
X007281Y033227D01*
X007281Y033108D02*
X007801Y033108D01*
X007801Y032990D02*
X007281Y032990D01*
X007281Y032871D02*
X007801Y032871D01*
X007639Y032753D02*
X007444Y032753D01*
X007535Y031923D02*
X007548Y031923D01*
X007667Y031805D02*
X007416Y031805D01*
X007281Y031686D02*
X007801Y031686D01*
X007801Y031568D02*
X007281Y031568D01*
X007281Y031449D02*
X007801Y031449D01*
X007801Y031331D02*
X007281Y031331D01*
X007281Y031212D02*
X007801Y031212D01*
X007801Y031094D02*
X007281Y031094D01*
X007281Y030975D02*
X007801Y030975D01*
X007801Y030857D02*
X007281Y030857D01*
X007281Y030738D02*
X007801Y030738D01*
X007801Y030620D02*
X007281Y030620D01*
X007281Y030501D02*
X007801Y030501D01*
X007801Y030383D02*
X007281Y030383D01*
X007281Y030264D02*
X007801Y030264D01*
X007801Y030146D02*
X007281Y030146D01*
X007281Y030027D02*
X007801Y030027D01*
X007801Y029909D02*
X007281Y029909D01*
X007281Y029790D02*
X007801Y029790D01*
X007801Y029672D02*
X007281Y029672D01*
X007281Y029553D02*
X007801Y029553D01*
X007801Y029435D02*
X007281Y029435D01*
X007281Y029316D02*
X007801Y029316D01*
X007801Y029198D02*
X007281Y029198D01*
X007281Y029079D02*
X007801Y029079D01*
X007801Y028961D02*
X007281Y028961D01*
X007281Y028842D02*
X007801Y028842D01*
X007801Y028724D02*
X007281Y028724D01*
X007281Y028605D02*
X007801Y028605D01*
X007801Y028487D02*
X007281Y028487D01*
X007281Y028368D02*
X007801Y028368D01*
X007801Y028250D02*
X007281Y028250D01*
X007281Y028131D02*
X007801Y028131D01*
X007801Y028013D02*
X007281Y028013D01*
X007281Y027894D02*
X007801Y027894D01*
X007801Y027776D02*
X007281Y027776D01*
X007281Y027657D02*
X007801Y027657D01*
X007826Y027539D02*
X007281Y027539D01*
X007281Y027420D02*
X007928Y027420D01*
X008046Y027302D02*
X007281Y027302D01*
X007281Y027183D02*
X008165Y027183D01*
X008283Y027065D02*
X007281Y027065D01*
X007281Y026946D02*
X008402Y026946D01*
X008520Y026828D02*
X007354Y026828D01*
X007473Y026709D02*
X008639Y026709D01*
X008757Y026591D02*
X007591Y026591D01*
X007710Y026472D02*
X008876Y026472D01*
X008994Y026354D02*
X007828Y026354D01*
X007947Y026235D02*
X009113Y026235D01*
X009231Y026117D02*
X008065Y026117D01*
X008184Y025998D02*
X009350Y025998D01*
X009468Y025880D02*
X008302Y025880D01*
X008421Y025761D02*
X009587Y025761D01*
X009705Y025643D02*
X008539Y025643D01*
X008658Y025524D02*
X009824Y025524D01*
X009942Y025406D02*
X008776Y025406D01*
X008895Y025287D02*
X010061Y025287D01*
X010179Y025169D02*
X009013Y025169D01*
X009132Y025050D02*
X010298Y025050D01*
X010416Y024932D02*
X009250Y024932D01*
X009369Y024813D02*
X010535Y024813D01*
X010653Y024695D02*
X009487Y024695D01*
X009606Y024576D02*
X010772Y024576D01*
X010890Y024458D02*
X009724Y024458D01*
X009843Y024339D02*
X011009Y024339D01*
X011127Y024221D02*
X009961Y024221D01*
X010080Y024102D02*
X011246Y024102D01*
X011364Y023984D02*
X010198Y023984D01*
X010317Y023865D02*
X011483Y023865D01*
X011601Y023747D02*
X010435Y023747D01*
X010554Y023628D02*
X011720Y023628D01*
X011838Y023510D02*
X010672Y023510D01*
X010791Y023391D02*
X011957Y023391D01*
X012023Y023273D02*
X010909Y023273D01*
X010586Y022917D02*
X004561Y022917D01*
X004561Y022799D02*
X010704Y022799D01*
X010732Y022770D02*
X005131Y022770D01*
X005043Y022734D01*
X004561Y022253D01*
X004561Y031910D01*
X004696Y031775D01*
X004920Y031683D01*
X005163Y031683D01*
X005387Y031775D01*
X005541Y031930D01*
X005696Y031775D01*
X005920Y031683D01*
X006163Y031683D01*
X006387Y031775D01*
X006541Y031930D01*
X006696Y031775D01*
X006801Y031732D01*
X006801Y026753D01*
X006838Y026665D01*
X010732Y022770D01*
X010965Y022530D02*
X005179Y022530D01*
X004547Y021899D01*
X004547Y017533D01*
X005301Y016779D01*
X005081Y017348D02*
X005072Y017348D01*
X005785Y016400D02*
X005818Y016400D01*
X005936Y016281D02*
X005667Y016281D01*
X006667Y016281D02*
X006936Y016281D01*
X006818Y016400D02*
X006785Y016400D01*
X007667Y016281D02*
X007936Y016281D01*
X007818Y016400D02*
X007785Y016400D01*
X008423Y017389D02*
X008528Y017345D01*
X008668Y017485D01*
X008736Y017552D01*
X008824Y017589D01*
X011183Y017589D01*
X011824Y018230D01*
X009092Y018230D01*
X008251Y017389D01*
X008423Y017389D01*
X008522Y017348D02*
X008531Y017348D01*
X008650Y017466D02*
X008328Y017466D01*
X008447Y017585D02*
X008814Y017585D01*
X008684Y017822D02*
X011416Y017822D01*
X011534Y017940D02*
X008802Y017940D01*
X008921Y018059D02*
X011653Y018059D01*
X011771Y018177D02*
X009039Y018177D01*
X008565Y017703D02*
X011297Y017703D01*
X010818Y016400D02*
X010785Y016400D01*
X010667Y016281D02*
X010936Y016281D01*
X011667Y016281D02*
X011936Y016281D01*
X011818Y016400D02*
X011785Y016400D01*
X012667Y016281D02*
X012936Y016281D01*
X012818Y016400D02*
X012785Y016400D01*
X013667Y016281D02*
X013982Y016281D01*
X013848Y016400D02*
X013785Y016400D01*
X014261Y016400D02*
X014341Y016400D01*
X014341Y016518D02*
X014261Y016518D01*
X014261Y016637D02*
X014341Y016637D01*
X014341Y016281D02*
X014261Y016281D01*
X014621Y016281D02*
X014936Y016281D01*
X014818Y016400D02*
X014755Y016400D01*
X015301Y016779D02*
X013888Y018192D01*
X014128Y018296D02*
X018479Y018296D01*
X018598Y018414D02*
X014128Y018414D01*
X014128Y018533D02*
X018732Y018533D01*
X018841Y018318D02*
X017301Y016779D01*
X017301Y015589D01*
X017245Y015533D01*
X017245Y015143D01*
X016980Y015143D01*
X016980Y014916D01*
X016940Y014504D02*
X016907Y014504D01*
X016940Y014385D02*
X016734Y014385D01*
X016642Y014267D02*
X016940Y014267D01*
X017245Y014153D02*
X017271Y014153D01*
X017386Y014038D01*
X017386Y013505D01*
X017386Y012971D01*
X017302Y012888D01*
X017302Y012445D01*
X017867Y012445D01*
X017593Y012845D02*
X019186Y012845D01*
X019186Y012963D02*
X018946Y012963D01*
X019039Y013082D02*
X019186Y013082D01*
X019070Y013200D02*
X019042Y013200D01*
X018645Y013505D02*
X018645Y014038D01*
X018645Y016120D01*
X018802Y016278D01*
X018301Y016779D01*
X018341Y016755D02*
X019489Y016755D01*
X019371Y016637D02*
X018876Y016637D01*
X018831Y016518D02*
X019311Y016518D01*
X019311Y016400D02*
X018755Y016400D01*
X018802Y016278D02*
X019740Y017215D01*
X019740Y017481D01*
X019738Y017229D02*
X019743Y017229D01*
X019845Y017111D02*
X018790Y017111D01*
X018852Y016992D02*
X019726Y016992D01*
X019608Y016874D02*
X018884Y016874D01*
X018685Y017229D02*
X019391Y017229D01*
X019330Y017348D02*
X018459Y017348D01*
X018341Y017348D02*
X018261Y017348D01*
X018261Y017229D02*
X018341Y017229D01*
X018341Y017111D02*
X018261Y017111D01*
X018261Y016992D02*
X018341Y016992D01*
X018341Y016874D02*
X018261Y016874D01*
X018261Y016637D02*
X018341Y016637D01*
X018341Y016518D02*
X018261Y016518D01*
X018261Y016400D02*
X018341Y016400D01*
X018341Y016281D02*
X018261Y016281D01*
X017982Y016281D02*
X017667Y016281D01*
X017785Y016400D02*
X017848Y016400D01*
X017541Y016163D02*
X019076Y016163D01*
X019076Y016281D02*
X018621Y016281D01*
X019076Y016044D02*
X017541Y016044D01*
X017541Y015926D02*
X019076Y015926D01*
X019076Y015807D02*
X017541Y015807D01*
X017541Y015689D02*
X019076Y015689D01*
X019111Y015570D02*
X017541Y015570D01*
X017550Y015452D02*
X019076Y015452D01*
X019076Y015333D02*
X017550Y015333D01*
X017550Y015215D02*
X019076Y015215D01*
X019076Y015096D02*
X017550Y015096D01*
X017550Y014978D02*
X019076Y014978D01*
X019091Y014859D02*
X017550Y014859D01*
X017550Y014741D02*
X019144Y014741D01*
X019026Y014622D02*
X017550Y014622D01*
X017550Y014504D02*
X018986Y014504D01*
X018986Y014385D02*
X017550Y014385D01*
X017550Y014267D02*
X018986Y014267D01*
X018986Y014148D02*
X017600Y014148D01*
X017745Y014030D02*
X018317Y014030D01*
X018249Y013911D02*
X017802Y013911D01*
X017802Y013793D02*
X018249Y013793D01*
X018249Y013674D02*
X017802Y013674D01*
X017802Y013556D02*
X018587Y013556D01*
X018587Y013674D02*
X018704Y013674D01*
X018704Y013793D02*
X018587Y013793D01*
X018587Y013911D02*
X018704Y013911D01*
X018704Y014030D02*
X018587Y014030D01*
X018974Y014030D02*
X018986Y014030D01*
X019466Y014148D02*
X020225Y014148D01*
X020530Y014522D02*
X020428Y014624D01*
X020428Y015935D01*
X020432Y015927D01*
X020526Y015833D01*
X020530Y015831D01*
X020530Y014522D01*
X020530Y014622D02*
X020430Y014622D01*
X020428Y014741D02*
X020530Y014741D01*
X020530Y014859D02*
X020428Y014859D01*
X020428Y014978D02*
X020530Y014978D01*
X020530Y015096D02*
X020428Y015096D01*
X020428Y015215D02*
X020530Y015215D01*
X020530Y015333D02*
X020428Y015333D01*
X020428Y015452D02*
X020530Y015452D01*
X020530Y015570D02*
X020428Y015570D01*
X020428Y015689D02*
X020530Y015689D01*
X020530Y015807D02*
X020428Y015807D01*
X020428Y015926D02*
X020433Y015926D01*
X020716Y016117D02*
X020770Y016062D01*
X020770Y013783D01*
X021282Y013783D02*
X021282Y013460D01*
X021287Y013455D01*
X021287Y013315D01*
X019705Y013315D01*
X019602Y013418D01*
X019602Y013716D01*
X020018Y013674D02*
X020266Y013674D01*
X020266Y013556D02*
X020018Y013556D01*
X020018Y013075D02*
X020950Y013075D01*
X020950Y012768D01*
X021055Y012662D01*
X021519Y012662D01*
X021625Y012768D01*
X021625Y013328D01*
X021658Y013328D01*
X021658Y012768D01*
X021764Y012662D01*
X021777Y012662D01*
X021777Y012509D01*
X021529Y012509D01*
X020998Y012509D01*
X020998Y012517D01*
X020961Y012605D01*
X020893Y012672D01*
X020653Y012913D01*
X020565Y012949D01*
X020018Y012949D01*
X020018Y013075D01*
X020018Y012963D02*
X020950Y012963D01*
X020950Y012845D02*
X020721Y012845D01*
X020840Y012726D02*
X020991Y012726D01*
X020958Y012608D02*
X021777Y012608D01*
X021700Y012726D02*
X021583Y012726D01*
X021625Y012845D02*
X021658Y012845D01*
X021658Y012963D02*
X021625Y012963D01*
X021625Y013082D02*
X021658Y013082D01*
X021658Y013200D02*
X021625Y013200D01*
X021625Y013319D02*
X021658Y013319D01*
X021996Y013079D02*
X022017Y013079D01*
X022017Y012469D01*
X022017Y011837D01*
X022296Y011778D02*
X022585Y011778D01*
X022585Y011660D02*
X022296Y011660D01*
X022296Y011541D02*
X022585Y011541D01*
X022585Y011423D02*
X022296Y011423D01*
X022296Y011417D02*
X022296Y012403D01*
X022257Y012442D01*
X022257Y012692D01*
X022333Y012768D01*
X022333Y013328D01*
X023809Y013328D01*
X023809Y011733D01*
X023733Y011656D01*
X023733Y012403D01*
X023627Y012509D01*
X022691Y012509D01*
X022585Y012403D01*
X022585Y011307D01*
X022572Y011322D01*
X022572Y011322D01*
X022316Y011419D01*
X022296Y011417D01*
X022316Y011419D02*
X022316Y011419D01*
X022711Y011165D02*
X023241Y011165D01*
X022782Y010705D01*
X022818Y010853D01*
X022753Y011118D01*
X022711Y011165D01*
X022753Y011118D02*
X022753Y011118D01*
X022765Y011067D02*
X023144Y011067D01*
X023025Y010949D02*
X022794Y010949D01*
X022813Y010830D02*
X022907Y010830D01*
X022788Y010712D02*
X022783Y010712D01*
X022801Y010385D02*
X022049Y010385D01*
X021387Y011047D01*
X021387Y011837D01*
X021072Y011837D02*
X021072Y010672D01*
X022710Y009034D01*
X023607Y009034D01*
X024249Y009677D01*
X024249Y016818D01*
X023991Y017077D01*
X023585Y017077D01*
X023585Y016662D01*
X023841Y016662D02*
X023841Y016247D01*
X024049Y016038D01*
X024049Y011633D01*
X022801Y010385D01*
X023099Y010344D02*
X024009Y011254D01*
X024009Y009776D01*
X023733Y009499D01*
X023733Y010238D01*
X023627Y010344D01*
X023099Y010344D01*
X023111Y010356D02*
X024009Y010356D01*
X024009Y010238D02*
X023733Y010238D01*
X023733Y010119D02*
X024009Y010119D01*
X024009Y010001D02*
X023733Y010001D01*
X023733Y009882D02*
X024009Y009882D01*
X023997Y009764D02*
X023733Y009764D01*
X023733Y009645D02*
X023879Y009645D01*
X023760Y009527D02*
X023733Y009527D01*
X024083Y009171D02*
X025852Y009171D01*
X025852Y009078D02*
X025925Y008903D01*
X025965Y008863D01*
X023775Y008863D01*
X024453Y009541D01*
X024489Y009629D01*
X024489Y010671D01*
X025864Y009296D01*
X025852Y009267D01*
X025852Y009078D01*
X025863Y009053D02*
X023965Y009053D01*
X023846Y008934D02*
X025912Y008934D01*
X025861Y009290D02*
X024202Y009290D01*
X024320Y009408D02*
X025753Y009408D01*
X025634Y009527D02*
X024439Y009527D01*
X024489Y009645D02*
X025516Y009645D01*
X025397Y009764D02*
X024489Y009764D01*
X024489Y009882D02*
X025279Y009882D01*
X025160Y010001D02*
X024489Y010001D01*
X024489Y010119D02*
X025042Y010119D01*
X024923Y010238D02*
X024489Y010238D01*
X024489Y010356D02*
X024805Y010356D01*
X024686Y010475D02*
X024489Y010475D01*
X024489Y010593D02*
X024568Y010593D01*
X024470Y011030D02*
X024470Y017561D01*
X019383Y022647D01*
X015912Y022647D01*
X015496Y022231D01*
X015496Y022192D01*
X015105Y022192D01*
X015105Y021877D02*
X014715Y021877D01*
X014481Y022111D01*
X014481Y022529D01*
X013888Y023095D02*
X013888Y023485D01*
X013994Y023591D01*
X013794Y023706D02*
X013794Y030540D01*
X013554Y030383D02*
X009281Y030383D01*
X009281Y030501D02*
X013493Y030501D01*
X013375Y030620D02*
X009281Y030620D01*
X009281Y030738D02*
X013256Y030738D01*
X013138Y030857D02*
X009281Y030857D01*
X009281Y030975D02*
X013019Y030975D01*
X012901Y031094D02*
X009281Y031094D01*
X009281Y031212D02*
X012782Y031212D01*
X012664Y031331D02*
X009281Y031331D01*
X009281Y031449D02*
X012545Y031449D01*
X013554Y030264D02*
X009281Y030264D01*
X009281Y030146D02*
X013554Y030146D01*
X013554Y030027D02*
X009281Y030027D01*
X009281Y029909D02*
X013554Y029909D01*
X013554Y029790D02*
X009281Y029790D01*
X009281Y029672D02*
X013554Y029672D01*
X013554Y029553D02*
X009281Y029553D01*
X009281Y029435D02*
X013554Y029435D01*
X013554Y029316D02*
X009281Y029316D01*
X009281Y029198D02*
X013554Y029198D01*
X013554Y029079D02*
X009281Y029079D01*
X009281Y028961D02*
X013554Y028961D01*
X013554Y028842D02*
X009281Y028842D01*
X009281Y028724D02*
X013554Y028724D01*
X013554Y028605D02*
X009281Y028605D01*
X009281Y028487D02*
X013554Y028487D01*
X013554Y028368D02*
X009281Y028368D01*
X009281Y028250D02*
X013554Y028250D01*
X013554Y028131D02*
X009281Y028131D01*
X009281Y028013D02*
X013554Y028013D01*
X013554Y027894D02*
X009281Y027894D01*
X009281Y027776D02*
X013554Y027776D01*
X013554Y027657D02*
X009281Y027657D01*
X009281Y027539D02*
X013554Y027539D01*
X013554Y027420D02*
X009281Y027420D01*
X009281Y027302D02*
X013554Y027302D01*
X013554Y027183D02*
X009281Y027183D01*
X009281Y027065D02*
X013554Y027065D01*
X013554Y026946D02*
X009363Y026946D01*
X009482Y026828D02*
X013554Y026828D01*
X013554Y026709D02*
X009600Y026709D01*
X009719Y026591D02*
X013554Y026591D01*
X013554Y026472D02*
X009837Y026472D01*
X009956Y026354D02*
X013554Y026354D01*
X013554Y026235D02*
X010074Y026235D01*
X010193Y026117D02*
X013554Y026117D01*
X013554Y025998D02*
X010311Y025998D01*
X010430Y025880D02*
X013554Y025880D01*
X013394Y025761D02*
X013276Y025761D01*
X013050Y025514D02*
X012756Y025219D01*
X012500Y025219D01*
X012500Y024922D01*
X012269Y025287D02*
X011022Y025287D01*
X010904Y025406D02*
X012347Y025406D01*
X012099Y025169D02*
X011141Y025169D01*
X011259Y025050D02*
X012084Y025050D01*
X012084Y024932D02*
X011903Y024932D01*
X012025Y024813D02*
X012084Y024813D01*
X012069Y024695D02*
X012084Y024695D01*
X012136Y024576D02*
X013554Y024576D01*
X013252Y024925D02*
X013252Y025222D01*
X013285Y025222D01*
X013509Y025446D01*
X012824Y025761D02*
X010548Y025761D01*
X010667Y025643D02*
X012741Y025643D01*
X012715Y025524D02*
X010785Y025524D01*
X011378Y024932D02*
X011565Y024932D01*
X011734Y024639D02*
X012124Y024249D01*
X012124Y024213D01*
X012500Y024213D01*
X012877Y024213D01*
X012880Y024216D01*
X013252Y024216D01*
X013252Y023490D01*
X013258Y023485D01*
X013258Y023095D01*
X013573Y023095D02*
X013573Y023485D01*
X013794Y023706D01*
X013554Y023805D02*
X013554Y023879D01*
X013492Y023879D01*
X013492Y023743D01*
X013554Y023805D01*
X013554Y023865D02*
X013492Y023865D01*
X013492Y023747D02*
X013496Y023747D01*
X013012Y023755D02*
X012851Y023916D01*
X012878Y023942D01*
X012942Y023879D01*
X013012Y023879D01*
X013012Y023755D01*
X013012Y023865D02*
X012902Y023865D01*
X012868Y022325D02*
X012984Y022325D01*
X012919Y021614D02*
X014695Y021614D01*
X014695Y021562D02*
X015105Y021562D01*
X015105Y021562D01*
X015496Y021562D01*
X015496Y021523D01*
X015585Y021433D01*
X015773Y021433D01*
X015961Y021433D01*
X015943Y021452D02*
X015943Y021414D01*
X015565Y021414D01*
X015565Y021290D01*
X015535Y021278D01*
X015535Y021432D01*
X015515Y021452D01*
X015515Y021562D01*
X015515Y021672D01*
X015535Y021692D01*
X015535Y021952D01*
X015543Y021952D01*
X015620Y021984D01*
X015620Y021811D01*
X015631Y021771D01*
X015652Y021734D01*
X015653Y021733D01*
X015627Y021718D01*
X015597Y021689D01*
X015576Y021652D01*
X015565Y021611D01*
X015565Y021452D01*
X015943Y021452D01*
X015943Y021750D01*
X015918Y021750D01*
X015918Y022050D01*
X015956Y022050D01*
X015956Y022087D01*
X016255Y022087D01*
X016255Y022326D01*
X016244Y022367D01*
X016223Y022403D01*
X016218Y022407D01*
X016336Y022407D01*
X016308Y022379D01*
X016308Y021758D01*
X016318Y021748D01*
X016291Y021721D01*
X016259Y021739D01*
X016230Y021747D01*
X016244Y021771D01*
X016255Y021811D01*
X016255Y022050D01*
X015956Y022050D01*
X015956Y021672D01*
X015980Y021672D01*
X015980Y021452D01*
X015943Y021452D01*
X015943Y021495D02*
X015980Y021495D01*
X015980Y021614D02*
X015943Y021614D01*
X015937Y021692D02*
X015773Y021528D01*
X015773Y021433D01*
X015565Y021377D02*
X015535Y021377D01*
X015515Y021495D02*
X015565Y021495D01*
X015515Y021562D02*
X015105Y021562D01*
X015515Y021562D01*
X015515Y021614D02*
X015566Y021614D01*
X015535Y021732D02*
X015651Y021732D01*
X015620Y021851D02*
X015535Y021851D01*
X015585Y021969D02*
X015620Y021969D01*
X015918Y021969D02*
X015956Y021969D01*
X015937Y022069D02*
X015937Y021692D01*
X015943Y021732D02*
X015956Y021732D01*
X015956Y021851D02*
X015918Y021851D01*
X016255Y021851D02*
X016308Y021851D01*
X016308Y021969D02*
X016255Y021969D01*
X016255Y022088D02*
X016308Y022088D01*
X016308Y022206D02*
X016255Y022206D01*
X016255Y022325D02*
X016308Y022325D01*
X016646Y022069D02*
X016646Y021725D01*
X016641Y021720D01*
X016641Y021423D01*
X016302Y021732D02*
X016272Y021732D01*
X016646Y022069D02*
X016943Y022069D01*
X017056Y022181D01*
X017056Y022242D01*
X017246Y022432D01*
X019288Y022432D01*
X019384Y022337D01*
X019690Y022680D02*
X030427Y022680D01*
X030427Y022562D02*
X019808Y022562D01*
X019927Y022443D02*
X025544Y022443D01*
X025503Y022432D01*
X025467Y022411D01*
X025437Y022381D01*
X025416Y022345D01*
X025405Y022304D01*
X025405Y021753D01*
X025997Y021753D01*
X025997Y022443D01*
X026117Y022443D01*
X026117Y021753D01*
X025997Y021753D01*
X025997Y021633D01*
X025405Y021633D01*
X025405Y021081D01*
X025416Y021040D01*
X025437Y021004D01*
X025467Y020974D01*
X025503Y020953D01*
X025544Y020942D01*
X025997Y020942D01*
X025997Y021633D01*
X026117Y021633D01*
X026117Y021753D01*
X026709Y021753D01*
X026709Y022304D01*
X026698Y022345D01*
X026677Y022381D01*
X026647Y022411D01*
X026611Y022432D01*
X026570Y022443D01*
X026117Y022443D01*
X026117Y022325D02*
X025997Y022325D01*
X025997Y022443D02*
X025544Y022443D01*
X025410Y022325D02*
X020045Y022325D01*
X020164Y022206D02*
X025405Y022206D01*
X025405Y022088D02*
X020282Y022088D01*
X020401Y021969D02*
X025405Y021969D01*
X025405Y021851D02*
X020519Y021851D01*
X020638Y021732D02*
X025997Y021732D01*
X026057Y021693D02*
X026057Y020962D01*
X026327Y020691D01*
X026327Y020297D01*
X029513Y020297D01*
X029473Y020310D02*
X022060Y020310D01*
X022178Y020192D02*
X028994Y020192D01*
X028996Y020173D02*
X029022Y020094D01*
X029060Y020019D01*
X029109Y019952D01*
X029168Y019893D01*
X029236Y019844D01*
X029310Y019806D01*
X029389Y019780D01*
X029472Y019767D01*
X029473Y019767D01*
X029473Y020257D01*
X028983Y020257D01*
X028983Y020255D01*
X028996Y020173D01*
X029033Y020073D02*
X022297Y020073D01*
X022415Y019955D02*
X029107Y019955D01*
X029251Y019836D02*
X022534Y019836D01*
X022652Y019718D02*
X030427Y019718D01*
X030427Y019836D02*
X029776Y019836D01*
X029791Y019844D02*
X029859Y019893D01*
X029918Y019952D01*
X029967Y020019D01*
X030005Y020094D01*
X030030Y020173D01*
X030043Y020255D01*
X030043Y020257D01*
X029553Y020257D01*
X029553Y019767D01*
X029555Y019767D01*
X029638Y019780D01*
X029717Y019806D01*
X029791Y019844D01*
X029920Y019955D02*
X030427Y019955D01*
X030427Y020073D02*
X029994Y020073D01*
X030033Y020192D02*
X030427Y020192D01*
X030427Y020310D02*
X029553Y020310D01*
X029553Y020337D02*
X030043Y020337D01*
X030043Y020339D01*
X030030Y020421D01*
X030005Y020501D01*
X029967Y020575D01*
X029918Y020642D01*
X029859Y020701D01*
X029791Y020750D01*
X029719Y020787D01*
X029825Y020831D01*
X029980Y020986D01*
X030063Y021188D01*
X030063Y021407D01*
X029980Y021609D01*
X029825Y021763D01*
X029623Y021847D01*
X029404Y021847D01*
X029202Y021763D01*
X029047Y021609D01*
X028963Y021407D01*
X028963Y021188D01*
X029047Y020986D01*
X029202Y020831D01*
X029308Y020787D01*
X029236Y020750D01*
X029168Y020701D01*
X029109Y020642D01*
X029060Y020575D01*
X029022Y020501D01*
X028996Y020421D01*
X028983Y020339D01*
X028983Y020337D01*
X029473Y020337D01*
X029473Y020257D01*
X029553Y020257D01*
X029553Y020337D01*
X029553Y020192D02*
X029473Y020192D01*
X029473Y020073D02*
X029553Y020073D01*
X029553Y019955D02*
X029473Y019955D01*
X029473Y019836D02*
X029553Y019836D01*
X030028Y020429D02*
X030427Y020429D01*
X030427Y020547D02*
X029981Y020547D01*
X029895Y020666D02*
X030427Y020666D01*
X030427Y020784D02*
X029725Y020784D01*
X029897Y020903D02*
X030427Y020903D01*
X030427Y021021D02*
X029994Y021021D01*
X030043Y021140D02*
X030427Y021140D01*
X030427Y021258D02*
X030063Y021258D01*
X030063Y021377D02*
X030427Y021377D01*
X030427Y021495D02*
X030027Y021495D01*
X029975Y021614D02*
X030427Y021614D01*
X030427Y021732D02*
X029856Y021732D01*
X030427Y021851D02*
X026709Y021851D01*
X026709Y021969D02*
X030427Y021969D01*
X030427Y022088D02*
X026709Y022088D01*
X026709Y022206D02*
X030427Y022206D01*
X030427Y022325D02*
X026704Y022325D01*
X026570Y022443D02*
X030427Y022443D01*
X030427Y022799D02*
X019571Y022799D01*
X020756Y021614D02*
X025405Y021614D01*
X025405Y021495D02*
X020875Y021495D01*
X020993Y021377D02*
X025405Y021377D01*
X025405Y021258D02*
X021112Y021258D01*
X021230Y021140D02*
X025405Y021140D01*
X025427Y021021D02*
X021349Y021021D01*
X021467Y020903D02*
X029130Y020903D01*
X029032Y021021D02*
X026687Y021021D01*
X026677Y021004D02*
X026698Y021040D01*
X026709Y021081D01*
X026709Y021633D01*
X026117Y021633D01*
X026117Y020942D01*
X026570Y020942D01*
X026611Y020953D01*
X026647Y020974D01*
X026677Y021004D01*
X026709Y021140D02*
X028983Y021140D01*
X028963Y021258D02*
X026709Y021258D01*
X026709Y021377D02*
X028963Y021377D01*
X029000Y021495D02*
X026709Y021495D01*
X026709Y021614D02*
X029052Y021614D01*
X029170Y021732D02*
X026117Y021732D01*
X026057Y021693D02*
X026057Y027868D01*
X022359Y031566D01*
X022297Y031568D02*
X030427Y031568D01*
X030427Y031686D02*
X022389Y031686D01*
X022389Y031805D02*
X030427Y031805D01*
X030427Y031923D02*
X022389Y031923D01*
X022389Y032042D02*
X030427Y032042D01*
X030427Y032160D02*
X022352Y032160D01*
X022195Y032279D02*
X030427Y032279D01*
X030427Y032397D02*
X022362Y032397D01*
X022369Y032516D02*
X030427Y032516D01*
X030427Y032634D02*
X022369Y032634D01*
X022369Y032753D02*
X030427Y032753D01*
X030427Y032871D02*
X022321Y032871D01*
X022276Y033464D02*
X030427Y033464D01*
X030427Y033582D02*
X022358Y033582D01*
X022358Y033701D02*
X030427Y033701D01*
X030427Y033819D02*
X022358Y033819D01*
X022358Y033938D02*
X030427Y033938D01*
X030427Y034056D02*
X022448Y034056D01*
X022540Y034175D02*
X030427Y034175D01*
X030427Y034293D02*
X022558Y034293D01*
X022558Y034412D02*
X030427Y034412D01*
X030427Y034530D02*
X022558Y034530D01*
X022558Y034649D02*
X030427Y034649D01*
X030427Y034767D02*
X022556Y034767D01*
X021128Y034187D02*
X020942Y034187D01*
X020942Y034485D01*
X020702Y034147D02*
X020702Y034140D01*
X020713Y034114D01*
X020632Y034114D01*
X020534Y034016D01*
X020518Y034016D01*
X020430Y033980D01*
X020413Y033962D01*
X018531Y033962D01*
X018546Y033983D01*
X018588Y034066D01*
X018617Y034154D01*
X018631Y034246D01*
X018631Y034253D01*
X018081Y034253D01*
X018081Y034333D01*
X018631Y034333D01*
X018631Y034339D01*
X018617Y034431D01*
X018588Y034519D01*
X018546Y034602D01*
X018531Y034623D01*
X020526Y034623D01*
X020526Y034253D01*
X020632Y034147D01*
X020702Y034147D01*
X020604Y034175D02*
X018620Y034175D01*
X018583Y034056D02*
X020574Y034056D01*
X020526Y034293D02*
X018081Y034293D01*
X018620Y034412D02*
X020526Y034412D01*
X020526Y034530D02*
X018583Y034530D01*
X017611Y033722D02*
X017041Y034293D01*
X017206Y033701D02*
X017294Y033701D01*
X017281Y032871D02*
X017239Y032871D01*
X017535Y031923D02*
X017581Y031923D01*
X017709Y031805D02*
X017416Y031805D01*
X018001Y031805D02*
X018081Y031805D01*
X018081Y031923D02*
X018001Y031923D01*
X018001Y032042D02*
X018081Y032042D01*
X018081Y032160D02*
X018001Y032160D01*
X018001Y032397D02*
X018081Y032397D01*
X018081Y032516D02*
X018001Y032516D01*
X018001Y032634D02*
X018081Y032634D01*
X018081Y032753D02*
X018001Y032753D01*
X016281Y031449D02*
X030427Y031449D01*
X030427Y031331D02*
X016281Y031331D01*
X016281Y031212D02*
X030427Y031212D01*
X030427Y031094D02*
X016281Y031094D01*
X016281Y030975D02*
X030427Y030975D01*
X030427Y030857D02*
X016281Y030857D01*
X016281Y030738D02*
X030427Y030738D01*
X030427Y030620D02*
X016281Y030620D01*
X016281Y030501D02*
X030427Y030501D01*
X030427Y030383D02*
X026686Y030383D01*
X026806Y030333D02*
X026478Y030468D01*
X026124Y030468D01*
X025797Y030333D01*
X025547Y030083D01*
X025412Y029756D01*
X025412Y029402D01*
X025547Y029074D01*
X025797Y028824D01*
X026124Y028689D01*
X026478Y028689D01*
X026806Y028824D01*
X027056Y029074D01*
X027191Y029402D01*
X027191Y029756D01*
X027056Y030083D01*
X026806Y030333D01*
X026874Y030264D02*
X030427Y030264D01*
X030427Y030146D02*
X026993Y030146D01*
X027079Y030027D02*
X030427Y030027D01*
X030427Y029909D02*
X027128Y029909D01*
X027177Y029790D02*
X030427Y029790D01*
X030427Y029672D02*
X027191Y029672D01*
X027191Y029553D02*
X030427Y029553D01*
X030427Y029435D02*
X027191Y029435D01*
X027156Y029316D02*
X030427Y029316D01*
X030427Y029198D02*
X027107Y029198D01*
X027058Y029079D02*
X030427Y029079D01*
X030427Y028961D02*
X026942Y028961D01*
X026824Y028842D02*
X030427Y028842D01*
X030427Y028724D02*
X026563Y028724D01*
X026040Y028724D02*
X016281Y028724D01*
X016281Y028842D02*
X025779Y028842D01*
X025661Y028961D02*
X016281Y028961D01*
X016281Y029079D02*
X025545Y029079D01*
X025496Y029198D02*
X016281Y029198D01*
X016281Y029316D02*
X025447Y029316D01*
X025412Y029435D02*
X016281Y029435D01*
X016281Y029553D02*
X025412Y029553D01*
X025412Y029672D02*
X016281Y029672D01*
X016281Y029790D02*
X025426Y029790D01*
X025475Y029909D02*
X016281Y029909D01*
X016281Y030027D02*
X025524Y030027D01*
X025610Y030146D02*
X016281Y030146D01*
X016281Y030264D02*
X025728Y030264D01*
X025917Y030383D02*
X016281Y030383D01*
X016281Y028605D02*
X030427Y028605D01*
X030427Y028487D02*
X016281Y028487D01*
X016281Y028368D02*
X030427Y028368D01*
X030427Y028250D02*
X016281Y028250D01*
X016281Y028131D02*
X030427Y028131D01*
X030427Y028013D02*
X016281Y028013D01*
X016281Y027894D02*
X030427Y027894D01*
X030427Y027776D02*
X016281Y027776D01*
X016281Y027657D02*
X030427Y027657D01*
X030427Y027539D02*
X016281Y027539D01*
X016281Y027420D02*
X030427Y027420D01*
X030427Y027302D02*
X016281Y027302D01*
X016281Y027183D02*
X030427Y027183D01*
X030427Y027065D02*
X016281Y027065D01*
X016281Y026946D02*
X030427Y026946D01*
X030427Y026828D02*
X016281Y026828D01*
X016281Y026709D02*
X030427Y026709D01*
X030427Y026591D02*
X016281Y026591D01*
X016281Y026472D02*
X030427Y026472D01*
X030427Y026354D02*
X016281Y026354D01*
X016281Y026235D02*
X030427Y026235D01*
X030427Y026117D02*
X016281Y026117D01*
X016281Y025998D02*
X030427Y025998D01*
X030427Y025880D02*
X016281Y025880D01*
X016281Y025761D02*
X030427Y025761D01*
X030427Y025643D02*
X016281Y025643D01*
X016281Y025524D02*
X030427Y025524D01*
X030427Y025406D02*
X016281Y025406D01*
X016281Y025287D02*
X030427Y025287D01*
X030427Y025169D02*
X016281Y025169D01*
X016281Y025050D02*
X030427Y025050D01*
X030427Y024932D02*
X016281Y024932D01*
X016281Y024813D02*
X030427Y024813D01*
X030427Y024695D02*
X016281Y024695D01*
X016281Y024576D02*
X030427Y024576D01*
X030427Y024458D02*
X016281Y024458D01*
X016281Y024339D02*
X030427Y024339D01*
X030427Y024221D02*
X016281Y024221D01*
X016281Y024102D02*
X030427Y024102D01*
X030427Y023984D02*
X016281Y023984D01*
X016281Y023865D02*
X030427Y023865D01*
X030427Y023747D02*
X016281Y023747D01*
X016281Y023628D02*
X030427Y023628D01*
X030427Y023510D02*
X016281Y023510D01*
X016280Y023391D02*
X030427Y023391D01*
X030427Y023273D02*
X016211Y023273D01*
X016092Y023154D02*
X030427Y023154D01*
X030427Y023036D02*
X015974Y023036D01*
X015855Y022917D02*
X030427Y022917D01*
X029302Y020784D02*
X021586Y020784D01*
X021704Y020666D02*
X029132Y020666D01*
X029046Y020547D02*
X021823Y020547D01*
X021941Y020429D02*
X028999Y020429D01*
X030427Y019599D02*
X022771Y019599D01*
X022889Y019481D02*
X030427Y019481D01*
X030427Y019362D02*
X023008Y019362D01*
X023126Y019244D02*
X030427Y019244D01*
X030427Y019125D02*
X023245Y019125D01*
X023363Y019007D02*
X030427Y019007D01*
X030427Y018888D02*
X023482Y018888D01*
X023600Y018770D02*
X030427Y018770D01*
X030427Y018651D02*
X023719Y018651D01*
X023837Y018533D02*
X030427Y018533D01*
X030427Y018414D02*
X023956Y018414D01*
X024074Y018296D02*
X030427Y018296D01*
X030427Y018177D02*
X024193Y018177D01*
X024311Y018059D02*
X030427Y018059D01*
X030427Y017940D02*
X024430Y017940D01*
X024548Y017822D02*
X030427Y017822D01*
X030427Y017703D02*
X024667Y017703D01*
X024710Y017585D02*
X030427Y017585D01*
X030427Y017466D02*
X024710Y017466D01*
X024710Y017348D02*
X030427Y017348D01*
X030427Y017229D02*
X024710Y017229D01*
X024710Y017111D02*
X030427Y017111D01*
X030427Y016992D02*
X024710Y016992D01*
X024710Y016874D02*
X030427Y016874D01*
X030427Y016755D02*
X024710Y016755D01*
X024710Y016637D02*
X030427Y016637D01*
X030427Y016518D02*
X024710Y016518D01*
X024710Y016400D02*
X030427Y016400D01*
X030427Y016281D02*
X024710Y016281D01*
X024710Y016163D02*
X030427Y016163D01*
X030427Y016044D02*
X024710Y016044D01*
X024710Y015926D02*
X027025Y015926D01*
X026941Y015807D02*
X024710Y015807D01*
X024710Y015689D02*
X026913Y015689D01*
X026929Y015570D02*
X024710Y015570D01*
X024710Y015452D02*
X026998Y015452D01*
X027008Y015333D02*
X026385Y015333D01*
X026366Y015333D02*
X026289Y015333D01*
X026289Y015336D02*
X026221Y015325D01*
X026153Y015303D01*
X026089Y015271D01*
X026031Y015228D01*
X025980Y015178D01*
X025938Y015120D01*
X025906Y015056D01*
X025883Y014988D01*
X025873Y014920D01*
X026289Y014920D01*
X026289Y015336D01*
X026270Y015333D02*
X024710Y015333D01*
X024710Y015215D02*
X026017Y015215D01*
X025926Y015096D02*
X024710Y015096D01*
X024710Y014978D02*
X025882Y014978D01*
X025873Y014843D02*
X025883Y014775D01*
X025906Y014706D01*
X025938Y014643D01*
X025980Y014585D01*
X026031Y014534D01*
X026089Y014492D01*
X026153Y014459D01*
X026221Y014437D01*
X026289Y014426D01*
X026289Y014843D01*
X025873Y014843D01*
X025894Y014741D02*
X024710Y014741D01*
X024710Y014859D02*
X026289Y014859D01*
X026289Y014843D02*
X026289Y014920D01*
X026366Y014920D01*
X026366Y015336D01*
X026434Y015325D01*
X026502Y015303D01*
X026566Y015271D01*
X026624Y015228D01*
X026675Y015178D01*
X026717Y015120D01*
X026749Y015056D01*
X026772Y014988D01*
X026782Y014920D01*
X026366Y014920D01*
X026366Y014843D01*
X026782Y014843D01*
X026772Y014775D01*
X026749Y014706D01*
X026717Y014643D01*
X026675Y014585D01*
X026624Y014534D01*
X026566Y014492D01*
X026502Y014459D01*
X026434Y014437D01*
X026366Y014426D01*
X026366Y014843D01*
X026289Y014843D01*
X026327Y014881D02*
X026327Y010173D01*
X027327Y009173D01*
X027289Y009171D02*
X026803Y009171D01*
X026793Y009290D02*
X026887Y009290D01*
X026936Y009408D02*
X026744Y009408D01*
X026646Y009527D02*
X027040Y009527D01*
X027289Y009527D02*
X027366Y009527D01*
X027366Y009408D02*
X027289Y009408D01*
X027289Y009290D02*
X027366Y009290D01*
X027366Y009171D02*
X027852Y009171D01*
X027861Y009290D02*
X027768Y009290D01*
X027753Y009408D02*
X027718Y009408D01*
X027634Y009527D02*
X027615Y009527D01*
X027516Y009645D02*
X026429Y009645D01*
X026226Y009645D02*
X026194Y009645D01*
X026076Y009764D02*
X027397Y009764D01*
X027279Y009882D02*
X025957Y009882D01*
X025839Y010001D02*
X027160Y010001D01*
X027044Y010119D02*
X025720Y010119D01*
X025602Y010238D02*
X027008Y010238D01*
X027008Y010356D02*
X025483Y010356D01*
X025365Y010475D02*
X027008Y010475D01*
X027008Y010593D02*
X025246Y010593D01*
X025128Y010712D02*
X027008Y010712D01*
X027008Y010830D02*
X025009Y010830D01*
X024891Y010949D02*
X027008Y010949D01*
X027008Y011067D02*
X024772Y011067D01*
X024710Y011186D02*
X027008Y011186D01*
X027008Y011304D02*
X025513Y011304D01*
X025798Y011423D02*
X027008Y011423D01*
X027008Y011541D02*
X025916Y011541D01*
X026032Y011660D02*
X027008Y011660D01*
X027008Y011778D02*
X026082Y011778D01*
X026131Y011897D02*
X027008Y011897D01*
X027008Y012015D02*
X026157Y012015D01*
X026157Y012134D02*
X027008Y012134D01*
X027008Y012252D02*
X026157Y012252D01*
X026124Y012371D02*
X027008Y012371D01*
X027008Y012489D02*
X026075Y012489D01*
X026018Y012608D02*
X027008Y012608D01*
X027008Y012726D02*
X025900Y012726D01*
X025759Y012845D02*
X027008Y012845D01*
X027008Y012963D02*
X024710Y012963D01*
X024710Y012845D02*
X024896Y012845D01*
X024755Y012726D02*
X024710Y012726D01*
X024710Y013082D02*
X027008Y013082D01*
X027008Y013200D02*
X024710Y013200D01*
X024710Y013319D02*
X027008Y013319D01*
X027008Y013437D02*
X024710Y013437D01*
X024710Y013556D02*
X027008Y013556D01*
X027008Y013674D02*
X024710Y013674D01*
X024710Y013793D02*
X027008Y013793D01*
X027008Y013911D02*
X024710Y013911D01*
X024710Y014030D02*
X027008Y014030D01*
X027008Y014148D02*
X024710Y014148D01*
X024710Y014267D02*
X027008Y014267D01*
X027008Y014385D02*
X024710Y014385D01*
X024710Y014504D02*
X026073Y014504D01*
X025953Y014622D02*
X024710Y014622D01*
X023809Y014622D02*
X022289Y014622D01*
X022289Y014504D02*
X023809Y014504D01*
X023809Y014385D02*
X022289Y014385D01*
X022289Y014267D02*
X023809Y014267D01*
X023809Y014238D02*
X023698Y014238D01*
X022289Y014238D01*
X022289Y015509D01*
X022399Y015619D01*
X022742Y015619D01*
X022830Y015656D01*
X023209Y016034D01*
X023277Y016102D01*
X023313Y016190D01*
X023313Y016207D01*
X023601Y016207D01*
X023601Y016199D01*
X023637Y016111D01*
X023809Y015939D01*
X023809Y014238D01*
X023809Y014741D02*
X022289Y014741D01*
X022289Y014859D02*
X023809Y014859D01*
X023809Y014978D02*
X022289Y014978D01*
X022289Y015096D02*
X023809Y015096D01*
X023809Y015215D02*
X022289Y015215D01*
X022289Y015333D02*
X023809Y015333D01*
X023809Y015452D02*
X022289Y015452D01*
X022350Y015570D02*
X023809Y015570D01*
X023809Y015689D02*
X022863Y015689D01*
X022982Y015807D02*
X023809Y015807D01*
X023809Y015926D02*
X023100Y015926D01*
X023219Y016044D02*
X023704Y016044D01*
X023616Y016163D02*
X023302Y016163D01*
X022585Y016152D02*
X022561Y016176D01*
X022561Y016247D01*
X022561Y016662D01*
X022791Y017117D02*
X022791Y017678D01*
X022824Y017678D01*
X022824Y017117D01*
X022791Y017117D01*
X022791Y017229D02*
X022824Y017229D01*
X022824Y017348D02*
X022791Y017348D01*
X022791Y017466D02*
X022824Y017466D01*
X022824Y017585D02*
X022791Y017585D01*
X022453Y017397D02*
X022156Y017397D01*
X022156Y017643D01*
X022080Y017718D01*
X022080Y018095D01*
X021743Y018059D02*
X020767Y018059D01*
X020767Y018177D02*
X021743Y018177D01*
X021743Y018242D02*
X021743Y017784D01*
X021840Y017686D01*
X021840Y017671D01*
X021877Y017582D01*
X021916Y017543D01*
X021916Y017496D01*
X021867Y017448D01*
X021737Y017317D01*
X021234Y017317D01*
X021234Y017317D01*
X021106Y017317D01*
X021090Y017310D01*
X021074Y017317D01*
X020770Y017317D01*
X020770Y017680D01*
X020683Y017768D01*
X020767Y017853D01*
X020767Y018242D01*
X021743Y018242D01*
X021743Y017940D02*
X020767Y017940D01*
X020736Y017822D02*
X021743Y017822D01*
X021823Y017703D02*
X020748Y017703D01*
X020770Y017585D02*
X021876Y017585D01*
X021886Y017466D02*
X020770Y017466D01*
X020770Y017348D02*
X021767Y017348D01*
X022071Y017312D02*
X022156Y017397D01*
X022418Y017813D02*
X022418Y017865D01*
X022444Y017855D01*
X022451Y017855D01*
X022451Y017813D01*
X022418Y017813D01*
X022418Y017822D02*
X022451Y017822D01*
X022579Y018533D02*
X023159Y018533D01*
X023118Y018414D02*
X023277Y018414D01*
X023225Y018296D02*
X023396Y018296D01*
X023040Y018651D02*
X022460Y018651D01*
X022803Y018888D02*
X019624Y018888D01*
X019624Y018770D02*
X022922Y018770D01*
X022685Y019007D02*
X019624Y019007D01*
X019624Y019125D02*
X022566Y019125D01*
X022448Y019244D02*
X019624Y019244D01*
X019624Y019362D02*
X022329Y019362D01*
X022211Y019481D02*
X019624Y019481D01*
X019624Y019599D02*
X022092Y019599D01*
X021974Y019718D02*
X019624Y019718D01*
X019624Y019836D02*
X021855Y019836D01*
X021737Y019955D02*
X019624Y019955D01*
X019624Y020073D02*
X021618Y020073D01*
X021500Y020192D02*
X019624Y020192D01*
X019624Y020310D02*
X021381Y020310D01*
X021263Y020429D02*
X019624Y020429D01*
X019624Y020547D02*
X021144Y020547D01*
X021026Y020666D02*
X019624Y020666D01*
X019624Y020784D02*
X020907Y020784D01*
X019144Y019599D02*
X015391Y019599D01*
X015483Y019481D02*
X019144Y019481D01*
X019144Y019362D02*
X015515Y019362D01*
X015504Y019244D02*
X019144Y019244D01*
X019144Y019125D02*
X015442Y019125D01*
X015258Y019007D02*
X019144Y019007D01*
X019144Y018888D02*
X014128Y018888D01*
X014128Y018770D02*
X019144Y018770D01*
X019144Y018651D02*
X014128Y018651D01*
X014448Y019007D02*
X015102Y019007D01*
X015168Y019324D02*
X015180Y019337D01*
X015168Y019324D02*
X014518Y019324D01*
X014808Y019599D02*
X014968Y019599D01*
X014675Y021140D02*
X012135Y021140D01*
X012135Y021247D02*
X011725Y021247D01*
X012116Y021247D01*
X012116Y021494D01*
X012135Y021258D02*
X014675Y021258D01*
X014675Y021432D02*
X014695Y021452D01*
X014695Y021562D01*
X014695Y021495D02*
X012801Y021495D01*
X012135Y021247D02*
X011725Y021247D01*
X011725Y021247D01*
X011725Y020932D02*
X011335Y020932D01*
X011335Y021206D01*
X011158Y021384D01*
X011335Y021562D01*
X011725Y021562D01*
X011315Y021851D02*
X010963Y021851D01*
X010998Y021969D02*
X011214Y021969D01*
X011068Y022088D02*
X011038Y022088D01*
X011303Y022192D02*
X010965Y022530D01*
X011303Y022192D02*
X011725Y022192D01*
X011166Y021732D02*
X011143Y021732D01*
X011018Y021524D02*
X011158Y021384D01*
X011018Y021524D02*
X010830Y021524D01*
X010641Y021524D01*
X007117Y021524D01*
X006892Y021299D01*
X006321Y021299D01*
X006751Y021732D02*
X006992Y021732D01*
X006632Y021851D02*
X010320Y021851D01*
X010285Y021969D02*
X004957Y021969D01*
X005075Y022088D02*
X010245Y022088D01*
X010245Y022206D02*
X005194Y022206D01*
X004870Y022562D02*
X004561Y022562D01*
X004561Y022680D02*
X004989Y022680D01*
X004752Y022443D02*
X004561Y022443D01*
X004561Y022325D02*
X004633Y022325D01*
X004561Y023036D02*
X010467Y023036D01*
X010349Y023154D02*
X004561Y023154D01*
X004561Y023273D02*
X010230Y023273D01*
X010112Y023391D02*
X004561Y023391D01*
X004561Y023510D02*
X009993Y023510D01*
X009875Y023628D02*
X004561Y023628D01*
X004561Y023747D02*
X009756Y023747D01*
X009638Y023865D02*
X004561Y023865D01*
X004561Y023984D02*
X009519Y023984D01*
X009401Y024102D02*
X004561Y024102D01*
X004561Y024221D02*
X009282Y024221D01*
X009164Y024339D02*
X004561Y024339D01*
X004561Y024458D02*
X009045Y024458D01*
X008927Y024576D02*
X004561Y024576D01*
X004561Y024695D02*
X008808Y024695D01*
X008690Y024813D02*
X004561Y024813D01*
X004561Y024932D02*
X008571Y024932D01*
X008453Y025050D02*
X004561Y025050D01*
X004561Y025169D02*
X008334Y025169D01*
X008216Y025287D02*
X004561Y025287D01*
X004561Y025406D02*
X008097Y025406D01*
X007979Y025524D02*
X004561Y025524D01*
X004561Y025643D02*
X007860Y025643D01*
X007742Y025761D02*
X004561Y025761D01*
X004561Y025880D02*
X007623Y025880D01*
X007505Y025998D02*
X004561Y025998D01*
X004561Y026117D02*
X007386Y026117D01*
X007268Y026235D02*
X004561Y026235D01*
X004561Y026354D02*
X007149Y026354D01*
X007031Y026472D02*
X004561Y026472D01*
X004561Y026591D02*
X006912Y026591D01*
X006820Y026709D02*
X004561Y026709D01*
X004561Y026828D02*
X006801Y026828D01*
X006801Y026946D02*
X004561Y026946D01*
X004561Y027065D02*
X006801Y027065D01*
X006801Y027183D02*
X004561Y027183D01*
X004561Y027302D02*
X006801Y027302D01*
X006801Y027420D02*
X004561Y027420D01*
X004561Y027539D02*
X006801Y027539D01*
X006801Y027657D02*
X004561Y027657D01*
X004561Y027776D02*
X005415Y027776D01*
X005297Y027824D02*
X005624Y027689D01*
X005978Y027689D01*
X006306Y027824D01*
X006556Y028074D01*
X006691Y028402D01*
X006691Y028756D01*
X006556Y029083D01*
X006306Y029333D01*
X005978Y029468D01*
X005624Y029468D01*
X005297Y029333D01*
X005047Y029083D01*
X004912Y028756D01*
X004912Y028402D01*
X005047Y028074D01*
X005297Y027824D01*
X005227Y027894D02*
X004561Y027894D01*
X004561Y028013D02*
X005109Y028013D01*
X005024Y028131D02*
X004561Y028131D01*
X004561Y028250D02*
X004974Y028250D01*
X004925Y028368D02*
X004561Y028368D01*
X004561Y028487D02*
X004912Y028487D01*
X004912Y028605D02*
X004561Y028605D01*
X004561Y028724D02*
X004912Y028724D01*
X004947Y028842D02*
X004561Y028842D01*
X004561Y028961D02*
X004996Y028961D01*
X005046Y029079D02*
X004561Y029079D01*
X004561Y029198D02*
X005162Y029198D01*
X005280Y029316D02*
X004561Y029316D01*
X004561Y029435D02*
X005543Y029435D01*
X006060Y029435D02*
X006801Y029435D01*
X006801Y029553D02*
X004561Y029553D01*
X004561Y029672D02*
X006801Y029672D01*
X006801Y029790D02*
X004561Y029790D01*
X004561Y029909D02*
X006801Y029909D01*
X006801Y030027D02*
X004561Y030027D01*
X004561Y030146D02*
X006801Y030146D01*
X006801Y030264D02*
X004561Y030264D01*
X004561Y030383D02*
X006801Y030383D01*
X006801Y030501D02*
X004561Y030501D01*
X004561Y030620D02*
X006801Y030620D01*
X006801Y030738D02*
X004561Y030738D01*
X004561Y030857D02*
X006801Y030857D01*
X006801Y030975D02*
X004561Y030975D01*
X004561Y031094D02*
X006801Y031094D01*
X006801Y031212D02*
X004561Y031212D01*
X004561Y031331D02*
X006801Y031331D01*
X006801Y031449D02*
X004561Y031449D01*
X004561Y031568D02*
X006801Y031568D01*
X006801Y031686D02*
X006171Y031686D01*
X005912Y031686D02*
X005171Y031686D01*
X004912Y031686D02*
X004561Y031686D01*
X004561Y031805D02*
X004667Y031805D01*
X005416Y031805D02*
X005667Y031805D01*
X005548Y031923D02*
X005535Y031923D01*
X006416Y031805D02*
X006667Y031805D01*
X006548Y031923D02*
X006535Y031923D01*
X007431Y033819D02*
X007652Y033819D01*
X008281Y033732D02*
X008281Y032853D01*
X008387Y032810D01*
X008541Y032655D01*
X008696Y032810D01*
X008801Y032853D01*
X008801Y033732D01*
X008696Y033775D01*
X008541Y033930D01*
X008387Y033775D01*
X008281Y033732D01*
X008281Y033701D02*
X008801Y033701D01*
X008801Y033582D02*
X008281Y033582D01*
X008281Y033464D02*
X008801Y033464D01*
X008801Y033345D02*
X008281Y033345D01*
X008281Y033227D02*
X008801Y033227D01*
X008801Y033108D02*
X008281Y033108D01*
X008281Y032990D02*
X008801Y032990D01*
X008801Y032871D02*
X008281Y032871D01*
X008444Y032753D02*
X008639Y032753D01*
X008541Y031930D02*
X008696Y031775D01*
X008801Y031732D01*
X008801Y027225D01*
X008281Y027745D01*
X008281Y031732D01*
X008387Y031775D01*
X008541Y031930D01*
X008535Y031923D02*
X008548Y031923D01*
X008667Y031805D02*
X008416Y031805D01*
X008281Y031686D02*
X008801Y031686D01*
X008801Y031568D02*
X008281Y031568D01*
X008281Y031449D02*
X008801Y031449D01*
X008801Y031331D02*
X008281Y031331D01*
X008281Y031212D02*
X008801Y031212D01*
X008801Y031094D02*
X008281Y031094D01*
X008281Y030975D02*
X008801Y030975D01*
X008801Y030857D02*
X008281Y030857D01*
X008281Y030738D02*
X008801Y030738D01*
X008801Y030620D02*
X008281Y030620D01*
X008281Y030501D02*
X008801Y030501D01*
X008801Y030383D02*
X008281Y030383D01*
X008281Y030264D02*
X008801Y030264D01*
X008801Y030146D02*
X008281Y030146D01*
X008281Y030027D02*
X008801Y030027D01*
X008801Y029909D02*
X008281Y029909D01*
X008281Y029790D02*
X008801Y029790D01*
X008801Y029672D02*
X008281Y029672D01*
X008281Y029553D02*
X008801Y029553D01*
X008801Y029435D02*
X008281Y029435D01*
X008281Y029316D02*
X008801Y029316D01*
X008801Y029198D02*
X008281Y029198D01*
X008281Y029079D02*
X008801Y029079D01*
X008801Y028961D02*
X008281Y028961D01*
X008281Y028842D02*
X008801Y028842D01*
X008801Y028724D02*
X008281Y028724D01*
X008281Y028605D02*
X008801Y028605D01*
X008801Y028487D02*
X008281Y028487D01*
X008281Y028368D02*
X008801Y028368D01*
X008801Y028250D02*
X008281Y028250D01*
X008281Y028131D02*
X008801Y028131D01*
X008801Y028013D02*
X008281Y028013D01*
X008281Y027894D02*
X008801Y027894D01*
X008801Y027776D02*
X008281Y027776D01*
X008370Y027657D02*
X008801Y027657D01*
X008801Y027539D02*
X008488Y027539D01*
X008607Y027420D02*
X008801Y027420D01*
X008801Y027302D02*
X008725Y027302D01*
X006801Y027776D02*
X006188Y027776D01*
X006376Y027894D02*
X006801Y027894D01*
X006801Y028013D02*
X006494Y028013D01*
X006579Y028131D02*
X006801Y028131D01*
X006801Y028250D02*
X006628Y028250D01*
X006678Y028368D02*
X006801Y028368D01*
X006801Y028487D02*
X006691Y028487D01*
X006691Y028605D02*
X006801Y028605D01*
X006801Y028724D02*
X006691Y028724D01*
X006656Y028842D02*
X006801Y028842D01*
X006801Y028961D02*
X006606Y028961D01*
X006557Y029079D02*
X006801Y029079D01*
X006801Y029198D02*
X006441Y029198D01*
X006322Y029316D02*
X006801Y029316D01*
X010444Y032753D02*
X010639Y032753D01*
X008652Y033819D02*
X008431Y033819D01*
X006612Y034863D02*
X006041Y034293D01*
X014431Y033819D02*
X014652Y033819D01*
X020512Y033722D02*
X020566Y033776D01*
X020942Y033776D01*
X021565Y032410D02*
X021787Y032189D01*
X021972Y032189D01*
X021972Y031891D01*
X025997Y022206D02*
X026117Y022206D01*
X026117Y022088D02*
X025997Y022088D01*
X025997Y021969D02*
X026117Y021969D01*
X026117Y021851D02*
X025997Y021851D01*
X025997Y021614D02*
X026117Y021614D01*
X026117Y021495D02*
X025997Y021495D01*
X025997Y021377D02*
X026117Y021377D01*
X026117Y021258D02*
X025997Y021258D01*
X025997Y021140D02*
X026117Y021140D01*
X026117Y021021D02*
X025997Y021021D01*
X026327Y020297D02*
X026327Y014881D01*
X026366Y014859D02*
X027008Y014859D01*
X027008Y014741D02*
X026760Y014741D01*
X026702Y014622D02*
X027008Y014622D01*
X027008Y014504D02*
X026582Y014504D01*
X026366Y014504D02*
X026289Y014504D01*
X026289Y014622D02*
X026366Y014622D01*
X026366Y014741D02*
X026289Y014741D01*
X026289Y014978D02*
X026366Y014978D01*
X026366Y015096D02*
X026289Y015096D01*
X026289Y015215D02*
X026366Y015215D01*
X026638Y015215D02*
X027008Y015215D01*
X027008Y015096D02*
X026729Y015096D01*
X026773Y014978D02*
X027008Y014978D01*
X027488Y014978D02*
X027853Y014978D01*
X027852Y014976D02*
X027852Y014787D01*
X027925Y014612D01*
X028058Y014478D01*
X028233Y014406D01*
X028422Y014406D01*
X028597Y014478D01*
X028730Y014612D01*
X028803Y014787D01*
X028803Y014976D01*
X028730Y015150D01*
X028597Y015284D01*
X028422Y015356D01*
X028233Y015356D01*
X028058Y015284D01*
X027925Y015150D01*
X027852Y014976D01*
X027852Y014859D02*
X027488Y014859D01*
X027488Y014741D02*
X027871Y014741D01*
X027920Y014622D02*
X027488Y014622D01*
X027488Y014504D02*
X028033Y014504D01*
X028622Y014504D02*
X030427Y014504D01*
X030427Y014622D02*
X028735Y014622D01*
X028784Y014741D02*
X030427Y014741D01*
X030427Y014859D02*
X028803Y014859D01*
X028802Y014978D02*
X030427Y014978D01*
X030427Y015096D02*
X028753Y015096D01*
X028666Y015215D02*
X030427Y015215D01*
X030427Y015333D02*
X028479Y015333D01*
X028176Y015333D02*
X027488Y015333D01*
X027488Y015215D02*
X027989Y015215D01*
X027902Y015096D02*
X027488Y015096D01*
X027499Y015452D02*
X030427Y015452D01*
X030427Y015570D02*
X027568Y015570D01*
X027583Y015689D02*
X030427Y015689D01*
X030427Y015807D02*
X027556Y015807D01*
X027472Y015926D02*
X030427Y015926D01*
X030427Y014385D02*
X027488Y014385D01*
X027488Y014267D02*
X030427Y014267D01*
X030427Y014148D02*
X027488Y014148D01*
X027488Y014030D02*
X030427Y014030D01*
X030427Y013911D02*
X027488Y013911D01*
X027488Y013793D02*
X030427Y013793D01*
X030427Y013674D02*
X027488Y013674D01*
X027488Y013556D02*
X030427Y013556D01*
X030427Y013437D02*
X027488Y013437D01*
X027488Y013319D02*
X030427Y013319D01*
X030427Y013200D02*
X027488Y013200D01*
X027488Y013082D02*
X030427Y013082D01*
X030427Y012963D02*
X027488Y012963D01*
X027488Y012845D02*
X028896Y012845D01*
X028858Y012829D02*
X028624Y012595D01*
X028498Y012290D01*
X028498Y011960D01*
X028624Y011655D01*
X028858Y011422D01*
X029162Y011296D01*
X029492Y011296D01*
X029797Y011422D01*
X030031Y011655D01*
X030157Y011960D01*
X030157Y012290D01*
X030031Y012595D01*
X029797Y012829D01*
X029492Y012955D01*
X029162Y012955D01*
X028858Y012829D01*
X028755Y012726D02*
X027488Y012726D01*
X027488Y012608D02*
X028636Y012608D01*
X028580Y012489D02*
X027488Y012489D01*
X027488Y012371D02*
X028531Y012371D01*
X028498Y012252D02*
X027488Y012252D01*
X027488Y012134D02*
X028498Y012134D01*
X028498Y012015D02*
X027488Y012015D01*
X027488Y011897D02*
X028524Y011897D01*
X028573Y011778D02*
X027488Y011778D01*
X027488Y011660D02*
X028622Y011660D01*
X028738Y011541D02*
X027488Y011541D01*
X027488Y011423D02*
X028857Y011423D01*
X029142Y011304D02*
X027488Y011304D01*
X027488Y011186D02*
X030427Y011186D01*
X030427Y011304D02*
X029513Y011304D01*
X029798Y011423D02*
X030427Y011423D01*
X030427Y011541D02*
X029916Y011541D01*
X030032Y011660D02*
X030427Y011660D01*
X030427Y011778D02*
X030082Y011778D01*
X030131Y011897D02*
X030427Y011897D01*
X030427Y012015D02*
X030157Y012015D01*
X030157Y012134D02*
X030427Y012134D01*
X030427Y012252D02*
X030157Y012252D01*
X030124Y012371D02*
X030427Y012371D01*
X030427Y012489D02*
X030075Y012489D01*
X030018Y012608D02*
X030427Y012608D01*
X030427Y012726D02*
X029900Y012726D01*
X029759Y012845D02*
X030427Y012845D01*
X030427Y011067D02*
X027488Y011067D01*
X027488Y010949D02*
X030427Y010949D01*
X030427Y010830D02*
X027488Y010830D01*
X027488Y010712D02*
X030427Y010712D01*
X030427Y010593D02*
X027488Y010593D01*
X027488Y010475D02*
X030427Y010475D01*
X030427Y010356D02*
X027488Y010356D01*
X027602Y010238D02*
X030427Y010238D01*
X030427Y010119D02*
X029879Y010119D01*
X029629Y010214D01*
X029363Y010182D01*
X029363Y010182D01*
X029143Y010029D01*
X029018Y009792D01*
X029018Y009525D01*
X029143Y009288D01*
X029363Y009136D01*
X029629Y009103D01*
X029879Y009198D01*
X029879Y009198D01*
X030057Y009399D01*
X030121Y009659D01*
X030057Y009918D01*
X030057Y009918D01*
X029879Y010119D01*
X029879Y010119D01*
X029984Y010001D02*
X030427Y010001D01*
X030427Y009882D02*
X030066Y009882D01*
X030095Y009764D02*
X030427Y009764D01*
X030427Y009645D02*
X030117Y009645D01*
X030121Y009659D02*
X030121Y009659D01*
X030088Y009527D02*
X030427Y009527D01*
X030427Y009408D02*
X030059Y009408D01*
X030057Y009399D02*
X030057Y009399D01*
X029960Y009290D02*
X030427Y009290D01*
X030427Y009171D02*
X029808Y009171D01*
X029629Y009103D02*
X029629Y009103D01*
X029363Y009136D02*
X029363Y009136D01*
X029312Y009171D02*
X028803Y009171D01*
X028793Y009290D02*
X029142Y009290D01*
X029143Y009288D02*
X029143Y009288D01*
X029143Y009288D01*
X029080Y009408D02*
X028744Y009408D01*
X028646Y009527D02*
X029018Y009527D01*
X029018Y009645D02*
X028429Y009645D01*
X028226Y009645D02*
X028194Y009645D01*
X028076Y009764D02*
X029018Y009764D01*
X029065Y009882D02*
X027957Y009882D01*
X027839Y010001D02*
X029128Y010001D01*
X029143Y010029D02*
X029143Y010029D01*
X029273Y010119D02*
X027720Y010119D01*
X027248Y010252D02*
X027248Y015675D01*
X024230Y017229D02*
X024178Y017229D01*
X024194Y017213D02*
X024194Y017213D01*
X023329Y017229D02*
X023162Y017397D01*
X022300Y015859D02*
X022049Y015609D01*
X022049Y013783D01*
X022049Y013111D01*
X022017Y013079D01*
X022333Y013082D02*
X023809Y013082D01*
X023809Y013200D02*
X022333Y013200D01*
X022333Y013319D02*
X023809Y013319D01*
X023809Y012963D02*
X022333Y012963D01*
X022333Y012845D02*
X023809Y012845D01*
X023809Y012726D02*
X022292Y012726D01*
X022257Y012608D02*
X023809Y012608D01*
X023809Y012489D02*
X023647Y012489D01*
X023733Y012371D02*
X023809Y012371D01*
X023809Y012252D02*
X023733Y012252D01*
X023733Y012134D02*
X023809Y012134D01*
X023809Y012015D02*
X023733Y012015D01*
X023733Y011897D02*
X023809Y011897D01*
X023809Y011778D02*
X023733Y011778D01*
X023733Y011660D02*
X023736Y011660D01*
X023941Y011186D02*
X024009Y011186D01*
X024009Y011067D02*
X023822Y011067D01*
X023704Y010949D02*
X024009Y010949D01*
X024009Y010830D02*
X023585Y010830D01*
X023467Y010712D02*
X024009Y010712D01*
X024009Y010593D02*
X023348Y010593D01*
X023230Y010475D02*
X024009Y010475D01*
X024470Y011030D02*
X026327Y009173D01*
X026690Y008863D02*
X026730Y008903D01*
X026690Y008863D02*
X026994Y008863D01*
X026980Y008876D01*
X026938Y008934D01*
X026888Y009053D02*
X026792Y009053D01*
X027717Y008934D02*
X027749Y008998D01*
X027772Y009066D01*
X028327Y009173D02*
X027248Y010252D01*
X028792Y009053D02*
X030427Y009053D01*
X030427Y008934D02*
X028743Y008934D01*
X025142Y011304D02*
X024710Y011304D01*
X024710Y011423D02*
X024857Y011423D01*
X024738Y011541D02*
X024710Y011541D01*
X022585Y011897D02*
X022296Y011897D01*
X022296Y012015D02*
X022585Y012015D01*
X022585Y012134D02*
X022296Y012134D01*
X022296Y012252D02*
X022585Y012252D01*
X022585Y012371D02*
X022296Y012371D01*
X022257Y012489D02*
X022671Y012489D01*
X021786Y011165D02*
X021627Y011165D01*
X021627Y011146D01*
X021725Y011049D01*
X021786Y011165D01*
X021734Y011067D02*
X021707Y011067D01*
X021383Y010712D02*
X021372Y010712D01*
X021312Y010771D02*
X021312Y010782D01*
X021913Y010182D01*
X022001Y010145D01*
X022585Y010145D01*
X022585Y009498D01*
X021312Y010771D01*
X021491Y010593D02*
X021502Y010593D01*
X021609Y010475D02*
X021620Y010475D01*
X021728Y010356D02*
X021739Y010356D01*
X021846Y010238D02*
X021857Y010238D01*
X021965Y010119D02*
X022585Y010119D01*
X022585Y010001D02*
X022083Y010001D01*
X022202Y009882D02*
X022585Y009882D01*
X022585Y009764D02*
X022320Y009764D01*
X022439Y009645D02*
X022585Y009645D01*
X022585Y009527D02*
X022557Y009527D01*
X022234Y009171D02*
X020189Y009171D01*
X020189Y009290D02*
X022115Y009290D01*
X021997Y009408D02*
X020189Y009408D01*
X020189Y009527D02*
X021878Y009527D01*
X021760Y009645D02*
X020189Y009645D01*
X020189Y009764D02*
X021641Y009764D01*
X021523Y009882D02*
X020189Y009882D01*
X020189Y010001D02*
X021404Y010001D01*
X021286Y010119D02*
X020189Y010119D01*
X020189Y010238D02*
X021167Y010238D01*
X021049Y010356D02*
X020744Y010356D01*
X020901Y010475D02*
X020930Y010475D01*
X020137Y009053D02*
X022352Y009053D01*
X022471Y008934D02*
X019041Y008934D01*
X019047Y009053D02*
X019094Y009053D01*
X018709Y009527D02*
X018592Y009527D01*
X018592Y009645D02*
X018709Y009645D01*
X018709Y009764D02*
X018592Y009764D01*
X018592Y009882D02*
X018709Y009882D01*
X018993Y009882D02*
X019042Y009882D01*
X019042Y010001D02*
X017610Y010001D01*
X017391Y009902D02*
X017302Y009990D01*
X017302Y010445D01*
X017750Y010445D01*
X017867Y010445D01*
X017391Y009902D02*
X017391Y009635D01*
X017391Y009369D01*
X017391Y009635D02*
X016924Y009169D01*
X017807Y009171D02*
X018254Y009171D01*
X018254Y009053D02*
X017807Y009053D01*
X017807Y008934D02*
X018259Y008934D01*
X019042Y011897D02*
X016797Y011897D01*
X016797Y012015D02*
X019042Y012015D01*
X018345Y012963D02*
X017729Y012963D01*
X017802Y013082D02*
X018251Y013082D01*
X018249Y013200D02*
X017802Y013200D01*
X017802Y013319D02*
X018249Y013319D01*
X018249Y013437D02*
X017802Y013437D01*
X016969Y013437D02*
X016797Y013437D01*
X016797Y013319D02*
X016969Y013319D01*
X016969Y013200D02*
X016797Y013200D01*
X016797Y013082D02*
X016969Y013082D01*
X017043Y012963D02*
X016797Y012963D01*
X016797Y012845D02*
X017062Y012845D01*
X017062Y012726D02*
X016797Y012726D01*
X016797Y012608D02*
X017062Y012608D01*
X017062Y012489D02*
X016797Y012489D01*
X016797Y012371D02*
X017073Y012371D01*
X017155Y012252D02*
X016797Y012252D01*
X016797Y012134D02*
X017289Y012134D01*
X016969Y013556D02*
X016797Y013556D01*
X016759Y013674D02*
X016969Y013674D01*
X017245Y014153D02*
X017245Y014543D01*
X016832Y015333D02*
X016714Y015333D01*
X016714Y015452D02*
X016940Y015452D01*
X017005Y015570D02*
X016696Y015570D01*
X016458Y015689D02*
X017061Y015689D01*
X017061Y015807D02*
X016535Y015807D01*
X016541Y015926D02*
X017061Y015926D01*
X017061Y016044D02*
X016541Y016044D01*
X016541Y016163D02*
X017061Y016163D01*
X016936Y016281D02*
X016667Y016281D01*
X016785Y016400D02*
X016818Y016400D01*
X016301Y016779D02*
X016301Y015871D01*
X015395Y014965D01*
X015078Y014965D01*
X015358Y015333D02*
X015424Y015333D01*
X015667Y016281D02*
X015936Y016281D01*
X015818Y016400D02*
X015785Y016400D01*
X015714Y017229D02*
X015889Y017229D01*
X016081Y017348D02*
X015522Y017348D01*
X015081Y017348D02*
X015072Y017348D01*
X014953Y017466D02*
X017650Y017466D01*
X017768Y017585D02*
X014835Y017585D01*
X014716Y017703D02*
X017887Y017703D01*
X018005Y017822D02*
X014598Y017822D01*
X014479Y017940D02*
X018124Y017940D01*
X018242Y018059D02*
X014361Y018059D01*
X014242Y018177D02*
X018361Y018177D01*
X018684Y017822D02*
X019339Y017822D01*
X019362Y017703D02*
X018565Y017703D01*
X018447Y017585D02*
X019330Y017585D01*
X019330Y017466D02*
X018328Y017466D01*
X018802Y017940D02*
X019307Y017940D01*
X019307Y018059D02*
X018921Y018059D01*
X018841Y018318D02*
X019384Y018318D01*
X020337Y018318D02*
X020337Y018053D01*
X020337Y018318D02*
X020502Y018482D01*
X021154Y017077D02*
X021282Y017077D01*
X021154Y017077D02*
X021026Y016949D01*
X021041Y016207D02*
X021467Y016207D01*
X021441Y016146D01*
X021441Y016084D01*
X021099Y015741D01*
X021031Y015674D01*
X021010Y015623D01*
X021010Y015952D01*
X021051Y016050D01*
X021051Y016183D01*
X021041Y016207D01*
X021051Y016163D02*
X021448Y016163D01*
X021401Y016044D02*
X021048Y016044D01*
X021010Y015926D02*
X021283Y015926D01*
X021164Y015807D02*
X021010Y015807D01*
X021010Y015689D02*
X021046Y015689D01*
X021234Y015538D02*
X021234Y014246D01*
X021282Y014198D01*
X021282Y013783D01*
X021538Y013783D02*
X021538Y015339D01*
X021778Y015105D02*
X021809Y015137D01*
X021809Y014238D01*
X021778Y014238D01*
X021778Y015105D01*
X021778Y015096D02*
X021809Y015096D01*
X021809Y014978D02*
X021778Y014978D01*
X021778Y014859D02*
X021809Y014859D01*
X021809Y014741D02*
X021778Y014741D01*
X021778Y014622D02*
X021809Y014622D01*
X021809Y014504D02*
X021778Y014504D01*
X021778Y014385D02*
X021809Y014385D01*
X021809Y014267D02*
X021778Y014267D01*
X021287Y013315D02*
X021287Y013079D01*
X020479Y012371D02*
X020189Y012371D01*
X020189Y012252D02*
X020479Y012252D01*
X020479Y012134D02*
X020189Y012134D01*
X020189Y012015D02*
X020479Y012015D01*
X020479Y011897D02*
X020189Y011897D01*
X021234Y015538D02*
X021776Y016080D01*
X021781Y015745D02*
X021843Y015745D01*
X021848Y015746D01*
X021846Y015745D01*
X021809Y015657D01*
X021809Y015541D01*
X021727Y015623D01*
X021679Y015643D01*
X021781Y015745D01*
X021823Y015689D02*
X021725Y015689D01*
X021781Y015570D02*
X021809Y015570D01*
X017531Y017348D02*
X017522Y017348D01*
X017081Y017348D02*
X016522Y017348D01*
X016714Y017229D02*
X016889Y017229D01*
X013918Y017229D02*
X013813Y017229D01*
X012023Y019599D02*
X006855Y019599D01*
X006911Y019481D02*
X008664Y019481D01*
X008546Y019362D02*
X006911Y019362D01*
X006892Y019299D02*
X008029Y020436D01*
X010141Y020436D01*
X010565Y020436D01*
X010557Y020429D02*
X006931Y020429D01*
X006931Y020547D02*
X010071Y020547D01*
X010081Y020666D02*
X006817Y020666D01*
X006699Y020784D02*
X010051Y020784D01*
X010051Y020903D02*
X006788Y020903D01*
X006907Y021021D02*
X010051Y021021D01*
X010070Y021140D02*
X007072Y021140D01*
X007190Y021258D02*
X010259Y021258D01*
X010565Y020908D02*
X011040Y020908D01*
X011331Y020617D01*
X011725Y020617D01*
X011725Y020302D02*
X011335Y020302D01*
X011040Y020007D01*
X011040Y019963D01*
X010565Y019963D01*
X010574Y020427D02*
X010574Y020444D01*
X011060Y020444D01*
X011060Y020549D01*
X011128Y020481D01*
X011151Y020457D01*
X011060Y020366D01*
X011060Y020427D01*
X010574Y020427D01*
X010574Y020429D02*
X011122Y020429D01*
X011062Y020547D02*
X011060Y020547D01*
X011327Y019955D02*
X012023Y019955D01*
X012023Y019836D02*
X011247Y019836D01*
X011047Y019718D02*
X012023Y019718D01*
X012155Y020310D02*
X012182Y020310D01*
X011055Y021148D02*
X011052Y021148D01*
X010983Y021217D01*
X010984Y021218D01*
X011022Y021181D01*
X011055Y021148D01*
X010660Y021969D02*
X010623Y021969D01*
X010623Y022088D02*
X010660Y022088D01*
X010071Y020310D02*
X006931Y020310D01*
X006931Y020192D02*
X010067Y020192D01*
X010051Y020073D02*
X006931Y020073D01*
X006840Y019955D02*
X010051Y019955D01*
X010051Y019836D02*
X006722Y019836D01*
X006737Y019718D02*
X010084Y019718D01*
X008427Y019244D02*
X006911Y019244D01*
X006892Y019299D02*
X006489Y019299D01*
X006321Y019299D01*
X006281Y019244D02*
X006361Y019244D01*
X006361Y019125D02*
X006281Y019125D01*
X006281Y019007D02*
X006361Y019007D01*
X006361Y018888D02*
X006281Y018888D01*
X006281Y018770D02*
X006361Y018770D01*
X006627Y018770D02*
X007953Y018770D01*
X008072Y018888D02*
X006745Y018888D01*
X006864Y019007D02*
X008190Y019007D01*
X008309Y019125D02*
X006911Y019125D01*
X006489Y019299D02*
X005919Y018728D01*
X005071Y018728D01*
X004869Y018888D02*
X004787Y018888D01*
X004787Y019627D02*
X004787Y019970D01*
X004959Y019799D01*
X004787Y019627D01*
X004787Y019718D02*
X004878Y019718D01*
X004921Y019836D02*
X004787Y019836D01*
X004787Y019955D02*
X004803Y019955D01*
X004787Y020627D02*
X004787Y020719D01*
X004817Y020689D01*
X004849Y020689D01*
X004787Y020627D01*
X004787Y020666D02*
X004826Y020666D01*
X005794Y020689D02*
X005821Y020661D01*
X005959Y020799D01*
X005931Y020826D01*
X005931Y020794D01*
X005826Y020689D01*
X005794Y020689D01*
X005817Y020666D02*
X005826Y020666D01*
X005922Y020784D02*
X005944Y020784D01*
X005821Y019936D02*
X005973Y019784D01*
X005836Y019647D01*
X005684Y019799D01*
X005821Y019936D01*
X005722Y019836D02*
X005921Y019836D01*
X005906Y019718D02*
X005765Y019718D01*
X005774Y018888D02*
X005898Y018888D01*
X006016Y018770D02*
X005655Y018770D01*
X005884Y021851D02*
X006011Y021851D01*
X009785Y016400D02*
X009818Y016400D01*
X009936Y016281D02*
X009667Y016281D01*
X015105Y021562D02*
X015105Y021562D01*
X017886Y021021D02*
X018068Y021021D01*
X018062Y021140D02*
X018005Y021140D01*
D37*
X017008Y021061D03*
X017056Y022242D03*
X014481Y022529D03*
X013484Y022163D03*
X012628Y021786D03*
X012255Y022563D03*
X011734Y024639D03*
X013050Y025514D03*
X013509Y025446D03*
X013401Y027879D03*
X014601Y027879D03*
X015501Y027879D03*
X012101Y027879D03*
X010601Y027879D03*
X009601Y027879D03*
X008501Y027729D03*
X007501Y027729D03*
X006301Y027729D03*
X008601Y028979D03*
X006301Y023779D03*
X010001Y018879D03*
X010101Y017879D03*
X012801Y017879D03*
X014203Y019235D03*
X014801Y018279D03*
X015180Y019337D03*
X014154Y020726D03*
X016601Y018279D03*
X018601Y019779D03*
X020801Y020079D03*
X023185Y017876D03*
X022585Y016152D03*
X021776Y016080D03*
X021538Y015339D03*
X020716Y016117D03*
X020188Y016688D03*
X024801Y009479D03*
X027248Y015675D03*
M02*
