G75*
G70*
%OFA0B0*%
%FSLAX24Y24*%
%IPPOS*%
%LPD*%
%AMOC8*
5,1,8,0,0,1.08239X$1,22.5*
%
%ADD10C,0.0651*%
%ADD11C,0.1359*%
%ADD12R,0.0920X0.0920*%
%ADD13OC8,0.0920*%
%ADD14C,0.0920*%
%ADD15C,0.0800*%
%ADD16C,0.0414*%
%ADD17C,0.0690*%
%ADD18C,0.0847*%
%ADD19C,0.0600*%
%ADD20OC8,0.0600*%
%ADD21C,0.0585*%
D10*
X033100Y001939D03*
X034100Y001939D03*
X035100Y001939D03*
X035100Y007647D03*
X033100Y007647D03*
D11*
X032100Y004892D03*
X036100Y004892D03*
D12*
X005375Y002949D03*
D13*
X006375Y002949D03*
X007375Y002949D03*
X007375Y003949D03*
X006375Y003949D03*
X005375Y003949D03*
D14*
X000860Y002585D03*
X000860Y003585D03*
X000860Y004585D03*
X000860Y005585D03*
X000860Y006585D03*
X000860Y007585D03*
X000860Y008585D03*
X000860Y009585D03*
X000860Y010585D03*
X000860Y011585D03*
X000860Y012585D03*
X000860Y013585D03*
X000860Y014585D03*
X000860Y015585D03*
X002860Y015585D03*
X002860Y014585D03*
X002860Y013585D03*
X002860Y012585D03*
X002860Y011585D03*
X002860Y010585D03*
X002860Y009585D03*
X002860Y008585D03*
X002860Y007585D03*
X002860Y006585D03*
X002860Y005585D03*
X002860Y004585D03*
X002860Y003585D03*
X002860Y002585D03*
D15*
X014893Y002833D03*
X015893Y002833D03*
D16*
X025794Y003619D03*
X027526Y003619D03*
X027376Y017562D03*
X028558Y017562D03*
D17*
X010846Y002469D03*
D18*
X010846Y004240D03*
D19*
X008725Y015697D03*
D20*
X009725Y015697D03*
X010725Y015697D03*
X011725Y015697D03*
X012725Y015697D03*
X013725Y015697D03*
X014725Y015697D03*
X014725Y016697D03*
X013725Y016697D03*
X012725Y016697D03*
X011725Y016697D03*
X010725Y016697D03*
X009725Y016697D03*
X008725Y016697D03*
D21*
X009991Y013639D03*
X008164Y013200D03*
X009384Y012621D03*
X006702Y011504D03*
X006440Y010156D03*
X009994Y010094D03*
X014988Y008276D03*
X016743Y010287D03*
X021973Y007602D03*
X023462Y009390D03*
X029348Y011237D03*
X032403Y010277D03*
X035206Y010656D03*
X028182Y014795D03*
X026345Y013145D03*
X025535Y013145D03*
X018370Y015353D03*
X016791Y013658D03*
X008196Y007091D03*
X011007Y006701D03*
X020539Y005661D03*
M02*
