G75*
G70*
%OFA0B0*%
%FSLAX24Y24*%
%IPPOS*%
%LPD*%
%AMOC8*
5,1,8,0,0,1.08239X$1,22.5*
%
%ADD10R,0.0500X0.0220*%
%ADD11R,0.0220X0.0500*%
%ADD12R,0.0472X0.0315*%
%ADD13R,0.0669X0.0276*%
%ADD14R,0.0197X0.0984*%
%ADD15R,0.0787X0.0984*%
%ADD16R,0.0137X0.0550*%
%ADD17R,0.1102X0.1102*%
%ADD18R,0.0984X0.1181*%
%ADD19R,0.0354X0.0394*%
%ADD20R,0.0354X0.0433*%
%ADD21R,0.0250X0.0500*%
%ADD22R,0.0500X0.0250*%
%ADD23R,0.4098X0.4252*%
%ADD24R,0.0850X0.0420*%
%ADD25R,0.0472X0.0787*%
D10*
X011725Y020302D03*
X011725Y020617D03*
X011725Y020932D03*
X011725Y021247D03*
X011725Y021562D03*
X011725Y021877D03*
X011725Y022192D03*
X011725Y022507D03*
X015105Y022507D03*
X015105Y022192D03*
X015105Y021877D03*
X015105Y021562D03*
X015105Y021247D03*
X015105Y020932D03*
X015105Y020617D03*
X015105Y020302D03*
D11*
X014518Y019715D03*
X014203Y019715D03*
X013888Y019715D03*
X013573Y019715D03*
X013258Y019715D03*
X012943Y019715D03*
X012628Y019715D03*
X012313Y019715D03*
X012313Y023095D03*
X012628Y023095D03*
X012943Y023095D03*
X013258Y023095D03*
X013573Y023095D03*
X013888Y023095D03*
X014203Y023095D03*
X014518Y023095D03*
D12*
X018255Y019642D03*
X018255Y018933D03*
X020255Y017686D03*
X020255Y016977D03*
X021743Y016960D03*
X021743Y017669D03*
X026099Y019678D03*
X026099Y020387D03*
X027291Y020400D03*
X027291Y019691D03*
X021972Y031891D03*
X021972Y032600D03*
X020984Y032572D03*
X020984Y031863D03*
X020942Y033776D03*
X020942Y034485D03*
X021941Y034486D03*
X021941Y033777D03*
X007472Y024672D03*
X007472Y023964D03*
X006115Y023998D03*
X006115Y024707D03*
X005137Y024707D03*
X005137Y023998D03*
X005132Y022194D03*
X005132Y021485D03*
X006130Y021482D03*
X006130Y022191D03*
D13*
X017187Y022334D03*
X017187Y021862D03*
X017187Y021389D03*
D14*
X020758Y011837D03*
X021072Y011837D03*
X021387Y011837D03*
X021702Y011837D03*
X022017Y011837D03*
D15*
X023159Y011837D03*
X023159Y009671D03*
X019616Y009671D03*
X019616Y011837D03*
D16*
X020724Y013313D03*
X020980Y013313D03*
X021236Y013313D03*
X021492Y013313D03*
X021748Y013313D03*
X022004Y013313D03*
X022259Y013313D03*
X022515Y013313D03*
X022771Y013313D03*
X023027Y013313D03*
X023283Y013313D03*
X023539Y013313D03*
X023795Y013313D03*
X024051Y013313D03*
X024051Y016192D03*
X023795Y016192D03*
X023539Y016192D03*
X023283Y016192D03*
X023027Y016192D03*
X022771Y016192D03*
X022515Y016192D03*
X022259Y016192D03*
X022004Y016192D03*
X021748Y016192D03*
X021492Y016192D03*
X021236Y016192D03*
X020980Y016192D03*
X020724Y016192D03*
D17*
X005167Y009404D03*
X005167Y011754D03*
X009419Y011754D03*
X009419Y009404D03*
D18*
X018734Y021693D03*
X026057Y021693D03*
D19*
X016377Y015299D03*
X016377Y014630D03*
D20*
X015078Y014965D03*
D21*
X017327Y018965D03*
X017327Y019565D03*
X019375Y013593D03*
X019375Y012993D03*
D22*
X023990Y019631D03*
X024590Y019631D03*
D23*
X014727Y011365D03*
D24*
X018007Y011365D03*
X018007Y012365D03*
X018007Y010365D03*
D25*
X017391Y009369D03*
X018650Y009369D03*
X018645Y013505D03*
X017386Y013505D03*
M02*
