%
M48
M72
T01C0.0350
T02C0.0354
T03C0.0360
T04C0.0394
T05C0.0400
T06C0.0669
T07C0.0787
T08C0.0866
%
T01
X8769Y6574
X7683Y7491
X10580Y7287
X13853Y8653
X15416Y7888
X17964Y7601
X19221Y5557
X21336Y6824
X22356Y9435
X22499Y10350
X17337Y11475
X16406Y11361
X15662Y10083
X15847Y13959
X8926Y13041
X8218Y12604
X7149Y13348
X5836Y12523
X5435Y11307
X7172Y10150
X5581Y9995
X8936Y10335
X24608Y14111
X25188Y13546
X29533Y11831
X32914Y9388
X29211Y6345
T02
X26466Y3619
X24734Y3619
X25615Y17661
X28411Y17661
T03
X13665Y16697
X12665Y16697
X11665Y16697
X10665Y16697
X9665Y16697
X8665Y16697
X7665Y16697
X7665Y15697
X8665Y15697
X9665Y15697
X10665Y15697
X11665Y15697
X12665Y15697
X13665Y15697
T04
X31550Y8027
X33550Y8027
X33550Y2319
X32550Y2319
X31550Y2319
T05
X800Y2585
X1800Y2585
X1800Y3585
X800Y3585
X800Y4585
X1800Y4585
X1800Y5585
X800Y5585
X800Y6585
X1800Y6585
X1800Y7585
X800Y7585
X800Y8585
X1800Y8585
X1800Y9585
X800Y9585
X800Y10585
X1800Y10585
X1800Y11585
X800Y11585
X800Y12585
X1800Y12585
X1800Y13585
X800Y13585
X800Y14585
X1800Y14585
X1800Y15585
X800Y15585
X4315Y3949
X5315Y3949
X6315Y3949
X6315Y2949
X5315Y2949
X4315Y2949
X13833Y2833
X14833Y2833
T06
X9786Y2469
T07
X9786Y4240
T08
X30550Y5272
X34550Y5272
M30
