G75*
G70*
%OFA0B0*%
%FSLAX24Y24*%
%IPPOS*%
%LPD*%
%AMOC8*
5,1,8,0,0,1.08239X$1,22.5*
%
%ADD10C,0.0080*%
%ADD11C,0.0060*%
%ADD12C,0.0040*%
%ADD13C,0.0050*%
%ADD14C,0.0090*%
%ADD15C,0.0030*%
%ADD16C,0.0020*%
%ADD17C,0.0100*%
%ADD18R,0.0660X0.0380*%
D10*
X005051Y016279D02*
X004801Y016529D01*
X004801Y017029D01*
X005051Y017279D01*
X005551Y017279D01*
X005801Y017029D01*
X006051Y017279D01*
X006551Y017279D01*
X006801Y017029D01*
X007051Y017279D01*
X007551Y017279D01*
X007801Y017029D01*
X008051Y017279D01*
X008551Y017279D01*
X008801Y017029D01*
X009051Y017279D01*
X009551Y017279D01*
X009801Y017029D01*
X010051Y017279D01*
X010551Y017279D01*
X010801Y017029D01*
X011051Y017279D01*
X011551Y017279D01*
X011801Y017029D01*
X012051Y017279D01*
X012551Y017279D01*
X012801Y017029D01*
X013051Y017279D01*
X013551Y017279D01*
X013801Y017029D01*
X014051Y017279D01*
X014551Y017279D01*
X014801Y017029D01*
X015051Y017279D01*
X015551Y017279D01*
X015801Y017029D01*
X016051Y017279D01*
X016551Y017279D01*
X016801Y017029D01*
X017051Y017279D01*
X017551Y017279D01*
X017801Y017029D01*
X018051Y017279D01*
X018551Y017279D01*
X018801Y017029D01*
X018801Y016529D01*
X018551Y016279D01*
X018051Y016279D01*
X017801Y016529D01*
X017551Y016279D01*
X017051Y016279D01*
X016801Y016529D01*
X016551Y016279D01*
X016051Y016279D01*
X015801Y016529D01*
X015551Y016279D01*
X015051Y016279D01*
X014801Y016529D01*
X014551Y016279D01*
X014051Y016279D01*
X013801Y016529D01*
X013551Y016279D01*
X013051Y016279D01*
X012801Y016529D01*
X012551Y016279D01*
X012051Y016279D01*
X011801Y016529D01*
X011551Y016279D01*
X011051Y016279D01*
X010801Y016529D01*
X010551Y016279D01*
X010051Y016279D01*
X009801Y016529D01*
X009551Y016279D01*
X009051Y016279D01*
X008801Y016529D01*
X008551Y016279D01*
X008051Y016279D01*
X007801Y016529D01*
X007551Y016279D01*
X007051Y016279D01*
X006801Y016529D01*
X006551Y016279D01*
X006051Y016279D01*
X005801Y016529D01*
X005551Y016279D01*
X005051Y016279D01*
X010310Y019727D02*
X010821Y019727D01*
X010821Y021144D02*
X010310Y021144D01*
X015098Y015594D02*
X016357Y015594D01*
X016357Y014335D02*
X015098Y014335D01*
X015098Y014571D01*
X015098Y015358D02*
X015098Y015594D01*
X016721Y013450D02*
X016721Y009439D01*
X017391Y009880D02*
X018650Y009880D01*
X018650Y008857D02*
X017391Y008857D01*
X019891Y010341D02*
X019891Y011168D01*
X020167Y012152D02*
X020521Y012152D01*
X022254Y012152D02*
X022608Y012152D01*
X022884Y011168D02*
X022884Y010341D01*
X018645Y012993D02*
X017386Y012993D01*
X017386Y014016D02*
X018645Y014016D01*
X028213Y020649D02*
X028283Y020579D01*
X028353Y020579D01*
X028423Y020649D01*
X028423Y020859D01*
X028283Y020859D02*
X028213Y020789D01*
X028213Y020649D01*
X028283Y020859D02*
X028563Y020859D01*
X028633Y020789D01*
X028633Y020649D01*
X028563Y020579D01*
X029013Y020547D02*
X029013Y020047D01*
X029263Y019797D01*
X029763Y019797D01*
X030013Y020047D01*
X030013Y020547D01*
X029763Y020797D01*
X030013Y021047D01*
X030013Y021547D01*
X029763Y021797D01*
X029263Y021797D01*
X029013Y021547D01*
X029013Y021047D01*
X029263Y020797D01*
X029013Y020547D01*
X028493Y021039D02*
X028633Y021179D01*
X028493Y021319D01*
X028213Y021319D01*
X028213Y021039D02*
X028493Y021039D01*
X029530Y022109D02*
X029530Y022389D01*
X029670Y022249D02*
X029389Y022249D01*
X022083Y034019D02*
X021944Y034227D01*
X021763Y034227D01*
X021931Y034192D02*
X021803Y034024D01*
X021944Y034227D02*
X022130Y034227D01*
X021131Y034226D02*
X020945Y034226D01*
X021084Y034018D01*
X020932Y034191D02*
X020804Y034023D01*
X020764Y034226D02*
X020945Y034226D01*
X018541Y034043D02*
X018291Y033793D01*
X017791Y033793D01*
X017541Y034043D01*
X017291Y033793D01*
X016791Y033793D01*
X016541Y034043D01*
X016291Y033793D01*
X015791Y033793D01*
X015541Y034043D01*
X015291Y033793D01*
X014791Y033793D01*
X014541Y034043D01*
X014291Y033793D01*
X013791Y033793D01*
X013541Y034043D01*
X013291Y033793D01*
X012791Y033793D01*
X012541Y034043D01*
X012291Y033793D01*
X011791Y033793D01*
X011541Y034043D01*
X011291Y033793D01*
X010791Y033793D01*
X010541Y034043D01*
X010291Y033793D01*
X009791Y033793D01*
X009541Y034043D01*
X009291Y033793D01*
X008791Y033793D01*
X008541Y034043D01*
X008291Y033793D01*
X007791Y033793D01*
X007541Y034043D01*
X007291Y033793D01*
X006791Y033793D01*
X006541Y034043D01*
X006291Y033793D01*
X005791Y033793D01*
X005541Y034043D01*
X005291Y033793D01*
X004791Y033793D01*
X004541Y034043D01*
X004541Y034543D01*
X004791Y034793D01*
X005291Y034793D01*
X005541Y034543D01*
X005791Y034793D01*
X006291Y034793D01*
X006541Y034543D01*
X006791Y034793D01*
X007291Y034793D01*
X007541Y034543D01*
X007791Y034793D01*
X008291Y034793D01*
X008541Y034543D01*
X008791Y034793D01*
X009291Y034793D01*
X009541Y034543D01*
X009791Y034793D01*
X010291Y034793D01*
X010541Y034543D01*
X010791Y034793D01*
X011291Y034793D01*
X011541Y034543D01*
X011791Y034793D01*
X012291Y034793D01*
X012541Y034543D01*
X012791Y034793D01*
X013291Y034793D01*
X013541Y034543D01*
X013791Y034793D01*
X014291Y034793D01*
X014541Y034543D01*
X014791Y034793D01*
X015291Y034793D01*
X015541Y034543D01*
X015791Y034793D01*
X016291Y034793D01*
X016541Y034543D01*
X016791Y034793D01*
X017291Y034793D01*
X017541Y034543D01*
X017791Y034793D01*
X018291Y034793D01*
X018541Y034543D01*
X018541Y034043D01*
X018291Y032793D02*
X017791Y032793D01*
X017541Y032543D01*
X017291Y032793D01*
X016791Y032793D01*
X016541Y032543D01*
X016291Y032793D01*
X015791Y032793D01*
X015541Y032543D01*
X015291Y032793D01*
X014791Y032793D01*
X014541Y032543D01*
X014291Y032793D01*
X013791Y032793D01*
X013541Y032543D01*
X013291Y032793D01*
X012791Y032793D01*
X012541Y032543D01*
X012291Y032793D01*
X011791Y032793D01*
X011541Y032543D01*
X011291Y032793D01*
X010791Y032793D01*
X010541Y032543D01*
X010291Y032793D01*
X009791Y032793D01*
X009541Y032543D01*
X009291Y032793D01*
X008791Y032793D01*
X008541Y032543D01*
X008291Y032793D01*
X007791Y032793D01*
X007541Y032543D01*
X007291Y032793D01*
X006791Y032793D01*
X006541Y032543D01*
X006291Y032793D01*
X005791Y032793D01*
X005541Y032543D01*
X005291Y032793D01*
X004791Y032793D01*
X004541Y032543D01*
X004541Y032043D01*
X004791Y031793D01*
X005291Y031793D01*
X005541Y032043D01*
X005791Y031793D01*
X006291Y031793D01*
X006541Y032043D01*
X006791Y031793D01*
X007291Y031793D01*
X007541Y032043D01*
X007791Y031793D01*
X008291Y031793D01*
X008541Y032043D01*
X008791Y031793D01*
X009291Y031793D01*
X009541Y032043D01*
X009791Y031793D01*
X010291Y031793D01*
X010541Y032043D01*
X010791Y031793D01*
X011291Y031793D01*
X011541Y032043D01*
X011791Y031793D01*
X012291Y031793D01*
X012541Y032043D01*
X012791Y031793D01*
X013291Y031793D01*
X013541Y032043D01*
X013791Y031793D01*
X014291Y031793D01*
X014541Y032043D01*
X014791Y031793D01*
X015291Y031793D01*
X015541Y032043D01*
X015791Y031793D01*
X016291Y031793D01*
X016541Y032043D01*
X016791Y031793D01*
X017291Y031793D01*
X017541Y032043D01*
X017791Y031793D01*
X018291Y031793D01*
X018541Y032043D01*
X018541Y032543D01*
X018291Y032793D01*
D11*
X020202Y033317D02*
X020542Y033317D01*
X020542Y033543D01*
X020542Y033685D02*
X020542Y033912D01*
X020542Y034053D02*
X020542Y034223D01*
X020486Y034280D01*
X020259Y034280D01*
X020202Y034223D01*
X020202Y034053D01*
X020542Y034053D01*
X020372Y033798D02*
X020372Y033685D01*
X020202Y033685D02*
X020542Y033685D01*
X020202Y033685D02*
X020202Y033912D01*
X020316Y034421D02*
X020202Y034535D01*
X020542Y034535D01*
X020542Y034648D02*
X020542Y034421D01*
X022375Y034507D02*
X022432Y034450D01*
X022375Y034507D02*
X022375Y034621D01*
X022432Y034677D01*
X022489Y034677D01*
X022715Y034450D01*
X022715Y034677D01*
X022659Y034309D02*
X022432Y034309D01*
X022375Y034252D01*
X022375Y034082D01*
X022715Y034082D01*
X022715Y034252D01*
X022659Y034309D01*
X022715Y033941D02*
X022715Y033714D01*
X022375Y033714D01*
X022375Y033941D01*
X022545Y033827D02*
X022545Y033714D01*
X022715Y033572D02*
X022715Y033346D01*
X022375Y033346D01*
X022209Y032364D02*
X022209Y032127D01*
X021736Y032127D02*
X021736Y032364D01*
X021221Y032336D02*
X021221Y032099D01*
X020748Y032099D02*
X020748Y032336D01*
X020930Y031478D02*
X020873Y031421D01*
X020873Y031308D01*
X020930Y031251D01*
X020930Y031110D02*
X020873Y031053D01*
X020873Y030883D01*
X021213Y030883D01*
X021100Y030883D02*
X021100Y031053D01*
X021043Y031110D01*
X020930Y031110D01*
X021100Y030996D02*
X021213Y031110D01*
X021213Y031251D02*
X020987Y031478D01*
X020930Y031478D01*
X021213Y031478D02*
X021213Y031251D01*
X021831Y031347D02*
X021831Y031460D01*
X021888Y031517D01*
X021945Y031517D01*
X022001Y031460D01*
X022058Y031517D01*
X022115Y031517D01*
X022171Y031460D01*
X022171Y031347D01*
X022115Y031290D01*
X022171Y031149D02*
X022058Y031035D01*
X022058Y031092D02*
X022058Y030922D01*
X022171Y030922D02*
X021831Y030922D01*
X021831Y031092D01*
X021888Y031149D01*
X022001Y031149D01*
X022058Y031092D01*
X021888Y031290D02*
X021831Y031347D01*
X022001Y031404D02*
X022001Y031460D01*
X024287Y034293D02*
X024514Y034519D01*
X024514Y034576D01*
X024458Y034633D01*
X024344Y034633D01*
X024287Y034576D01*
X024287Y034293D02*
X024514Y034293D01*
X024656Y034349D02*
X024883Y034576D01*
X024883Y034349D01*
X024826Y034293D01*
X024712Y034293D01*
X024656Y034349D01*
X024656Y034576D01*
X024712Y034633D01*
X024826Y034633D01*
X024883Y034576D01*
X025024Y034519D02*
X025138Y034633D01*
X025138Y034293D01*
X025251Y034293D02*
X025024Y034293D01*
X025392Y034293D02*
X025619Y034519D01*
X025619Y034576D01*
X025563Y034633D01*
X025449Y034633D01*
X025392Y034576D01*
X025392Y034293D02*
X025619Y034293D01*
X025761Y034463D02*
X025988Y034463D01*
X026129Y034576D02*
X026186Y034633D01*
X026299Y034633D01*
X026356Y034576D01*
X026129Y034349D01*
X026186Y034293D01*
X026299Y034293D01*
X026356Y034349D01*
X026356Y034576D01*
X026497Y034633D02*
X026724Y034633D01*
X026724Y034576D01*
X026497Y034349D01*
X026497Y034293D01*
X026129Y034349D02*
X026129Y034576D01*
X026866Y034463D02*
X027093Y034463D01*
X027234Y034519D02*
X027347Y034633D01*
X027347Y034293D01*
X027234Y034293D02*
X027461Y034293D01*
X027602Y034349D02*
X027659Y034293D01*
X027772Y034293D01*
X027829Y034349D01*
X027829Y034576D01*
X027772Y034633D01*
X027659Y034633D01*
X027602Y034576D01*
X027602Y034519D01*
X027659Y034463D01*
X027829Y034463D01*
X028103Y026163D02*
X027876Y025823D01*
X027734Y025879D02*
X027678Y025823D01*
X027507Y025823D01*
X027564Y025936D02*
X027507Y025993D01*
X027564Y026049D01*
X027734Y026049D01*
X027678Y025936D02*
X027564Y025936D01*
X027678Y025936D02*
X027734Y025879D01*
X027963Y025608D02*
X027736Y025268D01*
X027595Y025268D02*
X027425Y025268D01*
X027368Y025324D01*
X027368Y025494D01*
X027179Y025608D02*
X027179Y025268D01*
X027123Y025268D02*
X027236Y025268D01*
X026995Y025268D02*
X026938Y025268D01*
X026938Y025324D01*
X026995Y025324D01*
X026995Y025268D01*
X026806Y025268D02*
X026750Y025324D01*
X026750Y025551D01*
X026806Y025494D02*
X026693Y025494D01*
X026504Y025494D02*
X026504Y025268D01*
X026447Y025268D02*
X026561Y025268D01*
X026504Y025494D02*
X026447Y025494D01*
X026504Y025608D02*
X026504Y025665D01*
X026402Y025823D02*
X026402Y026049D01*
X026573Y026049D01*
X026629Y025993D01*
X026629Y025823D01*
X026771Y025823D02*
X026941Y025823D01*
X026998Y025879D01*
X026941Y025936D01*
X026828Y025936D01*
X026771Y025993D01*
X026828Y026049D01*
X026998Y026049D01*
X027139Y025993D02*
X027196Y026049D01*
X027309Y026049D01*
X027366Y025993D01*
X027366Y025936D01*
X027139Y025936D01*
X027139Y025879D02*
X027139Y025993D01*
X027139Y025879D02*
X027196Y025823D01*
X027309Y025823D01*
X027179Y025608D02*
X027123Y025608D01*
X027481Y025154D02*
X027538Y025154D01*
X027595Y025211D01*
X027595Y025494D01*
X028105Y025494D02*
X028105Y025268D01*
X028105Y025381D02*
X028218Y025494D01*
X028275Y025494D01*
X028412Y025494D02*
X028468Y025494D01*
X028525Y025438D01*
X028582Y025494D01*
X028638Y025438D01*
X028638Y025268D01*
X028525Y025268D02*
X028525Y025438D01*
X028412Y025494D02*
X028412Y025268D01*
X028780Y025268D02*
X028893Y025268D01*
X028837Y025268D02*
X028837Y025494D01*
X028780Y025494D01*
X028837Y025608D02*
X028837Y025665D01*
X028783Y025709D02*
X028726Y025709D01*
X028783Y025709D02*
X028839Y025766D01*
X028839Y026049D01*
X028839Y025823D02*
X028669Y025823D01*
X028612Y025879D01*
X028612Y026049D01*
X028471Y025993D02*
X028414Y026049D01*
X028244Y026049D01*
X028244Y026163D02*
X028244Y025823D01*
X028414Y025823D01*
X028471Y025879D01*
X028471Y025993D01*
X028981Y025823D02*
X029208Y026163D01*
X029349Y026106D02*
X029406Y026163D01*
X029519Y026163D01*
X029576Y026106D01*
X029576Y026049D01*
X029349Y025823D01*
X029576Y025823D01*
X029717Y025823D02*
X029774Y025823D01*
X029774Y025879D01*
X029717Y025879D01*
X029717Y025823D01*
X029901Y025879D02*
X030128Y026106D01*
X030128Y025879D01*
X030072Y025823D01*
X029958Y025823D01*
X029901Y025879D01*
X029901Y026106D01*
X029958Y026163D01*
X030072Y026163D01*
X030128Y026106D01*
X030270Y025823D02*
X030497Y026163D01*
X030433Y025608D02*
X030433Y025268D01*
X030489Y025268D02*
X030376Y025268D01*
X030235Y025268D02*
X030235Y025438D01*
X030178Y025494D01*
X030008Y025494D01*
X030008Y025268D01*
X029866Y025324D02*
X029866Y025438D01*
X029809Y025494D01*
X029696Y025494D01*
X029639Y025438D01*
X029639Y025324D01*
X029696Y025268D01*
X029809Y025268D01*
X029866Y025324D01*
X029507Y025268D02*
X029394Y025268D01*
X029451Y025268D02*
X029451Y025494D01*
X029394Y025494D01*
X029451Y025608D02*
X029451Y025665D01*
X029252Y025438D02*
X029252Y025268D01*
X029252Y025438D02*
X029196Y025494D01*
X029025Y025494D01*
X029025Y025268D01*
X030376Y025608D02*
X030433Y025608D01*
X026306Y025438D02*
X026249Y025494D01*
X026079Y025494D01*
X026079Y025608D02*
X026079Y025268D01*
X026249Y025268D01*
X026306Y025324D01*
X026306Y025438D01*
X026204Y025823D02*
X026091Y025823D01*
X026034Y025879D01*
X026034Y025993D01*
X026091Y026049D01*
X026204Y026049D01*
X026261Y025993D01*
X026261Y025936D01*
X026034Y025936D01*
X025893Y026049D02*
X025723Y026049D01*
X025666Y025993D01*
X025666Y025879D01*
X025723Y025823D01*
X025893Y025823D01*
X025938Y025608D02*
X025711Y025268D01*
X025569Y025608D02*
X025342Y025268D01*
X025215Y025268D02*
X025158Y025268D01*
X025158Y025324D01*
X025215Y025324D01*
X025215Y025268D01*
X025215Y025438D02*
X025158Y025438D01*
X025158Y025494D01*
X025215Y025494D01*
X025215Y025438D01*
X025017Y025438D02*
X025017Y025324D01*
X024960Y025268D01*
X024790Y025268D01*
X024790Y025154D02*
X024790Y025494D01*
X024960Y025494D01*
X025017Y025438D01*
X024658Y025494D02*
X024544Y025494D01*
X024601Y025551D02*
X024601Y025324D01*
X024658Y025268D01*
X024412Y025268D02*
X024355Y025324D01*
X024355Y025551D01*
X024299Y025494D02*
X024412Y025494D01*
X024552Y025709D02*
X024608Y025709D01*
X024665Y025766D01*
X024665Y026049D01*
X024495Y026049D01*
X024438Y025993D01*
X024438Y025879D01*
X024495Y025823D01*
X024665Y025823D01*
X024806Y025823D02*
X025033Y026163D01*
X025175Y026163D02*
X025231Y026163D01*
X025231Y025823D01*
X025175Y025823D02*
X025288Y025823D01*
X025420Y025823D02*
X025534Y025823D01*
X025477Y025823D02*
X025477Y026049D01*
X025420Y026049D01*
X025477Y026163D02*
X025477Y026220D01*
X024301Y026049D02*
X024245Y026049D01*
X024131Y025936D01*
X024131Y025823D02*
X024131Y026049D01*
X023990Y025993D02*
X023933Y026049D01*
X023820Y026049D01*
X023763Y025993D01*
X023763Y025879D01*
X023820Y025823D01*
X023933Y025823D01*
X023990Y025879D01*
X023990Y025993D01*
X023635Y025879D02*
X023635Y025823D01*
X023579Y025823D01*
X023579Y025879D01*
X023635Y025879D01*
X023437Y025879D02*
X023381Y025823D01*
X023210Y025823D01*
X023267Y025936D02*
X023210Y025993D01*
X023267Y026049D01*
X023437Y026049D01*
X023381Y025936D02*
X023267Y025936D01*
X023381Y025936D02*
X023437Y025879D01*
X023214Y025608D02*
X023044Y025608D01*
X023044Y025268D01*
X023214Y025268D01*
X023271Y025324D01*
X023271Y025551D01*
X023214Y025608D01*
X023069Y025823D02*
X023069Y025993D01*
X023012Y026049D01*
X022842Y026049D01*
X022842Y025823D01*
X022701Y025879D02*
X022701Y025993D01*
X022644Y026049D01*
X022531Y026049D01*
X022474Y025993D01*
X022474Y025879D01*
X022531Y025823D01*
X022644Y025823D01*
X022701Y025879D01*
X022478Y025608D02*
X022364Y025608D01*
X022308Y025551D01*
X022308Y025494D01*
X022364Y025438D01*
X022535Y025438D01*
X022535Y025551D02*
X022535Y025324D01*
X022478Y025268D01*
X022364Y025268D01*
X022308Y025324D01*
X022109Y025324D02*
X022109Y025608D01*
X022053Y025608D02*
X022166Y025608D01*
X022219Y025823D02*
X022219Y025993D01*
X022276Y026049D01*
X022332Y025993D01*
X022332Y025823D01*
X022219Y025993D02*
X022162Y026049D01*
X022105Y026049D01*
X022105Y025823D01*
X021964Y025823D02*
X021964Y025993D01*
X021907Y026049D01*
X021851Y025993D01*
X021851Y025823D01*
X021737Y025823D02*
X021737Y026049D01*
X021794Y026049D01*
X021851Y025993D01*
X021596Y025993D02*
X021539Y026049D01*
X021426Y026049D01*
X021369Y025993D01*
X021369Y025879D01*
X021426Y025823D01*
X021539Y025823D01*
X021596Y025879D01*
X021596Y025993D01*
X021227Y026049D02*
X021057Y026049D01*
X021001Y025993D01*
X021001Y025879D01*
X021057Y025823D01*
X021227Y025823D01*
X021316Y025608D02*
X021430Y025608D01*
X021373Y025608D02*
X021373Y025324D01*
X021316Y025268D01*
X021259Y025268D01*
X021203Y025324D01*
X021061Y025608D02*
X020834Y025268D01*
X020693Y025381D02*
X020466Y025381D01*
X020466Y025438D02*
X020523Y025494D01*
X020636Y025494D01*
X020693Y025438D01*
X020693Y025381D01*
X020636Y025268D02*
X020523Y025268D01*
X020466Y025324D01*
X020466Y025438D01*
X020325Y025438D02*
X020325Y025268D01*
X020211Y025268D02*
X020211Y025438D01*
X020268Y025494D01*
X020325Y025438D01*
X020211Y025438D02*
X020154Y025494D01*
X020098Y025494D01*
X020098Y025268D01*
X019970Y025268D02*
X019914Y025268D01*
X019914Y025324D01*
X019970Y025324D01*
X019970Y025268D01*
X019772Y025324D02*
X019772Y025438D01*
X019715Y025494D01*
X019545Y025494D01*
X019545Y025608D02*
X019545Y025268D01*
X019715Y025268D01*
X019772Y025324D01*
X019413Y025438D02*
X019300Y025438D01*
X019356Y025551D02*
X019356Y025268D01*
X019172Y025268D02*
X019116Y025268D01*
X019116Y025324D01*
X019172Y025324D01*
X019172Y025268D01*
X018974Y025268D02*
X018974Y025438D01*
X018917Y025494D01*
X018747Y025494D01*
X018747Y025268D01*
X018606Y025324D02*
X018606Y025438D01*
X018549Y025494D01*
X018436Y025494D01*
X018379Y025438D01*
X018379Y025324D01*
X018436Y025268D01*
X018549Y025268D01*
X018606Y025324D01*
X018238Y025608D02*
X018011Y025268D01*
X017869Y025608D02*
X017642Y025268D01*
X017515Y025268D02*
X017458Y025268D01*
X017458Y025324D01*
X017515Y025324D01*
X017515Y025268D01*
X017515Y025438D02*
X017458Y025438D01*
X017458Y025494D01*
X017515Y025494D01*
X017515Y025438D01*
X017317Y025438D02*
X017317Y025324D01*
X017260Y025268D01*
X017090Y025268D01*
X017090Y025154D02*
X017090Y025494D01*
X017260Y025494D01*
X017317Y025438D01*
X016958Y025494D02*
X016844Y025494D01*
X016901Y025551D02*
X016901Y025324D01*
X016958Y025268D01*
X016712Y025268D02*
X016655Y025324D01*
X016655Y025551D01*
X016599Y025494D02*
X016712Y025494D01*
X016457Y025438D02*
X016457Y025268D01*
X016457Y025438D02*
X016401Y025494D01*
X016287Y025494D01*
X016230Y025438D01*
X016230Y025608D02*
X016230Y025268D01*
X016212Y025823D02*
X016212Y026163D01*
X016269Y026049D02*
X016383Y026049D01*
X016439Y025993D01*
X016439Y025823D01*
X016637Y025879D02*
X016694Y025823D01*
X016637Y025879D02*
X016637Y026106D01*
X016581Y026049D02*
X016694Y026049D01*
X016826Y026049D02*
X016940Y026049D01*
X016883Y026106D02*
X016883Y025879D01*
X016940Y025823D01*
X017072Y025823D02*
X017242Y025823D01*
X017299Y025879D01*
X017299Y025993D01*
X017242Y026049D01*
X017072Y026049D01*
X017072Y025709D01*
X017440Y025823D02*
X017440Y025879D01*
X017497Y025879D01*
X017497Y025823D01*
X017440Y025823D01*
X017440Y025993D02*
X017440Y026049D01*
X017497Y026049D01*
X017497Y025993D01*
X017440Y025993D01*
X017624Y025823D02*
X017851Y026163D01*
X017993Y025823D02*
X018220Y026163D01*
X018361Y025993D02*
X018361Y025879D01*
X018418Y025823D01*
X018588Y025823D01*
X018729Y025823D02*
X018729Y026049D01*
X018729Y025936D02*
X018843Y026049D01*
X018899Y026049D01*
X019036Y025993D02*
X019093Y026049D01*
X019206Y026049D01*
X019263Y025993D01*
X019263Y025936D01*
X019036Y025936D01*
X019036Y025879D02*
X019036Y025993D01*
X019036Y025879D02*
X019093Y025823D01*
X019206Y025823D01*
X019405Y025879D02*
X019461Y025936D01*
X019631Y025936D01*
X019631Y025993D02*
X019631Y025823D01*
X019461Y025823D01*
X019405Y025879D01*
X019461Y026049D02*
X019575Y026049D01*
X019631Y025993D01*
X019773Y026049D02*
X019886Y026049D01*
X019830Y026106D02*
X019830Y025879D01*
X019886Y025823D01*
X020018Y025823D02*
X020132Y025823D01*
X020075Y025823D02*
X020075Y026049D01*
X020018Y026049D01*
X020075Y026163D02*
X020075Y026220D01*
X020264Y026049D02*
X020377Y025823D01*
X020491Y026049D01*
X020632Y025993D02*
X020689Y026049D01*
X020802Y026049D01*
X020859Y025993D01*
X020859Y025936D01*
X020632Y025936D01*
X020632Y025879D02*
X020632Y025993D01*
X020632Y025879D02*
X020689Y025823D01*
X020802Y025823D01*
X021571Y025608D02*
X021798Y025268D01*
X021939Y025324D02*
X021996Y025268D01*
X022053Y025268D01*
X022109Y025324D01*
X021798Y025608D02*
X021571Y025268D01*
X022478Y025608D02*
X022535Y025551D01*
X022676Y025438D02*
X022733Y025494D01*
X022846Y025494D01*
X022903Y025438D01*
X022903Y025324D01*
X022846Y025268D01*
X022733Y025268D01*
X022676Y025324D01*
X022676Y025438D01*
X023930Y025438D02*
X023987Y025494D01*
X024101Y025494D01*
X024157Y025438D01*
X024157Y025268D01*
X023930Y025268D02*
X023930Y025608D01*
X020588Y021823D02*
X020644Y021766D01*
X020644Y021709D01*
X020588Y021653D01*
X020417Y021653D01*
X020417Y021483D02*
X020417Y021823D01*
X020588Y021823D01*
X020588Y021653D02*
X020644Y021596D01*
X020644Y021539D01*
X020588Y021483D01*
X020417Y021483D01*
X020786Y021539D02*
X020842Y021483D01*
X021013Y021483D01*
X021013Y021709D01*
X021154Y021709D02*
X021381Y021709D01*
X021154Y021483D01*
X021381Y021483D01*
X021522Y021483D02*
X021749Y021483D01*
X021891Y021539D02*
X021891Y021653D01*
X021947Y021709D01*
X022061Y021709D01*
X022118Y021653D01*
X022118Y021596D01*
X021891Y021596D01*
X021891Y021539D02*
X021947Y021483D01*
X022061Y021483D01*
X022259Y021483D02*
X022259Y021709D01*
X022259Y021596D02*
X022372Y021709D01*
X022429Y021709D01*
X021749Y021709D02*
X021522Y021483D01*
X021522Y021709D02*
X021749Y021709D01*
X020786Y021709D02*
X020786Y021539D01*
X022316Y018331D02*
X022553Y018331D01*
X022553Y017858D02*
X022316Y017858D01*
X022689Y017633D02*
X022926Y017633D01*
X022926Y017160D02*
X022689Y017160D01*
X021682Y017855D02*
X021625Y017799D01*
X021512Y017799D01*
X021455Y017855D01*
X021455Y017912D01*
X021512Y017969D01*
X021625Y017969D01*
X021682Y017912D01*
X021682Y017855D01*
X021625Y017969D02*
X021682Y018025D01*
X021682Y018082D01*
X021625Y018139D01*
X021512Y018139D01*
X021455Y018082D01*
X021455Y018025D01*
X021512Y017969D01*
X021314Y018082D02*
X021257Y018139D01*
X021144Y018139D01*
X021087Y018082D01*
X021087Y017855D01*
X021144Y017799D01*
X021257Y017799D01*
X021314Y017855D01*
X019827Y016749D02*
X019713Y016692D01*
X019600Y016579D01*
X019770Y016579D01*
X019827Y016522D01*
X019827Y016465D01*
X019770Y016409D01*
X019656Y016409D01*
X019600Y016465D01*
X019600Y016579D01*
X019458Y016692D02*
X019402Y016749D01*
X019288Y016749D01*
X019231Y016692D01*
X019231Y016465D01*
X019288Y016409D01*
X019402Y016409D01*
X019458Y016465D01*
X020130Y016374D02*
X020130Y014071D01*
X024225Y014071D01*
X024225Y016374D01*
X020130Y016374D01*
X018741Y015790D02*
X018741Y015620D01*
X018401Y015620D01*
X018401Y015790D01*
X018458Y015847D01*
X018685Y015847D01*
X018741Y015790D01*
X018741Y015479D02*
X018401Y015479D01*
X018401Y015252D02*
X018741Y015479D01*
X018741Y015252D02*
X018401Y015252D01*
X018458Y015110D02*
X018401Y015054D01*
X018401Y014940D01*
X018458Y014884D01*
X018685Y014884D01*
X018741Y014940D01*
X018741Y015054D01*
X018685Y015110D01*
X018571Y015110D01*
X018571Y014997D01*
X018946Y014846D02*
X018946Y014619D01*
X019286Y014619D01*
X019286Y014846D01*
X019116Y014733D02*
X019116Y014619D01*
X018946Y014478D02*
X018946Y014251D01*
X018946Y014365D02*
X019286Y014365D01*
X019286Y014119D02*
X019286Y014006D01*
X019286Y014062D02*
X018946Y014062D01*
X018946Y014006D02*
X018946Y014119D01*
X019003Y013864D02*
X019116Y013864D01*
X019173Y013807D01*
X019173Y013637D01*
X019286Y013637D02*
X018946Y013637D01*
X018946Y013807D01*
X019003Y013864D01*
X019173Y013751D02*
X019286Y013864D01*
X019286Y013496D02*
X019173Y013382D01*
X019173Y013439D02*
X019173Y013269D01*
X019286Y013269D02*
X018946Y013269D01*
X018946Y013439D01*
X019003Y013496D01*
X019116Y013496D01*
X019173Y013439D01*
X019366Y013479D02*
X019366Y013243D01*
X019286Y013127D02*
X019286Y012901D01*
X018946Y012901D01*
X018946Y013127D01*
X019116Y013014D02*
X019116Y012901D01*
X018946Y012759D02*
X018946Y012532D01*
X019286Y012532D01*
X019116Y012532D02*
X019116Y012646D01*
X019838Y013243D02*
X019838Y013479D01*
X020333Y014455D02*
X020335Y014481D01*
X020341Y014507D01*
X020350Y014532D01*
X020363Y014555D01*
X020379Y014576D01*
X020398Y014594D01*
X020420Y014610D01*
X020443Y014622D01*
X020468Y014630D01*
X020494Y014635D01*
X020521Y014636D01*
X020547Y014633D01*
X020572Y014626D01*
X020597Y014616D01*
X020619Y014602D01*
X020640Y014585D01*
X020657Y014566D01*
X020672Y014544D01*
X020683Y014520D01*
X020691Y014494D01*
X020695Y014468D01*
X020695Y014442D01*
X020691Y014416D01*
X020683Y014390D01*
X020672Y014366D01*
X020657Y014344D01*
X020640Y014325D01*
X020619Y014308D01*
X020597Y014294D01*
X020572Y014284D01*
X020547Y014277D01*
X020521Y014274D01*
X020494Y014275D01*
X020468Y014280D01*
X020443Y014288D01*
X020420Y014300D01*
X020398Y014316D01*
X020379Y014334D01*
X020363Y014355D01*
X020350Y014378D01*
X020341Y014403D01*
X020335Y014429D01*
X020333Y014455D01*
X021523Y013315D02*
X021760Y013315D01*
X021760Y012842D02*
X021523Y012842D01*
X022471Y012990D02*
X022528Y012934D01*
X022642Y012934D01*
X022698Y012990D01*
X022840Y013104D02*
X023067Y013104D01*
X023010Y013274D02*
X022840Y013104D01*
X022698Y013217D02*
X022642Y013274D01*
X022528Y013274D01*
X022471Y013217D01*
X022471Y012990D01*
X023010Y012934D02*
X023010Y013274D01*
X024414Y016003D02*
X024528Y016003D01*
X024584Y016059D01*
X024584Y016343D01*
X024726Y016229D02*
X024839Y016343D01*
X024839Y016003D01*
X024726Y016003D02*
X024953Y016003D01*
X024414Y016003D02*
X024357Y016059D01*
X024357Y016343D01*
X024044Y017386D02*
X023931Y017386D01*
X023874Y017442D01*
X023874Y017556D02*
X023987Y017612D01*
X024044Y017612D01*
X024101Y017556D01*
X024101Y017442D01*
X024044Y017386D01*
X023874Y017556D02*
X023874Y017726D01*
X024101Y017726D01*
X023732Y017669D02*
X023676Y017726D01*
X023562Y017726D01*
X023505Y017669D01*
X023505Y017442D01*
X023562Y017386D01*
X023676Y017386D01*
X023732Y017442D01*
X018645Y014422D02*
X018418Y014195D01*
X018475Y014138D01*
X018588Y014138D01*
X018645Y014195D01*
X018645Y014422D01*
X018588Y014479D01*
X018475Y014479D01*
X018418Y014422D01*
X018418Y014195D01*
X018277Y014138D02*
X018050Y014138D01*
X018163Y014138D02*
X018163Y014479D01*
X018050Y014365D01*
X017908Y014422D02*
X017852Y014479D01*
X017738Y014479D01*
X017682Y014422D01*
X017682Y014195D01*
X017738Y014138D01*
X017852Y014138D01*
X017908Y014195D01*
X017648Y014884D02*
X017421Y014884D01*
X017421Y015110D02*
X017648Y015110D01*
X017761Y014997D01*
X017648Y014884D01*
X017705Y015252D02*
X017478Y015252D01*
X017421Y015309D01*
X017421Y015422D01*
X017478Y015479D01*
X017478Y015620D02*
X017705Y015620D01*
X017761Y015677D01*
X017761Y015790D01*
X017705Y015847D01*
X017478Y015847D02*
X017421Y015790D01*
X017421Y015677D01*
X017478Y015620D01*
X017705Y015479D02*
X017761Y015422D01*
X017761Y015309D01*
X017705Y015252D01*
X015797Y015233D02*
X015457Y015233D01*
X015627Y015063D01*
X015627Y015290D01*
X015627Y014921D02*
X015684Y014865D01*
X015684Y014695D01*
X015684Y014808D02*
X015797Y014921D01*
X015627Y014921D02*
X015514Y014921D01*
X015457Y014865D01*
X015457Y014695D01*
X015797Y014695D01*
X014599Y014599D02*
X014543Y014655D01*
X014543Y014882D01*
X014599Y014825D02*
X014486Y014825D01*
X014344Y014825D02*
X014174Y014825D01*
X014118Y014769D01*
X014174Y014712D01*
X014288Y014712D01*
X014344Y014655D01*
X014288Y014599D01*
X014118Y014599D01*
X013976Y014599D02*
X013806Y014599D01*
X013749Y014655D01*
X013806Y014712D01*
X013976Y014712D01*
X013976Y014769D02*
X013976Y014599D01*
X013976Y014769D02*
X013919Y014825D01*
X013806Y014825D01*
X013613Y014825D02*
X013556Y014825D01*
X013442Y014712D01*
X013442Y014599D02*
X013442Y014825D01*
X013310Y014825D02*
X013197Y014825D01*
X013254Y014882D02*
X013254Y014655D01*
X013310Y014599D01*
X013055Y014599D02*
X013055Y014769D01*
X012999Y014825D01*
X012829Y014825D01*
X012829Y014599D01*
X012687Y014655D02*
X012687Y014769D01*
X012630Y014825D01*
X012517Y014825D01*
X012460Y014769D01*
X012460Y014655D01*
X012517Y014599D01*
X012630Y014599D01*
X012687Y014655D01*
X012319Y014655D02*
X012262Y014599D01*
X012149Y014599D01*
X012092Y014655D01*
X012092Y014882D01*
X012149Y014939D01*
X012262Y014939D01*
X012319Y014882D01*
X011846Y015450D02*
X011846Y015790D01*
X011619Y015790D02*
X011619Y015450D01*
X011478Y015506D02*
X011478Y015733D01*
X011421Y015790D01*
X011308Y015790D01*
X011251Y015733D01*
X011251Y015506D01*
X011308Y015450D01*
X011421Y015450D01*
X011478Y015506D01*
X011619Y015790D02*
X011846Y015450D01*
X011109Y015506D02*
X011053Y015450D01*
X010939Y015450D01*
X010883Y015506D01*
X010883Y015733D01*
X010939Y015790D01*
X011053Y015790D01*
X011109Y015733D01*
X010741Y015733D02*
X010684Y015790D01*
X010514Y015790D01*
X010514Y015450D01*
X010684Y015450D01*
X010741Y015506D01*
X010741Y015733D01*
X010373Y015733D02*
X010316Y015790D01*
X010203Y015790D01*
X010146Y015733D01*
X010146Y015506D01*
X010203Y015450D01*
X010316Y015450D01*
X010373Y015506D01*
X010004Y015450D02*
X009778Y015450D01*
X009778Y015790D01*
X008401Y015814D02*
X008345Y015757D01*
X008288Y015757D01*
X008231Y015814D01*
X008231Y015927D01*
X008288Y015984D01*
X008345Y015984D01*
X008401Y015927D01*
X008401Y015814D01*
X008231Y015814D02*
X008175Y015757D01*
X008118Y015757D01*
X008061Y015814D01*
X008061Y015927D01*
X008118Y015984D01*
X008175Y015984D01*
X008231Y015927D01*
X008118Y015615D02*
X008061Y015559D01*
X008061Y015389D01*
X008401Y015389D01*
X008401Y015559D01*
X008345Y015615D01*
X008118Y015615D01*
X007341Y015619D02*
X007285Y015675D01*
X007058Y015675D01*
X007001Y015619D01*
X007001Y015449D01*
X007341Y015449D01*
X007341Y015619D01*
X007341Y015817D02*
X007285Y015817D01*
X007058Y016044D01*
X007001Y016044D01*
X007001Y015817D01*
X006401Y015894D02*
X006401Y016007D01*
X006345Y016064D01*
X006288Y016064D01*
X006231Y016007D01*
X006231Y015837D01*
X006345Y015837D01*
X006401Y015894D01*
X006231Y015837D02*
X006118Y015950D01*
X006061Y016064D01*
X006118Y015695D02*
X006061Y015639D01*
X006061Y015469D01*
X006401Y015469D01*
X006401Y015639D01*
X006345Y015695D01*
X006118Y015695D01*
X005341Y015669D02*
X005285Y015725D01*
X005058Y015725D01*
X005001Y015669D01*
X005001Y015499D01*
X005341Y015499D01*
X005341Y015669D01*
X005171Y015867D02*
X005001Y016037D01*
X005341Y016037D01*
X005171Y016094D02*
X005171Y015867D01*
X005122Y018329D02*
X005065Y018385D01*
X005122Y018329D02*
X005235Y018329D01*
X005292Y018385D01*
X005292Y018442D01*
X005235Y018499D01*
X005122Y018499D01*
X005065Y018555D01*
X005065Y018612D01*
X005122Y018669D01*
X005235Y018669D01*
X005292Y018612D01*
X005433Y018669D02*
X005660Y018669D01*
X005547Y018669D02*
X005547Y018329D01*
X004923Y018329D02*
X004810Y018442D01*
X004867Y018442D02*
X004697Y018442D01*
X004697Y018329D02*
X004697Y018669D01*
X004867Y018669D01*
X004923Y018612D01*
X004923Y018499D01*
X004867Y018442D01*
X004791Y019739D02*
X004451Y019739D01*
X004451Y019909D01*
X004508Y019965D01*
X004735Y019965D01*
X004791Y019909D01*
X004791Y019739D01*
X004791Y020107D02*
X004791Y020334D01*
X004791Y020220D02*
X004451Y020220D01*
X004565Y020107D01*
X004508Y020475D02*
X004451Y020532D01*
X004451Y020645D01*
X004508Y020702D01*
X004565Y020702D01*
X004621Y020645D01*
X004678Y020702D01*
X004735Y020702D01*
X004791Y020645D01*
X004791Y020532D01*
X004735Y020475D01*
X004621Y020589D02*
X004621Y020645D01*
X004761Y021889D02*
X004932Y021889D01*
X004988Y021945D01*
X004988Y022172D01*
X004932Y022229D01*
X004761Y022229D01*
X004761Y021889D01*
X005130Y021889D02*
X005357Y021889D01*
X005243Y021889D02*
X005243Y022229D01*
X005130Y022115D01*
X005498Y022172D02*
X005555Y022229D01*
X005668Y022229D01*
X005725Y022172D01*
X005725Y022115D01*
X005498Y021889D01*
X005725Y021889D01*
X006921Y021619D02*
X006921Y021392D01*
X007035Y021279D01*
X007148Y021392D01*
X007148Y021619D01*
X007290Y021562D02*
X007290Y021335D01*
X007346Y021279D01*
X007460Y021279D01*
X007517Y021335D01*
X007658Y021335D02*
X007715Y021279D01*
X007828Y021279D01*
X007885Y021335D01*
X007658Y021335D02*
X007658Y021562D01*
X007715Y021619D01*
X007828Y021619D01*
X007885Y021562D01*
X007517Y021562D02*
X007460Y021619D01*
X007346Y021619D01*
X007290Y021562D01*
X007423Y020449D02*
X007310Y020335D01*
X007168Y020392D02*
X007112Y020449D01*
X006941Y020449D01*
X006941Y020109D01*
X007112Y020109D01*
X007168Y020165D01*
X007168Y020392D01*
X007423Y020449D02*
X007423Y020109D01*
X007310Y020109D02*
X007537Y020109D01*
X007678Y020109D02*
X007905Y020109D01*
X007792Y020109D02*
X007792Y020449D01*
X007678Y020335D01*
X007638Y019529D02*
X007808Y019529D01*
X007865Y019472D01*
X007865Y019245D01*
X007808Y019189D01*
X007638Y019189D01*
X007638Y019529D01*
X007497Y019529D02*
X007497Y019189D01*
X007270Y019529D01*
X007270Y019189D01*
X007128Y019245D02*
X007128Y019359D01*
X007015Y019359D01*
X007128Y019472D02*
X007072Y019529D01*
X006958Y019529D01*
X006901Y019472D01*
X006901Y019245D01*
X006958Y019189D01*
X007072Y019189D01*
X007128Y019245D01*
X010445Y019361D02*
X010785Y019361D01*
X010785Y019474D02*
X010785Y019247D01*
X010559Y019247D02*
X010445Y019361D01*
X010445Y019106D02*
X010502Y019106D01*
X010615Y018992D01*
X010785Y018992D01*
X010615Y018992D02*
X010502Y018879D01*
X010445Y018879D01*
X012036Y020025D02*
X012036Y022645D01*
X012175Y022784D01*
X014795Y022784D01*
X014795Y020025D01*
X012036Y020025D01*
X010878Y021760D02*
X010878Y021997D01*
X010405Y021997D02*
X010405Y021760D01*
X010438Y022574D02*
X010552Y022574D01*
X010608Y022630D01*
X010750Y022630D02*
X010750Y022574D01*
X010750Y022630D02*
X010977Y022857D01*
X010977Y022914D01*
X010750Y022914D01*
X010608Y022857D02*
X010552Y022914D01*
X010438Y022914D01*
X010381Y022857D01*
X010381Y022630D01*
X010438Y022574D01*
X012194Y022485D02*
X012196Y022508D01*
X012202Y022531D01*
X012211Y022552D01*
X012224Y022572D01*
X012240Y022589D01*
X012258Y022603D01*
X012278Y022614D01*
X012300Y022622D01*
X012323Y022626D01*
X012347Y022626D01*
X012370Y022622D01*
X012392Y022614D01*
X012412Y022603D01*
X012430Y022589D01*
X012446Y022572D01*
X012459Y022552D01*
X012468Y022531D01*
X012474Y022508D01*
X012476Y022485D01*
X012474Y022462D01*
X012468Y022439D01*
X012459Y022418D01*
X012446Y022398D01*
X012430Y022381D01*
X012412Y022367D01*
X012392Y022356D01*
X012370Y022348D01*
X012347Y022344D01*
X012323Y022344D01*
X012300Y022348D01*
X012278Y022356D01*
X012258Y022367D01*
X012240Y022381D01*
X012224Y022398D01*
X012211Y022418D01*
X012202Y022439D01*
X012196Y022462D01*
X012194Y022485D01*
X012264Y024449D02*
X012264Y024686D01*
X012737Y024686D02*
X012737Y024449D01*
X013016Y024452D02*
X013016Y024689D01*
X013489Y024689D02*
X013489Y024452D01*
X013628Y024471D02*
X013628Y024358D01*
X013685Y024301D01*
X013912Y024301D01*
X013968Y024358D01*
X013968Y024471D01*
X013912Y024528D01*
X013968Y024669D02*
X013742Y024896D01*
X013685Y024896D01*
X013628Y024839D01*
X013628Y024726D01*
X013685Y024669D01*
X013685Y024528D02*
X013628Y024471D01*
X013968Y024669D02*
X013968Y024896D01*
X012838Y025209D02*
X012611Y025209D01*
X012724Y025209D02*
X012724Y025549D01*
X012611Y025435D01*
X012469Y025379D02*
X012469Y025492D01*
X012413Y025549D01*
X012242Y025549D01*
X012242Y025209D01*
X012242Y025322D02*
X012413Y025322D01*
X012469Y025379D01*
X012356Y025322D02*
X012469Y025209D01*
X009278Y028611D02*
X009278Y028781D01*
X009222Y028838D01*
X008995Y028838D01*
X008938Y028781D01*
X008938Y028611D01*
X009278Y028611D01*
X009222Y028979D02*
X008995Y028979D01*
X008938Y029036D01*
X008938Y029149D01*
X008995Y029206D01*
X009222Y028979D01*
X009278Y029036D01*
X009278Y029149D01*
X009222Y029206D01*
X008995Y029206D01*
X009278Y029348D02*
X008938Y029574D01*
X008938Y029716D02*
X008938Y029886D01*
X008995Y029943D01*
X009108Y029943D01*
X009165Y029886D01*
X009165Y029716D01*
X009165Y029829D02*
X009278Y029943D01*
X009278Y030084D02*
X008938Y030311D01*
X008938Y030084D02*
X009278Y030311D01*
X009278Y029716D02*
X008938Y029716D01*
X008258Y029839D02*
X007918Y029839D01*
X007918Y029726D02*
X007918Y029953D01*
X007918Y030094D02*
X008258Y030321D01*
X008258Y030094D02*
X007918Y030321D01*
X007198Y030217D02*
X007085Y030330D01*
X006972Y030330D01*
X006858Y030217D01*
X006858Y030076D02*
X007198Y030076D01*
X007198Y029849D02*
X006858Y029849D01*
X006972Y029962D01*
X006858Y030076D01*
X006858Y029707D02*
X007198Y029707D01*
X007085Y029594D01*
X007198Y029480D01*
X006858Y029480D01*
X006915Y029339D02*
X007028Y029339D01*
X007085Y029282D01*
X007085Y029112D01*
X007198Y029112D02*
X006858Y029112D01*
X006858Y029282D01*
X006915Y029339D01*
X006858Y028980D02*
X006972Y028866D01*
X007085Y028866D01*
X007198Y028980D01*
X007142Y028357D02*
X007198Y028300D01*
X007198Y028187D01*
X007142Y028130D01*
X007142Y027988D02*
X006915Y027988D01*
X006858Y027932D01*
X006858Y027762D01*
X007198Y027762D01*
X007198Y027932D01*
X007142Y027988D01*
X006915Y028130D02*
X006858Y028187D01*
X006858Y028300D01*
X006915Y028357D01*
X006972Y028357D01*
X007028Y028300D01*
X007085Y028357D01*
X007142Y028357D01*
X007028Y028300D02*
X007028Y028243D01*
X007918Y028621D02*
X007918Y028791D01*
X007975Y028848D01*
X008202Y028848D01*
X008258Y028791D01*
X008258Y028621D01*
X007918Y028621D01*
X008032Y028989D02*
X007918Y029103D01*
X008258Y029103D01*
X008258Y029216D02*
X008258Y028989D01*
X008258Y029358D02*
X007918Y029584D01*
X006198Y029528D02*
X006198Y029358D01*
X005858Y029358D01*
X005858Y029528D01*
X005915Y029584D01*
X006142Y029584D01*
X006198Y029528D01*
X006198Y029726D02*
X006198Y029953D01*
X006198Y029839D02*
X005858Y029839D01*
X005972Y029726D01*
X005915Y030094D02*
X005858Y030151D01*
X005858Y030264D01*
X005915Y030321D01*
X005972Y030321D01*
X006028Y030264D01*
X006085Y030321D01*
X006142Y030321D01*
X006198Y030264D01*
X006198Y030151D01*
X006142Y030094D01*
X006028Y030208D02*
X006028Y030264D01*
X005118Y030208D02*
X004778Y030208D01*
X004778Y030321D02*
X004778Y030094D01*
X004778Y029953D02*
X004778Y029726D01*
X005118Y029726D01*
X005118Y029953D01*
X004948Y029839D02*
X004948Y029726D01*
X005005Y029584D02*
X005062Y029584D01*
X005118Y029528D01*
X005118Y029414D01*
X005062Y029358D01*
X004948Y029414D02*
X004948Y029528D01*
X005005Y029584D01*
X004835Y029584D02*
X004778Y029528D01*
X004778Y029414D01*
X004835Y029358D01*
X004892Y029358D01*
X004948Y029414D01*
X004778Y029216D02*
X004778Y028989D01*
X005118Y028989D01*
X005118Y029216D01*
X004948Y029103D02*
X004948Y028989D01*
X004948Y028848D02*
X005005Y028791D01*
X005005Y028621D01*
X005005Y028734D02*
X005118Y028848D01*
X004948Y028848D02*
X004835Y028848D01*
X004778Y028791D01*
X004778Y028621D01*
X005118Y028621D01*
X009958Y029789D02*
X010072Y029903D01*
X010298Y029903D01*
X010298Y030044D02*
X010242Y030044D01*
X010015Y030271D01*
X009958Y030271D01*
X009958Y030044D01*
X010128Y029903D02*
X010128Y029676D01*
X010072Y029676D02*
X009958Y029789D01*
X010072Y029676D02*
X010298Y029676D01*
X010898Y029749D02*
X011012Y029863D01*
X011238Y029863D01*
X011182Y030004D02*
X011238Y030061D01*
X011238Y030174D01*
X011182Y030231D01*
X011125Y030231D01*
X011068Y030174D01*
X011068Y030004D01*
X011182Y030004D01*
X011068Y030004D02*
X010955Y030118D01*
X010898Y030231D01*
X011068Y029863D02*
X011068Y029636D01*
X011012Y029636D02*
X010898Y029749D01*
X011012Y029636D02*
X011238Y029636D01*
X011968Y029759D02*
X012082Y029873D01*
X012308Y029873D01*
X012252Y030014D02*
X012308Y030071D01*
X012308Y030184D01*
X012252Y030241D01*
X012138Y030241D01*
X012082Y030184D01*
X012082Y030128D01*
X012138Y030014D01*
X011968Y030014D01*
X011968Y030241D01*
X012138Y029873D02*
X012138Y029646D01*
X012082Y029646D02*
X012308Y029646D01*
X012082Y029646D02*
X011968Y029759D01*
X012918Y029719D02*
X013032Y029833D01*
X013258Y029833D01*
X013088Y029833D02*
X013088Y029606D01*
X013032Y029606D02*
X012918Y029719D01*
X013032Y029606D02*
X013258Y029606D01*
X013088Y029974D02*
X013088Y030201D01*
X012918Y030144D02*
X013088Y029974D01*
X013258Y030144D02*
X012918Y030144D01*
X013998Y030134D02*
X014055Y030191D01*
X014112Y030191D01*
X014168Y030134D01*
X014225Y030191D01*
X014282Y030191D01*
X014338Y030134D01*
X014338Y030021D01*
X014282Y029964D01*
X014338Y029823D02*
X014112Y029823D01*
X013998Y029709D01*
X014112Y029596D01*
X014338Y029596D01*
X014168Y029596D02*
X014168Y029823D01*
X014055Y029964D02*
X013998Y030021D01*
X013998Y030134D01*
X014168Y030134D02*
X014168Y030078D01*
X014958Y030041D02*
X015015Y029984D01*
X014958Y030041D02*
X014958Y030154D01*
X015015Y030211D01*
X015072Y030211D01*
X015298Y029984D01*
X015298Y030211D01*
X015298Y029843D02*
X015072Y029843D01*
X014958Y029729D01*
X015072Y029616D01*
X015298Y029616D01*
X015128Y029616D02*
X015128Y029843D01*
X015928Y029669D02*
X016042Y029783D01*
X016268Y029783D01*
X016268Y029924D02*
X016268Y030151D01*
X016268Y030038D02*
X015928Y030038D01*
X016042Y029924D01*
X016098Y029783D02*
X016098Y029556D01*
X016042Y029556D02*
X015928Y029669D01*
X016042Y029556D02*
X016268Y029556D01*
X016918Y029596D02*
X017088Y029596D01*
X017032Y029709D01*
X017032Y029766D01*
X017088Y029823D01*
X017202Y029823D01*
X017258Y029766D01*
X017258Y029653D01*
X017202Y029596D01*
X016918Y029596D02*
X016918Y029823D01*
X017032Y029964D02*
X017258Y030078D01*
X017032Y030191D01*
X017928Y030074D02*
X017928Y029904D01*
X018268Y029904D01*
X018268Y030074D01*
X018212Y030131D01*
X017985Y030131D01*
X017928Y030074D01*
X017928Y029763D02*
X018268Y029763D01*
X017928Y029536D01*
X018268Y029536D01*
X018212Y029394D02*
X018098Y029394D01*
X018098Y029281D01*
X017985Y029168D02*
X018212Y029168D01*
X018268Y029224D01*
X018268Y029338D01*
X018212Y029394D01*
X017985Y029394D02*
X017928Y029338D01*
X017928Y029224D01*
X017985Y029168D01*
X018418Y026049D02*
X018361Y025993D01*
X018418Y026049D02*
X018588Y026049D01*
X019356Y025551D02*
X019413Y025608D01*
X016530Y022812D02*
X016530Y022471D01*
X016417Y022471D02*
X016644Y022471D01*
X016410Y022305D02*
X016173Y022305D01*
X016219Y022471D02*
X016275Y022528D01*
X016219Y022471D02*
X016105Y022471D01*
X016048Y022528D01*
X016048Y022755D01*
X016105Y022812D01*
X016219Y022812D01*
X016275Y022755D01*
X016417Y022698D02*
X016530Y022812D01*
X016410Y021832D02*
X016173Y021832D01*
X016198Y021197D02*
X016198Y020960D01*
X016405Y020950D02*
X016405Y021187D01*
X016878Y021187D02*
X016878Y020950D01*
X016856Y020376D02*
X016856Y020149D01*
X016856Y020263D02*
X016516Y020263D01*
X016630Y020149D01*
X016856Y020008D02*
X016856Y019781D01*
X016516Y019781D01*
X016104Y019853D02*
X016104Y019966D01*
X016048Y020023D01*
X016048Y020164D02*
X016104Y020221D01*
X016104Y020334D01*
X016048Y020391D01*
X015991Y020391D01*
X015934Y020334D01*
X015934Y020278D01*
X015934Y020334D02*
X015878Y020391D01*
X015821Y020391D01*
X015764Y020334D01*
X015764Y020221D01*
X015821Y020164D01*
X015821Y020023D02*
X015764Y019966D01*
X015764Y019853D01*
X015821Y019796D01*
X016048Y019796D01*
X016104Y019853D01*
X015725Y020960D02*
X015725Y021197D01*
X015355Y018392D02*
X015411Y018335D01*
X015411Y018222D01*
X015355Y018165D01*
X015128Y018392D01*
X015355Y018392D01*
X015355Y018165D02*
X015128Y018165D01*
X015071Y018222D01*
X015071Y018335D01*
X015128Y018392D01*
X015411Y018024D02*
X015411Y017797D01*
X015411Y017910D02*
X015071Y017910D01*
X015185Y017797D01*
X015128Y017655D02*
X015071Y017599D01*
X015071Y017429D01*
X015411Y017429D01*
X015411Y017599D01*
X015355Y017655D01*
X015128Y017655D01*
X013371Y015987D02*
X013315Y016044D01*
X013088Y016044D01*
X013031Y015987D01*
X013031Y015874D01*
X013088Y015817D01*
X013145Y015817D01*
X013201Y015874D01*
X013201Y016044D01*
X013371Y015987D02*
X013371Y015874D01*
X013315Y015817D01*
X013315Y015675D02*
X013088Y015675D01*
X013031Y015619D01*
X013031Y015449D01*
X013371Y015449D01*
X013371Y015619D01*
X013315Y015675D01*
X016267Y009072D02*
X016210Y009015D01*
X016210Y008788D01*
X016267Y008732D01*
X016380Y008732D01*
X016437Y008788D01*
X016578Y008788D02*
X016635Y008732D01*
X016748Y008732D01*
X016805Y008788D01*
X016805Y009015D01*
X016748Y009072D01*
X016635Y009072D01*
X016578Y009015D01*
X016578Y008958D01*
X016635Y008902D01*
X016805Y008902D01*
X016437Y009015D02*
X016380Y009072D01*
X016267Y009072D01*
X005361Y012045D02*
X005361Y012102D01*
X005305Y012159D01*
X005021Y012159D01*
X005021Y012215D02*
X005021Y012102D01*
X005135Y012357D02*
X005021Y012470D01*
X005361Y012470D01*
X005361Y012357D02*
X005361Y012584D01*
X005361Y012045D02*
X005305Y011989D01*
X016212Y025993D02*
X016269Y026049D01*
D12*
X014306Y024979D02*
X014106Y024979D01*
X014106Y025112D01*
X014206Y025045D02*
X014206Y024979D01*
X014173Y024891D02*
X014306Y024891D01*
X014306Y024791D01*
X014273Y024758D01*
X014173Y024758D01*
X014306Y024670D02*
X014306Y024537D01*
X014306Y024603D02*
X014106Y024603D01*
X014173Y024537D01*
X014273Y024459D02*
X014306Y024459D01*
X014306Y024426D01*
X014273Y024426D01*
X014273Y024459D01*
X014273Y024339D02*
X014306Y024305D01*
X014306Y024238D01*
X014273Y024205D01*
X014140Y024339D01*
X014273Y024339D01*
X014140Y024339D02*
X014106Y024305D01*
X014106Y024238D01*
X014140Y024205D01*
X014273Y024205D01*
X012764Y025698D02*
X012664Y025798D01*
X012630Y025764D02*
X012764Y025898D01*
X012630Y025898D02*
X012630Y025698D01*
X012543Y025731D02*
X012510Y025698D01*
X012443Y025698D01*
X012409Y025731D01*
X012543Y025864D01*
X012543Y025731D01*
X012543Y025864D02*
X012510Y025898D01*
X012443Y025898D01*
X012409Y025864D01*
X012409Y025731D01*
X012322Y025698D02*
X012188Y025698D01*
X012255Y025698D02*
X012255Y025898D01*
X012188Y025831D01*
X009911Y022478D02*
X009711Y022478D01*
X009711Y022611D01*
X009811Y022544D02*
X009811Y022478D01*
X009778Y022390D02*
X009911Y022390D01*
X009911Y022290D01*
X009878Y022257D01*
X009778Y022257D01*
X009911Y022169D02*
X009911Y022036D01*
X009911Y022102D02*
X009711Y022102D01*
X009778Y022036D01*
X009878Y021958D02*
X009911Y021958D01*
X009911Y021925D01*
X009878Y021925D01*
X009878Y021958D01*
X009878Y021838D02*
X009911Y021804D01*
X009911Y021737D01*
X009878Y021704D01*
X009745Y021838D01*
X009878Y021838D01*
X009745Y021838D02*
X009711Y021804D01*
X009711Y021737D01*
X009745Y021704D01*
X009878Y021704D01*
X015894Y023042D02*
X015928Y023008D01*
X015995Y023008D01*
X016028Y023042D01*
X016028Y023175D01*
X015894Y023042D01*
X015894Y023175D01*
X015928Y023208D01*
X015995Y023208D01*
X016028Y023175D01*
X016115Y023042D02*
X016149Y023042D01*
X016149Y023008D01*
X016115Y023008D01*
X016115Y023042D01*
X016226Y023008D02*
X016359Y023008D01*
X016293Y023008D02*
X016293Y023208D01*
X016226Y023142D01*
X016447Y023142D02*
X016447Y023042D01*
X016480Y023008D01*
X016580Y023008D01*
X016580Y023142D01*
X016668Y023108D02*
X016735Y023108D01*
X016668Y023008D02*
X016668Y023208D01*
X016801Y023208D01*
X016914Y021920D02*
X016914Y021720D01*
X016827Y021720D02*
X016827Y021853D01*
X016914Y021820D02*
X017048Y021820D01*
X017048Y021920D02*
X017048Y021720D01*
X016827Y021720D02*
X016727Y021720D01*
X016693Y021753D01*
X016693Y021853D01*
X016606Y021886D02*
X016472Y021753D01*
X016506Y021720D01*
X016573Y021720D01*
X016606Y021753D01*
X016606Y021886D01*
X016573Y021920D01*
X016506Y021920D01*
X016472Y021886D01*
X016472Y021753D01*
X016385Y021720D02*
X016251Y021720D01*
X016318Y021720D02*
X016318Y021920D01*
X016251Y021853D01*
X015855Y019624D02*
X015855Y019491D01*
X016055Y019491D01*
X016055Y019403D02*
X015922Y019403D01*
X015955Y019491D02*
X015955Y019558D01*
X016055Y019403D02*
X016055Y019303D01*
X016022Y019270D01*
X015922Y019270D01*
X016055Y019182D02*
X016055Y019049D01*
X016055Y019116D02*
X015855Y019116D01*
X015922Y019049D01*
X016022Y018972D02*
X016055Y018972D01*
X016055Y018939D01*
X016022Y018939D01*
X016022Y018972D01*
X016022Y018851D02*
X016055Y018818D01*
X016055Y018751D01*
X016022Y018718D01*
X015889Y018851D01*
X016022Y018851D01*
X015889Y018851D02*
X015855Y018818D01*
X015855Y018751D01*
X015889Y018718D01*
X016022Y018718D01*
X016040Y014125D02*
X016040Y013665D01*
X015733Y013665D02*
X015426Y013665D01*
X015580Y013665D02*
X015580Y014125D01*
X015426Y013971D01*
X015273Y014048D02*
X014966Y013741D01*
X015043Y013665D01*
X015196Y013665D01*
X015273Y013741D01*
X015273Y014048D01*
X015196Y014125D01*
X015043Y014125D01*
X014966Y014048D01*
X014966Y013741D01*
X014812Y013741D02*
X014736Y013665D01*
X014582Y013665D01*
X014505Y013741D01*
X014812Y014048D01*
X014812Y013741D01*
X014505Y013741D02*
X014505Y014048D01*
X014582Y014125D01*
X014736Y014125D01*
X014812Y014048D01*
X014352Y014125D02*
X014045Y014125D01*
X014045Y013895D01*
X014199Y013971D01*
X014275Y013971D01*
X014352Y013895D01*
X014352Y013741D01*
X014275Y013665D01*
X014122Y013665D01*
X014045Y013741D01*
X013892Y013665D02*
X013585Y013665D01*
X013892Y013971D01*
X013892Y014048D01*
X013815Y014125D01*
X013661Y014125D01*
X013585Y014048D01*
X013431Y014125D02*
X013124Y013665D01*
X013431Y013665D02*
X013124Y014125D01*
X012971Y014125D02*
X012664Y014125D01*
X012664Y013665D01*
X012510Y013665D02*
X012357Y013665D01*
X012434Y013665D02*
X012434Y014125D01*
X012510Y014125D02*
X012357Y014125D01*
X012664Y013895D02*
X012817Y013895D01*
X015887Y014125D02*
X016194Y014125D01*
X016347Y014048D02*
X016347Y013741D01*
X016424Y013665D01*
X016577Y013665D01*
X016654Y013741D01*
X016654Y014048D02*
X016577Y014125D01*
X016424Y014125D01*
X016347Y014048D01*
X020834Y017525D02*
X020967Y017525D01*
X020934Y017625D02*
X020834Y017525D01*
X020934Y017425D02*
X020934Y017625D01*
X021055Y017458D02*
X021088Y017458D01*
X021088Y017425D01*
X021055Y017425D01*
X021055Y017458D01*
X021165Y017458D02*
X021165Y017425D01*
X021165Y017458D02*
X021299Y017591D01*
X021299Y017625D01*
X021165Y017625D01*
X021386Y017558D02*
X021386Y017458D01*
X021420Y017425D01*
X021520Y017425D01*
X021520Y017558D01*
X021607Y017525D02*
X021674Y017525D01*
X021640Y017591D02*
X021674Y017625D01*
X021640Y017591D02*
X021640Y017425D01*
X021618Y014943D02*
X021752Y014943D01*
X021685Y014943D02*
X021685Y014743D01*
X021839Y014743D02*
X021973Y014876D01*
X021973Y014909D01*
X021940Y014943D01*
X021873Y014943D01*
X021839Y014909D01*
X021839Y014743D02*
X021973Y014743D01*
X022060Y014776D02*
X022094Y014743D01*
X022160Y014743D01*
X022194Y014776D01*
X022194Y014809D01*
X022160Y014843D01*
X022127Y014843D01*
X022160Y014843D02*
X022194Y014876D01*
X022194Y014909D01*
X022160Y014943D01*
X022094Y014943D01*
X022060Y014909D01*
X022281Y014909D02*
X022315Y014943D01*
X022381Y014943D01*
X022415Y014909D01*
X022415Y014876D01*
X022281Y014743D01*
X022415Y014743D01*
X022502Y014743D02*
X022502Y014943D01*
X022602Y014943D01*
X022636Y014909D01*
X022636Y014843D01*
X022602Y014809D01*
X022502Y014809D01*
X022569Y014809D02*
X022636Y014743D01*
X022723Y014743D02*
X022857Y014743D01*
X022944Y014776D02*
X022978Y014743D01*
X023044Y014743D01*
X023078Y014776D01*
X023078Y014809D01*
X023044Y014843D01*
X022978Y014843D01*
X022944Y014876D01*
X022944Y014909D01*
X022978Y014943D01*
X023044Y014943D01*
X023078Y014909D01*
X023165Y014909D02*
X023165Y014876D01*
X023199Y014843D01*
X023265Y014843D01*
X023299Y014809D01*
X023299Y014776D01*
X023265Y014743D01*
X023199Y014743D01*
X023165Y014776D01*
X023165Y014909D02*
X023199Y014943D01*
X023265Y014943D01*
X023299Y014909D01*
X023386Y014909D02*
X023386Y014776D01*
X023420Y014743D01*
X023486Y014743D01*
X023520Y014776D01*
X023520Y014909D01*
X023486Y014943D01*
X023420Y014943D01*
X023386Y014909D01*
X023607Y014943D02*
X023707Y014943D01*
X023741Y014909D01*
X023741Y014843D01*
X023707Y014809D01*
X023607Y014809D01*
X023607Y014743D02*
X023607Y014943D01*
X022723Y014943D02*
X022723Y014743D01*
X021531Y014943D02*
X021397Y014943D01*
X021397Y014743D01*
X021397Y014843D02*
X021464Y014843D01*
X021465Y013609D02*
X021465Y013409D01*
X021398Y013409D02*
X021532Y013409D01*
X021619Y013442D02*
X021653Y013409D01*
X021753Y013409D01*
X021753Y013542D01*
X021840Y013509D02*
X021907Y013509D01*
X021840Y013609D02*
X021974Y013609D01*
X021840Y013609D02*
X021840Y013409D01*
X021619Y013442D02*
X021619Y013542D01*
X021465Y013609D02*
X021398Y013542D01*
X021321Y013442D02*
X021321Y013409D01*
X021288Y013409D01*
X021288Y013442D01*
X021321Y013442D01*
X021200Y013442D02*
X021167Y013409D01*
X021100Y013409D01*
X021067Y013442D01*
X021200Y013575D01*
X021200Y013442D01*
X021067Y013442D02*
X021067Y013575D01*
X021100Y013609D01*
X021167Y013609D01*
X021200Y013575D01*
X024266Y017427D02*
X024233Y017460D01*
X024366Y017593D01*
X024366Y017460D01*
X024333Y017427D01*
X024266Y017427D01*
X024233Y017460D02*
X024233Y017593D01*
X024266Y017627D01*
X024333Y017627D01*
X024366Y017593D01*
X024454Y017460D02*
X024487Y017460D01*
X024487Y017427D01*
X024454Y017427D01*
X024454Y017460D01*
X024564Y017427D02*
X024698Y017427D01*
X024631Y017427D02*
X024631Y017627D01*
X024564Y017560D01*
X024785Y017560D02*
X024785Y017460D01*
X024819Y017427D01*
X024919Y017427D01*
X024919Y017560D01*
X025006Y017527D02*
X025073Y017527D01*
X025006Y017627D02*
X025140Y017627D01*
X025006Y017627D02*
X025006Y017427D01*
X026347Y014039D02*
X026347Y013732D01*
X026807Y013732D01*
X026577Y013732D02*
X026577Y013886D01*
X028347Y014039D02*
X028347Y013732D01*
X028807Y013732D01*
X028807Y014039D01*
X028577Y013886D02*
X028577Y013732D01*
X028501Y010039D02*
X028577Y009962D01*
X028577Y009732D01*
X028347Y009732D02*
X028347Y009962D01*
X028424Y010039D01*
X028501Y010039D01*
X028577Y009962D02*
X028654Y010039D01*
X028731Y010039D01*
X028807Y009962D01*
X028807Y009732D01*
X028347Y009732D01*
X027807Y009809D02*
X027807Y009962D01*
X027731Y010039D01*
X027807Y009809D02*
X027731Y009732D01*
X027424Y009732D01*
X027347Y009809D01*
X027347Y009962D01*
X027424Y010039D01*
X026807Y010039D02*
X026501Y010039D01*
X026347Y009886D01*
X026501Y009732D01*
X026807Y009732D01*
X026577Y009732D02*
X026577Y010039D01*
X022513Y030913D02*
X022380Y031046D01*
X022347Y031046D01*
X022313Y031013D01*
X022313Y030946D01*
X022347Y030913D01*
X022513Y030913D02*
X022513Y031046D01*
X022513Y031134D02*
X022380Y031267D01*
X022347Y031267D01*
X022313Y031234D01*
X022313Y031167D01*
X022347Y031134D01*
X022513Y031134D02*
X022513Y031267D01*
X022480Y031354D02*
X022347Y031488D01*
X022480Y031488D01*
X022513Y031455D01*
X022513Y031388D01*
X022480Y031354D01*
X022347Y031354D01*
X022313Y031388D01*
X022313Y031455D01*
X022347Y031488D01*
X021514Y031480D02*
X021514Y031413D01*
X021481Y031380D01*
X021348Y031513D01*
X021481Y031513D01*
X021514Y031480D01*
X021481Y031380D02*
X021348Y031380D01*
X021314Y031413D01*
X021314Y031480D01*
X021348Y031513D01*
X021348Y031292D02*
X021314Y031259D01*
X021314Y031192D01*
X021348Y031159D01*
X021348Y031071D02*
X021314Y031038D01*
X021314Y030971D01*
X021348Y030938D01*
X021348Y031071D02*
X021381Y031071D01*
X021514Y030938D01*
X021514Y031071D01*
X021514Y031159D02*
X021381Y031292D01*
X021348Y031292D01*
X021514Y031292D02*
X021514Y031159D01*
X021652Y034786D02*
X021652Y034986D01*
X021753Y034986D01*
X021786Y034952D01*
X021786Y034886D01*
X021753Y034852D01*
X021652Y034852D01*
X021719Y034852D02*
X021786Y034786D01*
X021873Y034786D02*
X022007Y034786D01*
X022094Y034786D02*
X022195Y034786D01*
X022228Y034819D01*
X022228Y034952D01*
X022195Y034986D01*
X022094Y034986D01*
X022094Y034786D01*
X021940Y034886D02*
X021873Y034886D01*
X021873Y034986D02*
X021873Y034786D01*
X021873Y034986D02*
X022007Y034986D01*
X021230Y034986D02*
X021230Y034786D01*
X021096Y034986D01*
X021096Y034786D01*
X021009Y034786D02*
X020942Y034852D01*
X020976Y034852D02*
X020875Y034852D01*
X020875Y034786D02*
X020875Y034986D01*
X020976Y034986D01*
X021009Y034952D01*
X021009Y034886D01*
X020976Y034852D01*
X020788Y034819D02*
X020788Y034886D01*
X020721Y034886D01*
X020654Y034952D02*
X020654Y034819D01*
X020688Y034786D01*
X020755Y034786D01*
X020788Y034819D01*
X020788Y034952D02*
X020755Y034986D01*
X020688Y034986D01*
X020654Y034952D01*
D13*
X009061Y007439D02*
X005521Y007439D01*
X005521Y008809D01*
X009051Y008809D01*
X009061Y007439D02*
X009061Y010499D01*
X009061Y012624D02*
X009061Y012749D01*
X008186Y012749D01*
X006061Y012749D02*
X005521Y012749D01*
X005521Y008809D01*
X016901Y009383D02*
X017027Y009383D01*
X016964Y009446D02*
X016964Y009320D01*
X017695Y008879D02*
X017695Y009829D01*
X017690Y013015D02*
X017690Y013965D01*
X017022Y013519D02*
X016896Y013519D01*
X016959Y013582D02*
X016959Y013456D01*
X019226Y017054D02*
X019407Y017054D01*
X019317Y017054D02*
X019317Y017324D01*
X019226Y017234D01*
X019521Y017279D02*
X019566Y017324D01*
X019656Y017324D01*
X019701Y017279D01*
X019521Y017099D01*
X019566Y017054D01*
X019656Y017054D01*
X019701Y017099D01*
X019701Y017279D01*
X019816Y017234D02*
X019951Y017234D01*
X019996Y017189D01*
X019996Y017054D01*
X020110Y017054D02*
X020110Y017324D01*
X020291Y017324D01*
X020200Y017189D02*
X020110Y017189D01*
X019816Y017234D02*
X019816Y017054D01*
X019521Y017099D02*
X019521Y017279D01*
X019246Y018543D02*
X025545Y018543D01*
X025545Y024842D01*
X019246Y024842D01*
X019246Y018543D01*
X024729Y014783D02*
X029926Y014783D01*
X029926Y009271D01*
X024729Y009271D01*
X024729Y014783D01*
X026579Y012125D02*
X026581Y012180D01*
X026587Y012234D01*
X026597Y012288D01*
X026611Y012340D01*
X026628Y012392D01*
X026650Y012442D01*
X026675Y012491D01*
X026703Y012538D01*
X026735Y012582D01*
X026770Y012624D01*
X026808Y012663D01*
X026849Y012700D01*
X026892Y012733D01*
X026937Y012763D01*
X026985Y012790D01*
X027034Y012813D01*
X027085Y012833D01*
X027138Y012849D01*
X027191Y012861D01*
X027245Y012869D01*
X027300Y012873D01*
X027354Y012873D01*
X027409Y012869D01*
X027463Y012861D01*
X027516Y012849D01*
X027569Y012833D01*
X027620Y012813D01*
X027669Y012790D01*
X027717Y012763D01*
X027762Y012733D01*
X027805Y012700D01*
X027846Y012663D01*
X027884Y012624D01*
X027919Y012582D01*
X027951Y012538D01*
X027979Y012491D01*
X028004Y012442D01*
X028026Y012392D01*
X028043Y012340D01*
X028057Y012288D01*
X028067Y012234D01*
X028073Y012180D01*
X028075Y012125D01*
X028073Y012070D01*
X028067Y012016D01*
X028057Y011962D01*
X028043Y011910D01*
X028026Y011858D01*
X028004Y011808D01*
X027979Y011759D01*
X027951Y011712D01*
X027919Y011668D01*
X027884Y011626D01*
X027846Y011587D01*
X027805Y011550D01*
X027762Y011517D01*
X027717Y011487D01*
X027669Y011460D01*
X027620Y011437D01*
X027569Y011417D01*
X027516Y011401D01*
X027463Y011389D01*
X027409Y011381D01*
X027354Y011377D01*
X027300Y011377D01*
X027245Y011381D01*
X027191Y011389D01*
X027138Y011401D01*
X027085Y011417D01*
X027034Y011437D01*
X026985Y011460D01*
X026937Y011487D01*
X026892Y011517D01*
X026849Y011550D01*
X026808Y011587D01*
X026770Y011626D01*
X026735Y011668D01*
X026703Y011712D01*
X026675Y011759D01*
X026650Y011808D01*
X026628Y011858D01*
X026611Y011910D01*
X026597Y011962D01*
X026587Y012016D01*
X026581Y012070D01*
X026579Y012125D01*
X026146Y012125D02*
X026148Y012194D01*
X026154Y012262D01*
X026164Y012330D01*
X026178Y012397D01*
X026196Y012464D01*
X026217Y012529D01*
X026243Y012593D01*
X026272Y012655D01*
X026304Y012715D01*
X026340Y012774D01*
X026380Y012830D01*
X026422Y012884D01*
X026468Y012935D01*
X026517Y012984D01*
X026568Y013030D01*
X026622Y013072D01*
X026678Y013112D01*
X026736Y013148D01*
X026797Y013180D01*
X026859Y013209D01*
X026923Y013235D01*
X026988Y013256D01*
X027055Y013274D01*
X027122Y013288D01*
X027190Y013298D01*
X027258Y013304D01*
X027327Y013306D01*
X027396Y013304D01*
X027464Y013298D01*
X027532Y013288D01*
X027599Y013274D01*
X027666Y013256D01*
X027731Y013235D01*
X027795Y013209D01*
X027857Y013180D01*
X027917Y013148D01*
X027976Y013112D01*
X028032Y013072D01*
X028086Y013030D01*
X028137Y012984D01*
X028186Y012935D01*
X028232Y012884D01*
X028274Y012830D01*
X028314Y012774D01*
X028350Y012715D01*
X028382Y012655D01*
X028411Y012593D01*
X028437Y012529D01*
X028458Y012464D01*
X028476Y012397D01*
X028490Y012330D01*
X028500Y012262D01*
X028506Y012194D01*
X028508Y012125D01*
X028506Y012056D01*
X028500Y011988D01*
X028490Y011920D01*
X028476Y011853D01*
X028458Y011786D01*
X028437Y011721D01*
X028411Y011657D01*
X028382Y011595D01*
X028350Y011534D01*
X028314Y011476D01*
X028274Y011420D01*
X028232Y011366D01*
X028186Y011315D01*
X028137Y011266D01*
X028086Y011220D01*
X028032Y011178D01*
X027976Y011138D01*
X027918Y011102D01*
X027857Y011070D01*
X027795Y011041D01*
X027731Y011015D01*
X027666Y010994D01*
X027599Y010976D01*
X027532Y010962D01*
X027464Y010952D01*
X027396Y010946D01*
X027327Y010944D01*
X027258Y010946D01*
X027190Y010952D01*
X027122Y010962D01*
X027055Y010976D01*
X026988Y010994D01*
X026923Y011015D01*
X026859Y011041D01*
X026797Y011070D01*
X026736Y011102D01*
X026678Y011138D01*
X026622Y011178D01*
X026568Y011220D01*
X026517Y011266D01*
X026468Y011315D01*
X026422Y011366D01*
X026380Y011420D01*
X026340Y011476D01*
X026304Y011534D01*
X026272Y011595D01*
X026243Y011657D01*
X026217Y011721D01*
X026196Y011786D01*
X026178Y011853D01*
X026164Y011920D01*
X026154Y011988D01*
X026148Y012056D01*
X026146Y012125D01*
D14*
X006555Y022656D02*
X006384Y022656D01*
X006469Y022656D02*
X006469Y023166D01*
X006384Y023166D02*
X006555Y023166D01*
X006172Y023081D02*
X006172Y022911D01*
X006087Y022826D01*
X005832Y022826D01*
X005832Y022656D02*
X005832Y023166D01*
X006087Y023166D01*
X006172Y023081D01*
X005620Y023081D02*
X005535Y023166D01*
X005365Y023166D01*
X005279Y023081D01*
X005279Y022996D01*
X005365Y022911D01*
X005535Y022911D01*
X005620Y022826D01*
X005620Y022741D01*
X005535Y022656D01*
X005365Y022656D01*
X005279Y022741D01*
D15*
X020602Y010058D02*
X020602Y009816D01*
X020651Y009768D01*
X020748Y009768D01*
X020796Y009816D01*
X020796Y010058D01*
X020897Y010009D02*
X020897Y009961D01*
X020945Y009913D01*
X021042Y009913D01*
X021091Y009864D01*
X021091Y009816D01*
X021042Y009768D01*
X020945Y009768D01*
X020897Y009816D01*
X020897Y010009D02*
X020945Y010058D01*
X021042Y010058D01*
X021091Y010009D01*
X021192Y010058D02*
X021337Y010058D01*
X021385Y010009D01*
X021385Y009961D01*
X021337Y009913D01*
X021192Y009913D01*
X021192Y009768D02*
X021192Y010058D01*
X021337Y009913D02*
X021385Y009864D01*
X021385Y009816D01*
X021337Y009768D01*
X021192Y009768D01*
X021486Y009816D02*
X021535Y009768D01*
X021632Y009768D01*
X021680Y009816D01*
X021680Y009864D01*
X021632Y009913D01*
X021535Y009913D01*
X021486Y009961D01*
X021486Y010009D01*
X021535Y010058D01*
X021632Y010058D01*
X021680Y010009D01*
X021781Y010058D02*
X021878Y009961D01*
X021975Y010058D01*
X021975Y009768D01*
X022076Y009768D02*
X022221Y009768D01*
X022269Y009816D01*
X022269Y010009D01*
X022221Y010058D01*
X022076Y010058D01*
X022076Y009768D01*
X021781Y009768D02*
X021781Y010058D01*
D16*
X020194Y014135D02*
X020194Y016310D01*
X024161Y016310D01*
X024161Y014135D01*
X020194Y014135D01*
D17*
X023337Y026383D02*
X022637Y027073D01*
X023267Y028003D01*
X022877Y028983D02*
X021757Y029193D01*
X021757Y030173D01*
X022907Y030393D01*
X023297Y031323D02*
X022637Y032293D01*
X023337Y032983D01*
X024317Y032313D01*
X025237Y032693D02*
X025447Y033863D01*
X026437Y033863D01*
X026647Y032683D01*
X027567Y032313D02*
X028547Y032983D01*
X029237Y032293D01*
X028577Y031313D01*
X028977Y030383D02*
X030117Y030173D01*
X030107Y029193D01*
X028997Y028983D01*
X028617Y028003D02*
X029237Y027073D01*
X028547Y026383D01*
X027647Y027003D01*
X027257Y026773D01*
X026547Y028493D01*
X025337Y028493D02*
X024627Y026773D01*
X024237Y026993D01*
X023337Y026383D01*
X028617Y028002D02*
X028692Y028133D01*
X028759Y028268D01*
X028821Y028406D01*
X028875Y028547D01*
X028923Y028690D01*
X028964Y028835D01*
X028997Y028982D01*
X025238Y032693D02*
X025099Y032657D01*
X024963Y032614D01*
X024829Y032566D01*
X024697Y032511D01*
X024567Y032451D01*
X024441Y032385D01*
X024318Y032313D01*
X023297Y031323D02*
X023223Y031198D01*
X023155Y031071D01*
X023092Y030940D01*
X023037Y030806D01*
X022987Y030671D01*
X022944Y030532D01*
X022907Y030393D01*
X022877Y028983D02*
X022912Y028836D01*
X022954Y028690D01*
X023003Y028547D01*
X023059Y028406D01*
X023122Y028269D01*
X023192Y028134D01*
X023267Y028003D01*
X028977Y030383D02*
X028939Y030523D01*
X028894Y030661D01*
X028843Y030797D01*
X028785Y030930D01*
X028722Y031061D01*
X028652Y031188D01*
X028577Y031313D01*
X027567Y032313D02*
X027444Y032383D01*
X027317Y032448D01*
X027188Y032507D01*
X027056Y032560D01*
X026921Y032607D01*
X026785Y032648D01*
X026647Y032683D01*
X026547Y028493D02*
X026609Y028528D01*
X026669Y028566D01*
X026727Y028608D01*
X026783Y028653D01*
X026835Y028701D01*
X026886Y028752D01*
X026933Y028805D01*
X026977Y028861D01*
X027018Y028920D01*
X027056Y028980D01*
X027090Y029043D01*
X027121Y029107D01*
X027148Y029173D01*
X027172Y029241D01*
X027192Y029309D01*
X027208Y029379D01*
X027220Y029449D01*
X027228Y029520D01*
X027232Y029591D01*
X027233Y029662D01*
X027229Y029734D01*
X027222Y029805D01*
X027210Y029875D01*
X027195Y029945D01*
X027176Y030014D01*
X027153Y030081D01*
X027126Y030147D01*
X027096Y030212D01*
X027062Y030275D01*
X027025Y030336D01*
X026984Y030395D01*
X026941Y030451D01*
X026894Y030505D01*
X026844Y030556D01*
X026792Y030605D01*
X026737Y030650D01*
X026680Y030693D01*
X026620Y030732D01*
X026558Y030767D01*
X026495Y030800D01*
X026429Y030829D01*
X026362Y030854D01*
X026294Y030875D01*
X026225Y030893D01*
X026155Y030906D01*
X026084Y030916D01*
X026013Y030922D01*
X025942Y030924D01*
X025871Y030922D01*
X025800Y030916D01*
X025729Y030906D01*
X025659Y030893D01*
X025590Y030875D01*
X025522Y030854D01*
X025455Y030829D01*
X025389Y030800D01*
X025326Y030767D01*
X025264Y030732D01*
X025204Y030693D01*
X025147Y030650D01*
X025092Y030605D01*
X025040Y030556D01*
X024990Y030505D01*
X024943Y030451D01*
X024900Y030395D01*
X024859Y030336D01*
X024822Y030275D01*
X024788Y030212D01*
X024758Y030147D01*
X024731Y030081D01*
X024708Y030014D01*
X024689Y029945D01*
X024674Y029875D01*
X024662Y029805D01*
X024655Y029734D01*
X024651Y029662D01*
X024652Y029591D01*
X024656Y029520D01*
X024664Y029449D01*
X024676Y029379D01*
X024692Y029309D01*
X024712Y029241D01*
X024736Y029173D01*
X024763Y029107D01*
X024794Y029043D01*
X024828Y028980D01*
X024866Y028920D01*
X024907Y028861D01*
X024951Y028805D01*
X024998Y028752D01*
X025049Y028701D01*
X025101Y028653D01*
X025157Y028608D01*
X025215Y028566D01*
X025275Y028528D01*
X025337Y028493D01*
D18*
X017017Y012445D03*
X017017Y011445D03*
X017017Y010445D03*
M02*
